<?xml version="1.0" encoding="UTF-8"?>
<svg id="Layer_2" data-name="Layer 2" xmlns="http://www.w3.org/2000/svg" viewBox="0 0 473.79 367.91">
  <defs>
    <style>
      .cls-1 {
        fill: #f4b199;
      }

      .cls-2 {
        fill: #efeae8;
      }

      .cls-3 {
        fill: #e2c08f;
      }

      .cls-4 {
        fill: #5e5254;
      }

      .cls-5 {
        fill: #86a09c;
      }

      .cls-6 {
        fill: #706466;
      }

      .cls-7 {
        fill: #e3d1cf;
      }

      .cls-8 {
        fill: #efd5a8;
      }

      .cls-9 {
        fill: #efecf3;
      }

      .cls-10 {
        fill: #cfbbb8;
      }

      .cls-11 {
        fill: #f0edf4;
      }

      .cls-12 {
        fill: #a64e4e;
      }

      .cls-13 {
        fill: #ba5a5a;
      }

      .cls-14 {
        fill: #bfb3b2;
      }

      .cls-15 {
        fill: #e29b86;
      }

      .cls-16 {
        fill: #efac94;
      }

      .cls-17 {
        fill: #d3e2dc;
      }

      .cls-18 {
        fill: #d3837c;
      }

      .cls-19 {
        fill: #cf807b;
      }

      .cls-20 {
        fill: #d0807c;
      }

      .cls-21 {
        fill: #e59e89;
      }

      .cls-22 {
        fill: #f4e7e4;
      }

      .cls-23 {
        fill: #b2c6bf;
      }

      .cls-24 {
        fill: #ffcaca;
      }

      .cls-25 {
        fill: #514b4c;
      }

      .cls-26 {
        fill: #d2827b;
      }

      .cls-27 {
        fill: #e6b691;
      }

      .cls-28 {
        fill: #f1ae96;
      }
    </style>
  </defs>
  <g id="_2" data-name="2">
    <g>
      <g>
        <path class="cls-23" d="m43.38,231.38c.67-20.67-20.67-56.67-19.33-84,1.33-27.33,14.67-59.33,69.33-60,54.67-.67,73.33,14.67,140.67,11.33,67.33-3.33,139.53-29.79,181.33-3.33,52.67,33.33,10,94.67,10.67,132-127.26,16.49-254.82,17.75-382.67,4Z"/>
        <path class="cls-5" d="m26.88,170.25c5.52,22.3,16.99,45.89,16.5,61.13,127.85,13.75,255.41,12.49,382.67-4-.28-15.96,7.35-36.31,12.07-56.98-142.74,50.82-279.68,49.59-411.24-.15Z"/>
        <g>
          <path class="cls-5" d="m309.83,89.45c-24.77,4.18-50.6,8.99-75.76,10.36-34.3,1.88-57.16-2.28-77.52-6.01,4.84,15.61,22.81,54.49,76.1,53.34,54.01-1.17,72.17-41.92,77.18-57.69Z"/>
          <path class="cls-8" d="m306.83,89.7c-23.8,3.64-48.61,7.82-72.79,9.02-32.95,1.63-54.25-1.21-73.81-4.46,4.65,13.58,21.25,46.63,72.45,45.63,51.89-1.02,69.33-36.47,74.15-50.19Z"/>
          <path class="cls-27" d="m234.05,98.72c-23.09,1.14-40.46.09-55.52-1.76,5.74,11.05,20.17,28.21,54.34,27.6,36.1-.65,50.84-20.8,56.29-32.13-18.26,2.79-36.86,5.39-55.11,6.29Z"/>
          <path class="cls-27" d="m283.33,119.15c-.23,0-.46-.09-.62-.28-.3-.34-.27-.86.07-1.16,4-3.53,7.56-7.61,10.58-12.11.25-.38.76-.48,1.14-.23.38.25.48.77.23,1.14-3.1,4.62-6.75,8.81-10.86,12.43-.16.14-.35.21-.54.21Z"/>
          <path class="cls-27" d="m230.73,137.14c-3.95,0-6.36-.26-6.44-.27-.45-.05-.78-.46-.72-.91.05-.45.46-.77.91-.72.29.04,28.93,3.13,52.18-12.76.38-.26.89-.16,1.15.22.26.38.16.89-.22,1.15-17.03,11.64-36.86,13.31-46.85,13.31Z"/>
          <path class="cls-27" d="m202.38,123.21c-.09,0-.17-.01-.26-.04-15.1-5.03-24.38-19.07-24.76-19.66-.25-.38-.14-.89.24-1.14.38-.25.89-.14,1.14.24.09.14,9.36,14.15,23.9,19,.43.14.67.61.52,1.04-.12.35-.44.56-.78.56Z"/>
        </g>
        <polygon class="cls-6" points="34.23 365.55 25.87 365.55 37.05 265.05 50.05 265.05 34.23 365.55"/>
        <g>
          <path class="cls-8" d="m374.71,137.38s16.67,5.33,36.67,6c20,.67,37.33-6,41.33-2s-2,18.67-4.67,43.33c-2.67,24.67,4,32-2.67,43.33-6.67,11.33-76.67,4.67-83.33-2-6.67-6.67.67-24,6-43.33,5.33-19.33-4-42,6.67-45.33Z"/>
          <path class="cls-27" d="m448.05,184.72c2.67-24.67,8.67-39.33,4.67-43.33-1.55-1.55-5.11-1.5-10.04-.89.26.14.49.3.68.49,3.6,3.6-1.8,16.79-4.2,38.98-2.4,22.19,3.4,25.39-2.6,35.58-6,10.2-68.77,7.6-74.77,1.6-1.01-1.01-1.65-2.29-2.02-3.8-.81,5.59-.4,10.01,2.28,12.7,6.67,6.67,76.67,13.33,83.33,2,6.67-11.33,0-18.67,2.67-43.33Z"/>
          <g>
            <path class="cls-27" d="m435.5,204.85c-.41,0-.76-.3-.82-.71-1.85-13.48-.86-27.53,2.88-40.61.13-.44.58-.69,1.02-.57.44.12.69.58.57,1.02-3.67,12.87-4.65,26.68-2.83,39.94.06.45-.25.87-.7.93-.04,0-.08,0-.11,0Z"/>
            <path class="cls-27" d="m430.53,197.88c-.39,0-.74-.28-.81-.69-.64-3.72-.71-7.5-.23-11.25.06-.45.47-.77.92-.71.45.06.77.47.71.92-.47,3.58-.4,7.2.22,10.76.08.45-.22.87-.67.95-.05,0-.09.01-.14.01Z"/>
          </g>
        </g>
        <g>
          <path class="cls-13" d="m11.38,158.72c-3.3,6.13,10.67,25.33,16.67,40.67,6,15.33,8,28.67,10,34,2,5.33,73.33,3.33,79.33-4,6-7.33-1.33-31.67-9.33-50.67s-13.33-35.33-19.33-39.33-21.33,4.67-34,8.67c-12.67,4-38.67,2-43.33,10.67Z"/>
          <path class="cls-12" d="m117.57,221.57c-2.45,2.99-17.17,1.11-32.52,1.15-19.08.05-39.32,1.37-40.33-1.33-1.83-4.88-3.32-13.22-8.81-27.24-5.48-14.02-18.25-31.57-15.24-37.17,1.56-2.9,5.75-4.5,11-5.53-9.32,1.08-17.81,2.68-20.29,7.28-3.3,6.13,10.67,25.33,16.67,40.67,6,15.33,8,28.67,10,34,2,5.33,73.33,3.33,79.33-4,2.05-2.5,2.54-6.98,1.99-12.55-.28,1.96-.86,3.58-1.8,4.73Z"/>
          <g>
            <path class="cls-12" d="m45.96,211.3c-.38,0-.71-.26-.8-.64-2.63-11.49-6.98-22.48-12.94-32.65-.23-.39-.1-.9.29-1.13.39-.23.9-.1,1.13.29,6.04,10.32,10.46,21.46,13.12,33.12.1.44-.18.89-.62.99-.06.01-.12.02-.19.02Z"/>
            <path class="cls-12" d="m48.19,202.28c-.38,0-.71-.26-.8-.64-1.03-4.41-2.66-8.65-4.87-12.61-.22-.4-.08-.9.32-1.12.4-.22.9-.08,1.12.32,2.28,4.09,3.97,8.48,5.03,13.04.1.44-.17.89-.62.99-.06.01-.13.02-.19.02Z"/>
          </g>
        </g>
        <polygon class="cls-4" points="78.73 365.55 70.37 365.55 81.55 265.05 94.55 265.05 78.73 365.55"/>
        <polygon class="cls-6" points="441.28 365.55 449.64 365.55 438.46 265.05 425.46 265.05 441.28 365.55"/>
        <polygon class="cls-4" points="396.78 365.55 405.14 365.55 393.96 265.05 380.96 265.05 396.78 365.55"/>
        <path class="cls-23" d="m.71,240.72c4.59-17.54,133.33-10,229.33-10.67,94.7-.66,231.38-12.42,241.33,5.33,15.33,27.33-40,44.67-242,43.33-188.66-1.25-236-10-228.67-38Z"/>
        <path class="cls-5" d="m471.38,235.38c-.13-.23-.3-.46-.47-.68,4.15,23.65-56.4,38.27-241.45,37.05C51.66,270.58.81,262.66,2.72,237.94c-1.05.85-1.74,1.77-2,2.77-7.33,28,40,36.75,228.67,38,202,1.33,257.33-16,242-43.33Z"/>
        <g>
          <path class="cls-17" d="m61.55,237.55c-.81,0-1.48-.65-1.5-1.46-.02-.83.64-1.52,1.46-1.54,4.38-.11,6.22-.08,10.66-.02l1.4.02c.83.01,1.49.69,1.48,1.52-.01.83-.7,1.45-1.52,1.48l-1.4-.02c-4.53-.06-6.22-.08-10.54.02-.01,0-.02,0-.04,0Z"/>
          <path class="cls-17" d="m16.04,241.55c-.73,0-1.38-.54-1.48-1.29-.12-.82.45-1.58,1.27-1.7.14-.02,13.8-1.95,34.64-3.01.84-.05,1.53.59,1.57,1.42.04.83-.59,1.53-1.42,1.57-20.7,1.06-34.23,2.97-34.36,2.99-.07.01-.14.02-.21.02Z"/>
          <path class="cls-17" d="m464.05,238.05c-.2,0-.4-.04-.6-.13-7.62-3.34-20.77-3.37-20.9-3.37-.83,0-1.5-.67-1.5-1.5s.67-1.5,1.5-1.5c.56,0,13.91.04,22.1,3.63.76.33,1.1,1.22.77,1.98-.25.56-.8.9-1.38.9Z"/>
        </g>
      </g>
      <g>
        <path class="cls-15" d="m298.06,158.95c.26-11.63,2.17-19.82,6.42-36.06,4.26-16.25,16.04-37.32,29.97-38.84l1.84,29.45s-9.37,18.7-11.12,28.94c-1.75,10.23-3.93,21.11-3.93,21.11l-23.18-4.59Z"/>
        <path class="cls-4" d="m289.23,348.75s.1,13.26-1.64,16.12c-1.74,2.86-8.38,2.55-20.35,2.76-8.18.15-21.68,1.36-21.68-3.03s16.24-7.16,23.91-12.68l19.76-3.17Z"/>
        <path class="cls-1" d="m271.23,350.08c2.25-4.09-.61-55.84-.61-68.11h29.05s-2.05,17.18-6.75,39.48c-4.7,22.3-3.1,24-4.5,29.45-2.05,7.98-19.43,12.37-27.41,8.69-5.41-2.5,7.98-5.42,10.23-9.51Z"/>
        <path class="cls-4" d="m289.23,348.75s-8.18,2.25-17.9-.21l.21-5.21s12.17,2.35,18.1.51l-.41,4.91Z"/>
        <path class="cls-4" d="m329.36,348.75s1.22,13.26-.27,16.12-8.16,2.55-20.11,2.76c-8.17.15-21.56,1.36-21.94-3.03-.37-4.4,15.63-7.16,22.83-12.68l19.49-3.17Z"/>
        <path class="cls-1" d="m311.47,350.08c1.9-4.09-5.25-55.84-6.29-68.11h29.05s-.59,17.18-3.4,39.48c-2.81,22.3-1.17,24-2.1,29.45-1.37,7.98-18.38,12.37-26.67,8.69-5.62-2.5,7.52-5.42,9.42-9.51Z"/>
        <path class="cls-4" d="m329.36,348.75s-7.99,2.25-17.92-.21l-.23-5.21s12.37,2.35,18.15.51v4.91Z"/>
        <path class="cls-13" d="m397.99,163.8s4.39,19.74,1.32,39.22c-3.07,19.48-16.1,24.9-26.22,27.2-10.12,2.3-22.24,2.76-22.24,2.76,0,0,2.45,16.26,3.53,29.02,1.07,12.77,1.53,24.34,1.53,24.34,0,0-18.64,10.12-54.69,8.6s-49.48-10.86-49.48-10.86c0,0,6.44-32.23,9.97-49.41,3.53-17.18,4.28-34.62,15.65-45.1,19.9-18.35,44.55-17.83,49.29-28.28l71.33,2.51Z"/>
        <path class="cls-12" d="m296.8,213.59s-.06,0-.09,0c-.41-.05-.71-.42-.66-.83,2.49-21.18,14.82-23.47,15.35-23.56.41-.07.8.21.86.62.07.41-.21.79-.61.86-.49.08-11.76,2.27-14.11,22.26-.04.38-.37.66-.74.66Z"/>
        <path class="cls-22" d="m330.86,83.02c-14.58,6.86-22.07,13.46-30.79,47.99,0,0,11.5,10.36,29.13,9.9l1.67-57.89Z"/>
        <path class="cls-15" d="m384.12,79.73s-4.92,25.72-29.21,25.18c-29.16-.66-16.47-24.07-16.47-24.07,11.27-4.32,27.77-5.11,45.69-1.1Z"/>
        <path class="cls-22" d="m380.71,78.38c4.82.88,9.72,3,14.39,4.65,0,0-1.03,26.58-1.39,40.08-.35,13.5,1.04,32.93,1.04,32.93,0,0-21.94,7.77-36.67,7.77s-30.59-6.14-30.59-6.14c0,0,1.9-7.12-1.15-16.94-3.05-9.82-2.74-15.17-3.27-21.31-.53-6.14,7.79-36.41,7.79-36.41l9.94-3.29s-2.76,16.75,14.71,16.75c23.86,0,25.21-18.11,25.21-18.11Z"/>
        <path class="cls-10" d="m327.47,154.8c-.08,0-.16-.01-.23-.04-.39-.13-.61-.55-.48-.95,1.29-3.9-.12-8.57-1.47-13.09-.83-2.76-1.68-5.62-1.9-8.25-.54-6.75.87-11.45,2.12-15.61.87-2.91,1.7-5.65,1.7-8.69,0-.41.34-.75.75-.75.43-.05.75.34.75.75,0,3.26-.86,6.11-1.77,9.12-1.21,4.02-2.58,8.59-2.06,15.05.2,2.47.99,5.12,1.84,7.93,1.42,4.74,2.89,9.64,1.46,13.99-.1.32-.4.52-.71.52Z"/>
        <path class="cls-12" d="m400.09,150.65s-15.14,9.41-44.8,7.77c-21.95-1.21-27.82-6.55-27.82-6.55l-.82,9.41s5.93,6,30.07,7.16c33.95,1.64,43.98-7.57,43.98-7.57l-.61-10.23Z"/>
        <path class="cls-12" d="m351.26,233.53c-.41,0-.74-.33-.75-.73,0-.41.32-.76.73-.77.12,0,11.75-.28,21.69-2.54,9.55-2.17,22.61-7.29,25.65-26.59,3.01-19.12-1.27-38.75-1.31-38.94-.09-.4.17-.8.57-.89.4-.09.8.16.89.57.04.2,4.38,20.1,1.33,39.5-3.18,20.2-16.82,25.55-26.8,27.82-10.08,2.29-21.87,2.57-21.98,2.58h-.02Z"/>
        <path class="cls-12" d="m350.76,234.03s-.07,0-.1,0c-.35-.05-.62-.33-.65-.68-.01-.12-1.05-11.63-2.7-19.64-.08-.41.18-.8.58-.89.4-.08.8.18.89.58,1.04,5.07,1.84,11.52,2.3,15.66.46-2.41.83-5.68.47-9.18-.04-.41.26-.78.67-.82.41-.04.78.26.82.67.76,7.34-1.49,13.55-1.58,13.81-.11.3-.39.49-.7.49Z"/>
        <path class="cls-10" d="m356.63,147.28c-.11,0-.23-.02-.33-.08-.44-.22-10.8-5.43-16.87-15.63-.21-.36-.09-.82.26-1.03.35-.21.82-.1,1.03.26,5.84,9.82,16.14,15,16.24,15.05.37.18.52.63.34,1-.13.26-.4.42-.67.42Z"/>
        <path class="cls-10" d="m350.5,147.89c-.07,0-.14,0-.21-.03-.19-.05-4.61-1.37-9.43-7.63-.25-.33-.19-.8.14-1.05.33-.25.8-.19,1.05.14,4.52,5.87,8.61,7.09,8.65,7.1.4.11.63.53.52.93-.09.33-.39.54-.72.54Z"/>
        <path class="cls-10" d="m325.42,119.84c-.24,0-.48-.15-.57-.39-1.02-2.58-.4-9.5-.38-9.79.03-.34.33-.6.67-.56.34.03.59.33.56.67-.18,1.92-.46,7.31.3,9.23.12.31-.03.67-.34.8-.07.03-.15.04-.23.04Z"/>
        <path class="cls-10" d="m357.54,102.01c-2.31,0-4.28-.22-5.92-.4-.41-.05-.71-.42-.66-.83.05-.41.42-.71.83-.66,4.17.46,9.88,1.09,17.73-1.8,7.62-2.8,11.31-10.29,11.34-10.36.18-.37.63-.53,1-.35.37.18.53.63.35,1-.16.33-3.98,8.1-12.18,11.12-4.89,1.8-9.06,2.28-12.49,2.28Z"/>
        <path class="cls-10" d="m342.44,98.07c-.17,0-.35-.06-.49-.18-.28-.24-6.75-5.96-5.52-14.2.06-.41.44-.69.85-.63.41.06.69.44.63.85-1.11,7.41,4.95,12.79,5.01,12.84.31.27.35.75.07,1.06-.15.17-.36.26-.57.26Z"/>
        <path class="cls-22" d="m388.14,25.4c4.63,1.32,4.4,8.67,4.4,8.67,0,0,5.25-.98,5.55,8.88.31,9.87-8.32,19.2-19.69,18.33-8.53-.65-10.29-8.34-10.29-8.34l20.02-27.55Z"/>
        <path class="cls-22" d="m372.8,58.31s9.44,2.19,14.06-10.9,2.07-25.44-1.38-32.87c-5.36-11.53-20.17-18.8-34.63-11.79,0,0-7.21-2.84-14.2,5.14-6.2,7.08-7.52,16.1-6.32,23.15,1.2,7.05,2.51,12.93-.65,15.74-3.16,2.81-4.54.62-4.54.62,0,0,1.8,4,6.47,2.44,4.67-1.55,41.19,8.46,41.19,8.46Z"/>
        <path class="cls-15" d="m359.08,83.53c-8.04-.46-13.38-4.14-13.38-4.14,3.57-7.95,1.52-16.28,1.52-16.28l20.62-16.05,9.24.69c-2.25,14.89-.41,28.07,1.12,31.98,0,0-10.61,4.28-19.12,3.8Z"/>
        <path class="cls-19" d="m377.08,47.75l-9.24-.69-20.62,16.05s1.91,7.81-1.21,15.53c-.45.09-.88.2-1.32.3.47,1.59,2.54,5.61,11.36,5.61s15.83-4.93,20.78-10.89c-.9-6.16-1.31-15.62.25-25.92Z"/>
        <path class="cls-1" d="m347.33,72.42c2.64.64,16.57,2.64,24.2-12.72,4.08-8.2,6.44-21.83,5.45-28.18-.99-6.35-6.81-26.41-26.64-21.46,0,0-15.51,4.17-16.17,29.4,0,0-1.54,4.48-.75,9.7,3.3,21.77,11.3,22.63,13.9,23.26Z"/>
        <path class="cls-22" d="m345.75,7.76c-2.89,13.03,19.13,7.15,25.24,27.09.64,3.7-.19,8.24,4.55,9.21l5.77-5.75s3.62-13.07-3.97-25.25c-7.58-12.16-27.65-14.98-31.6-5.3Z"/>
        <g>
          <path class="cls-22" d="m344.29,32.88c-.51,1.14-2.31-.22-6.25.6-1.25.26-3.19.93-3.56.31-.4-.66.25-2.73,3.83-3.26,4.41-.65,6.65.85,5.98,2.36Z"/>
          <path class="cls-22" d="m353.04,33.3c.16,1.52,2.75.75,6.79,1.96,4.21,1.26,4.15,2,4.99,1.34.43-.34.34-2.8-5.02-4.57-4.77-1.58-6.92-.26-6.76,1.27Z"/>
        </g>
        <g>
          <path class="cls-26" d="m355.57,63.37c.17.65-.58,2.12-2.47,2.58-1.96.48-3.61-.41-3.78-1.05s1.35-.35,3.08-.77c1.73-.42,3-1.41,3.17-.76Z"/>
          <g>
            <path class="cls-4" d="m358.34,55.71s-3.81,1.12-7.96,1.74c-3.92.59-7.26.23-7.26.23,0,0,1.4,5.33,8.51,4.16,5.38-.88,6.71-6.13,6.71-6.13Z"/>
            <path class="cls-11" d="m351.56,60.69c-4.11.67-5.26-1.66-5.26-1.66,0,0,2.34-.05,5.26-.6,3.71-.7,4.86-1.09,4.86-1.09,0,0-.85,2.69-4.86,3.35Z"/>
          </g>
        </g>
        <path class="cls-18" d="m347.5,34.14s.05.08.14.23c.08.13.25.46.36.77.25.66.47,1.62.55,2.77.08,1.15.02,2.5-.3,3.91-.16.7-.37,1.42-.67,2.13-.31.74-.76,1.42-1.24,2.04-.96,1.23-2.22,2.21-2.68,3.12-.07.11-.09.23-.13.33-.03.05-.02.11-.03.17l-.02.08v.04s-.01.02-.01.02c0,.1,0-.13,0-.11h0s0,.02,0,.02c0,.15,0,.37.02.45.05.04,0,.05.07.13.15.31.52.64.92.87.82.5,1.68.75,2.26.94.3.08.53.15.69.19.15.04.24.06.24.06h.04c.3.09.47.39.4.69-.07.26-.31.42-.56.41,0,0-.1,0-.29-.01-.18,0-.45-.04-.78-.08-.67-.09-1.62-.27-2.76-.8-.54-.3-1.21-.7-1.65-1.52-.12-.18-.19-.51-.25-.77-.04-.24-.02-.35-.03-.53v-.14s.01-.04.01-.04l.02-.08.03-.16c.03-.11.04-.22.08-.32.08-.21.15-.43.26-.61.41-.78,1.01-1.33,1.56-1.81.55-.49,1.09-.94,1.57-1.44.48-.5.86-1.05,1.15-1.62.32-.61.49-1.27.66-1.91.31-1.28.39-2.53.34-3.58-.04-1.06-.25-1.91-.47-2.45-.11-.29-.18-.41-.28-.58-.09-.15-.14-.22-.14-.22-.16-.26-.09-.6.17-.77.26-.16.6-.09.77.17,0,0,0,0,0,0Z"/>
        <path class="cls-1" d="m375.35,43.94s3.46-7.22,7.75-3.33c3.73,3.38-1.91,15.63-10.03,11.72.34-3.19.93-6.14,2.28-8.39Z"/>
        <path class="cls-26" d="m380.9,47.73c-1.14,1.83-2.94,2.5-3.7,1.71-.76-.79-.45-2.91.69-4.73,1.14-1.83,2.68-2.67,3.44-1.88.76.79.71,3.08-.43,4.9Z"/>
        <path class="cls-21" d="m361.08,44.25s-4.98.86-7.5-2.21c0,0-.01,2.61,3.09,3.42s4.41-1.2,4.41-1.2Z"/>
        <path class="cls-21" d="m342.8,41.43s-.35,2.32-2.32,2.72c-1.97.4-3.31-.57-3.31-.57,0,0,2.09-.13,3.18-.55,1.73-.68,2.45-1.59,2.45-1.59Z"/>
        <g>
          <path class="cls-21" d="m357.97,26.3s-6.2-1.12-9.79-1.37-7.67.47-7.67.47c0,0,3.27-1.88,8-1.61,4.73.27,9.46,2.5,9.46,2.5Z"/>
          <path class="cls-21" d="m353.9,22.33s-3.07-.54-4.85-.66c-1.78-.12-3.8.22-3.8.22,0,0,1.62-.89,3.96-.76,2.34.13,4.68,1.19,4.68,1.19Z"/>
        </g>
        <g>
          <g>
            <path class="cls-4" d="m336.48,38.02c-.34,1.24.07,2.51.93,2.83.85.32,1.82-.42,2.17-1.66.34-1.24-.07-2.51-.93-2.83-.86-.32-1.82.42-2.17,1.66Z"/>
            <path class="cls-4" d="m342.84,40.41s-.87-1.99-3.57-2.83c-1.9-.59-2.04,1.26-3.77,1.31-.62.02-1.61-.74-1.65-1.79,0,0,.53.8,1.34.33.66-.38,2.23-2.47,4.54-1.81,2.79.8,3.52,3.06,3.12,4.8Z"/>
          </g>
          <g>
            <path class="cls-4" d="m355.04,40.35c-.02-1.37.78-2.68,1.79-2.93,1.01-.25,1.84.65,1.86,2.02.02,1.37-.78,2.68-1.79,2.93-1.01.25-1.84-.65-1.86-2.02Z"/>
            <path class="cls-4" d="m353.98,40.09s1.34-1.45,4.5-.81c2.22.45,2.14,1.74,3.82,2.56.65.32,2,.13,2.56-.91,0,0-.93.52-1.52-.41-.48-.75-1.72-2.73-4.35-3.49-2.67-.77-4.55,1.07-5.01,3.06Z"/>
          </g>
        </g>
        <g>
          <path class="cls-7" d="m374.62,37.06s-.03,0-.04,0c-.33-.02-.58-.3-.56-.63.35-5.56-2.56-11.39-7.26-14.51-.27-.18-.35-.55-.17-.83.18-.28.55-.35.83-.17,5.12,3.39,8.18,9.51,7.79,15.58-.02.32-.28.56-.59.56Z"/>
          <path class="cls-7" d="m377.61,38.37c-.06,0-.13,0-.19-.03-.31-.1-.48-.44-.38-.75.76-2.26.55-4.89-.55-7.03-.15-.29-.03-.65.26-.8.29-.15.65-.04.8.26,1.27,2.46,1.49,5.36.62,7.96-.08.25-.32.41-.57.41Z"/>
          <path class="cls-7" d="m360.46,17.73c-.13,0-.27-.04-.38-.13-1.3-1.07-2.97-1.7-4.57-2.31l-.16-.06c-1.85-.7-3.62-1.44-5.01-2.72-1.67-1.53-2.44-3.69-1.96-5.5.08-.32.41-.51.73-.42.32.08.51.41.42.73-.37,1.39.27,3.08,1.62,4.32,1.24,1.14,2.83,1.8,4.63,2.48l.16.06c1.69.64,3.45,1.31,4.9,2.5.25.21.29.58.08.84-.12.14-.29.22-.46.22Z"/>
          <path class="cls-7" d="m386.24,30.83s-.01,0-.02,0c-.33-.01-.59-.29-.57-.62.3-8.17-3.44-16.57-9.75-21.91-.25-.21-.28-.59-.07-.84.21-.25.59-.28.84-.07,6.58,5.57,10.48,14.33,10.17,22.87-.01.32-.28.58-.6.58Z"/>
          <path class="cls-7" d="m377.67,14.16c-.18,0-.35-.08-.47-.23-2.9-3.63-7.16-6.22-11.7-7.1-.32-.06-.53-.38-.47-.7.06-.32.37-.54.7-.47,4.81.93,9.33,3.68,12.4,7.53.21.26.16.63-.1.84-.11.09-.24.13-.37.13Z"/>
          <path class="cls-7" d="m357.65,3.81c-.27,0-.51-.18-.58-.45-.08-.32.11-.64.43-.73,2.91-.76,6.02-.85,9-.26.32.06.53.38.47.7-.06.32-.38.54-.7.47-2.8-.55-5.73-.46-8.47.25-.05.01-.1.02-.15.02Z"/>
          <path class="cls-7" d="m338.89,9.94c-.12,0-.24-.03-.34-.11-.27-.19-.34-.56-.15-.83,2.08-2.99,5.65-4.78,9.31-4.66.33,0,.59.28.58.61,0,.33-.3.6-.61.58-3.21-.08-6.48,1.54-8.3,4.15-.12.17-.3.26-.49.26Z"/>
          <path class="cls-7" d="m333.19,31.83c-.24,0-.47-.15-.56-.38-2.03-5.35-1.2-11.75,2.11-16.3.19-.27.57-.33.83-.13.27.19.33.57.13.83-3.08,4.24-3.85,10.2-1.96,15.18.12.31-.04.65-.35.77-.07.03-.14.04-.21.04Z"/>
          <path class="cls-7" d="m380.35,58.67c-.93,0-1.89-.1-2.92-.28-.32-.06-.54-.37-.48-.69.06-.32.37-.54.69-.48,3.7.68,6.6.04,9.7-2.13,3.09-2.17,5.21-5.57,5.82-9.32.05-.33.35-.55.68-.49.33.05.55.36.49.68-.65,4.07-2.95,7.76-6.31,10.11-2.53,1.77-4.94,2.61-7.68,2.61Z"/>
          <path class="cls-7" d="m395.78,46.26c-.08,0-.17-.02-.25-.06-.3-.14-.43-.49-.29-.79.67-1.46.8-3.19.33-4.75-.46-1.56-1.52-2.97-2.89-3.86-.28-.18-.35-.55-.18-.83.18-.28.55-.36.83-.18,1.61,1.04,2.84,2.69,3.39,4.52.54,1.83.4,3.87-.39,5.59-.1.22-.32.35-.54.35Z"/>
          <path class="cls-7" d="m384.5,51.95c-.29,0-.55-.22-.59-.52-.04-.33.19-.63.52-.67,1.62-.21,3.14-1.35,3.95-2.98.73-1.47.92-3.33.54-5.25-.22-1.12-.59-1.98-1.11-2.64-.6-.76-1.45-1.21-2.25-1.21-.33,0-.6-.27-.59-.6,0-.33.27-.59.6-.59h0c1.16,0,2.35.63,3.18,1.66.64.81,1.08,1.84,1.35,3.15.43,2.18.2,4.31-.65,6.02-.99,1.98-2.85,3.37-4.86,3.63-.03,0-.05,0-.08,0Z"/>
          <path class="cls-7" d="m373.81,23.13c-.2,0-.4-.1-.51-.29-2.9-4.76-7.86-8.35-13.27-9.59-.32-.07-.52-.39-.45-.71.07-.32.39-.52.71-.45,5.72,1.31,10.96,5.1,14.02,10.14.17.28.08.65-.2.82-.1.06-.2.09-.31.09Z"/>
        </g>
        <path class="cls-1" d="m298.34,159.95c1.78,8.15,9.44,12.28,24.98,15.1,9.1,1.65,17.34,3.35,21.82,7.07l12.42-5.42s-6.79-12-27.34-22.34c-15.64-7.87-34.36-5.79-31.88,5.58Z"/>
        <path class="cls-1" d="m345.14,182.11c4.13,3.38,6.26,7.86,7.22,10.32.97,2.46,2.09,8.71,3.46,8.46,1.86-.34,1.35-4.82.62-8.55,0,0,1.06,1.77,2.08,4.74,1.02,2.97,1.56,6.15,2.91,6.02,1.35-.13,1.08-3.85.56-6.87s-1.34-5.66-1.34-5.66c0,0,1.1,1.69,1.98,3.55,1.44,3.03,1.93,5.98,3.41,5.5,1.47-.48.35-8.02-1.51-12.27-1.85-4.25-4.21-7.78-6.97-10.66s-12.19-.17-12.42,5.42Z"/>
        <path class="cls-1" d="m409.19,107.48l-18.37,12.52.79,23.69,2.69,34.18c11.59.41,19.64-22.32,19.84-41.97.23-23.02-4.95-28.43-4.95-28.43Z"/>
        <path class="cls-22" d="m395.1,83.03s-5.11,2.79-7.28,13.12c-2.48,11.78-.3,45.48-.3,45.48,20.59,1.69,34.3-3.07,34.3-3.07,0,0-5.28-48.25-26.73-55.52Z"/>
        <path class="cls-10" d="m387.52,142.37c-.37,0-.7-.28-.74-.66-.02-.15-1.9-15.62-1.64-27.41,0-.41.39-.71.77-.73.41,0,.74.35.73.77-.25,11.68,1.61,27.05,1.63,27.2.05.41-.24.79-.65.84-.03,0-.06,0-.09,0Z"/>
        <path class="cls-10" d="m386.24,128.1c-.17,0-.35-.06-.49-.18-2.68-2.31-3.67-9.37-3.71-9.67-.06-.41.23-.79.64-.84.41-.06.79.23.84.64.26,1.88,1.34,7.13,3.21,8.74.31.27.35.74.08,1.06-.15.17-.36.26-.57.26Z"/>
        <path class="cls-1" d="m392.1,142.68s-10.23-12.52-25.7-25.17l-15.11,6.22c9.37,11.85,23.7,53.48,43.01,54.15,4.54-6.51,5.51-17.68-2.2-35.2Z"/>
        <g>
          <path class="cls-12" d="m331.16,117.52c-.71,0-1.44-.1-2.19-.32-.53-.16-.83-.71-.68-1.24.16-.53.71-.83,1.24-.68,3.51,1.03,6.65-1.5,8.2-4.46,1.08-2.07,1.21-4.1.31-4.83-.64-.52-1.29-.73-2-.65-1.71.19-3.16,1.99-3.18,2.01-.34.43-.97.51-1.4.16-.43-.34-.51-.97-.17-1.4.08-.1,1.97-2.47,4.52-2.75,1.25-.14,2.42.22,3.49,1.09,1.72,1.39,1.8,4.26.2,7.31-1.62,3.09-4.69,5.78-8.35,5.78Z"/>
          <path class="cls-13" d="m294.9,98.94h38.55s1.05,25.74-18.29,27.17c-22.03,1.63-20.26-27.17-20.26-27.17Z"/>
          <path class="cls-12" d="m333.45,98.94h-5.49c.03,3.11-.44,22.75-16.4,23.93-5.56.41-9.42-1.34-12.11-4.07,2.96,4.53,7.79,7.89,15.72,7.31,19.33-1.43,18.29-27.17,18.29-27.17Z"/>
          <g>
            <path class="cls-24" d="m304.42,118.93c-.16,0-.32-.05-.46-.16-1.14-.89-2.12-2.11-2.93-3.63-.19-.37-.05-.82.31-1.01.37-.19.82-.05,1.01.31.7,1.33,1.55,2.39,2.52,3.15.33.26.38.73.13,1.05-.15.19-.37.29-.59.29Z"/>
            <path class="cls-24" d="m300.18,111.54c-.33,0-.64-.22-.72-.56-1.22-4.61-1.04-9.15-1.04-9.34.02-.41.37-.74.78-.72.41.02.74.37.72.78,0,.04-.17,4.51.99,8.9.11.4-.13.81-.53.92-.06.02-.13.02-.19.02Z"/>
          </g>
        </g>
        <path class="cls-1" d="m366.4,117.51s-9.37-8.52-12.08-9.86c-4.91-2.43-10.54-2.63-13.62-1.9-3.23.76-11.74,2.86-11.06,5.84.55,2.41,6.46,1.8,6.46,1.8,0,0-3.08,1.98-2.28,4.42.81,2.44,4.09,1.52,4.09,1.52,0,0-.81,2.16.82,3.3,2.19,1.52,6.05-2.16,11,.37,1.13.58,6.85,7.62,6.85,7.62l9.8-13.1Z"/>
        <path class="cls-19" d="m336.11,114.04c-.24,0-.47-.13-.58-.36-.16-.32-.03-.71.29-.87.13-.07,3.33-1.64,7.15-2.15.35-.04.68.2.73.56.05.36-.2.68-.56.73-3.6.48-6.71,2.01-6.74,2.02-.09.05-.19.07-.29.07Z"/>
        <path class="cls-19" d="m338.17,119.83c-.2,0-.4-.1-.53-.27-.21-.29-.14-.7.16-.91.13-.09,3.2-2.24,6.98-2.37.35-.02.66.27.67.63.01.36-.27.66-.63.67-3.38.12-6.24,2.11-6.27,2.13-.11.08-.24.12-.37.12Z"/>
        <path class="cls-19" d="m401.17,153.95c-.22,0-.43-.11-.55-.3-3.78-5.97-8.9-10.43-8.95-10.47-.27-.23-.3-.64-.07-.92.23-.27.65-.3.92-.07.22.19,5.31,4.62,9.2,10.76.19.3.1.71-.2.9-.11.07-.23.1-.35.1Z"/>
        <path class="cls-19" d="m401.92,150.08c-.15,0-.3-.05-.42-.15-2.36-2-5.84-2.98-5.88-2.99-.35-.1-.55-.45-.45-.8s.46-.55.8-.45c.15.04,3.79,1.06,6.37,3.26.27.23.31.64.07.92-.13.15-.31.23-.5.23Z"/>
        <path class="cls-19" d="m397.24,173.96c-.29,0-.55-.19-.63-.49-.09-.35.12-.7.47-.79,2.17-.56,4-2.22,4.77-4.33.12-.34.5-.51.83-.39.34.12.51.5.39.83-.92,2.5-3.09,4.47-5.67,5.14-.05.01-.11.02-.16.02Z"/>
        <path class="cls-12" d="m308.44,295.85c-2.33,0-4.75-.05-7.25-.15-35.85-1.52-49.32-10.61-49.87-10.99-.34-.24-.42-.7-.19-1.04.24-.34.7-.43,1.04-.19.13.09,13.74,9.23,49.08,10.73,32.5,1.38,50.95-6.87,53.88-8.3-.1-2.32-.57-12.67-1.51-23.82-1.06-12.6-3.5-28.81-3.52-28.98-.06-.41.22-.79.63-.85.41-.06.79.22.85.63.02.16,2.47,16.43,3.53,29.07,1.06,12.64,1.53,24.25,1.54,24.37.01.29-.14.55-.39.69-.18.1-16.67,8.84-47.83,8.84Z"/>
        <path class="cls-12" d="m294.81,230.3s-.07,0-.1,0c-.41-.06-.7-.44-.64-.85l1.08-7.74c.06-.41.44-.69.85-.64.41.06.7.44.64.85l-1.08,7.74c-.05.37-.37.65-.74.65Z"/>
        <path class="cls-12" d="m379.98,223.39c-.27,0-.52-.15-.65-.4-.18-.36-.04-.8.32-.99,9.73-4.99,16.04-16.83,14.99-28.15-.04-.4.26-.76.66-.8.4-.04.76.26.8.66,1.09,11.89-5.54,24.33-15.78,29.59-.11.05-.22.08-.33.08Z"/>
        <path class="cls-12" d="m289.98,294.44s-.04,0-.07,0c-.4-.04-.7-.39-.66-.79l2.53-28.35c.04-.4.4-.7.79-.66.4.04.7.39.66.79l-2.53,28.35c-.03.38-.35.67-.73.67Z"/>
        <path class="cls-12" d="m294.32,295.11s-.06,0-.09,0c-.4-.05-.69-.41-.64-.81l1.65-14.33c.05-.4.42-.69.81-.64.4.05.69.41.64.81l-1.65,14.33c-.04.37-.36.65-.73.65Z"/>
        <path class="cls-12" d="m350.91,288.49h0c-.4,0-.73-.33-.73-.74.08-14.81-1.17-29.71-3.71-44.29-.07-.4.2-.78.6-.85.39-.07.78.2.85.6,2.56,14.67,3.81,29.66,3.73,44.55,0,.4-.33.73-.73.73Z"/>
      </g>
      <g>
        <path class="cls-25" d="m204.01,337.9c5.34,22.16,28.87,16.05,30.79,22.8,1.92,6.74-30.63,5.47-34.95.66-5.24-5.83-8.4-26.03-8.4-26.03l12.56,2.58Z"/>
        <path class="cls-25" d="m120.36,336.81c-6.7,23.19,10.46,16.39,8.79,23.44s-22.37,6.19-24.76,1.21c-2.89-6.03,5.81-27.19,5.81-27.19l10.16,2.54Z"/>
        <path class="cls-8" d="m86.29,12.8c-8.38,9.9-7.18,23.97-10.1,33.61-2.92,9.64-14.82,12.03-18.35,17.26-3.52,5.23.54,11.16.54,11.16,0,0-8.66,11.43,1.93,26.7,7.7,11.09,33.79,7.83,33.79,7.83l13.69-31.11L86.29,12.8Z"/>
        <path class="cls-2" d="m135.41,159.05l1.35,7.8s45.14,20.06,51.21,25.26c6.06,5.2,11.45,13,15.83,65.38,4.38,52.38,8.25,79.89,8.25,79.89,0,0-10.66,6.7-26.83,5.59,0,0-16.13-54.48-19.17-73.42-3.03-18.95-1.5-33.23-1.5-33.23h-45.98v-68.72l16.84-8.54Z"/>
        <path class="cls-6" d="m126.05,85.38c15,4.67,24.33,13.67,33.33,44.67s19.67,49.67,2,55c-17.67,5.33-27-29.67-30.67-45-3.67-15.33-4.67-54.67-4.67-54.67Z"/>
        <path class="cls-2" d="m74.77,170.94s-11.23,41.61,5.27,60.61c0,0,20.77,16.58,49.41,19.18,0,0-21.91,37.57-26.72,87.37,0,0,10.14,11.15,26.65,5.95,0,0,18.06-39.08,28.42-58.75,12.5-23.75,21.34-42.87,17-57.5-6.06-20.43-45.04-45.92-48.75-50.75-3.71-4.83-5.46-9.46-5.46-9.46l-45.82,3.34Z"/>
        <g>
          <path class="cls-14" d="m120.79,346.17c-11.57,0-18.53-7.47-18.62-7.56-.15-.16-.22-.38-.19-.6,6.53-49.63,22.91-80.74,26.23-86.64-27.94-2.93-48.44-19.06-48.64-19.22-.03-.02-.05-.05-.08-.07-16.09-17.1-5.9-59.51-5.46-61.31.1-.4.5-.65.91-.55.4.1.65.51.55.91-.11.43-10.43,43.34,5.05,59.88,1.04.82,21.49,16.49,48.97,18.99.26.02.49.18.6.41.12.23.11.51-.03.73-.19.32-19.33,32.21-26.57,86.72,1.6,1.56,11.15,10.06,25.63,5.5.4-.12.82.1.94.49.12.4-.09.82-.49.94-3.17,1-6.12,1.4-8.81,1.4Z"/>
          <path class="cls-14" d="m129.45,251.48s-.06,0-.09,0c-.32-.04-.59-.28-.65-.6-.04-.2-.93-4.94.8-9.42.15-.39.59-.58.97-.43.39.15.58.58.43.97-.81,2.12-.98,4.35-.95,6.01,1.02-1.95,2.67-4.93,4.96-8.36.23-.35.7-.44,1.04-.21.34.23.44.7.21,1.04-3.92,5.88-6.01,10.52-6.03,10.57-.12.27-.39.44-.68.44Z"/>
          <path class="cls-14" d="m157,241.51c-.15,0-.31-.05-.44-.14-2.91-2.13-4.32-6.05-3.43-9.55.1-.4.51-.64.91-.54.4.1.64.51.54.91-.75,2.91.43,6.19,2.86,7.96.33.24.41.71.16,1.05-.15.2-.38.31-.61.31Z"/>
          <path class="cls-14" d="m168.93,247.67c-.1,0-.19-.02-.29-.06-.38-.16-.56-.6-.4-.98,2.56-6.1,2.78-13.19.6-19.44-.14-.39.07-.82.46-.96.39-.14.82.07.96.46,2.3,6.6,2.07,14.07-.63,20.51-.12.29-.4.46-.69.46Z"/>
          <path class="cls-14" d="m129.38,344.8c-.1,0-.21-.02-.31-.07-.38-.17-.54-.62-.37-.99.17-.37,17.29-37.65,27.69-57.04,13.95-26.02,21.78-44.92,17.69-58.68-2.98-10.05-20.4-23.02-33.11-32.49-3.3-2.46-6.15-4.58-8.39-6.39-.16-.13-.26-.32-.28-.52-.02-.2.05-.41.19-.56l3.52-3.96c-1.44-1.39-5.43-5.34-7.31-7.84-2.32-3.09-3.34-7.4-3.38-7.58-.09-.4.16-.81.56-.9.4-.09.81.16.9.56,0,.04.99,4.19,3.12,7.02,2.19,2.92,7.61,8.11,7.67,8.16.29.28.31.74.04,1.04l-3.47,3.91c2.12,1.68,4.74,3.63,7.73,5.86,12.88,9.6,30.53,22.74,33.65,33.27,4.23,14.26-3.68,33.46-17.81,59.82-10.37,19.35-27.47,56.58-27.65,56.96-.13.27-.4.44-.68.44Z"/>
          <path class="cls-14" d="m188.88,343.85c-1.21,0-2.45-.04-3.72-.13-.3-.02-.56-.22-.66-.51-.16-.46-15.9-46.8-19.2-73.57-.05-.41.24-.79.65-.84.41-.05.79.24.84.65,3.11,25.16,17.3,67.82,18.97,72.8,15.47.91,25.78-5.44,25.88-5.51.35-.22.81-.12,1.03.24.22.35.12.81-.24,1.03-.41.26-9.45,5.83-23.56,5.83Z"/>
          <path class="cls-14" d="m185.65,217.24c-.13,0-.27-.04-.39-.11-4.8-2.96-8.4-7.78-9.87-13.23-.11-.4.13-.81.53-.92.4-.11.81.13.92.53,1.37,5.08,4.73,9.58,9.21,12.34.35.22.46.68.25,1.03-.14.23-.39.36-.64.36Z"/>
          <path class="cls-14" d="m192.07,206.8c-.38,0-.71-.29-.75-.68-.25-2.55-1.65-4.95-3.73-6.44-.34-.24-.42-.71-.18-1.05.24-.34.71-.42,1.05-.18,2.43,1.73,4.06,4.54,4.35,7.51.04.41-.26.78-.67.82-.02,0-.05,0-.07,0Z"/>
          <path class="cls-14" d="m133.05,189.3c-.11,0-.23-.03-.33-.08-.05-.02-4.87-2.33-12.45-.12-.4.11-.81-.11-.93-.51-.12-.4.11-.81.51-.93,6.76-1.97,11.44-.61,12.99-.02,1.05-1.22,4.21-4.75,8.11-7.54.34-.24.8-.16,1.05.17.24.34.16.81-.17,1.05-4.53,3.23-8.15,7.65-8.19,7.7-.15.18-.36.28-.58.28Z"/>
          <path class="cls-14" d="m121.04,177.77c-.39,0-.72-.31-.75-.7-.03-.41.29-.77.7-.8,4.37-.28,8.68-2.18,11.83-5.21.3-.29.77-.28,1.06.02.29.3.28.77-.02,1.06-3.4,3.28-8.06,5.33-12.78,5.63-.02,0-.03,0-.05,0Z"/>
        </g>
        <path class="cls-6" d="m78.71,87.72c8.83-3.42,15.83-5.42,27.58-5.67s20,2.75,25.5,6.25,13.08,27.46,10,42c-1.75,8.25-6,12-6,25.25,0,10.55-11.25,13.75-27,15.25-13.38,1.27-36.5-5.75-36.5-5.75l6.42-77.33Z"/>
        <path class="cls-4" d="m105.24,171.71c-13.45,0-32.29-5.67-33.16-5.94-.4-.12-.62-.54-.5-.94.12-.4.54-.62.94-.5.23.07,23.13,6.96,36.21,5.72,18.7-1.78,26.32-5.98,26.32-14.5s1.83-13.44,3.6-17.95c.94-2.39,1.82-4.64,2.42-7.46.9-4.25.93-9.68.08-15.72-.06-.41.23-.79.64-.85.42-.06.79.23.85.64.87,6.21.84,11.82-.1,16.24-.62,2.93-1.57,5.35-2.49,7.69-1.72,4.38-3.49,8.91-3.49,17.4,0,11.74-13.3,14.63-27.68,16-1.15.11-2.36.16-3.63.16Z"/>
        <path class="cls-6" d="m89.55,194.66c-10.5-1.95-29.84-20.95-31.17-64.61-1.12-36.66,20.33-42.33,20.33-42.33,0,0,9,44.67,21.33,68l-10.5,38.95Z"/>
        <path class="cls-4" d="m98.88,156.86c-.29,0-.56-.17-.69-.45-3.72-8.36-7.26-20.09-10.54-34.89-.09-.4.17-.8.57-.89.4-.09.8.17.89.57,3.25,14.69,6.77,26.34,10.44,34.6.17.38,0,.82-.38.99-.1.04-.2.06-.3.06Z"/>
        <path class="cls-8" d="m97.75,63.48s-19.27-6.38-18.36-31.48c.81-22.56,19.98-34.54,35.51-28.52,0,0,12.03-4.2,21.95,11.88,9.92,16.08-10.43,33.32-10.43,33.32l-28.67,14.79Z"/>
        <path class="cls-15" d="m91.28,85.79c4.95-15.9,3.54-31.54,3.54-31.54l12.63-1.67,13.55,1.69c-1.54,8.51-4.01,24.67-1.26,31.83.51,1.33-6.65,5.49-13.44,5.35-7.64-.16-15.33-4.67-15.02-5.66Z"/>
        <path class="cls-15" d="m84.55,87.72c-.33,5.5,11.67,12,26.33,10.83,14.67-1.17,16.5-10.33,16.17-12.17-.33-1.83-9.83-4.5-23.17-4-13.33.5-19.17,2.67-19.33,5.33Z"/>
        <path class="cls-15" d="m139.23,128.69c1.09,8.04.02,30.9,4.02,42.18,4.42,12.45,15.99,20.22,22.81,13.35,9.24-9.31,2.71-20.75-3.63-35.22-8.55-19.53-9.86-28.61-9.86-28.61l-13.34,8.3Z"/>
        <path class="cls-19" d="m119.89,61.02l-16.55-7.9-8.51,1.13s.61,6.82-.4,16.03c4.5,7.34,16.12,16.69,25.37,17.27,0,0,1.95-.07,4.65-2.92-1.36-.5-3.2-.98-5.46-1.38-1.07-5.94-.19-14.92.89-22.24Z"/>
        <path class="cls-28" d="m123.07,78.41c-2.67.42-17.65-2.29-24.26-18.3-3.53-8.54-4.04-18.84-2.64-25.1,1.41-6.26,8.53-25.81,27.99-19.18,0,0,15.78,5.49,15.07,30.77-.64,22.73-13.17,31.34-16.16,31.8Z"/>
        <path class="cls-8" d="m128.89,13.92c2.03,13.27-19.56,5.52-26.97,24.93-.88,3.64-.36,8.25-5.14,8.82l-5.38-6.24s-2.76-13.37,5.62-24.9c8.36-11.51,28.57-12.62,31.88-2.61Z"/>
        <g>
          <path class="cls-8" d="m128.73,37.78c.69,1.06,2.25-.47,6.29-.29,2.78.13,4.3,2.17,4.57,1.51.29-.71-.69-3.58-5.03-4.06-4.45-.49-6.74,1.45-5.83,2.84Z"/>
          <path class="cls-8" d="m119.87,37.84c-.28,1.51-3.37-.11-7.46.91-4.25,1.06-5.59,3.44-6.38,2.69-.4-.38,1.13-4.36,6.62-5.59,4.88-1.09,7.49.48,7.21,1.99Z"/>
        </g>
        <path class="cls-20" d="m125.43,58.81s.36-.05,1.04-.2c.71-.17,1.69-.43,2.8-1.1.55-.33,1.12-.8,1.61-1.43.23-.33.46-.68.62-1.12.07-.22.16-.44.17-.7.01-.12.01-.26,0-.41,0-.07,0-.14-.03-.23l-.03-.13v-.06s-.02-.03-.02-.03v-.02s-.07-.19-.07-.19c.03.02-.24-.38-.39-.49-.1-.09-.2-.16-.28-.22l-.49-.32-.91-.59c-.59-.4-1.15-.84-1.66-1.32-1.02-.97-1.79-2.16-2.16-3.43-.38-1.26-.37-2.54-.22-3.62.15-1.08.45-1.97.65-2.59.24-.61.37-.96.37-.96v-.02c.07-.17-.01-.37-.19-.44-.17-.06-.35.01-.43.17,0,0-.17.35-.46.96-.26.63-.64,1.53-.9,2.69-.25,1.16-.39,2.59-.06,4.11.32,1.51,1.13,3.02,2.23,4.23.55.61,1.15,1.15,1.76,1.64l.91.7.4.31.14.12s-.16-.26-.06-.07c-.13-.34-.04-.09-.07-.17h0s0,0,0,0h0s0,0,0,0c0,0,0,.02,0,.03,0,.03,0,.07-.02.12-.01.08-.02.2-.05.31-.04.23-.15.46-.27.68-.26.44-.61.83-1.01,1.13-.78.62-1.64.97-2.2,1.18-.61.21-.99.31-.99.31-.31.08-.49.4-.41.72.08.29.36.47.64.42h.04Z"/>
        <g>
          <g>
            <path class="cls-4" d="m135.74,43.72c.34,1.27-.09,2.55-.96,2.86-.87.31-1.85-.47-2.19-1.74-.34-1.27.09-2.55.96-2.86.87-.31,1.85.47,2.19,1.74Z"/>
            <path class="cls-4" d="m129.61,45.84s.89-2,3.65-2.79c1.93-.55,2.07,1.33,3.83,1.42.63.03,1.64-.71,1.69-1.78,0,0-.54.8-1.36.3-.67-.4-2.26-2.57-4.6-1.96-2.84.74-3.59,3.02-3.2,4.8Z"/>
          </g>
          <g>
            <path class="cls-4" d="m116.87,45.63c.03-1.39-.78-2.74-1.8-3.03-1.02-.28-1.87.62-1.9,2.01-.03,1.39.78,2.74,1.8,3.03,1.02.28,1.87-.62,1.9-2.01Z"/>
            <path class="cls-4" d="m118.3,45.25s-1.35-1.51-4.57-.93c-2.26.4-2.18,1.71-3.89,2.51-.66.3-2.03.09-2.6-.99,0,0,.94.56,1.55-.38.49-.75,1.76-2.74,4.43-3.44,2.71-.72,4.62,1.2,5.07,3.23Z"/>
          </g>
        </g>
        <path class="cls-28" d="m97.07,46.19s-2.98-7.51-7.51-3.99c-2.24,1.74-2.02,6.73.12,10.11,1.62,2.56,5.43,4.7,7.95,2.81,0,0,2.35-.87-.56-8.93Z"/>
        <path class="cls-19" d="m91.47,49.88c1.11,2.1,3.03,3,3.91,2.21.88-.79.7-3.13-.41-5.23s-2.73-3.16-3.62-2.38-.99,3.29.12,5.39Z"/>
        <g>
          <path class="cls-4" d="m113.9,60.94s3.99,1.24,8.31,1.79c4.08.52,7.5-.2,7.5-.2,0,0-1.17,7.26-8.57,6.18-5.6-.81-7.24-7.77-7.24-7.77Z"/>
          <path class="cls-9" d="m121.1,66.82c4.27.62,5.35-2.59,5.35-2.59,0,0-2.42.1-5.46-.44-3.86-.68-5.07-1.13-5.07-1.13,0,0,1.02,3.55,5.19,4.16Z"/>
        </g>
        <g>
          <path class="cls-3" d="m102.18,33.97c-.08,0-.16-.01-.24-.05-.33-.13-.5-.51-.36-.84.12-.3,2.96-7.28,9.97-10.14,2.35-.96,4.31-1.66,6.04-2.28,3.29-1.18,5.46-1.95,7.38-3.41,2.73-2.08,2.52-6.29,2.52-6.33-.02-.36.25-.67.61-.69.35-.02.67.25.68.61.01.2.24,4.95-3.03,7.44-2.07,1.58-4.45,2.43-7.73,3.6-1.72.61-3.66,1.31-5.99,2.26-6.49,2.64-9.23,9.34-9.25,9.41-.1.25-.35.41-.6.41Z"/>
          <path class="cls-3" d="m120.45,17.27c-.25,0-.48-.14-.59-.38-.15-.33,0-.71.32-.86.19-.09,4.66-2.25,3.91-8.63-.04-.36.21-.68.57-.72.36-.04.68.21.72.57.86,7.35-4.6,9.94-4.66,9.96-.09.04-.18.06-.27.06Z"/>
          <path class="cls-3" d="m100.1,6.65c-.26,0-.51-.16-.61-.42-.12-.34.05-.71.38-.84,8.85-3.29,14.85-.43,15.11-.31.32.16.45.55.3.87-.16.32-.54.46-.87.3-.06-.03-5.79-2.72-14.08.36-.07.03-.15.04-.23.04Z"/>
          <path class="cls-3" d="m137.48,22.25c-.28,0-.54-.18-.62-.47-1.05-3.56-5.14-6.9-5.18-6.93-.28-.23-.32-.63-.1-.91.23-.28.63-.32.91-.1.18.15,4.45,3.62,5.61,7.58.1.34-.1.71-.44.81-.06.02-.12.03-.18.03Z"/>
          <path class="cls-3" d="m87.62,36.17c-.08,0-.14,0-.16,0-.36-.02-.64-.32-.62-.68.01-.36.32-.65.67-.62.25.01,6.1.16,10.67-6.19.21-.29.62-.36.91-.15.29.21.36.62.15.91-4.63,6.44-10.56,6.74-11.62,6.74Z"/>
          <path class="cls-3" d="m90.86,38.75c-.06,0-.09,0-.11,0-.36-.01-.64-.31-.62-.67.01-.36.3-.65.67-.63.04,0,3.38.07,6.38-2.66.27-.24.68-.22.92.04.24.27.22.68-.04.92-3.13,2.86-6.55,3-7.2,3Z"/>
          <path class="cls-3" d="m88.36,22.76c-.06,0-.12,0-.18-.03-.35-.1-.55-.46-.45-.8.07-.23,1.69-5.8,6.17-9.68.27-.24.68-.21.92.07.24.27.21.68-.07.92-4.19,3.63-5.75,9-5.77,9.05-.08.29-.34.47-.62.47Z"/>
          <path class="cls-3" d="m59.24,68.49s-.06,0-.08,0c-.36-.05-.61-.37-.56-.73.52-4.11,4.75-6.24,9.64-8.7.79-.4,1.59-.8,2.4-1.22,5.32-2.79,8.79-6.1,9.65-14.01.88-8.06,2.94-16.22,2.96-16.31.09-.35.44-.56.79-.47.35.09.56.44.47.79-.02.08-2.05,8.16-2.93,16.13-.93,8.48-4.65,12.04-10.34,15.02-.81.42-1.62.83-2.42,1.23-4.56,2.29-8.5,4.27-8.94,7.7-.04.33-.32.57-.64.57Z"/>
          <path class="cls-3" d="m62.29,77.4c-.22,0-.44-.11-.56-.32-3.5-5.96,2.23-10.73,2.28-10.78.28-.23.69-.18.91.09.23.28.19.69-.09.91-.2.17-4.91,4.12-1.99,9.11.18.31.08.71-.23.89-.1.06-.22.09-.33.09Z"/>
          <path class="cls-3" d="m60.94,96.69c-.23,0-.45-.12-.57-.34-1.63-2.94-2.37-6.25-2.21-9.84-.01-.13-.29-4.78,1.53-7.98.18-.31.57-.42.89-.24.31.18.42.57.24.89-1.62,2.86-1.36,7.28-1.36,7.33-.15,3.41.54,6.49,2.05,9.22.17.31.06.71-.25.88-.1.06-.21.08-.31.08Z"/>
          <path class="cls-3" d="m70.96,71.39c-.06,0-.13,0-.19-.03-.34-.11-.53-.47-.43-.81.85-2.74,3.05-4.69,5.38-6.75,2.38-2.1,4.84-4.28,6.34-7.58,2.98-6.54,2.96-12.89,2.96-12.96,0-.36.29-.65.64-.66.37.02.65.29.66.64,0,.27.02,6.71-3.08,13.51-1.62,3.55-4.3,5.92-6.67,8.01-2.29,2.02-4.26,3.77-5,6.16-.09.28-.34.46-.62.46Z"/>
          <path class="cls-3" d="m64.82,88.54c-.28,0-.54-.19-.63-.47-1.72-6.11,2.9-9.91,3.1-10.07.28-.22.69-.18.91.1.23.28.18.69-.1.91-.17.14-4.14,3.43-2.66,8.7.1.35-.1.7-.45.8-.06.02-.12.02-.18.02Z"/>
          <path class="cls-3" d="m76.51,85.22c-.3,0-.56-.2-.63-.5-.48-2.06-.71-5.2.95-8.5,1.5-2.98,3.24-5.65,4.77-8.02,1.42-2.18,2.76-4.24,3.61-6.1.15-.33.54-.47.86-.32.33.15.47.54.32.86-.89,1.94-2.25,4.04-3.7,6.26-1.52,2.33-3.23,4.98-4.7,7.89-1.48,2.95-1.28,5.77-.85,7.62.08.35-.14.7-.48.78-.05.01-.1.02-.15.02Z"/>
          <path class="cls-3" d="m90.97,81.57c-.05,0-.11,0-.16-.02-.35-.09-.56-.44-.47-.79.47-1.88,1.12-4.84,1.54-8.23.69-5.61-.33-13.19-.34-13.27-.05-.36.2-.68.56-.73.35-.05.68.2.73.56.04.32,1.05,7.83.34,13.6-.43,3.45-1.09,6.46-1.57,8.38-.07.29-.34.49-.63.49Z"/>
          <path class="cls-3" d="m87,82.22c-.05,0-.11,0-.16-.02-.35-.09-.56-.44-.47-.79.56-2.23.81-4.23.82-4.25.04-.36.37-.61.73-.56.36.04.61.37.56.73-.01.08-.27,2.09-.85,4.4-.07.29-.34.49-.63.49Z"/>
          <path class="cls-3" d="m72.75,86.39c-.28,0-.55-.19-.63-.48-.53-1.91-.63-3.71-.28-5.37.07-.35.42-.57.77-.5.35.07.58.42.5.77-.3,1.45-.22,3.05.26,4.75.1.35-.11.7-.45.8-.06.02-.12.02-.17.02Z"/>
        </g>
        <g>
          <path class="cls-12" d="m155.41,120.52c-.71,0-1.44-.1-2.19-.32-.53-.16-.83-.71-.68-1.24.16-.53.71-.83,1.24-.68,3.51,1.03,6.65-1.5,8.2-4.46,1.08-2.07,1.21-4.1.31-4.83-.64-.52-1.29-.73-2-.65-1.71.19-3.16,1.99-3.18,2.01-.34.43-.97.5-1.4.16-.43-.34-.51-.97-.17-1.4.08-.1,1.97-2.47,4.52-2.75,1.25-.14,2.42.22,3.49,1.09,1.72,1.39,1.8,4.26.2,7.31-1.62,3.09-4.69,5.78-8.35,5.78Z"/>
          <path class="cls-13" d="m119.15,101.94h38.55s1.05,25.74-18.29,27.17c-22.03,1.63-20.26-27.17-20.26-27.17Z"/>
          <path class="cls-12" d="m157.7,101.94h-5.49c.03,3.11-.44,22.75-16.4,23.93-5.56.41-9.42-1.34-12.11-4.07,2.96,4.53,7.79,7.89,15.72,7.31,19.33-1.43,18.29-27.17,18.29-27.17Z"/>
          <g>
            <path class="cls-24" d="m128.67,121.93c-.16,0-.32-.05-.46-.16-1.14-.89-2.12-2.11-2.93-3.63-.19-.37-.05-.82.31-1.01.37-.19.82-.05,1.01.31.7,1.33,1.55,2.39,2.52,3.15.33.26.38.73.13,1.05-.15.19-.37.29-.59.29Z"/>
            <path class="cls-24" d="m124.43,114.54c-.33,0-.64-.22-.72-.56-1.22-4.61-1.04-9.15-1.04-9.34.02-.41.36-.75.78-.72.41.02.74.37.72.78,0,.04-.17,4.51.99,8.9.11.4-.13.81-.53.92-.06.02-.13.02-.19.02Z"/>
          </g>
        </g>
        <path class="cls-4" d="m90.8,131.55c-.11,0-.21-.02-.32-.07-.38-.17-.54-.62-.36-1,.02-.04,1.67-3.63,1.43-7.39-.03-.41.29-.77.7-.8.42-.02.77.29.8.7.26,4.14-1.49,7.95-1.57,8.11-.13.27-.4.43-.68.43Z"/>
        <g>
          <path class="cls-16" d="m115.65,129.57c-5.26,6.63-22.28,21.33-28.43,33.11-6.79,13.01-6.63,29.93,1.72,32.01,11.31,2.82,16.32-11.61,23.6-27.91,9.83-22.02,15.73-29.59,15.73-29.59l-12.63-7.61Z"/>
          <path class="cls-16" d="m107.06,141.43s3.36-4.89,8.59-11.85c5.23-6.96,6.28-7.99,10.44-10.01,4.16-2.03,8.47-5.19,9.95-4.08s-6.45,7.51-6.45,7.51c0,0,5.19.86,10.81.17,5.61-.7,11.01-7.18,13.03-6.7,2.02.48-.39,3.18-.39,3.18,0,0,3.2-3.53,4.65-2.2,1.45,1.33-2.79,5.88-2.79,5.88,0,0,1.98-1.14,2.52.08.54,1.22-3.58,6.7-12.2,9.34-8.62,2.63-14.42,2.7-16.94,4.46-2.52,1.77-7.32,7.78-7.32,7.78l-13.9-3.54Z"/>
          <path class="cls-19" d="m145.92,126.08c-.24,0-.48-.14-.59-.37-.15-.33-.01-.71.31-.86,3.82-1.79,7.24-5.91,7.27-5.95.23-.28.64-.32.92-.09.28.23.32.64.09.92-.15.18-3.64,4.39-7.73,6.3-.09.04-.18.06-.28.06Z"/>
          <path class="cls-19" d="m147.3,129.58c-.25,0-.5-.15-.6-.4-.14-.33.02-.71.35-.85,5.13-2.15,7.28-5.34,7.3-5.38.2-.3.6-.38.9-.19.3.2.38.6.19.9-.1.14-2.39,3.56-7.88,5.86-.08.03-.17.05-.25.05Z"/>
          <path class="cls-19" d="m91.99,192.65c-.89,0-1.49-.14-1.55-.15-.35-.08-.56-.43-.48-.78.08-.35.43-.57.78-.49.15.03,3.63.8,6.16-2.02.24-.27.65-.29.92-.05.27.24.29.65.05.92-1.93,2.16-4.33,2.57-5.87,2.57Z"/>
        </g>
      </g>
    </g>
  </g>
</svg>