<?xml version="1.0" encoding="UTF-8"?>
<svg id="Layer_2" data-name="Layer 2" xmlns="http://www.w3.org/2000/svg" xmlns:xlink="http://www.w3.org/1999/xlink" viewBox="0 0 508.44 548.07">
  <defs>
    <style>
      .cls-1 {
        fill: #d9cdcc;
      }

      .cls-2 {
        fill: #5e5254;
      }

      .cls-3 {
        fill: #f0e7e2;
      }

      .cls-4 {
        fill: #86a09c;
      }

      .cls-5 {
        clip-path: url(#clippath-2);
      }

      .cls-6 {
        fill: #706466;
      }

      .cls-7 {
        fill: #986f68;
      }

      .cls-8 {
        fill: #e3d1cf;
      }

      .cls-9 {
        fill: #efd5a8;
      }

      .cls-10 {
        clip-path: url(#clippath-1);
      }

      .cls-11 {
        fill: #f0edf4;
      }

      .cls-12 {
        fill: #a64e4e;
      }

      .cls-13 {
        fill: #ba5a5a;
      }

      .cls-14 {
        fill: #a1a1a1;
      }

      .cls-15 {
        fill: #ce807c;
      }

      .cls-16 {
        fill: #e29b86;
      }

      .cls-17 {
        fill: #efac94;
      }

      .cls-18 {
        fill: #8ca180;
      }

      .cls-19 {
        fill: #865d5b;
      }

      .cls-20 {
        clip-path: url(#clippath);
      }

      .cls-21 {
        fill: #c48963;
      }

      .cls-22 {
        fill: #cf807b;
      }

      .cls-23 {
        fill: #d0807c;
      }

      .cls-24 {
        fill: #e59e89;
      }

      .cls-25 {
        fill: #7c8a72;
      }

      .cls-26 {
        fill: #f4e7e4;
      }

      .cls-27 {
        fill: #b2c6bf;
      }

      .cls-28 {
        fill: #514b4c;
      }

      .cls-29 {
        fill: #d2827b;
      }

      .cls-30 {
        fill: #e6b691;
      }

      .cls-31 {
        fill: #f1ae96;
      }

      .cls-32 {
        fill: #cecece;
      }

      .cls-33 {
        fill: #b5b5b5;
      }

      .cls-34 {
        fill: #d8d0cf;
      }

      .cls-35 {
        fill: #9cb7ae;
      }

      .cls-36 {
        fill: #dea379;
      }

      .cls-37 {
        fill: #cd807b;
      }
    </style>
    <clipPath id="clippath">
      <path class="cls-33" d="m148.08,264.08l-.39,11.81s19.3,10.75,53.16,9.45c30.71-1.18,42.13-5.51,42.13-5.51l-.79-14.96-94.11-.79Z"/>
    </clipPath>
    <clipPath id="clippath-1">
      <path class="cls-33" d="m309.27,243.67l8.53,5.44s-.05,10.46-8.39,14.46l-10.26-2.6,10.12-17.3Z"/>
    </clipPath>
    <clipPath id="clippath-2">
      <path class="cls-33" d="m254.12,258.63l9.23,5.81s-.05,11.17-9.08,15.43l-11.1-2.78,10.95-18.46Z"/>
    </clipPath>
  </defs>
  <g id="_2" data-name="2">
    <g>
      <g>
        <g>
          <rect class="cls-3" x="53.08" y="5.33" width="224.67" height="525.33"/>
          <g>
            <rect class="cls-1" x="70.42" y="152.67" width="48.67" height="64.67"/>
            <rect class="cls-3" x="77.08" y="161.53" width="35.33" height="46.95"/>
          </g>
          <g>
            <rect class="cls-1" x="52.42" y="47.33" width="34.67" height="86.67"/>
            <rect class="cls-3" x="54.42" y="55.33" width="24.72" height="70.67"/>
          </g>
          <g>
            <rect class="cls-1" x="51.42" y="290" width="30" height="160"/>
            <rect class="cls-1" x="70.36" y="434" width="11.05" height="39"/>
            <rect class="cls-1" x="51.42" y="290" width="35.67" height="8.67"/>
          </g>
          <rect class="cls-1" x="53.08" y="487.33" width="226" height="44.83"/>
          <g>
            <path class="cls-1" d="m99.08,51.59c-.83,0-1.5-.67-1.5-1.5V8c0-.83.67-1.5,1.5-1.5s1.5.67,1.5,1.5v42.09c0,.83-.67,1.5-1.5,1.5Z"/>
            <path class="cls-1" d="m99.08,47.81h0c16.73,0,30.32,13.58,30.32,30.32v3.43h-60.63v-3.43c0-16.73,13.58-30.32,30.32-30.32Z"/>
          </g>
        </g>
        <path class="cls-13" d="m48.42,0v536h235V0H48.42Zm224,531.38H59.42V11.12h213v520.25Z"/>
        <g>
          <rect class="cls-3" x="0" y="95" width="26" height="26" rx="3.92" ry="3.92"/>
          <rect class="cls-6" x="6" y="101" width="14" height="14"/>
        </g>
        <g>
          <polygon class="cls-13" points="260.08 531.21 99.42 479.2 99.42 62.81 260.08 10.46 260.08 531.21"/>
          <g>
            <g>
              <path class="cls-12" d="m181.09,271.16c-.26,0-.51-.1-.7-.29-.19-.19-.3-.44-.3-.71V82.29c0-.44.29-.83.72-.96l55.5-16.29c.3-.09.63-.03.88.16.25.19.4.49.4.8v203.22c0,.55-.44.99-.98,1l-55.5.94h-.02Zm55.5-1.94h0,0Zm-54.5-186.18v186.1l53.5-.9V67.34l-53.5,15.71Z"/>
              <path class="cls-12" d="m236.59,485.64c-.1,0-.2-.01-.3-.04l-55.5-17.26c-.42-.13-.7-.52-.7-.96v-186.9c0-.27.11-.52.3-.71s.43-.3.72-.29l55.5.94c.55,0,.98.45.98,1v203.22c0,.32-.15.62-.41.81-.17.13-.38.19-.59.19Zm-54.5-18.99l53.5,16.63v-200.88l-53.5-.9v185.15Z"/>
            </g>
            <g>
              <path class="cls-12" d="m122.91,272.14c-.26,0-.51-.1-.7-.29-.19-.19-.3-.44-.3-.71V99.37c0-.44.29-.83.72-.96l44.85-13.17c.3-.09.63-.03.88.16.25.19.4.49.4.8v184.18c0,.55-.44.99-.98,1l-44.85.76h-.02Zm44.85-1.76h.01-.01Zm-43.85-170.26v170.01l42.85-.73V87.54l-42.85,12.58Z"/>
              <path class="cls-12" d="m167.76,464.24c-.1,0-.2-.01-.3-.04l-44.85-13.94c-.42-.13-.7-.52-.7-.96v-169.8c0-.27.11-.52.3-.71.19-.19.43-.28.72-.29l44.85.76c.55,0,.98.45.98,1v182.98c0,.32-.15.62-.41.81-.17.13-.38.19-.59.19Zm-43.85-15.68l42.85,13.32v-180.64l-42.85-.73v168.04Z"/>
            </g>
          </g>
          <path class="cls-12" d="m247.08,504.26c-.1,0-.21-.02-.31-.05l-134.67-43.59c-.41-.13-.69-.52-.69-.95V86.76c0-.44.29-.83.71-.96l134.67-41.38c.3-.09.63-.04.89.15.26.19.41.49.41.8v457.88c0,.32-.15.62-.41.81-.17.13-.38.19-.59.19Zm-133.67-45.32l132.67,42.94V46.73l-132.67,40.77v371.45Z"/>
          <rect class="cls-12" x="260.08" y="10.68" width="12.67" height="520.65"/>
          <g>
            <path class="cls-30" d="m114.76,271.25c-.09,0-.17.02-.26.04h-4.45v6.75h4.45c.09.01.17.04.26.04,1.27,0,2.29-1.53,2.29-3.41s-1.03-3.41-2.29-3.41Z"/>
            <ellipse class="cls-9" cx="104.84" cy="274.67" rx="8" ry="10"/>
            <path class="cls-30" d="m104.84,264.67c-.8,0-1.56.15-2.29.42,4.07,0,7.37,4.01,7.37,8.95s-3.3,8.95-7.38,8.95c-1.03,0-2.01-.26-2.9-.72,1.4,1.49,3.21,2.4,5.19,2.4,4.42,0,8-4.48,8-10s-3.58-10-8-10Z"/>
          </g>
        </g>
      </g>
      <g>
        <path class="cls-28" d="m239.82,517.18c-2,23.87,32.12,17.45,31.91,24.71-.21,7.27-38.34,5.7-42.15.5-4.62-6.31-1.61-28.06-1.61-28.06l11.84,2.84Z"/>
        <path class="cls-28" d="m165.92,516.68c-5.23,25.51,13.69,17.98,12.52,25.73-1.17,7.75-24.93,6.87-28.19,1.41-3.95-6.62,3.78-29.9,3.78-29.9l11.89,2.76Z"/>
        <path class="cls-6" d="m240.62,260.93s6.5,115.69,6.89,135.26c.39,19.56-2.95,124.49-2.95,124.49,0,0-19.89,4.58-31.3,1.25,0,0-10.04-50.14-8.66-122.38l-3.74-35.25s-2.76,25.26-3.94,39-21.22,116.97-21.22,116.97c0,0-13.49,3.75-30.7-.42,0,0-4.98-62.82,7.23-117.6,0,0-3.35-77.62-4.53-90.53-1.18-12.9.79-49.13.79-49.13l92.14-1.66Z"/>
        <path class="cls-2" d="m213.45,315.23c-.39,0-.72-.3-.75-.69-.01-.16-1.18-15.97-1.18-32.34,0-.41.34-.75.75-.75s.75.34.75.75c0,16.32,1.17,32.08,1.18,32.23.03.41-.28.77-.69.8-.02,0-.04,0-.06,0Z"/>
        <g>
          <path class="cls-33" d="m148.08,264.08l-.39,11.81s19.3,10.75,53.16,9.45c30.71-1.18,42.13-5.51,42.13-5.51l-.79-14.96-94.11-.79Z"/>
          <g class="cls-20">
            <g>
              <path class="cls-14" d="m152.17,280.77s-.04,0-.06,0c-.41-.03-.72-.4-.69-.81l1.14-13.79c.03-.41.39-.72.81-.69.41.03.72.4.69.81l-1.14,13.79c-.03.39-.36.69-.75.69Z"/>
              <path class="cls-14" d="m157.91,283.73c-.41,0-.74-.33-.75-.74-.07-5.15.2-10.35.82-15.46.05-.41.42-.7.83-.65.41.05.7.42.65.83-.61,5.04-.88,10.17-.81,15.25,0,.41-.33.75-.74.76h-.01Z"/>
              <path class="cls-14" d="m172.31,287.87s-.05,0-.08,0c-.41-.04-.71-.41-.67-.82l1.58-15.55c.04-.41.41-.7.82-.67.41.04.71.41.67.82l-1.58,15.55c-.04.39-.37.67-.75.67Z"/>
              <path class="cls-14" d="m181.76,289.05h-.02c-.41,0-.74-.35-.73-.77l.33-14.57c0-.41.35-.74.77-.73.41,0,.74.35.73.77l-.33,14.57c0,.41-.34.73-.75.73Z"/>
              <path class="cls-14" d="m199.05,288.46c-.4,0-.74-.32-.75-.73l-.38-13.78c-.01-.41.31-.76.73-.77.42-.03.76.31.77.73l.38,13.78c.01.41-.31.76-.73.77,0,0-.01,0-.02,0Z"/>
              <path class="cls-14" d="m208.59,290.42c-.41,0-.74-.32-.75-.73l-.38-16.93c0-.41.32-.76.73-.77.42.02.76.32.77.73l.38,16.93c0,.41-.32.76-.73.77h-.02Z"/>
              <path class="cls-14" d="m220.9,286.1c-.41,0-.74-.32-.75-.73-.11-4.76-.5-9.57-1.15-14.29-.06-.41.23-.79.64-.84.41-.06.79.23.84.64.65,4.78,1.04,9.64,1.16,14.46,0,.41-.32.76-.73.77h-.02Z"/>
              <path class="cls-14" d="m226.97,286.1c-.39,0-.72-.3-.75-.7l-1.17-15.95c-.03-.41.28-.77.69-.8.4-.04.77.28.8.69l1.17,15.95c.03.41-.28.77-.69.8-.02,0-.04,0-.06,0Z"/>
              <path class="cls-14" d="m237.32,285.31c-.4,0-.74-.32-.75-.73-.15-5.42-.64-10.89-1.45-16.24-.06-.41.22-.79.63-.85.41-.06.79.22.85.63.82,5.42,1.31,10.94,1.47,16.43.01.41-.31.76-.73.77,0,0-.01,0-.02,0Z"/>
            </g>
          </g>
        </g>
        <path class="cls-17" d="m320.41,250.68c5.7,1.76,18.8-.94,19.38,1,.82,2.75-7.58,2.85-10.93,4.25,0,0,3.1,2.25,10.11,3.02,7,.77,12.41.17,12.62,1.89.22,1.82-6.97,2.28-12.57,2.2,0,0,1.36.99,6.46,1.64,3.88.49,6.87.64,6.93,2.25s-5.31,1.66-8.04,1.65c-4.14-.01-7.08-.47-7.26.19s1.57.98,4.85,1.74c2.69.62,5.07,1.12,5,2.37-.1,1.84-9.29.95-15.57-.22-6.29-1.17-12.45-4.2-17.07-8.03,0,0-2.75-1.44-7.01-2.93l5.13-13.84s5.63,2.11,7.98,2.83Z"/>
        <g>
          <path class="cls-33" d="m309.27,243.67l8.53,5.44s-.05,10.46-8.39,14.46l-10.26-2.6,10.12-17.3Z"/>
          <g class="cls-10">
            <g>
              <path class="cls-14" d="m312.58,263.26c-.07,0-.15-.01-.22-.03l-7.78-2.36c-.4-.12-.62-.54-.5-.94.12-.4.54-.62.94-.5l7.78,2.36c.4.12.62.54.5.94-.1.32-.4.53-.72.53Z"/>
              <path class="cls-14" d="m317.7,256.56c-.11,0-.22-.02-.33-.08l-7.97-3.94c-.37-.18-.52-.63-.34-1,.18-.37.63-.52,1-.34l7.97,3.94c.37.18.52.63.34,1-.13.26-.4.42-.67.42Z"/>
              <path class="cls-14" d="m318.98,252.92c-.12,0-.24-.03-.35-.09l-8.17-4.33c-.37-.19-.51-.65-.31-1.01.2-.37.65-.51,1.01-.31l8.17,4.33c.37.19.51.65.31,1.01-.13.25-.39.4-.66.4Z"/>
            </g>
          </g>
        </g>
        <path class="cls-32" d="m232.39,149.29c21.2,13.41,32.02,39.37,48.89,63.6,16.87,24.23,27.75,26.31,30.84,31.23,3.68,5.84-3.26,17.87-11.03,18.39-12.98.87-32.45-7.51-50.63-26.98-18.17-19.47-25-39.51-25-39.51l6.92-46.73Z"/>
        <path class="cls-33" d="m299.53,263.32c-11.94,0-30.64-7.1-49.53-27.27-18.13-19.36-25.17-39.58-25.24-39.78-.13-.39.08-.82.47-.95.39-.14.82.07.95.47.07.2,7.02,20.12,24.92,39.24,19.55,20.88,38.75,27.5,50.2,26.74,4.07-.27,7.26-3.78,8.88-6.97,1.9-3.73,2.12-7.56.59-10-.22-.35-.12-.81.23-1.03.35-.22.81-.12,1.03.23,1.82,2.88,1.62,7.27-.52,11.48-2.31,4.54-6.19,7.53-10.12,7.79-.6.04-1.22.06-1.86.06Z"/>
        <path class="cls-32" d="m191.28,139.77c-17.27,1.2-34.54,7.75-40.44,22.32-4.8,11.85-6.56,19.36-6.99,42.72-.43,23.36.27,56.54,5.46,60.86,5.19,4.33,28.99,11.68,56.68,9.09,27.69-2.6,32.67-6.71,35.26-13.2,2.6-6.49,2.81-19.25,1.51-41.32-1.3-22.07,2.16-57.55-4.33-66.2-6.49-8.65-28.56-15.58-47.16-14.28Z"/>
        <path class="cls-33" d="m241.26,262.32c-.09,0-.19-.02-.28-.05-.38-.15-.57-.59-.42-.97,2.4-6,2.82-17.87,1.46-41-.42-7.16-.34-15.87-.27-24.29.03-3.38.06-6.77.06-10.08,0-.41.34-.75.75-.75h0c.41,0,.75.34.75.75,0,3.32-.03,6.71-.06,10.1-.08,8.4-.16,17.08.26,24.19,1.39,23.67.95,35.34-1.57,41.64-.12.29-.4.47-.7.47Z"/>
        <path class="cls-26" d="m170.89,79.78c.72-6.18,4.73-11.23,8.9-12.06,2.98-.59,5.34.93,7.79,2.91,2.74,2.22,24.32,4.7,25.45,7.96,1.14,3.26-7.33,8.36-7.02,11.71.41,4.34-10.73,3.09-10.73,7.41,0,3.21-.21,6.66-2.29,8.89-2.17,2.33-2.23,19.38-5.35,17.77,0,0-11.46-.09-15.79-23.04-1.43-7.57-1.62-16.03-.97-21.55Z"/>
        <path class="cls-16" d="m219.78,145.18c-.76-2.55-6.24-3.63-7.24-3.81-9.3-1.21-19.33-1.51-29.99-1.02,0,0-8.36,3.12-7.47,6.05,1.34,4.42,13.6,13.05,30.95,10.47,13.24-1.96,14.53-9.07,13.76-11.69Z"/>
        <path class="cls-16" d="m212.96,123.13l-14.12-8.34-12.52-1.45c-.12,4.43-1.06,19.53-3.77,27.01,10.27,7.09,20.23,6.44,29.99,1.02.66-6.23,2.11-14.01,2.55-16.26l-2.13-1.98Z"/>
        <path class="cls-22" d="m186.32,113.34c-.08,2.81-.49,9.93-1.47,16.67,1.92,4.7,8.71,18.04,24.04,18.16,4.43.03,8.06-.88,11.02-2.28-.03-.26-.08-.49-.14-.7-.76-2.55-6.24-3.63-7.24-3.81.66-6.23,2.11-14.01,2.55-16.26l-2.13-1.98-7.23-4.27-8.64-4.28-10.77-1.25Z"/>
        <path class="cls-17" d="m185.66,105.84c5.03-.17,6.39-6.7,5.21-11.36,0,0,9-4.85,7.78-14.82,8.35-5.34,31.58-6.09,31.79,8.57.34,24.51-3.4,37.88-6.97,44.37-3.76,6.82-13.55,9.13-22.29,4.75-5.75-2.87-10.79-5.87-12.54-19.01-4.98,1.06-8.66-2.41-10.41-6.91-2.77-9.66,5.12-9.01,7.44-5.6Z"/>
        <path class="cls-15" d="m215.3,99.92s-.77,1.43-1.45,3.82c-.17.6-.31,1.27-.38,2.01-.04.38-.06.74-.04,1.2.03.38,0,.68.09,1.13.23,1.71.84,3.31,1.67,4.81.82,1.48,1.82,2.84,2.67,4.02.2.28.4.59.47.74,0,0,.04.08.02.02-.05-.14-.02-.25.02-.42-.13.34.08-.16-.01.03-.16.21-.69.52-1.12.69-.92.41-1.81.55-2.41.66-.62.07-.97.11-.97.11h-.02c-.48.06-.82.49-.75.97.05.37.32.66.67.75,0,0,.43.11,1.2.15.77.05,1.88-.02,3.17-.44.65-.26,1.33-.5,2.09-1.28.14-.06.54-.85.5-.85.12-.33.07-.62.01-.94-.06-.23-.12-.31-.19-.47-.25-.5-.48-.79-.72-1.12-.93-1.23-1.86-2.43-2.63-3.74-.74-1.28-1.34-2.69-1.58-3.92-.09-.28-.09-.71-.14-1.04-.03-.25-.03-.6-.02-.89.03-.61.11-1.21.2-1.76.2-1.11.46-2.03.66-2.66.22-.62.34-.98.34-.98.13-.38-.07-.8-.45-.94-.34-.13-.72.02-.89.33Z"/>
        <path class="cls-26" d="m191.42,80.34c5.29-1.15,9.86-1.29,16.97.7,8.76,2.45,15.35,8.72,26.7,6.19,5.73-1.27,4.01-5.63,4.01-5.63,0,0,5.06-.06,6.24-6.36,1.18-6.26-3.28-9.1-5.42-9.08,0,0,2.38-4.82-1.4-7.85-3.81-3.05-7.63.3-12.58-.12-5.02-.43-9.86-3.43-16.89-5.04-7.17-1.63-12.6,4.29-12.6,4.29,0,0-6.42-2.35-11.16,1.94-4.81,4.35-4.49,8.56-4.49,8.56l10.62,12.4Z"/>
        <path class="cls-37" d="m186.42,110.21c1.12,2.22.86,4.46-.57,5-1.43.55-3.5-.81-4.62-3.03-1.12-2.22-.86-4.46.57-5,1.43-.55,3.5.81,4.62,3.03Z"/>
        <path class="cls-26" d="m219.94,96.99c0,1.4,2.84,1.83,5.71,2.51,4.25,1.01,5.31,1.18,5.86.07.27-.54.24-3.28-4.33-4.5-5.34-1.43-7.25.47-7.24,1.91Z"/>
        <path class="cls-26" d="m203.51,98.51c-3.29.52-5.83,1.45-6.6.26-.65-1.01.06-3.48,5.33-4.89,2.9-.78,7.54-.56,7.88,2,.32,2.39-3.26,2.09-6.61,2.62Z"/>
        <g>
          <path class="cls-2" d="m215.81,127.84c-3.23,0-10.23-2.36-12.88-7.53-.16-.32-.04-.71.28-.88.32-.16.71-.04.88.28,2.79,5.45,11.08,7.38,12.46,6.74.33-.15.71,0,.86.32.15.33,0,.71-.32.86-.29.13-.73.2-1.28.2Z"/>
          <path class="cls-37" d="m204.89,126.79c-.32.64.15,2.38,2.03,3.32,1.95.98,3.88.44,4.2-.21.32-.64-1.34-.69-3.06-1.55-1.72-.86-2.84-2.2-3.16-1.56Z"/>
        </g>
        <g>
          <path class="cls-8" d="m229.92,88.47c-5.48,0-9.89-1.97-14.19-3.89-2.4-1.07-4.89-2.18-7.51-2.92-7.23-2.02-11.73-1.76-16.65-.69-.35.07-.7-.15-.77-.5-.08-.35.15-.7.5-.77,5.12-1.12,9.79-1.39,17.28.71,2.72.76,5.25,1.89,7.69,2.98,5.66,2.53,11.01,4.91,18.7,3.21,1.72-.38,2.86-1.09,3.4-2.09.67-1.26.16-2.65.15-2.66-.08-.2-.05-.42.06-.6.12-.18.32-.29.53-.29.18,0,4.54-.16,5.61-5.83.61-3.23-.4-5.26-1.35-6.39-1.11-1.32-2.53-1.92-3.4-1.92,0,0-.02,0-.03,0-.22,0-.42-.11-.54-.29-.12-.18-.14-.42-.05-.62.07-.16,1.71-4.05-1.62-6.72-.28-.22-.33-.63-.1-.91.22-.28.63-.33.91-.1,3.11,2.49,2.68,5.9,2.27,7.44,1.12.25,2.48.98,3.57,2.28,1.13,1.35,2.34,3.74,1.63,7.47-.98,5.18-4.47,6.47-6.07,6.79.13.73.17,1.86-.42,2.97-.72,1.36-2.15,2.28-4.26,2.75-1.89.42-3.65.6-5.31.6Z"/>
          <path class="cls-8" d="m179.16,97.09c-.66,0-1.32-.05-1.97-.16-.35-.06-.6-.39-.54-.74.06-.35.38-.6.74-.54,4.03.64,8.43-1.07,10.96-4.28.22-.28.63-.33.91-.11.28.22.33.63.11.91-2.44,3.1-6.3,4.91-10.21,4.91Z"/>
          <path class="cls-8" d="m182,101c-.06,0-.12,0-.19,0-.36,0-.64-.31-.63-.67,0-.35.3-.63.65-.63h.02c2.01.04,4.02-.82,5.36-2.31.24-.27.65-.29.92-.05s.29.65.05.92c-1.56,1.72-3.85,2.74-6.17,2.74Z"/>
          <path class="cls-8" d="m183.14,71.76c-.34,0-.62-.26-.65-.6-.38-4.71,2.66-9.54,7.07-11.23.33-.13.71.04.84.37.13.33-.04.71-.37.84-3.9,1.49-6.58,5.75-6.24,9.91.03.36-.24.67-.6.7-.02,0-.04,0-.05,0Z"/>
          <path class="cls-8" d="m173.96,78.07s-.09,0-.14-.02c-.35-.08-.57-.43-.49-.78.65-2.94,3.18-5.34,6.15-5.84.35-.06.69.18.75.53.06.35-.18.69-.53.75-2.46.41-4.55,2.4-5.1,4.84-.07.3-.34.51-.63.51Z"/>
          <path class="cls-8" d="m233.38,80.02c-1.86,0-3.71-.39-5.4-1.2-.32-.16-.46-.54-.31-.87.16-.32.54-.46.87-.31,4.31,2.06,9.85,1.08,13.2-2.33.25-.26.66-.26.92,0,.26.25.26.66,0,.92-2.41,2.46-5.86,3.79-9.29,3.79Z"/>
          <path class="cls-8" d="m230.86,84.84c-.74,0-1.49-.11-2.21-.32-.34-.1-.54-.47-.44-.81.1-.34.47-.54.81-.44,1.83.55,3.88.24,5.46-.83.3-.2.7-.12.9.18.2.3.12.7-.18.9-1.28.86-2.82,1.31-4.35,1.31Z"/>
          <path class="cls-8" d="m199.77,59.15c-.14,0-.28-.04-.4-.14-.28-.22-.33-.63-.11-.91,2.25-2.89,5.96-3.99,9.68-2.89.34.1.54.46.44.81-.1.34-.46.54-.81.44-3.24-.96-6.34-.05-8.28,2.44-.13.16-.32.25-.51.25Z"/>
        </g>
        <g>
          <path class="cls-2" d="m200.59,103.27c-.54.22.76,4.38,5.22,4.11,3.24-.2,3.48-2.68,3.03-2.93-.44-.26-1.28.97-3.08,1.16-2.42.26-4.63-2.56-5.17-2.33Z"/>
          <path class="cls-2" d="m219.73,104.05c-.94.49.69,4.16,4.34,3.97,3.33-.17,3.61-3.14,3.1-3.31s-.73,1.56-3.14,1.61c-2.69.06-3.82-2.55-4.3-2.27Z"/>
        </g>
        <g>
          <path class="cls-24" d="m226.29,92.62s-7.96-1.38-12.58-1.66-9.88.69-9.88.69c0,0,4.24-2.45,10.32-2.15,6.09.3,12.13,3.13,12.13,3.13Z"/>
          <path class="cls-24" d="m221.09,88.59s-3.94-.66-6.23-.79-4.89.32-4.89.32c0,0,2.1-1.16,5.11-1.02,3.01.15,6.01,1.49,6.01,1.49Z"/>
        </g>
        <path class="cls-2" d="m161.51,522.55c-4.81,0-10.53-.48-16.7-1.97-.4-.1-.65-.5-.55-.91.1-.4.5-.65.91-.55,15.09,3.65,27.42,1.12,29.88.53,1.47-7.59,20-103.36,21.12-116.42,1.17-13.59,3.91-38.77,3.94-39.02l4.33-44.68c.02-.23.15-.43.34-.56l12.21-7.88c.35-.22.81-.12,1.04.22.22.35.12.81-.22,1.04l-11.9,7.68-4.3,44.33c-.03.26-2.77,25.42-3.94,38.99-1.17,13.62-21.03,116.02-21.23,117.05-.05.28-.26.5-.54.58-.09.02-5.77,1.56-14.38,1.56Z"/>
        <path class="cls-2" d="m205.18,324.68c-.32,0-.62-.21-.72-.53-.12-.4.1-.82.5-.94,5.02-1.54,12.05-4.66,12.12-4.69.38-.17.82,0,.99.38.17.38,0,.82-.38.99-.07.03-7.19,3.19-12.29,4.76-.07.02-.15.03-.22.03Z"/>
        <path class="cls-2" d="m223.71,523.91c-3.79,0-7.53-.33-10.67-1.25-.27-.08-.47-.3-.53-.57-.1-.5-10.04-51.05-8.68-122.54l-3.74-35.16c-.04-.41.25-.78.67-.82.42-.04.78.25.82.67l3.74,35.25c-1.29,67.83,7.59,116.7,8.57,121.86,11.17,3,30.29-1.34,30.49-1.38.41-.1.81.16.9.56.09.4-.16.81-.56.9-.6.14-10.98,2.49-21.01,2.49Z"/>
        <path class="cls-2" d="m219.75,523.14c-.35,0-.67-.25-.74-.61-.07-.39-7.51-39.75-8.68-67.84-1.14-27.42-.81-51.08-.79-52.36l-7.28-59.21c-.05-.41.24-.79.65-.84.4-.05.78.24.84.65l7.28,59.26s0,.07,0,.1c0,.24-.38,24.32.79,52.33,1.17,27.97,8.58,67.23,8.65,67.62.08.41-.19.8-.6.88-.05,0-.09.01-.14.01Z"/>
        <path class="cls-2" d="m172.48,408.57c-.23,0-.46-.11-.6-.31-2.02-2.74-2.65-6.47-1.65-9.73.12-.4.54-.62.94-.5.4.12.62.54.5.94-.86,2.81-.32,6.03,1.43,8.4.25.33.17.8-.16,1.05-.13.1-.29.15-.44.15Z"/>
        <path class="cls-2" d="m186.33,415.29c-.15,0-.31-.05-.44-.15-.33-.25-.4-.72-.16-1.05,3.61-4.9,5.38-11.18,4.86-17.24-.04-.41.27-.78.68-.81.4-.04.78.27.81.68.55,6.42-1.32,13.07-5.15,18.26-.15.2-.37.31-.6.31Z"/>
        <path class="cls-2" d="m234.17,409.11c-.18,0-.36-.06-.5-.19-4.15-3.72-6.26-9.46-5.51-14.99.06-.41.43-.7.84-.64.41.06.7.43.64.84-.68,5.04,1.24,10.27,5.03,13.67.31.28.33.75.06,1.06-.15.17-.35.25-.56.25Z"/>
        <path class="cls-24" d="m199.63,110.67s5.38,1.72,9.9-2.96c1.09,1.3-3.41,8.7-9.9,2.96Z"/>
        <path class="cls-24" d="m218.8,107.93s2.66,5.16,7.69,3.77c.43,1.52-8.05,4.12-7.69-3.77Z"/>
        <path class="cls-17" d="m263.83,266.39c5.7,1.76,18.8-.94,19.38,1,.82,2.75-7.58,2.85-10.93,4.25,0,0,3.1,2.25,10.11,3.02,7,.77,12.41.17,12.62,1.89.22,1.82-6.97,2.28-12.57,2.2,0,0,1.36.99,6.46,1.64,3.88.49,6.87.64,6.93,2.25.06,1.62-5.31,1.66-8.04,1.65-4.14-.01-7.08-.47-7.26.19s1.57.98,4.85,1.74c2.69.62,5.07,1.12,5,2.37-.1,1.84-9.29.95-15.57-.22-6.29-1.17-12.45-4.2-17.07-8.03,0,0-2.75-1.44-7.01-2.93l5.13-13.84s5.63,2.11,7.98,2.83Z"/>
        <g>
          <path class="cls-33" d="m254.12,258.63l9.23,5.81s-.05,11.17-9.08,15.43l-11.1-2.78,10.95-18.46Z"/>
          <g class="cls-5">
            <g>
              <path class="cls-14" d="m258.53,278.22c-.07,0-.15-.01-.22-.03l-9.06-2.76c-.4-.12-.62-.54-.5-.94.12-.4.54-.62.94-.5l9.06,2.76c.4.12.62.54.5.94-.1.32-.4.53-.72.53Z"/>
              <path class="cls-14" d="m262.18,274.28c-.11,0-.22-.02-.32-.07l-9.35-4.43c-.37-.18-.53-.62-.36-1,.18-.37.62-.53,1-.36l9.35,4.43c.37.18.53.62.36,1-.13.27-.4.43-.68.43Z"/>
              <path class="cls-14" d="m264.14,268.18c-.12,0-.25-.03-.37-.1l-8.56-4.82c-.36-.2-.49-.66-.29-1.02.2-.36.66-.49,1.02-.29l8.56,4.82c.36.2.49.66.29,1.02-.14.24-.39.38-.65.38Z"/>
            </g>
          </g>
        </g>
        <path class="cls-32" d="m165.09,151.15c24.15,15.07,36.47,44.23,55.68,71.45,19.22,27.22,32.95,30.63,35.9,36.46,2.96,5.83-4.68,18.95-11.33,19.68-11,1.21-33.46-7.77-55.12-28.68-29.93-28.9-40.17-56.46-40.17-56.46l15.03-42.45Z"/>
        <path class="cls-33" d="m243.42,279.59c-11.21,0-31.93-8.76-53.71-28.98-36.38-33.79-41.92-61.71-41.97-61.99-.08-.41.19-.8.6-.87.4-.07.8.19.87.6.05.27,5.53,27.75,41.51,61.17,22.8,21.18,44.24,29.62,54.53,28.49,2.94-.32,6.57-3.6,9.03-8.15,2.23-4.13,2.89-8.13,1.71-10.45-.95-1.87-3.16-3.52-6.52-6.02-6.25-4.66-16.7-12.46-29.33-30.34-5.44-7.71-10.34-15.58-15.08-23.2-2.48-3.98-4.81-7.74-7.22-11.47-.22-.35-.12-.81.22-1.04.35-.22.81-.12,1.04.22,2.42,3.75,4.76,7.51,7.24,11.5,4.73,7.6,9.62,15.46,15.03,23.13,12.49,17.68,22.82,25.4,29,30.01,3.53,2.63,5.85,4.37,6.96,6.55,1.42,2.79.77,7.22-1.73,11.85-2.07,3.83-5.98,8.46-10.19,8.92-.63.07-1.3.1-2,.1Z"/>
        <path class="cls-33" d="m206.11,200.06c-.41,0-.74-.32-.75-.73-.09-3.89-1.18-7.72-3.16-11.07-.21-.36-.09-.82.26-1.03.36-.21.82-.09,1.03.26,2.11,3.57,3.28,7.65,3.37,11.8,0,.41-.32.76-.73.77h-.02Z"/>
        <path class="cls-33" d="m242.52,202.93c-.11,0-.21-.02-.32-.07-.38-.18-.54-.62-.36-1,1.93-4.12,3.08-8.51,3.4-13.04.03-.41.4-.72.8-.69.41.03.72.39.69.8-.34,4.72-1.53,9.29-3.54,13.57-.13.27-.4.43-.68.43Z"/>
        <path class="cls-33" d="m197.54,247.62c-.11,0-.23-.02-.33-.08-3.95-1.96-7.29-4.96-9.65-8.68-.22-.35-.12-.81.23-1.04.35-.22.81-.12,1.04.23,2.22,3.49,5.35,6.3,9.05,8.14.37.18.52.63.34,1-.13.26-.4.42-.67.42Z"/>
        <path class="cls-33" d="m219.73,206.73c-.22,0-.44-.1-.59-.28-.26-.32-.2-.8.12-1.05,4.44-3.54,8.29-7.73,11.42-12.47.23-.35.7-.44,1.04-.21.35.23.44.69.21,1.04-3.22,4.87-7.17,9.18-11.74,12.82-.14.11-.3.16-.47.16Z"/>
        <path class="cls-33" d="m225.65,207.05c-.18,0-.37-.07-.52-.2-.3-.28-.31-.76-.03-1.06l5.02-5.32c.29-.3.76-.31,1.06-.03.3.28.31.76.03,1.06l-5.02,5.32c-.15.16-.35.23-.55.23Z"/>
        <path class="cls-37" d="m320.33,260.01c-.96,0-1.91-.1-2.84-.31-.35-.08-.57-.43-.49-.78.08-.35.43-.57.78-.49,2.7.61,5.66.22,8.11-1.07.32-.17.71-.04.88.27.17.32.04.71-.27.88-1.88.99-4.03,1.5-6.16,1.5Z"/>
      </g>
      <g>
        <path class="cls-6" d="m404.08,146.5c-25,13-55.5,42-72,56.5l27.5,25.5,39.5-21.5,5-60.5Z"/>
        <path class="cls-28" d="m393.95,517.1c2,23.93-32.2,17.5-32,24.78.21,7.28,38.44,5.72,42.26.5,4.63-6.32,1.61-28.13,1.61-28.13l-11.87,2.85Z"/>
        <g>
          <path class="cls-36" d="m358.53,193.78s3.26-76.14,21.14-74.08c19.04,2.19,6.74,77.98,6.74,77.98l-27.89-3.9Z"/>
          <path class="cls-21" d="m381.34,196.97l5.08.71s12.29-75.79-6.75-77.98c-1.32-.15-2.56.13-3.72.77,15.58,5.61,6.76,67.46,5.38,76.5Z"/>
          <g>
            <path class="cls-21" d="m369.8,140.59c.16,1.41,3.96,3.4,9.22,3.76,2.69.18,8.99-1,8.73-2.7-.26-1.7-3.15-3.3-8.31-3.71-2.72-.22-9.8,1.23-9.64,2.65Z"/>
            <path class="cls-21" d="m367.04,155.21c-.3,1.72,4.19,4.2,10.17,5.23,3.27.57,11.2-.55,11.01-2.33-.19-1.78-3.66-4.47-10.11-5.24-3.08-.37-10.77.62-11.07,2.34Z"/>
            <path class="cls-21" d="m365.42,171.02c-.27,1.49,4.11,4.61,10.22,5.88,3.15.66,10.37-.21,10.76-1.78.4-1.57-3.25-4.47-9.37-5.73-3.13-.65-11.34.14-11.61,1.63Z"/>
          </g>
        </g>
        <path class="cls-28" d="m486.47,516.6c7.08,25.57-12.43,18.03-10.69,25.8s25.49,6.89,28.36,1.41c3.48-6.64-5.95-29.98-5.95-29.98l-11.72,2.77Z"/>
        <path class="cls-27" d="m393.15,260.19s-6.51,115.99-6.91,135.61c-.39,19.62,2.96,124.82,2.96,124.82,0,0,19.94,4.59,31.39,1.25,0,0,10.07-50.27,8.69-122.7l4.31-45.17s7.4,33.49,12.75,50.13c4.27,13.27,30.6,116.06,30.6,116.06,0,0,13.79,3.76,30.75-.42,0,0,.46-62.99-15.73-117.9,0,0-6.29-77.79-5.65-90.76.94-19.12-.79-49.26-.79-49.26l-92.38-1.67Z"/>
        <path class="cls-6" d="m442.61,138.72c17.32,1.21,34.97,7.28,39.97,16.78,5.97,11.34,7.15,25.01,7.58,48.43.23,12.41-1.05,19.43-1.42,37.4-.32,15.95,3.33,40-2.33,47.33-4.14,5.36-7.33,10.83-37.83,15.83-27.52,4.51-55.56.67-58.17-5.83-2.6-6.51-.73-57.14.57-79.26,1.3-22.12-2.17-57.69,4.34-66.37,6.51-8.68,28.63-15.62,47.28-14.32Z"/>
        <path class="cls-12" d="m392.51,261.58c-.3,0-.58-.18-.7-.47-2.53-6.31-2.97-18.02-1.57-41.75.42-7.13.34-15.84.26-24.27-.03-3.39-.06-6.79-.06-10.11,0-.41.34-.75.75-.75s.75.34.75.75c0,3.32.03,6.71.06,10.1.08,8.45.16,17.19-.27,24.37-1.36,23.18-.94,35.09,1.47,41.1.15.38-.03.82-.42.97-.09.04-.19.05-.28.05Z"/>
        <path class="cls-4" d="m410.09,523.84c-10.06,0-20.47-2.36-21.06-2.5-.4-.09-.66-.5-.56-.9.09-.4.5-.66.9-.56.19.04,19.37,4.4,30.57,1.38.98-5.17,9.88-54.17,8.58-122.09l4.32-45.25c.04-.41.4-.72.82-.68.41.04.71.41.68.82l-4.31,45.17c1.37,71.6-8.6,122.27-8.7,122.78-.05.27-.26.49-.53.57-3.15.92-6.9,1.26-10.7,1.26Z"/>
        <path class="cls-4" d="m414.07,523.08s-.09,0-.14-.01c-.41-.08-.67-.47-.6-.88.07-.39,7.5-39.75,8.67-67.79,1.17-28.08.79-52.22.79-52.46,0-.03,0-.07,0-.1l7.3-59.41c.05-.41.43-.7.84-.65.41.05.7.42.65.84l-7.3,59.36c.02,1.28.36,25.01-.79,52.5-1.17,28.15-8.62,67.62-8.7,68.01-.07.36-.38.61-.74.61Z"/>
        <path class="cls-25" d="m317.3,179.76c.41-3.81-.77-8.1-4.36-9.44.07-2.68-.87-11.53-3.92-7.65-3.5-6.37-10.2-7.23-11.23-5.06-.98,2.05,1.84,2.23,3.58,6.06-6.62-.18.18,8.51,1.95,9.11-1.17,3.95,1.1,8.32,5.03,9.56-.28,2.78,1.15,5.55,3.71,6.67l8.69,6.79c2.76-5.37,1.35-12.36-3.45-16.03Z"/>
        <path class="cls-18" d="m359.57,182.69c1.71-4.29,2.41-9.39.08-13.38-.62-1.06-1.45-2.03-1.84-3.19-.68-2,.02-4.17.29-6.27.27-2.1,0-4.9-1.94-5.74,1.49-3.35,3.05-9.97,1.01-11.63-1.38-1.12-1.85,1.22-2.77,1.35-.54-3.21,4.23-9.24,0-10.44-2.84-.81-9.7,6.34-7.22,17.24-2.71,1.85-3.68,5.82-2.8,8.97.44,1.58,3.08,5.73,3.32,7.07.14.8-3.03-3.29-4.68-1.19-1.14,1.46.99,4.62,2.43,7.84,1.04,2.34.98,5.85.98,5.85-4.14-1.84-2.77,5.28,2.62,8.36l11.04,5.07c2.13-2.88,1.91-7.25-.5-9.9Z"/>
        <path class="cls-4" d="m472.05,408.21c-.14,0-.29-.04-.41-.12-.34-.23-.44-.69-.21-1.04,1.57-2.36,1.88-5.59.81-8.41-.15-.39.05-.82.44-.97.39-.15.82.05.97.44,1.24,3.26.87,7.01-.96,9.77-.14.22-.38.34-.63.34Z"/>
        <path class="cls-4" d="m458.65,414.94c-.22,0-.44-.1-.58-.28-4.2-5.19-6.55-11.85-6.46-18.28,0-.41.34-.74.75-.74h.01c.41,0,.75.35.74.76-.09,6.08,2.15,12.39,6.13,17.31.26.32.21.79-.11,1.05-.14.11-.31.17-.47.17Z"/>
        <path class="cls-4" d="m399.61,408.75c-.21,0-.41-.08-.56-.25-.28-.31-.25-.78.06-1.06,3.8-3.4,5.73-8.65,5.04-13.7-.06-.41.23-.79.64-.84.41-.06.79.23.84.64.75,5.54-1.37,11.29-5.53,15.02-.14.13-.32.19-.5.19Z"/>
        <path class="cls-12" d="m391.24,202.04c-.28,0-.55-.16-.68-.43-2.02-4.3-3.21-8.87-3.55-13.61-.03-.41.28-.77.69-.8.41-.02.77.28.8.69.33,4.55,1.48,8.95,3.41,13.08.18.38.02.82-.36,1-.1.05-.21.07-.32.07Z"/>
        <path class="cls-9" d="m312.76,296.9c-9.71-5.57-7.52-27.09-6.98-54.75.54-27.66-3.22-40.08-2.69-59.27,0,0,21.49,0,46.21-.56,24.72-.56,46.21-.56,46.21-.56,0,0-1.07,23.71,0,44.59,1.07,20.88,2.69,62.65-1.61,67.73-4.3,5.08-23.1,5.08-47.28,5.64-24.18.56-27.94.56-33.85-2.82Z"/>
        <path class="cls-30" d="m395.5,226.34c-1.07-20.88,0-44.59,0-44.59,0,0-3.34,0-8.88.03-.25,8.38-.53,24.14.21,38.56,1.07,20.88,2.69,62.65-1.61,67.73-4.3,5.08-23.1,5.08-47.28,5.64-17.57.41-24.35.52-29.02-.75,1.01,1.7,2.26,3.02,3.84,3.92,5.91,3.39,9.67,3.39,33.85,2.82,24.18-.56,42.98-.56,47.28-5.64,4.3-5.08,2.69-46.85,1.61-67.73Z"/>
        <path class="cls-17" d="m366.14,272.25s-6.79,4.46-10.96,6.17c-4.18,1.72-6.94.65-11.66.86-4.93.21-11.9,2.1-12.1,3.63-.25,1.92,2.53,2.03,6.36,1.51s7.13.34,7.13.34c0,0-4.31,3.88-6.74,7.14s-6.51,8.92-4.08,10.08c2.25,1.08,5.17-1.33,5.17-1.33,0,0-.62,2.58,2.17,2.58s4.83-2.25,4.83-2.25c0,0-.9,1.48,1.33,1.83,2.08.33,5.25-.81,9.25-4.58s6.33-5.96,8.42-7.5c2.09-1.54,10.46-3.4,10.46-3.4l-9.57-15.09Z"/>
        <path class="cls-6" d="m469.58,153.5c-17,2.5-26.1,45.26-47,74-9.33,12.83-42.17,26.33-62.67,42.83,0,0-2.5,17.83,12,22.83,0,0,41.45-4.19,75.67-30.17,27-20.5,34-42.5,39-66s-7.4-44.91-17-43.5Z"/>
        <path class="cls-17" d="m301.96,207c3.12-4.75,16.55-5.5,16.46-2.67-.08,2.54-7.08,1.42-10.85,4.07,4.89-.53,13.22,3.05,11.89,5.72-.88,1.75-5.5-.44-8.5-.75-2.69-.27-5.23.27-5.25.88-.02.61,2.78.29,5.25.75,2.66.49,5.01,1.77,4.75,2.88-.34,1.45-2.88.64-5.25.62-2.37-.02-4.57.75-4.57.75l-.13,9.75s-4.18-5.12-5.18-9.75c-.94-4.36-.66-9.15,1.38-12.25Z"/>
        <path class="cls-4" d="m491.27,522.48c-8.63,0-14.44-1.54-14.53-1.56-.26-.07-.46-.28-.53-.54-.26-1.03-26.38-102.92-30.59-116.02-5.3-16.49-12.7-49.87-12.77-50.2l-7.42-35.62-13.13-5.35c-.38-.16-.57-.59-.41-.98.16-.38.59-.57.98-.41l13.5,5.5c.23.09.4.3.45.54l7.5,36c.07.33,7.45,33.64,12.73,50.06,4.08,12.7,28.63,108.36,30.5,115.67,2.42.57,15.02,3.15,29.96-.52.4-.1.81.15.91.55.1.4-.15.81-.55.91-6.08,1.5-11.78,1.98-16.6,1.98Z"/>
        <path class="cls-4" d="m426.83,322.25s-.07,0-.1,0c-7.58-1.01-12.13-3.99-12.32-4.12-.34-.23-.44-.69-.21-1.04s.69-.44,1.04-.21c.04.03,4.47,2.92,11.68,3.88.41.06.7.43.64.84-.05.38-.37.65-.74.65Z"/>
        <g>
          <polygon class="cls-3" points="350.74 183.75 308.58 183.75 320.66 160.08 338.66 160.08 350.74 183.75"/>
          <polygon class="cls-34" points="350.74 183.75 334.08 183.75 332.08 160.08 338.66 160.08 350.74 183.75"/>
          <rect class="cls-35" x="320.66" y="149" width="17.75" height="11.08"/>
          <rect class="cls-4" x="332.08" y="149" width="6.33" height="11.08"/>
        </g>
        <path class="cls-16" d="m409.26,144s3.17,6.83,20.67,7.83c17.5,1,29.83-10.17,29.83-10.17,0,0-10.83-4-26.83-2.83-16,1.17-23.67,5.17-23.67,5.17Z"/>
        <path class="cls-7" d="m464.51,76.96c-.44-6.39-4.31-11.79-8.56-12.85-3.04-.76-5.54.69-8.17,2.61-2.93,2.15-25.26,3.63-26.59,6.93-1.33,3.3,7.13,8.97,6.64,12.4-.63,4.45,10.89,3.71,10.68,8.16-.16,3.3-.11,6.86,1.92,9.26,2.12,2.5,1.34,20.06,4.62,18.55,0,0,11.8.47,17.39-22.93,1.84-7.71,2.46-16.42,2.07-22.13Z"/>
        <path class="cls-16" d="m447.71,115.09l-4.35-1.64-26.21,17.81c1.11,7.35.49,9.31-.41,11.49,3,1.75,8.87,4.54,15.85,4.47,7.08-.07,12.5-2.07,16.39-5.89-1.8-5.99-2.89-15.84-1.28-26.24Z"/>
        <path class="cls-22" d="m447.15,130.88c-.39-4.76-.31-10.19.56-15.79l-4.35-1.64-26.21,17.81c.86,5.72.68,8.17.13,10-1.22.31-2.3.62-3.24.92,2.48,1.71,6.57,3.56,12.54,3.32,9.23-.36,16.51-7.28,20.56-14.62Z"/>
        <path class="cls-31" d="m448.01,103.05c-5.17-.43-6.25-7.21-4.8-11.95,0,0-9.02-5.43-7.27-15.64-8.33-5.9-32.2-7.83-33.14,7.24-1.56,25.2,1.63,39.15,4.98,46,3.53,7.21,11.93,9.51,21.14,5.45,6.06-2.67,12.61-8.74,15.41-18.39,5.07,1.34,9.03-2.05,11.05-6.59,3.33-9.81-4.82-9.52-7.38-6.13Z"/>
        <path class="cls-7" d="m458.07,55.06c1.09,1.7.41,4.53-.08,6.37-.57,2.13-1.89,4.34-3.98,5.27-.37.17-.96.09-1.25-.2-.51-.53-.6-1.13-.14-1.78.3-.42.95-.61,1.34-.95.5-.44.88-1.01,1.21-1.58.69-1.22,1.13-2.54,1.47-3.89.26-1.04.3-2.17.72-3.15.12-.28.55-.32.71-.07h0Z"/>
        <path class="cls-7" d="m462.58,57.87c.35,1.99-1.36,4.34-2.51,5.85-1.34,1.75-3.41,3.29-5.7,3.34-.41.01-.93-.28-1.07-.66-.27-.69-.13-1.28.56-1.7.44-.27,1.11-.2,1.6-.37.63-.21,1.2-.6,1.72-1,1.11-.86,2.02-1.92,2.85-3.03.64-.86,1.1-1.89,1.87-2.63.22-.21.63-.09.68.2h0Z"/>
        <path class="cls-23" d="m417.81,95.49s.72,1.51,1.3,4c.14.63.25,1.32.29,2.09.02.39.03.76-.02,1.23-.05.38-.04.7-.15,1.16-.33,1.75-1.03,3.36-1.95,4.86-.91,1.48-2.01,2.83-2.94,4-.22.28-.44.59-.52.74,0,0-.04.08-.02.02.06-.14.03-.26,0-.43.12.35-.07-.16.01.03.16.23.68.56,1.12.76.93.46,1.83.66,2.45.8.63.1,1,.16,1,.16h.02c.49.08.82.55.73,1.04-.07.38-.37.66-.72.74,0,0-.45.09-1.25.1-.8.01-1.93-.11-3.25-.61-.65-.3-1.34-.58-2.09-1.42-.14-.07-.52-.9-.47-.9-.1-.34-.04-.65.03-.96.08-.23.14-.31.21-.48.29-.5.54-.79.8-1.11,1.02-1.22,2.04-2.41,2.89-3.72.83-1.28,1.51-2.71,1.82-3.96.11-.28.13-.72.2-1.07.05-.26.06-.61.06-.92,0-.63-.05-1.25-.12-1.82-.15-1.15-.38-2.11-.55-2.77-.19-.65-.3-1.03-.3-1.03-.12-.4.11-.82.51-.95.36-.11.74.06.9.38Z"/>
        <path class="cls-22" d="m447.02,107.5c-1.26,2.23-1.11,4.54.34,5.18,1.45.63,3.64-.66,4.9-2.88s1.11-4.54-.34-5.18c-1.45-.63-3.64.66-4.9,2.88Z"/>
        <path class="cls-7" d="m413.18,92.24c-.08,1.44-3.01,1.74-6,2.3-4.42.83-5.52.95-6.03-.22-.25-.56-.09-3.38,4.68-4.41,5.57-1.2,7.43.85,7.35,2.33Z"/>
        <path class="cls-7" d="m430.01,94.62c3.36.7,5.93,1.78,6.77.6.71-1,.11-3.58-5.24-5.29-2.95-.95-7.73-.95-8.21,1.67-.45,2.44,3.25,2.32,6.67,3.03Z"/>
        <path class="cls-7" d="m394.71,73.27s-6.95-7.27-1.14-13.48c5.8-6.21,12.47-3.54,12.47-3.54,0,0,1.83-9.14,13.99-8.13,12.16,1.01,15.2,9.63,15.2,9.63,0,0,3.44-4.32,11.8-1,8.36,3.31,9.2,8.66,9.2,8.66l-19.7,11.3c-7.24,4.24-15.54,5.76-25.43,3.14-3.39,5.3-10.15,7.45-14.66,4.89-3.81-2.15-5.65-6.95-1.72-11.47Z"/>
        <g>
          <path class="cls-19" d="m400.71,86.48c-1.63,0-3.21-.37-4.61-1.17-2.24-1.27-3.75-3.31-4.15-5.61-.26-1.55-.13-3.88,1.88-6.43-1.44-1.75-6.06-8.26-.76-13.94,6.04-6.47,13.14-3.73,13.21-3.71.34.14.51.52.37.86-.14.34-.52.51-.86.37-.26-.1-6.33-2.41-11.74,3.38-5.31,5.69.87,12.28,1.14,12.56.24.25.25.64.02.9-1.6,1.84-2.28,3.84-1.94,5.77.32,1.9,1.6,3.6,3.49,4.67,4.29,2.43,10.6.29,13.77-4.67.16-.24.45-.36.73-.29,9.11,2.42,17.26,1.41,24.92-3.07.32-.19.73-.08.91.24.19.32.08.73-.24.91-7.85,4.59-16.19,5.68-25.48,3.32-2.56,3.71-6.75,5.87-10.68,5.87Z"/>
          <path class="cls-19" d="m401.14,72.28s-.06,0-.09,0c-2.15-.28-4.13-1.59-5.16-3.43-1.04-1.85-1.08-4.16-.1-6.01.17-.33.58-.45.9-.28.33.17.45.58.28.9-.77,1.46-.74,3.27.08,4.74.83,1.48,2.43,2.54,4.17,2.76.36.05.62.38.58.75-.04.34-.33.58-.66.58Z"/>
          <path class="cls-19" d="m397.85,81.57c-.12,0-.24-.03-.34-.1-1.21-.73-2-2.02-2.06-3.38-.06-1.37.61-2.71,1.76-3.5.3-.21.72-.13.93.17.21.3.13.72-.17.93-.76.53-1.23,1.45-1.19,2.34.04.91.6,1.81,1.41,2.3.32.19.42.6.23.92-.13.21-.35.32-.57.32Z"/>
          <path class="cls-19" d="m432.51,75.02c-.33,0-.62-.25-.66-.59-.04-.37.22-.7.58-.74,4.06-.48,7.69-3.26,9.02-6.92.13-.35.51-.53.85-.4.35.13.52.51.4.85-1.5,4.13-5.57,7.26-10.12,7.79-.03,0-.05,0-.08,0Z"/>
          <path class="cls-19" d="m451.51,91.15c-2.01,0-4.02-.48-5.79-1.4-2.63-1.37-4.76-3.74-5.85-6.5-.13-.33.03-.71.37-.84.34-.13.71.03.84.37.97,2.47,2.88,4.6,5.24,5.82,2.36,1.23,5.19,1.57,7.77.95.35-.08.7.13.78.48.08.35-.13.7-.48.78-.94.23-1.92.34-2.89.34Z"/>
          <path class="cls-19" d="m450.65,96.03c-2.15,0-4.32-.96-5.67-2.64-.22-.28-.18-.69.1-.91.28-.23.69-.18.91.1,1.49,1.86,4.21,2.64,6.46,1.85.34-.12.71.06.83.4.12.34-.06.71-.4.83-.72.25-1.48.37-2.24.37Z"/>
          <path class="cls-19" d="m461.46,80.08s-.08,0-.11,0c-.35-.06-.59-.4-.53-.75.69-3.91-1.33-8.15-4.79-10.09-.31-.18-.43-.57-.25-.88.18-.31.57-.42.88-.25,3.94,2.2,6.22,7.01,5.44,11.45-.06.32-.33.54-.64.54Z"/>
          <path class="cls-19" d="m431.36,60.34c-.35,0-.64-.27-.66-.62-.23-3.12-2.7-6.06-5.87-6.97-.35-.1-.56-.47-.46-.83.1-.35.47-.56.83-.46,3.69,1.06,6.56,4.49,6.83,8.15.03.37-.25.69-.62.71-.02,0-.03,0-.05,0Z"/>
          <path class="cls-19" d="m451.2,66.22c-.06,0-.12,0-.18-.03-.35-.1-.56-.47-.46-.82.58-2.01-.75-4.4-2.85-5.11-.35-.12-.53-.5-.42-.85.12-.35.5-.54.85-.42,2.78.95,4.47,4.03,3.7,6.74-.08.29-.35.48-.64.48Z"/>
        </g>
        <g>
          <g>
            <path class="cls-2" d="m424.93,100.89c0,1.51.97,2.72,2.17,2.72,1.2,0,2.17-1.23,2.17-2.74,0-1.51-.97-2.72-2.17-2.72-1.2,0-2.17,1.23-2.17,2.74Z"/>
            <path class="cls-2" d="m433.37,102.74c-.39-2.39-2.64-4.8-5.96-5.18-2.4-.22-3.53,2.24-3.26,3.47,0,0,1.21-1.76,3.22-1.46,2.02.3,6,3.17,6,3.17Z"/>
          </g>
          <g>
            <path class="cls-2" d="m404.79,100.8c0,1.44.9,2.61,2.02,2.6,1.11,0,2.01-1.18,2.01-2.62,0-1.44-.9-2.61-2.02-2.6-1.11,0-2.01,1.18-2.01,2.62Z"/>
            <path class="cls-2" d="m412.23,102.47c.09-2.26-2.29-4.97-4.98-4.98-2.16-.13-3.6,2.7-3.35,3.89,0,0,1.11-2.13,3.31-1.97,2.48.19,5.02,3.06,5.02,3.06Z"/>
          </g>
        </g>
        <g>
          <path class="cls-29" d="m427.59,125.48c.29.64-.23,2.32-2.1,3.18-1.95.89-3.81.29-4.1-.35-.29-.64,1.34-.63,3.05-1.41s2.86-2.06,3.15-1.42Z"/>
          <g>
            <path class="cls-2" d="m429.09,116.97s-3.75,1.92-7.94,3.39c-3.96,1.39-7.48,1.67-7.48,1.67,0,0,2.4,5.27,9.56,2.65,5.42-1.99,5.86-7.71,5.86-7.71Z"/>
            <path class="cls-11" d="m422.95,123.48c-4.14,1.51-5.75-.68-5.75-.68,0,0,2.42-.52,5.35-1.67,3.72-1.46,4.84-2.1,4.84-2.1,0,0-.41,2.97-4.44,4.45Z"/>
          </g>
        </g>
        <path class="cls-22" d="m339.25,301.32c-.13,0-.27-.04-.39-.13-.29-.21-.35-.62-.13-.91.09-.13,2.29-3.08,3.42-4.34.24-.27.65-.29.92-.05.27.24.29.65.05.92-1.09,1.21-3.32,4.21-3.34,4.24-.13.17-.32.26-.52.26Z"/>
        <path class="cls-22" d="m346.12,301.82c-.13,0-.27-.04-.39-.13-.29-.21-.35-.62-.13-.91.09-.13,2.29-3.08,3.42-4.34.24-.27.65-.29.92-.05.27.24.29.65.05.92-1.09,1.21-3.32,4.21-3.34,4.24-.13.17-.32.26-.52.26Z"/>
        <g>
          <path class="cls-30" d="m347.1,203.85c-.38,0-.7-.28-.74-.67-.05-.41.25-.78.66-.83,13.91-1.55,28.06-2.5,42.05-2.81.39.01.76.32.77.73,0,.41-.32.76-.73.77-13.95.31-28.05,1.25-41.92,2.8-.03,0-.06,0-.08,0Z"/>
          <path class="cls-30" d="m363.08,208.03c-.38,0-.7-.28-.74-.66-.05-.41.25-.78.66-.83l18.65-2.14c.41-.04.78.25.83.66.05.41-.25.78-.66.83l-18.65,2.14s-.06,0-.09,0Z"/>
          <path class="cls-30" d="m340.17,259.57c-6.1,0-12.2-.56-18.19-1.67-.41-.08-.68-.47-.6-.87.08-.41.47-.67.87-.6,15.01,2.8,30.69,2.02,45.36-2.25.4-.12.81.11.93.51.12.4-.11.81-.51.93-9.03,2.63-18.45,3.95-27.86,3.95Z"/>
          <path class="cls-30" d="m344.7,265.24c-4.03,0-8.06-.27-12.05-.79-.41-.05-.7-.43-.65-.84.05-.41.43-.7.84-.65,5.79.77,11.69.97,17.52.6.42-.02.77.29.8.7.03.41-.29.77-.7.8-1.92.12-3.84.18-5.77.18Z"/>
        </g>
        <g>
          <path class="cls-2" d="m414.09,205.84c-.16,0-.33-.05-.47-.16-4.58-3.65-8.54-7.97-11.77-12.85-.23-.35-.13-.81.21-1.04.35-.23.81-.13,1.04.21,3.15,4.75,7,8.96,11.45,12.5.32.26.38.73.12,1.05-.15.19-.37.28-.59.28Z"/>
          <path class="cls-2" d="m408.15,206.16c-.2,0-.4-.08-.55-.23l-5.03-5.33c-.28-.3-.27-.78.03-1.06.3-.28.78-.27,1.06.03l5.03,5.33c.28.3.27.78-.03,1.06-.15.14-.33.2-.52.2Z"/>
          <path class="cls-2" d="m371.92,293.92c-.08,0-.17-.01-.24-.04-14.91-5.14-12.52-23.46-12.5-23.65.06-.41.44-.69.85-.64.41.06.7.44.64.85-.1.7-2.22,17.16,11.34,21.97,2.87-.33,42.56-5.27,75.13-30,27.28-20.72,33.88-42.83,38.72-65.56.09-.41.48-.66.89-.58.4.09.66.48.58.89-4.9,23.01-11.59,45.41-39.28,66.44-33.99,25.81-75.63,30.27-76.05,30.32-.02,0-.05,0-.08,0Z"/>
          <path class="cls-2" d="m359.92,271.08c-.22,0-.44-.1-.58-.28-.26-.32-.21-.79.11-1.05,9.03-7.27,20.27-13.86,31.14-20.23,13.5-7.91,26.24-15.38,31.39-22.46,8.47-11.65,15.08-25.81,20.92-38.3.75-1.6,1.48-3.18,2.21-4.73.18-.37.62-.53,1-.36.37.18.54.62.36,1-.73,1.55-1.47,3.12-2.21,4.72-5.87,12.56-12.51,26.79-21.07,38.55-5.33,7.33-18.21,14.88-31.85,22.88-10.82,6.34-22.01,12.9-30.96,20.1-.14.11-.3.17-.47.17Z"/>
          <path class="cls-2" d="m446.41,256.72c-.28,0-.54-.15-.67-.42-.18-.37-.03-.82.34-1.01,3.46-1.72,6.53-4.25,8.87-7.33.25-.33.72-.39,1.05-.14.33.25.39.72.14,1.05-2.48,3.26-5.73,5.94-9.4,7.76-.11.05-.22.08-.33.08Z"/>
          <path class="cls-2" d="m381.42,292.08c-.11,0-.21-.02-.32-.07-15.98-7.48-13.45-27.25-13.43-27.45.06-.41.43-.7.85-.64.41.06.7.43.64.84-.03.19-2.4,18.88,12.57,25.89.38.18.54.62.36,1-.13.27-.4.43-.68.43Z"/>
          <path class="cls-2" d="m425.72,302.24c-9.3,0-15.65-.73-15.8-.75-.41-.05-.7-.42-.66-.83.05-.41.43-.7.83-.66.35.04,35.62,4.09,62.12-7.2.38-.16.82.02.98.4.16.38-.02.82-.4.98-15.61,6.65-34.19,8.05-47.08,8.05Z"/>
          <path class="cls-2" d="m430.22,297.77c-5.2,0-8.76-.52-8.83-.53-.41-.06-.69-.44-.63-.85.06-.41.44-.69.85-.63.13.02,13.25,1.93,25.93-1.73.4-.12.81.11.93.51.11.4-.11.81-.51.93-6.34,1.83-12.79,2.3-17.74,2.3Z"/>
          <path class="cls-2" d="m433.17,158.34c-16.5,0-25.79-8-25.91-8.11-.31-.27-.34-.75-.07-1.06.27-.31.75-.34,1.06-.07.14.12,14.36,12.31,38.98,5.84.4-.11.81.13.92.53.11.4-.13.81-.53.92-5.29,1.39-10.12,1.94-14.45,1.94Z"/>
          <path class="cls-2" d="m439.76,197.08c-.4,0-.73-.31-.75-.71-.01-.28-.32-6.87,1.37-11.94.13-.39.56-.61.95-.47.39.13.6.56.47.95-1.6,4.81-1.3,11.33-1.3,11.39.02.41-.3.77-.71.79-.01,0-.03,0-.04,0Z"/>
        </g>
      </g>
    </g>
  </g>
</svg>