<?xml version="1.0" encoding="UTF-8"?>
<svg id="Layer_2" data-name="Layer 2" xmlns="http://www.w3.org/2000/svg" viewBox="0 0 382.18 502.1">
  <defs>
    <style>
      .cls-1 {
        fill: #f4b199;
      }

      .cls-2 {
        fill: #5e5254;
      }

      .cls-3 {
        fill: #f0e7e2;
      }

      .cls-4 {
        fill: #86a09c;
      }

      .cls-5 {
        fill: #706466;
      }

      .cls-6 {
        fill: #c07d4f;
      }

      .cls-7 {
        fill: #e3d1cf;
      }

      .cls-8 {
        fill: #cfbbb8;
      }

      .cls-9 {
        fill: #f0edf4;
      }

      .cls-10 {
        fill: #a64e4e;
      }

      .cls-11 {
        fill: #ba5a5a;
      }

      .cls-12 {
        fill: #ce807c;
      }

      .cls-13 {
        fill: #e29b86;
      }

      .cls-14 {
        fill: #efac94;
      }

      .cls-15 {
        fill: #d3837c;
      }

      .cls-16 {
        fill: #e59e89;
      }

      .cls-17 {
        fill: #ab663b;
      }

      .cls-18 {
        fill: #f4e7e4;
      }

      .cls-19 {
        fill: #514b4c;
      }

      .cls-20 {
        fill: #d2827b;
      }

      .cls-21 {
        fill: #cecece;
      }

      .cls-22 {
        fill: #b5b5b5;
      }

      .cls-23 {
        fill: #9cb7ae;
      }

      .cls-24 {
        fill: #cd807b;
      }
    </style>
  </defs>
  <g id="_2" data-name="2">
    <g>
      <path class="cls-19" d="m361.89,468.04c12.6,18.82-12.18,24.19-8.69,30.04,3.49,5.85,28.05-7.28,28.92-12.7,1.05-6.57-11.45-23.35-11.45-23.35l-8.79,6Z"/>
      <path class="cls-19" d="m292.37,474.79c-5.72,20.01-25.83,6.86-27.89,12.8-2.06,5.94,23.65,14.15,28.22,11.37,5.55-3.37,9.83-22.05,9.83-22.05l-10.16-2.13Z"/>
      <path class="cls-21" d="m280.21,208.72c-2.73,18.04,2.73,123,9.84,147.06,7.11,24.05,43.73,75.99,61.77,116.44,0,0,19.68.55,29.52-16.4,0,0-18.59-66.69-43.19-108.79l-8.75-132.29-49.2-6.01Z"/>
      <path class="cls-22" d="m351.95,472.97c-.09,0-.14,0-.15,0-.29,0-.55-.18-.66-.44-8.52-19.11-20.95-40.35-32.96-60.9-7.07-12.09-13.75-23.51-19.03-33.52-.19-.37-.05-.82.31-1.01.37-.19.82-.05,1.01.31,5.27,9.98,11.94,21.38,19,33.46,11.94,20.42,24.29,41.54,32.84,60.6,3-.06,19.72-1.1,28.39-16.02.21-.36.67-.48,1.02-.27.36.21.48.67.27,1.03-9.49,16.34-28.16,16.77-30.04,16.77Z"/>
      <path class="cls-21" d="m300.98,214.19l2.19,50.29,8.2,4.37s-14.76,68.33-18.59,84.73c-3.83,16.4-14.21,119.72-14.21,119.72,0,0,19.13,10.93,34.99,3.83,0,0,20.77-75.99,25.69-114.25,0,0,21.77-76.96,25.15-90.2,6.56-25.69,4.92-62.32,4.92-62.32l-68.33,3.83Z"/>
      <path class="cls-22" d="m347.18,229.5s4.1,8.2,17.49,9.57c0,0,.27-8.2.27-13.67l-17.77,4.1Z"/>
      <path class="cls-22" d="m301.55,480.31c-12.06,0-22.76-6.01-23.36-6.35-.26-.15-.4-.43-.37-.73.1-1.03,10.43-103.56,14.23-119.82,3.6-15.43,17.06-77.67,18.47-84.18l-10.45-5.74c-.24-.13-.39-.38-.39-.66,0-.2,0-20.09-.27-32.51,0-.41.32-.76.73-.77.38,0,.76.32.77.73.25,11.4.27,29.08.27,32.1l10.55,5.8c.29.16.44.49.37.82-.15.68-14.81,68.53-18.59,84.75-3.64,15.58-13.36,111.33-14.15,119.13,2.88,1.52,19.85,9.86,33.88,3.56.38-.17.82,0,.99.38.17.38,0,.82-.38.99-4.03,1.81-8.25,2.49-12.31,2.49Z"/>
      <path class="cls-22" d="m310.28,272.89c-5.58,0-11.04-2.7-11.27-2.81-.37-.18-.52-.64-.34-1.01.19-.37.64-.52,1.01-.34.05.03,5.38,2.65,10.6,2.65.41,0,.75.34.75.75s-.34.75-.75.75Z"/>
      <path class="cls-22" d="m296.02,372.18c-.4,0-.73-.32-.75-.72-.26-6.96,1.01-14.05,3.67-20.48.16-.38.6-.56.98-.41.38.16.56.6.41.98-2.58,6.24-3.81,13.11-3.56,19.85.02.41-.31.76-.72.78,0,0-.02,0-.03,0Z"/>
      <path class="cls-22" d="m314.66,368.02c-.14,0-.29-.04-.42-.13-.34-.23-.44-.7-.21-1.04,1.26-1.89,1.98-4.17,2.02-6.44,0-.41.33-.74.77-.73.41,0,.74.35.73.77-.05,2.55-.86,5.12-2.28,7.24-.14.22-.38.33-.62.33Z"/>
      <path class="cls-22" d="m313.56,477.89c-.07,0-.13,0-.2-.03-.4-.11-.63-.52-.53-.92.21-.76,20.81-76.37,25.67-114.15,0-.04.01-.07.02-.11.22-.77,21.8-77.1,25.14-90.18,6.46-25.29,4.91-61.74,4.9-62.1-.02-.41.3-.76.72-.78.43-.04.76.3.78.72.02.37,1.57,37.03-4.94,62.54-3.31,12.95-24.46,87.76-25.14,90.17-4.88,37.9-25.5,113.54-25.7,114.3-.09.33-.39.55-.72.55Z"/>
      <g>
        <path class="cls-5" d="m137.8,353.41c-36.03,0-65.24,33.29-65.24,74.35s29.21,74.35,65.24,74.35,65.24-33.29,65.24-74.35-29.21-74.35-65.24-74.35Zm0,132.7c-28.28,0-51.2-26.13-51.2-58.36s22.93-58.36,51.2-58.36,51.21,26.13,51.21,58.36-22.93,58.36-51.21,58.36Z"/>
        <path class="cls-21" d="m137.8,488.61c-29.61,0-53.71-27.3-53.71-60.86s24.09-60.86,53.71-60.86,53.71,27.3,53.71,60.86-24.09,60.86-53.71,60.86Zm0-116.71c-26.86,0-48.71,25.06-48.71,55.86s21.85,55.86,48.71,55.86,48.71-25.06,48.71-55.86-21.85-55.86-48.71-55.86Z"/>
        <path class="cls-5" d="m137.8,416.82c-5.3,0-9.59,4.9-9.59,10.93s4.3,10.93,9.59,10.93,9.59-4.9,9.59-10.93-4.3-10.93-9.59-10.93Z"/>
      </g>
      <g>
        <path class="cls-5" d="m34.92,458.73c-10.51,0-19.03,9.71-19.03,21.68s8.52,21.68,19.03,21.68,19.03-9.71,19.03-21.68-8.52-21.68-19.03-21.68Zm0,34.55c-6.24,0-11.29-5.76-11.29-12.87s5.05-12.87,11.29-12.87,11.29,5.76,11.29,12.87-5.05,12.87-11.29,12.87Z"/>
        <ellipse class="cls-21" cx="34.92" cy="480.42" rx="11.29" ry="12.87"/>
        <path class="cls-5" d="m34.92,477.23c-1.55,0-2.8,1.43-2.8,3.19s1.25,3.19,2.8,3.19,2.8-1.43,2.8-3.19-1.25-3.19-2.8-3.19Z"/>
      </g>
      <path class="cls-22" d="m133.88,482.92H34.57c-1.38,0-2.5-1.12-2.5-2.5v-121.18c0-5.35,4.27-13.43,10.7-13.43h96.76c1.38,0,2.5,1.12,2.5,2.5s-1.12,2.5-2.5,2.5H42.77c-2.75,0-5.7,4.95-5.7,8.43v118.68h96.81c1.54,0,2.78-1.25,2.78-2.78v-59.22c0-1.38,1.12-2.5,2.5-2.5s2.5,1.12,2.5,2.5v59.22c0,4.29-3.49,7.78-7.78,7.78Z"/>
      <path class="cls-22" d="m2.5,490.76c-.39,0-.79-.09-1.16-.29-1.22-.64-1.69-2.15-1.05-3.38l31.71-60.32c.43-.82,1.28-1.34,2.21-1.34h104.96c1.38,0,2.5,1.12,2.5,2.5s-1.12,2.5-2.5,2.5H35.72l-31,58.98c-.45.85-1.32,1.34-2.21,1.34Z"/>
      <path class="cls-21" d="m230.1,415.86H62.09c-1.38,0-2.5-1.12-2.5-2.5s1.12-2.5,2.5-2.5h168.01c1.38,0,2.5,1.12,2.5,2.5s-1.12,2.5-2.5,2.5Z"/>
      <path class="cls-14" d="m257.5,218.91c-1.98,2.14-7.34,5.2-10.15,7.34-2.8,2.14-3.79,3.63-3.79,3.63h9.5l4.44-10.97Z"/>
      <rect class="cls-5" x="137.16" y="258.65" width="91.11" height="86.37"/>
      <rect class="cls-5" x="61.36" y="392.59" width="166.92" height="18.95"/>
      <path class="cls-5" d="m137.12,345.94H40.36c0-7.55,6.12-13.67,13.67-13.67h69.43c7.55,0,13.67,6.12,13.67,13.67h0Z"/>
      <path class="cls-3" d="m137.27,228.28c27.59.85-2.47,104.34-2.47,104.34H51.84s2.66-8.11,11.22-13.13c8.56-5.02,32.64-12.65,32.64-12.65,6.97-9.15,6.56-65.87,41.56-78.57Z"/>
      <path class="cls-14" d="m215.19,207.9c-6.33,4.08-17.66,11.6-21.05,17.56-3.39,5.96-3.9,18.46.06,18.46,0,0,2.51.22,2.82-1.99,0,0,1.17,2.88,3.65,2.73s2.78-2.99,2.78-2.99c0,0,1.38,1.98,3.54,1.04,1.81-.79,1.67-1.95,2.66-5.65,1.47-5.47,2.28-8.94,6.28-11.92,4-2.98,12.63-6.12,12.63-6.12l-13.36-11.13Z"/>
      <path class="cls-5" d="m218.07,239.52h-35.9c-2.82,0-5.1-2.28-5.1-5.1h0c0-2.82,2.28-5.1,5.1-5.1h35.9c2.82,0,5.1,2.28,5.1,5.1h0c0,2.82-2.28,5.1-5.1,5.1Z"/>
      <path class="cls-5" d="m273.29,239.52h-35.9c-2.82,0-5.1-2.28-5.1-5.1h0c0-2.82,2.28-5.1,5.1-5.1h35.9c2.82,0,5.1,2.28,5.1,5.1h0c0,2.82-2.28,5.1-5.1,5.1Z"/>
      <path class="cls-19" d="m81.37,464.3c-.76,20.8-23.43,12.86-24.01,19.12-.57,6.26,26.35,8.07,30.13,4.28,4.58-4.6,4.26-23.76,4.26-23.76l-10.38.37Z"/>
      <path class="cls-19" d="m42.56,464.03c-.76,20.8-23.43,12.86-24.01,19.12-.57,6.26,26.35,8.07,30.13,4.28,4.58-4.6,4.26-23.76,4.26-23.76l-10.38.37Z"/>
      <path class="cls-4" d="m277.75,213.09l.82,14.21s8.99,4.22,35.53,5.19c37.45,1.37,55.49-6.56,55.49-6.56,0,0,.55-6.83.27-14.21l-92.11,1.37Z"/>
      <path class="cls-23" d="m285.31,101.03c-15.31,14.94-18.95,57.31-32.07,71.52-13.12,14.21-47.92,38.08-47.92,38.08,2.36,5.56,5.22,11.1,14.76,16.4,0,0,28.61-4.92,57.58-28.97,28.97-24.05,35.35-75.44,35.35-75.44,0,0-18.15-30.91-27.7-21.59Z"/>
      <path class="cls-4" d="m220.08,227.78c-.13,0-.25-.03-.36-.09-9.92-5.51-12.73-11.22-14.3-16.57-.09-.3.02-.63.28-.82l7.92-5.74c.21-.15.48-.18.71-.09.24.09.41.3.46.55.02.12,2.55,12.01,17.39,17.86,11-3.78,27.99-11.29,44.99-25.4.32-.26.79-.22,1.06.1.26.32.22.79-.1,1.06-16.99,14.1-34,21.69-45.15,25.55-.18.26-.52.38-.83.28-7.27,2.46-11.84,3.28-11.95,3.3-.04,0-.08.01-.13.01Zm-13.07-16.58c1.5,4.86,4.26,10.02,13.2,15.04.96-.19,4.52-.93,9.83-2.65-11.82-5.27-15.47-14.08-16.41-17.18l-6.61,4.79Z"/>
      <path class="cls-23" d="m285.31,101.03c7.11-7.11,21.14-13.12,41.36-12.57,20.23.55,36.81,7.29,43.37,21.14,4.82,10.18,4.19,39,2.55,67.42s1.09,33.35-4.92,36.63c-6.01,3.28-27.88,8.2-48.65,7.11-27.84-1.47-36.63-4.37-40.45-10.93-3.83-6.56-2.19-30.07-1.64-51.93s.02-48.49,8.38-56.85Z"/>
      <path class="cls-4" d="m278.57,210.56c-.26,0-.51-.13-.65-.37-3.27-5.6-2.7-22.7-2.09-40.81.13-3.82.26-7.7.35-11.52.08-3.05.11-6.71.15-10.59.07-6.51.13-13.24.39-18.41.02-.41.36-.73.79-.71.41.02.73.37.71.79-.26,5.13-.33,11.85-.39,18.35-.04,3.88-.08,7.55-.15,10.61-.1,3.83-.23,7.7-.35,11.53-.6,17.89-1.16,34.78,1.89,40.01.21.36.09.82-.27,1.03-.12.07-.25.1-.38.1Z"/>
      <path class="cls-14" d="m198.07,224.58c-2.19,2.6-3.14,5.6-3.01,9.84.12,3.83,3.14,7.65,5.74,6.29,1.83-.96-.67-3.14-.41-5.88.41-4.37,5.47-3.69,6.01-6.83.55-3.14-8.34-3.42-8.34-3.42Z"/>
      <path class="cls-10" d="m156.54,348.45c-2.83,12.03-12.14,43.97-28.33,43.97h-46.13s-7.69,63.63-22.26,81.25c0,0-14.16,1.29-26.3-6.01,0,0,5.26-40.44,7.28-67.07,2.02-26.64,4.22-46.93,8.5-56.66,5.13-11.66,67.99-19.45,67.99-19.45l17.79,2.49,21.45,21.48Z"/>
      <path class="cls-11" d="m193.76,346.65c-2.83,12.03-4.85,31.65-20.15,45.88h-55.6s-7.69,63.52-22.26,81.14c0,0-14.16,1.29-26.3-6.01,0,0,5.26-40.44,7.28-67.07,2.02-26.64,1.03-47.18,8.5-57.75,6.13-8.68,51.78-12.75,51.78-12.75l35.31-3.11,21.45,19.68Z"/>
      <path class="cls-10" d="m93.03,474.52c-4.78,0-14.86-.74-23.96-6.22-.36-.21-.47-.67-.26-1.03.21-.35.67-.47,1.03-.26,10.82,6.51,23.42,6.06,25.54,5.93,14.13-17.59,21.81-79.87,21.89-80.5,0-.04.57-7.07.57-12.8,0-.41.34-.75.75-.75s.75.34.75.75c0,5.79-.57,12.88-.57,12.95-.32,2.63-7.88,63.97-22.42,81.56-.13.15-.31.25-.51.27-.15.01-1.16.1-2.79.1Z"/>
      <path class="cls-10" d="m118,393.29c-.17,0-.33-.06-.47-.17-.32-.26-.37-.73-.11-1.06.04-.05,4.48-5.52,5.52-10.39.09-.41.49-.66.89-.58.4.09.66.49.58.89-1.12,5.22-5.63,10.79-5.83,11.02-.15.18-.36.28-.58.28Z"/>
      <path class="cls-3" d="m140.92,227.39c-7.38,2.07-12.39,5.91-20.66,19.48-3.23,5.31-6.53,15.18-6.24,25.81.3,10.63,4.88,14.77,7.11,23.78,5.19,21.05-4.37,28.43-4.37,28.43,0,0,4.1,5.82,20.63,7s45.76,3.84,56.38,14.76c0,0,5.02-14.76,4.13-45.46-.89-30.7.89-44.87-1.48-53.43s-11.11-14.68-21.35-19.15c-10.24-4.47-34.15-1.22-34.15-1.22Z"/>
      <path class="cls-3" d="m175.07,228.61c10.56,3.07,16.36,5.04,26.23,18.01,19.65,25.81,28.06,74.71,16.15,86.36h-73.37s.46-9.91,9.02-14.93c8.56-5.02,35.83-10.12,35.83-10.12,0,0-13.19-36.86-20.27-45.71l6.4-33.61Z"/>
      <path class="cls-8" d="m144.09,333.74s-.02,0-.04,0c-.41-.02-.73-.37-.71-.78.02-.42.58-10.38,9.39-15.54,7.81-4.58,30.41-9.11,35.21-10.04-1.81-4.98-11.45-31.16-17.97-41.9-.21-.35-.1-.82.25-1.03.35-.22.81-.1,1.03.25,7.26,11.97,18.28,42.69,18.39,43,.07.21.05.44-.06.63-.11.19-.3.32-.51.36-.27.05-27.24,5.13-35.59,10.03-8.12,4.76-8.65,14.22-8.65,14.32-.02.4-.35.72-.75.72Z"/>
      <path class="cls-5" d="m229.73,346.48h-99.31c0-7.55,6.12-13.67,13.67-13.67h71.98c7.55,0,13.67,6.12,13.67,13.67h0Z"/>
      <path class="cls-21" d="m225.18,482.92h-99.31c-1.38,0-2.5-1.12-2.5-2.5v-120.63c0-5.35,4.27-13.43,10.7-13.43h96.76c1.38,0,2.5,1.12,2.5,2.5s-1.12,2.5-2.5,2.5h-96.76c-2.75,0-5.7,4.95-5.7,8.43v118.13h96.81c1.54,0,2.78-1.25,2.78-2.78v-59.22c0-1.38,1.12-2.5,2.5-2.5s2.5,1.12,2.5,2.5v59.22c0,4.29-3.49,7.78-7.78,7.78Z"/>
      <path class="cls-21" d="m230.65,428.98c-1.38,0-2.5-1.12-2.5-2.5v-186.78c0-.72.31-1.4.85-1.87l6.2-5.47c1.04-.91,2.61-.81,3.53.22.91,1.04.81,2.62-.22,3.53l-5.35,4.72v185.65c0,1.38-1.12,2.5-2.5,2.5Z"/>
      <path class="cls-21" d="m93.8,490.75H2.5c-1.38,0-2.5-1.12-2.5-2.5s1.12-2.5,2.5-2.5h89.78l31-58.98c.43-.82,1.28-1.34,2.21-1.34h104.96c1.38,0,2.5,1.12,2.5,2.5s-1.12,2.5-2.5,2.5h-103.45l-31,58.98c-.43.82-1.28,1.34-2.21,1.34Z"/>
      <g>
        <path class="cls-5" d="m125.4,458.73c-10.51,0-19.03,9.71-19.03,21.68s8.52,21.68,19.03,21.68,19.03-9.71,19.03-21.68-8.52-21.68-19.03-21.68Zm0,34.55c-6.24,0-11.29-5.76-11.29-12.87s5.05-12.87,11.29-12.87,11.29,5.76,11.29,12.87-5.05,12.87-11.29,12.87Z"/>
        <ellipse class="cls-21" cx="125.4" cy="480.42" rx="11.29" ry="12.87"/>
        <path class="cls-5" d="m125.4,477.23c-1.55,0-2.8,1.43-2.8,3.19s1.25,3.19,2.8,3.19,2.8-1.43,2.8-3.19-1.25-3.19-2.8-3.19Z"/>
      </g>
      <g>
        <g>
          <path class="cls-21" d="m230.28,487.61c-.83,0-1.5-.67-1.5-1.5v-116.71c0-.83.67-1.5,1.5-1.5s1.5.67,1.5,1.5v116.71c0,.83-.67,1.5-1.5,1.5Z"/>
          <path class="cls-21" d="m178.49,429.56c-.82,0-1.5-.67-1.5-1.49,0-.83.66-1.5,1.49-1.51l103.59-.61h0c.82,0,1.5.67,1.5,1.49,0,.83-.66,1.5-1.49,1.51l-103.59.61h0Z"/>
          <path class="cls-21" d="m192.54,466.99c-.38,0-.77-.15-1.06-.44-.59-.59-.59-1.54,0-2.12l75.48-75.48c.59-.59,1.54-.59,2.12,0,.59.59.59,1.54,0,2.12l-75.48,75.48c-.29.29-.68.44-1.06.44Z"/>
          <path class="cls-21" d="m268.24,466.77c-.38,0-.76-.14-1.05-.43l-75.92-75.03c-.59-.58-.6-1.53-.01-2.12.58-.59,1.53-.6,2.12-.01l75.92,75.03c.59.58.6,1.53.01,2.12-.29.3-.68.45-1.07.45Z"/>
        </g>
        <path class="cls-5" d="m230.28,353.41c-36.03,0-65.24,33.29-65.24,74.35s29.21,74.35,65.24,74.35,65.24-33.29,65.24-74.35-29.21-74.35-65.24-74.35Zm0,132.7c-28.28,0-51.2-26.13-51.2-58.36s22.93-58.36,51.2-58.36,51.21,26.13,51.21,58.36-22.93,58.36-51.21,58.36Z"/>
        <path class="cls-21" d="m230.28,488.61c-29.61,0-53.7-27.3-53.7-60.86s24.09-60.86,53.7-60.86,53.71,27.3,53.71,60.86-24.09,60.86-53.71,60.86Zm0-116.71c-26.86,0-48.7,25.06-48.7,55.86s21.85,55.86,48.7,55.86,48.71-25.06,48.71-55.86-21.85-55.86-48.71-55.86Z"/>
        <path class="cls-5" d="m230.28,416.82c-5.3,0-9.59,4.9-9.59,10.93s4.3,10.93,9.59,10.93,9.59-4.9,9.59-10.93-4.3-10.93-9.59-10.93Z"/>
      </g>
      <path class="cls-13" d="m301.17,92.1s1.46,8.66,18.95,9.2c17.49.55,29.52-8.84,29.52-8.84,0,0-7.93-3.52-23.78-4.06-15.85-.55-24.69,3.7-24.69,3.7Z"/>
      <path class="cls-6" d="m356.35,26.65c-.34-6.39-4.12-11.85-8.36-12.97-3.02-.8-5.55.6-8.2,2.48-2.96,2.1-25.29,3.24-26.67,6.51-1.38,3.28,6.99,9.07,6.44,12.49-.7,4.44,10.82,3.88,10.54,8.31-.21,3.29-.22,6.86,1.77,9.28,2.08,2.53,1.03,20.06,4.34,18.6,0,0,11.78.65,17.72-22.64,1.96-7.68,2.71-16.36,2.4-22.07Z"/>
      <path class="cls-13" d="m338.68,63.09s-2.18,12.12.39,26.67c0,0-7.32,4.43-15.73,5.18-8.41.75-14.88-2.37-14.88-2.37,0,0,.53-7.5.17-12.59l26.95-20.08,3.1,3.19Z"/>
      <path class="cls-24" d="m320.84,90.64c7.14-1.13,12.48-5.01,17.07-11.42-.44-9.42.77-16.13.77-16.13l-3.1-3.19-26.95,20.08c.22,3.14.11,7.18-.02,9.83-.06.01-.12.03-.18.04,1.34.75,4.83,1.98,12.42.78Z"/>
      <path class="cls-14" d="m339.47,52.46c-5.16-.5-6.13-7.3-4.61-12.01,0,0-8.93-5.57-7.02-15.74-8.23-6.03-32.05-8.32-33.22,6.73-1.95,25.15,1.02,39.14,4.27,46.04,3.41,7.26,11.77,9.69,21.04,5.77,6.09-2.58,12.74-8.54,15.68-18.14,5.05,1.42,9.05-1.91,11.14-6.42,3.48-9.75-4.67-9.59-7.28-6.23Z"/>
      <path class="cls-12" d="m309.41,44.44s.7,1.52,1.24,4.02c.13.63.23,1.32.26,2.09.01.39.02.76-.04,1.23-.06.38-.05.7-.17,1.16-.35,1.75-1.08,3.35-2.03,4.83-.93,1.47-2.06,2.8-3,3.96-.22.28-.45.58-.53.73,0,0-.04.08-.02.02.06-.14.04-.26,0-.43.12.35-.07-.16.01.03.15.23.67.57,1.11.78.92.48,1.82.68,2.44.84.63.11.99.18.99.18h.02c.49.09.81.56.71,1.05-.07.38-.38.66-.73.73,0,0-.45.09-1.25.08-.8,0-1.93-.14-3.23-.66-.65-.31-1.33-.6-2.06-1.45-.14-.07-.5-.91-.46-.91-.1-.34-.03-.65.05-.96.08-.23.14-.31.22-.47.29-.49.55-.78.81-1.1,1.04-1.21,2.07-2.38,2.94-3.67.85-1.27,1.55-2.68,1.88-3.93.11-.28.14-.72.22-1.06.05-.26.07-.61.08-.92,0-.63-.03-1.25-.09-1.82-.13-1.15-.34-2.11-.51-2.78-.18-.66-.28-1.03-.28-1.03-.11-.4.12-.82.52-.94.36-.11.74.07.89.39Z"/>
      <path class="cls-24" d="m338.41,56.89c-1.29,2.2-1.18,4.52.26,5.18,1.44.65,3.65-.6,4.94-2.81,1.29-2.2,1.18-4.52-.26-5.18-1.44-.65-3.65.6-4.94,2.81Z"/>
      <path class="cls-6" d="m304.83,41.13c-.1,1.44-3.03,1.69-6.03,2.21-4.43.76-5.53.86-6.02-.31-.24-.57-.04-3.38,4.74-4.34,5.58-1.12,7.41.96,7.31,2.44Z"/>
      <path class="cls-6" d="m321.61,43.76c3.34.75,5.9,1.87,6.76.7.73-.99.16-3.58-5.15-5.37-2.93-.99-7.71-1.07-8.23,1.54-.48,2.43,3.22,2.36,6.62,3.13Z"/>
      <g>
        <path class="cls-2" d="m323.69,48.82c.55.26-1.06,4.45-5.63,3.88-3.31-.41-3.4-2.98-2.93-3.21s1.25,1.08,3.09,1.39c2.47.42,4.92-2.32,5.47-2.06Z"/>
        <path class="cls-2" d="m304.58,48.4c.93.57-.98,4.23-4.72,3.79-3.41-.4-3.5-3.46-2.97-3.6.53-.14.65,1.65,3.12,1.86,2.76.24,4.09-2.37,4.57-2.05Z"/>
      </g>
      <path class="cls-6" d="m347.22,14.57s-4.05-11.25-15.45-12.28c-11.4-1.03-22.6,3.21-28.54,2.38-6.26-.87-2.77-4.67-2.77-4.67,0,0-4.05,1.2-4.4,3.99-.54,4.31,2.41,5.22,2.41,5.22,0,0-3.82-.35-5.25-2.85-1.55-2.7-.09-5.57-.09-5.57,0,0-8.48,5.04-9.16,12.21-.64,6.84,3.49,14.57,15.68,14.79,12.18.22,29.56-3.56,29.56-3.56l18.01-9.67Z"/>
      <g>
        <path class="cls-17" d="m347.68,44.51c-4.31,0-8.52-2.17-10.98-5.73-.2-.3-.13-.7.17-.9.29-.21.7-.13.9.17,2.39,3.46,6.81,5.52,11,5.12.36-.03.67.23.71.58.03.36-.23.67-.58.71-.4.04-.81.06-1.22.06Z"/>
        <path class="cls-17" d="m343.9,48.33s-.02,0-.03,0c-2.45-.1-4.82-1.3-6.34-3.22-.22-.28-.18-.69.11-.91.28-.22.69-.18.91.11,1.29,1.63,3.3,2.65,5.37,2.73.36.01.64.32.62.68-.01.35-.3.62-.65.62Z"/>
        <path class="cls-17" d="m353.48,25.28c-.31,0-.59-.23-.64-.55-.4-2.54-2.43-4.73-4.94-5.32-.35-.08-.57-.43-.48-.78.08-.35.43-.57.78-.48,3.01.71,5.44,3.33,5.92,6.38.06.35-.19.69-.54.74-.03,0-.07,0-.1,0Z"/>
        <path class="cls-17" d="m343.78,15.34c-.27,0-.53-.18-.62-.45-1.24-3.84-4.39-7.02-8.22-8.3-.34-.11-.52-.48-.41-.82.11-.34.48-.53.82-.41,4.21,1.41,7.67,4.91,9.04,9.13.11.34-.08.71-.42.82-.07.02-.13.03-.2.03Z"/>
        <path class="cls-17" d="m303.27,25.45c-2.55,0-5.41-.19-8.18-1.05-3.44-1.07-6.22-3.08-7.82-5.67-1.87-3.02-1.99-6.88-.3-9.61.19-.31.59-.4.89-.21.31.19.4.59.21.89-1.44,2.32-1.32,5.63.3,8.24,1.44,2.32,3.96,4.14,7.1,5.11,3.09.96,6.34,1.03,9.11.97.36,0,.66.28.66.64,0,.36-.28.66-.64.66-.44,0-.88.01-1.34.01Z"/>
        <path class="cls-17" d="m290.12,14.88c-.24,0-.47-.13-.58-.36-1.1-2.18-.17-5.09,1.99-6.22.32-.17.71-.04.88.27.17.32.05.71-.27.88-1.53.81-2.21,2.94-1.44,4.49.16.32.03.71-.29.87-.09.05-.19.07-.29.07Z"/>
        <path class="cls-17" d="m320.44,23.52c-.31,0-.58-.22-.64-.53-.07-.35.17-.69.52-.76,3.7-.69,7.4-1.58,11.01-2.66.34-.1.71.09.81.44.1.34-.09.71-.44.81-3.65,1.09-7.4,2-11.14,2.69-.04,0-.08.01-.12.01Z"/>
        <path class="cls-17" d="m331.81,31.36c-.25,0-.48-.14-.59-.38-.95-2.08-1.06-4.5-.3-6.65.12-.34.49-.52.83-.4.34.12.52.49.4.83-.65,1.84-.55,3.91.26,5.68.15.33,0,.71-.32.86-.09.04-.18.06-.27.06Z"/>
        <path class="cls-17" d="m305.11,9.24c-2.49,0-4.99-.89-6.86-2.56-.27-.24-.29-.65-.05-.92.24-.27.65-.29.92-.05,2.5,2.22,6.25,2.85,9.34,1.58.33-.14.71.02.85.35.14.33-.02.71-.35.85-1.22.51-2.53.75-3.84.75Z"/>
      </g>
      <g>
        <path class="cls-2" d="m308.88,73.11c-.94,0-1.67-.13-2.06-.37-.31-.19-.4-.59-.21-.89.19-.31.59-.4.89-.21,1.15.71,8.68-.15,11.72-4.69.2-.3.6-.38.9-.18.3.2.38.6.18.9-2.64,3.94-8.23,5.44-11.42,5.44Z"/>
        <path class="cls-24" d="m317.82,73.2c.22.61-.38,2.1-2.15,2.74-1.84.67-3.5-.02-3.72-.62-.22-.61,1.27-.48,2.89-1.06,1.62-.59,2.76-1.67,2.98-1.06Z"/>
      </g>
      <path class="cls-4" d="m331.88,143.59c-.27,0-.54-.15-.67-.41-1.42-2.79-2.03-6.04-1.73-9.16.04-.41.4-.72.82-.67.41.04.71.41.67.82-.28,2.83.28,5.79,1.57,8.33.19.37.04.82-.33,1.01-.11.06-.23.08-.34.08Z"/>
      <path class="cls-4" d="m303.78,156.62c-.14,0-.29-.04-.42-.13-5.34-3.6-9.72-8.83-12.35-14.71-.17-.38,0-.82.38-.99.38-.17.82,0,.99.38,2.51,5.63,6.71,10.63,11.82,14.08.34.23.43.7.2,1.04-.14.21-.38.33-.62.33Z"/>
      <path class="cls-4" d="m298.78,158.38c-.13,0-.27-.04-.39-.11-2.74-1.67-5.01-4.04-6.55-6.86-.2-.36-.06-.82.3-1.02.36-.2.82-.06,1.02.3,1.41,2.59,3.49,4.76,6.01,6.29.35.22.47.68.25,1.03-.14.23-.39.36-.64.36Z"/>
      <g>
        <path class="cls-14" d="m273.87,205.99c-6.27,4.29-17.49,12.21-20.79,18.48-3.3,6.27-3.63,20.79.33,20.79,0,0,2.47.37,3.02-3.18,0,0,1.08,3.99,3.55,3.83,2.47-.17,2.73-3.55,2.73-3.55,0,0,1.41,2.77,3.55,1.78,1.8-.83,1.17-1.67,2.49-7.44,1.32-5.77,2.14-9.4,6.1-12.54s12.54-6.43,12.54-6.43l-13.53-11.71Z"/>
        <path class="cls-24" d="m256.43,242.72c-.31,0-.58-.22-.64-.53-.02-.09-.43-2.32-.14-4.05.06-.35.4-.6.75-.53.35.06.59.39.53.75-.25,1.51.13,3.58.13,3.6.07.35-.17.69-.52.76-.04,0-.08.01-.12.01Z"/>
        <path class="cls-24" d="m262.85,242.86c-.31,0-.58-.22-.64-.53-.02-.09-.43-2.32-.14-4.05.06-.35.39-.59.75-.53.35.06.59.39.53.75-.25,1.51.13,3.58.13,3.6.07.35-.17.69-.52.76-.04,0-.08.01-.12.01Z"/>
      </g>
      <path class="cls-23" d="m340.34,104.85s-3.71,43.85-21.87,62.87c-8.12,8.5-43.81,28.62-55.76,41.55,2.09,7.08,7.08,12.51,14.76,16.4,0,0,36.63-6.56,65.6-30.61,28.97-24.05,29.52-72.71,29.52-72.71l-32.25-17.49Z"/>
      <path class="cls-4" d="m277.48,226.42c-.12,0-.23-.03-.34-.08-7.93-4.02-13.02-9.69-15.14-16.86-.12-.4.11-.81.51-.93.4-.12.81.11.93.51,1.98,6.68,6.74,12.01,14.15,15.83,3.25-.63,37.76-7.78,65.01-30.41,28.35-23.54,28.16-62.98,28.16-63.37,0-.41.33-.75.74-.76h.01c.41,0,.74.33.75.74,0,.4.22,40.54-28.7,64.55-28.79,23.9-65.58,30.71-65.95,30.77-.04,0-.09.01-.13.01Z"/>
      <path class="cls-4" d="m262.72,210.02c-.18,0-.36-.07-.51-.2-.3-.28-.32-.76-.04-1.06,6.74-7.29,20.93-16.83,33.46-25.24,9.66-6.49,18.78-12.62,22.31-16.31,6.98-7.31,12.63-19.15,16.8-35.19.1-.4.52-.64.91-.54.4.1.64.51.54.91-4.23,16.29-10.01,28.36-17.17,35.85-3.64,3.81-12.41,9.7-22.56,16.52-12.46,8.37-26.58,17.86-33.19,25.02-.15.16-.35.24-.55.24Z"/>
      <path class="cls-4" d="m340.09,191.5c-.31,0-.6-.19-.71-.5-.14-.39.07-.82.46-.96,2.81-.98,5.18-3.2,6.33-5.95.16-.38.6-.56.98-.4.38.16.56.6.4.98-1.31,3.14-4.01,5.68-7.22,6.79-.08.03-.17.04-.25.04Z"/>
      <path class="cls-4" d="m290.6,222.32c-.06,0-.13,0-.19-.02-17.75-4.72-20.48-19.58-20.5-19.73-.07-.41.21-.79.61-.86.41-.07.8.2.87.61.02.14,2.61,14.07,19.41,18.54.4.11.64.52.53.92-.09.34-.39.56-.72.56Z"/>
      <path class="cls-4" d="m276.93,141.68c-.24,0-.47-.11-.62-.33-2.45-3.58-3.02-8.69-3.04-8.91-.04-.41.25-.78.67-.83.4-.05.78.25.83.67,0,.05.56,4.96,2.79,8.22.23.34.15.81-.2,1.04-.13.09-.28.13-.42.13Z"/>
      <path class="cls-4" d="m319.42,102.06c-15.23,0-18.81-8.76-18.95-9.14-.15-.39.04-.82.43-.97.39-.15.82.04.97.43.14.35,3.52,8.46,18.24,8.18,15.1-.27,28.28-8.1,28.42-8.18.36-.21.82-.1,1.03.26.21.35.1.82-.26,1.03-.13.08-13.65,8.12-29.16,8.4-.24,0-.48,0-.71,0Z"/>
      <g>
        <path class="cls-14" d="m146.28,321.88c-5.28,1.28-9.84,3.64-13.12,7.11-3.72,3.93-5.47,12.39-4.19,12.94,1.28.55,2.73-2,2.73-2,0,0-.55,3.28.73,3.64,1.28.36,3.1-2.55,3.1-2.55,0,0-.73,1.28.55,1.82,1.28.55,4.19-4.37,6.56-6.56,2.37-2.19,4.01-3.28,8.38-3.46h10.02s2.37-3.28.18-7.65-5.83-4.37-5.83-4.37l-9.11,1.09Z"/>
        <path class="cls-24" d="m135.52,341.62c-.07,0-.15-.01-.22-.04-.31-.12-.46-.47-.34-.78.08-.21,2.08-5.24,4.59-7.85.23-.24.61-.24.85-.02.24.23.25.61.02.85-2.35,2.43-4.32,7.41-4.34,7.46-.09.24-.32.38-.56.38Z"/>
        <path class="cls-24" d="m131.7,340.52s-.08,0-.12-.01c-.32-.07-.53-.38-.47-.71.05-.22,1.15-5.46,3.5-8.28.21-.25.59-.29.85-.08.25.21.29.59.08.85-2.16,2.59-3.23,7.7-3.24,7.76-.06.28-.31.48-.59.48Z"/>
      </g>
      <g>
        <path class="cls-14" d="m55.53,321.72c-5.28,1.28-9.84,3.64-13.12,7.11-3.72,3.93-5.47,12.39-4.19,12.94,1.28.55,2.73-2,2.73-2,0,0-.55,3.28.73,3.64,1.28.36,3.1-2.55,3.1-2.55,0,0-.73,1.28.55,1.82,1.28.55,4.19-4.37,6.56-6.56s4.01-3.28,8.38-3.46h10.02s2.37-3.28.18-7.65-5.83-4.37-5.83-4.37l-9.11,1.09Z"/>
        <path class="cls-24" d="m44.78,341.46c-.07,0-.14-.01-.21-.04-.31-.12-.46-.46-.35-.77.08-.21,2-5.17,5.24-8.33.24-.23.62-.23.85.01.23.24.23.62-.01.85-3.05,2.97-4.94,7.84-4.96,7.89-.09.24-.32.39-.56.39Z"/>
        <path class="cls-24" d="m41.13,339.82s-.08,0-.12-.01c-.33-.07-.54-.38-.47-.71.04-.19.97-4.74,3.32-7.47.22-.25.6-.28.85-.06s.28.6.06.85c-2.15,2.49-3.05,6.88-3.06,6.92-.06.29-.31.48-.59.48Z"/>
      </g>
      <path class="cls-13" d="m135.61,229.36c-1.36,1.82,3.28,8.61,16.81,8.61s26.1-6.97,24.19-8.47c-1.91-1.5-8.89-3.36-19.41-3.83-12.44-.55-20.77,2.6-21.59,3.69Z"/>
      <path class="cls-18" d="m163.78,204.47s15-2.44,19.19-17.95c5.1-18.9-.37-31.76-12.8-37.75-14.48-6.98-31.64-2.39-39.47,11.4-7.83,13.79.56,29.55.56,29.55l32.52,14.76Z"/>
      <path class="cls-13" d="m152.47,232.59c-7.65-.36-11.84-3.28-11.84-3.28,2.73-5.47.18-16.22.18-16.22l22.23-17.22,7.06-1.32c-2.55,22.56.96,34.21.96,34.21,0,0-9.98,4.24-18.59,3.83Z"/>
      <path class="cls-20" d="m169.65,220.44c-.58-5.73-.86-14.38.44-25.89l-7.06,1.32-22.23,17.22s1.96,8.24.61,13.96c-1.21.3-2.25.61-3.1.92.64,1.34,2.97,4.21,11.24,4.07,7.49-.13,15.15-4.6,20.1-11.61Z"/>
      <path class="cls-18" d="m181.69,167.26c4.8-.99,13.1-16.81,4.76-25.14-8.33-8.33-15.49-3.86-15.49-3.86,0,0-2.27-2.64-7.77-1.34-5.49,1.31-8.04,9.54-5.96,12.85,2.08,3.32,24.46,17.49,24.46,17.49Z"/>
      <path class="cls-1" d="m142.08,220.05c2.67.58,16.78,2.27,24.42-13.48,4.08-8.41,6.4-22.26,5.36-28.66-1.04-6.4-7.03-26.56-27.07-21.06,0,0-15.67,4.61-16.2,30.16,0,0-1.53,4.58-.7,9.84,3.46,21.96,11.56,22.62,14.19,23.2Z"/>
      <path class="cls-18" d="m140.14,154.64c-2.85,13.27,19.4,6.76,25.69,26.8.66,3.73-.14,8.34,4.65,9.21l5.81-5.97s3.6-13.32-4.15-25.46c-7.73-12.13-28.06-14.48-32-4.58Z"/>
      <g>
        <path class="cls-18" d="m138.8,177.47c-.51,1.17-2.34-.17-6.32.76-1.27.3-3.22,1.02-3.6.4-.41-.66.24-2.77,3.86-3.4,4.46-.77,6.74.7,6.06,2.24Z"/>
        <path class="cls-18" d="m147.49,178.15c.17,1.54,2.78.69,6.88,1.81,4.27,1.17,4.21,1.92,5.06,1.24.43-.35.33-2.84-5.11-4.51-4.83-1.48-7-.09-6.84,1.46Z"/>
      </g>
      <g>
        <path class="cls-20" d="m147.74,210.33c.08.67-.87,2.06-2.84,2.31-2.04.26-3.57-.83-3.66-1.49-.08-.67,1.41-.19,3.2-.42,1.79-.22,3.21-1.06,3.29-.39Z"/>
        <g>
          <path class="cls-2" d="m151.55,202.97s-3.98.68-8.24.83c-4.02.14-7.33-.61-7.33-.61,0,0,.69,5.51,8,5.16,5.53-.27,7.57-5.38,7.57-5.38Z"/>
          <path class="cls-9" d="m144.07,207.18c-4.22.2-5.07-2.27-5.07-2.27,0,0,2.36.22,5.37,0,3.82-.27,5.03-.54,5.03-.54,0,0-1.22,2.6-5.34,2.8Z"/>
        </g>
      </g>
      <path class="cls-2" d="m154.14,195.12c-2.92,0-5.8-.76-7.17-1.87-2.15-1.73-2.51-6.52-1.7-8.78.9-2.51,4.86-2.89,8.02-2.78,4.14.15,8.09.76,8.96,4.15h0c.43,1.69-.1,7.24-3.5,8.52-1.39.52-3,.75-4.6.75Zm-1.82-12.47c-3.43,0-5.65.77-6.14,2.15-.71,1.97-.35,6.29,1.4,7.7,1.72,1.38,7.02,2.4,10.83.96,2.77-1.04,3.26-6,2.91-7.38h0c-.57-2.24-2.91-3.23-8.06-3.42-.32-.01-.63-.02-.92-.02Z"/>
      <path class="cls-2" d="m173.26,187.69s-.05,0-.07,0l-11.4-1.64c-.26-.04-.45-.28-.41-.55s.28-.45.55-.41l11.4,1.64c.26.04.45.28.41.55-.03.24-.24.41-.48.41Z"/>
      <path class="cls-2" d="m132.75,194.05c-2.59,0-5.05-.87-6.14-1.89-1.86-1.75-2.07-6.19-1.39-8.36.76-2.41,4.15-3.17,7.09-3.06,3.34.12,7.26.62,7.85,3.53.36,1.78.23,7.2-3.35,8.93-1.26.61-2.68.86-4.06.86Zm-.94-12.36c-2.37,0-5.11.62-5.67,2.4-.67,2.15-.27,6.04,1.13,7.36,1.46,1.37,6.03,2.36,9.12.87,3.03-1.46,3.13-6.35,2.82-7.87-.35-1.75-2.49-2.6-6.93-2.75h0c-.15,0-.31,0-.47,0Z"/>
      <path class="cls-15" d="m142.24,199.47s-.04,0-.06,0c-.38-.03-3.71-.39-5.05-2.02-.43-.52-.62-1.12-.55-1.77.14-1.36,1.08-2.28,2.08-3.25.93-.91,1.98-1.93,2.56-3.5,1.17-3.18.86-6.95-.15-8.35-.2-.27-.13-.65.14-.84.27-.2.65-.13.84.14,1.39,1.92,1.53,6.17.31,9.48-.67,1.83-1.83,2.96-2.85,3.95-.91.89-1.63,1.58-1.72,2.51-.03.33.05.61.28.88.87,1.06,3.35,1.5,4.23,1.58.33.03.58.32.55.66-.03.31-.29.55-.6.55Z"/>
      <path class="cls-2" d="m145.13,188.07c-.11,0-.22-.04-.31-.11-.01,0-1.17-.96-2.55-1.03-1.32-.06-2.06.7-2.06.71-.18.2-.49.21-.68.03-.2-.18-.21-.49-.03-.68.04-.05,1.05-1.12,2.82-1.02,1.71.09,3.06,1.21,3.12,1.25.2.17.23.47.06.68-.1.11-.23.17-.37.17Z"/>
      <path class="cls-1" d="m170.28,189.13s3.46-7.4,7.82-3.57c3.79,3.33-1.85,15.87-10.09,12.12.32-3.24.91-6.24,2.26-8.55Z"/>
      <path class="cls-20" d="m175.91,192.84c-1.14,1.88-2.96,2.6-3.73,1.83s-.47-2.93.67-4.81,2.7-2.77,3.47-1.99c.77.78.73,3.1-.41,4.97Z"/>
      <path class="cls-16" d="m155.84,191.2s-5.04,1-7.6-2.06c0,0,0,2.64,3.14,3.38,3.14.74,4.46-1.33,4.46-1.33Z"/>
      <path class="cls-16" d="m137.33,188.56s-.34,2.35-2.33,2.81c-1.99.46-3.35-.5-3.35-.5,0,0,2.11-.18,3.21-.64,1.75-.73,2.47-1.67,2.47-1.67Z"/>
      <g>
        <path class="cls-16" d="m152.6,173.1s-6.28-.98-9.91-1.14c-3.63-.16-7.76.67-7.76.67,0,0,3.3-1.99,8.09-1.83,4.79.16,9.58,2.3,9.58,2.3Z"/>
        <path class="cls-16" d="m148.46,169.19s-3.11-.47-4.91-.54-3.84.32-3.84.32c0,0,1.63-.94,4.01-.87,2.37.08,4.75,1.09,4.75,1.09Z"/>
      </g>
      <g>
        <path class="cls-7" d="m181.52,180.51s-.01,0-.02,0c-.22,0-5.36-.21-11.35-4.41-.25-.18-.31-.52-.14-.77.18-.25.52-.31.77-.14,5.73,4.01,10.7,4.21,10.75,4.21.31,0,.55.26.54.57,0,.3-.25.54-.55.54Z"/>
        <path class="cls-7" d="m178.64,182.92c-.22,0-4.74-.04-7.59-2.7-.22-.21-.23-.56-.02-.78.21-.22.56-.23.78-.02,2.53,2.38,6.77,2.4,6.83,2.4h0c.31,0,.55.25.55.55,0,.31-.25.55-.55.55h0Z"/>
        <path class="cls-7" d="m163.26,169.65c-.16,0-.32-.07-.43-.2-.04-.05-4.16-5.01-11.73-7-8.75-2.31-10.54-6.7-10.83-9.1-.04-.3.18-.58.48-.62.31-.03.58.18.62.48.25,2.13,1.89,6.02,10.01,8.16,7.93,2.09,12.13,7.16,12.3,7.38.19.24.16.59-.08.78-.1.08-.23.12-.35.12Z"/>
        <path class="cls-7" d="m152.2,159.41c-.05,0-.1,0-.15-.02-.36-.1-8.71-2.57-9.06-8.82-.02-.31.22-.57.52-.58.32,0,.57.22.58.52.3,5.46,8.18,7.79,8.26,7.81.29.08.46.39.38.69-.07.24-.29.4-.53.4Z"/>
        <path class="cls-7" d="m181.83,170.58c-.28,0-.52-.21-.55-.5,0-.1-1.08-10.18-9.13-16.25-.24-.18-.29-.53-.11-.78s.53-.29.78-.11c8.45,6.37,9.52,16.59,9.56,17.02.03.3-.19.58-.5.6-.02,0-.04,0-.05,0Z"/>
        <path class="cls-7" d="m183.1,162.52c-.16,0-.32-.07-.43-.21-.19-.24-.15-.59.09-.78.04-.03,3.85-3.15,3.94-9.72.09-6.54-4.64-9.96-4.69-9.99-.25-.18-.31-.52-.13-.77.18-.25.52-.31.77-.14.21.15,5.26,3.77,5.16,10.92-.1,7.12-4.19,10.43-4.36,10.57-.1.08-.22.12-.34.12Z"/>
        <path class="cls-7" d="m167.92,144.18c-.1,0-.2-.03-.3-.09-.26-.16-.34-.51-.17-.76,3.68-5.81,10.22-4.54,10.29-4.53.3.06.49.35.43.65-.06.3-.35.49-.65.43-.24-.05-5.87-1.12-9.13,4.03-.11.17-.29.26-.47.26Z"/>
        <path class="cls-7" d="m160.45,141.53c-.12,0-.25-.04-.35-.12-.24-.19-.27-.54-.08-.78,3.1-3.8,8.62-1.65,8.85-1.56.28.11.42.43.31.72-.11.28-.44.42-.72.31-.05-.02-5-1.93-7.58,1.23-.11.13-.27.2-.43.2Z"/>
        <path class="cls-7" d="m182.66,146.51c-.2,0-.39-.11-.49-.3-.01-.02-1.12-2.08-3.24-2.94-2.63-1.07-4.7-.32-4.72-.31-.29.11-.61-.04-.71-.32-.11-.29.03-.6.32-.71.1-.04,2.48-.92,5.53.32,2.51,1.02,3.76,3.36,3.81,3.45.14.27.04.61-.23.75-.08.04-.17.06-.26.06Z"/>
        <path class="cls-7" d="m131.08,166.32c-.07,0-.14-.01-.2-.04-.28-.11-.42-.44-.31-.72,2.6-6.53,7.27-8.85,7.47-8.95.27-.13.61-.02.74.26.13.27.02.61-.26.74-.04.02-4.49,2.25-6.92,8.36-.09.22-.29.35-.51.35Z"/>
        <path class="cls-7" d="m147.23,150.13c-.19,0-.38-.1-.48-.28-.15-.26-.06-.6.2-.76.22-.13,5.55-3.14,12.88-1.52.3.07.49.36.42.66-.07.3-.36.49-.66.42-6.92-1.53-12.04,1.36-12.09,1.39-.09.05-.18.07-.28.07Z"/>
      </g>
      <path class="cls-8" d="m175.25,275.07c-.14,0-.28-.04-.41-.12-3.65-2.37-6.88-5.23-7.01-5.35-.31-.28-.34-.75-.06-1.06.27-.31.75-.34,1.06-.06.03.03,3.28,2.91,6.83,5.22.35.23.45.69.22,1.04-.14.22-.38.34-.63.34Z"/>
      <path class="cls-8" d="m214.67,328.9c-.21,0-.42-.09-.57-.26-.27-.31-.24-.79.08-1.06,1.91-1.65,3.03-4.24,2.92-6.76-.02-.41.3-.76.72-.78.39-.03.76.31.78.72.12,3.01-1.16,5.99-3.44,7.96-.14.12-.32.18-.49.18Z"/>
      <path class="cls-8" d="m148.16,285.53c-.08,0-.17-.01-.25-.04-6.6-2.35-12.46-6.42-16.95-11.8-.27-.32-.22-.79.09-1.06.32-.27.79-.22,1.06.09,4.32,5.17,9.96,9.09,16.3,11.35.39.14.59.57.46.96-.11.31-.4.5-.71.5Z"/>
      <path class="cls-8" d="m140.25,285.83s-.07,0-.1,0c-2.44-.32-4.78-1.55-6.42-3.38-.28-.31-.25-.78.05-1.06.31-.28.78-.25,1.06.05,1.41,1.57,3.42,2.62,5.51,2.9.41.05.7.43.65.84-.05.38-.37.65-.74.65Z"/>
      <path class="cls-8" d="m153.62,243.18c-2.3,0-4.61-.18-6.9-.55-.41-.07-.69-.45-.62-.86.07-.41.45-.69.86-.62,9.34,1.5,19.03-.21,27.29-4.82.36-.2.82-.07,1.02.29.2.36.07.82-.29,1.02-6.53,3.64-13.93,5.54-21.37,5.54Z"/>
      <path class="cls-8" d="m117.3,325.23c-.17,0-.35-.06-.49-.18-.31-.27-.35-.75-.07-1.06.08-.09,8.15-9.67,3.67-27.34-.86-3.38-2.05-6.08-3.2-8.7-1.93-4.38-3.75-8.53-3.93-15.24-.09-3.15.13-6.4.65-9.65.07-.41.45-.69.86-.62.41.07.69.45.62.86-.51,3.16-.72,6.31-.64,9.37.18,6.42,1.94,10.43,3.81,14.68,1.17,2.67,2.39,5.44,3.28,8.94,4.69,18.48-3.63,28.29-3.99,28.69-.15.17-.36.26-.56.26Z"/>
      <path class="cls-8" d="m114.02,273.43s-.06,0-.09,0c-2.64-.33-3.4-5.73-3.52-6.81-.05-.41.25-.78.66-.83.42-.05.78.25.83.66.26,2.22,1.17,5.36,2.22,5.49.41.05.7.43.65.84-.05.38-.37.66-.74.66Z"/>
      <path class="cls-8" d="m188.94,308.69c-.28,0-.54-.16-.67-.42-.15-.31-.08-.68.18-.9.16-.14,3.98-3.4,8.2-4.53.4-.11.81.13.92.53.11.4-.13.81-.53.92-1.83.49-3.62,1.44-5,2.32,2.77-.45,6.78-.96,9.76-.79.41.02.73.38.71.79-.02.41-.37.72-.79.71-4.77-.27-12.55,1.33-12.62,1.35-.05.01-.1.02-.15.02Z"/>
      <path class="cls-8" d="m111.22,313.76c-.22,0-.44-.1-.59-.29-3.3-4.21-8.88-6.61-14.21-6.12-.36.04-.7-.2-.79-.55-.1-.35.07-.72.4-.88,3.91-1.86,8.36-2.23,12.22-1,.39.13.61.55.49.94-.13.39-.55.61-.94.49-2.28-.73-4.8-.83-7.27-.35,4.39.7,8.56,3.05,11.29,6.54.26.33.2.8-.13,1.05-.14.11-.3.16-.46.16Z"/>
      <path class="cls-10" d="m83.95,360.54s-.06,0-.09,0c-.41-.05-.71-.42-.66-.83.81-6.87,3.4-12.99,6.78-16,.31-.27.78-.25,1.06.06.27.31.25.78-.06,1.06-3.11,2.77-5.52,8.53-6.28,15.05-.04.38-.37.66-.74.66Z"/>
      <path class="cls-10" d="m98.88,358.89c-.15,0-.31-.05-.44-.14-.34-.24-.41-.71-.17-1.05,1.32-1.82,1.89-4.14,1.55-6.37-.06-.41.22-.79.63-.85.41-.06.79.22.85.63.39,2.61-.27,5.33-1.82,7.47-.15.2-.38.31-.61.31Z"/>
      <g>
        <g>
          <path class="cls-2" d="m131.22,185.62c-.32,1.2.08,2.41.91,2.7.82.29,1.75-.45,2.07-1.65.32-1.2-.08-2.41-.91-2.7-.82-.29-1.75.45-2.07,1.65Z"/>
          <path class="cls-2" d="m137.34,187.77s-.84-1.89-3.45-2.64c-1.83-.52-1.95,1.26-3.61,1.35-.6.03-1.55-.67-1.6-1.68,0,0,.51.76,1.29.28.63-.38,2.13-2.43,4.35-1.85,2.68.7,3.39,2.85,3.02,4.54Z"/>
        </g>
        <g>
          <path class="cls-2" d="m149.05,187.42c-.03-1.31.74-2.59,1.7-2.86.97-.27,1.77.58,1.79,1.9.03,1.31-.74,2.59-1.7,2.86-.97.27-1.77-.58-1.79-1.9Z"/>
          <path class="cls-2" d="m148.03,187.2s1.28-1.43,4.31-.89c2.13.38,2.06,1.62,3.68,2.37.62.29,1.92.08,2.45-.93,0,0-.89.53-1.46-.35-.47-.71-1.67-2.59-4.19-3.25-2.56-.68-4.36,1.13-4.79,3.06Z"/>
        </g>
      </g>
    </g>
  </g>
</svg>