<?xml version="1.0" encoding="UTF-8"?>
<svg xmlns="http://www.w3.org/2000/svg" viewBox="0 0 386.39 464.39">
  <defs>
    <style>
      .cls-1 {
        fill: #bfb5b4;
      }

      .cls-2 {
        fill: #514749;
      }

      .cls-3 {
        fill: #f9f8f7;
      }

      .cls-4 {
        fill: #efeae8;
      }

      .cls-5 {
        fill: #5e5254;
      }

      .cls-6 {
        fill: #f0e7e2;
      }

      .cls-7 {
        fill: #86a09c;
      }

      .cls-8 {
        isolation: isolate;
      }

      .cls-9 {
        fill: #706466;
      }

      .cls-10 {
        fill: #986f68;
      }

      .cls-11 {
        fill: #e3d1cf;
      }

      .cls-12 {
        fill: #cfbbb8;
      }

      .cls-13 {
        fill: #a64e4e;
      }

      .cls-14 {
        fill: #ba5a5a;
      }

      .cls-15 {
        fill: #ce807c;
      }

      .cls-16 {
        mix-blend-mode: multiply;
        opacity: .3;
      }

      .cls-17 {
        fill: #e29b86;
      }

      .cls-18 {
        fill: #efac94;
      }

      .cls-19 {
        fill: #865d5b;
      }

      .cls-20 {
        fill: #c48963;
      }

      .cls-21 {
        fill: #cf807b;
      }

      .cls-22 {
        fill: #e59e89;
      }

      .cls-23 {
        fill: #e6aa68;
      }

      .cls-24 {
        fill: #f4e7e4;
      }

      .cls-25 {
        fill: #b2c6bf;
      }

      .cls-26 {
        fill: #ebe8ef;
      }

      .cls-27 {
        fill: #514b4c;
      }

      .cls-28 {
        fill: #9b4343;
      }

      .cls-29 {
        fill: #ffc873;
      }

      .cls-30 {
        fill: #d8d0cf;
      }

      .cls-31 {
        fill: #dea379;
      }

      .cls-32 {
        fill: #cd807b;
      }
    </style>
  </defs>
  <g class="cls-8">
    <g id="Layer_2" data-name="Layer 2">
      <g id="_2" data-name="2">
        <g>
          <g>
            <rect class="cls-20" x="84.33" y="381.45" width="99.74" height="14.14"/>
            <rect class="cls-20" x="84.33" y="412.46" width="99.74" height="7.07"/>
            <rect class="cls-31" x="5.98" y="381.45" width="13.06" height="76.71"/>
            <rect class="cls-20" x="166.2" y="381.45" width="13.06" height="76.71"/>
            <rect class="cls-31" x="102.28" y="381.45" width="6.53" height="76.71"/>
            <rect class="cls-20" x="108.81" y="381.45" width="6.53" height="76.71"/>
            <rect class="cls-31" x="5.98" y="381.45" width="99.74" height="14.14"/>
            <rect class="cls-31" x="5.98" y="412.46" width="99.74" height="7.07"/>
            <g class="cls-16">
              <path class="cls-20" d="m48.28,388.91H11.61c-.41,0-.75-.34-.75-.75s.34-.75.75-.75h36.68c.41,0,.75.34.75.75s-.34.75-.75.75Z"/>
              <path class="cls-20" d="m59.54,392.54h-18.19c-.41,0-.75-.34-.75-.75s.34-.75.75-.75h18.19c.41,0,.75.34.75.75s-.34.75-.75.75Z"/>
              <path class="cls-20" d="m100.11,387.82h-25.03c-.41,0-.75-.34-.75-.75s.34-.75.75-.75h25.03c.41,0,.75.34.75.75s-.34.75-.75.75Z"/>
              <path class="cls-20" d="m14.15,406.32c-.41,0-.75-.34-.75-.75v-11.24c0-.41.34-.75.75-.75s.75.34.75.75v11.24c0,.41-.34.75-.75.75Z"/>
              <path class="cls-20" d="m10.52,450.21c-.41,0-.75-.34-.75-.75v-39.18c0-.41.34-.75.75-.75s.75.34.75.75v39.18c0,.41-.34.75-.75.75Z"/>
              <path class="cls-20" d="m14.51,444.05c-.41,0-.75-.34-.75-.75v-5.09c0-.41.34-.75.75-.75s.75.34.75.75v5.09c0,.41-.34.75-.75.75Z"/>
              <path class="cls-20" d="m70.48,416.11h-36.38c-.41,0-.75-.34-.75-.75s.34-.75.75-.75h36.38c.41,0,.75.34.75.75s-.34.75-.75.75Z"/>
              <path class="cls-20" d="m105.54,433.54c-.41,0-.75-.34-.75-.75v-26.86c0-.41.34-.75.75-.75s.75.34.75.75v26.86c0,.41-.34.75-.75.75Z"/>
              <path class="cls-20" d="m112.69,447.35c-.29,0-.56-.17-.69-.45-.07-.15-.12-.32-.16-.48-.03-.1-.05-.2-.09-.29-.04-.1-.06-.2-.06-.3v-8.73c0-.41.34-.75.75-.75s.75.34.75.75v8.59c.04.11.07.21.1.32.03.1.05.2.09.29.17.38,0,.82-.38.99-.1.04-.2.06-.3.06Z"/>
              <path class="cls-20" d="m135.3,392.54h-21.77c-.41,0-.75-.34-.75-.75s.34-.75.75-.75h21.77c.41,0,.75.34.75.75s-.34.75-.75.75Z"/>
              <path class="cls-20" d="m144.72,416.84h-10.89c-.41,0-.75-.34-.75-.75s.34-.75.75-.75h10.89c.41,0,.75.34.75.75s-.34.75-.75.75Z"/>
              <path class="cls-20" d="m171.55,453.1c-.41,0-.75-.34-.75-.75v-25.76c0-.41.34-.75.75-.75s.75.34.75.75v25.76c0,.41-.34.75-.75.75Z"/>
            </g>
            <rect class="cls-30" y="342.82" width="187.15" height="40.8" rx="7.75" ry="7.75"/>
            <g>
              <path class="cls-1" d="m167.57,380.2h-47.51c-.41,0-.75-.34-.75-.75s.34-.75.75-.75h47.51c.41,0,.75.34.75.75s-.34.75-.75.75Z"/>
              <path class="cls-1" d="m144.72,374.4h-13.42c-.41,0-.75-.34-.75-.75s.34-.75.75-.75h13.42c.41,0,.75.34.75.75s-.34.75-.75.75Z"/>
            </g>
            <rect class="cls-4" y="342.82" width="113.16" height="40.8" rx="7.75" ry="7.75"/>
            <g>
              <path class="cls-3" d="m69.64,349.26H9.43c-.55,0-1-.45-1-1s.45-1,1-1h60.21c.55,0,1,.45,1,1s-.45,1-1,1Z"/>
              <path class="cls-3" d="m91.4,349.26h-10.88c-.55,0-1-.45-1-1s.45-1,1-1h10.88c.55,0,1,.45,1,1s-.45,1-1,1Z"/>
            </g>
            <path class="cls-30" d="m87.06,379.48H23.21c-.41,0-.75-.34-.75-.75s.34-.75.75-.75h63.84c.41,0,.75.34.75.75s-.34.75-.75.75Z"/>
            <path class="cls-30" d="m93.67,374.4h-24.76c-.41,0-.75-.34-.75-.75s.34-.75.75-.75h24.76c.41,0,.75.34.75.75s-.34.75-.75.75Z"/>
            <path class="cls-20" d="m151.62,388.91h-16.34c-.41,0-.75-.34-.75-.75s.34-.75.75-.75h16.34c.41,0,.75.34.75.75s-.34.75-.75.75Z"/>
          </g>
          <path class="cls-27" d="m222.96,435.13c-1.21,23.69,29.76,16.96,29.76,24.17s-34.84,6.06-38.44.95c-4.37-6.2-2.19-27.8-2.19-27.8l10.88,2.69Z"/>
          <path class="cls-27" d="m182.34,434c-2.56,24.09,13.9,17.07,13.49,24.39-.4,7.33-21.95,6.36-25.35,1.18-4.13-6.28.89-28.25.89-28.25l10.97,2.67Z"/>
          <path class="cls-13" d="m153.78,203.18s23.85-37.45,32.82-21.4c8.98,16.05,2.72,32.1,6.26,62.02,2.64,22.34,6.8,32.64,6.8,32.64-15.01,12.15-29.16,15.51-43.34,19.22,0,0-8.34-52.95-2.54-92.49Z"/>
          <path class="cls-28" d="m188.07,191.5c3.6,11.59,1.78,22.45-4.05,24.26-5.83,1.81-13.48-6.12-17.08-17.7-3.6-11.59-1.78-22.45,4.05-24.26,5.83-1.81,13.48,6.12,17.08,17.7Z"/>
          <path class="cls-5" d="m98.29,304.01s20.67,39.17,35.54,39.17h48.24s4.9,56.76,19.4,97.02c0,0,12.33,5.8,28.65-1.09,0,0,.01-49.65-1.63-76.44-2.54-41.35-4.62-55.85-12.24-64.2-7.62-8.34-58.12-19.49-58.12-19.49,0,0-47.88,14.14-59.84,25.03Z"/>
          <path class="cls-9" d="m77.62,308.37s6.17,34.82,21.04,34.82h48.24s.36,57.85,14.87,98.11c0,0,12.33,5.8,28.65-1.09,0,0,1.49-43.71,1.09-70.54-.73-48.24-1.09-63.47-8.7-71.81-7.62-8.34-45.34-14.51-45.34-14.51,0,0-47.88,14.14-59.84,25.03Z"/>
          <path class="cls-5" d="m174.11,444.14c-7.49,0-12.33-2.02-12.65-2.15-.19-.08-.34-.24-.41-.43-13.5-37.45-14.79-90.7-14.9-97.61h-47.5c-.66-.03-15.57-1.01-20.51-31.73-.07-.41.21-.79.62-.86.41-.07.79.21.86.62,4.72,29.39,18.92,30.46,19.06,30.47h48.2c.41,0,.75.33.75.74,0,.58.53,57.88,14.71,97.54,1.93.72,13.03,4.35,26.98-.94.39-.15.82.05.97.44.15.39-.05.82-.44.97-5.92,2.25-11.3,2.96-15.75,2.96Z"/>
          <path class="cls-29" d="m256.06,93.65c-22.49,11.61-46.06,51.32-58.76,61.48-12.69,10.16-48.6,28.83-48.6,28.83l7.44,19.59s33.73-4.9,64.74-23.39c32.22-19.22,44.61-46.24,44.61-46.24l-9.43-40.26Z"/>
          <path class="cls-6" d="m132.64,170.38c18.5,3.99,34.65,1.88,42.54,4.06,9.37,2.58,14.33,11.33,15.78,18.23,1.45,6.89,3.63,12.69,1.27,13.78-3.96,1.83-17.41,5.08-30.1,9.07-13.6,4.28-29.48-45.13-29.48-45.13Z"/>
          <path class="cls-6" d="m103.37,170.36c-15.51,2.58-23.21,10.34-27.93,23.76-4.72,13.42-6.53,29.02-4.72,57.67,1.81,28.65,1.45,50.41,6.89,62.75,0,0,11.61-3.63,24.66-11.97,13.06-8.34,29.22-15.98,43.7-18.32,11.24-1.81,22.12-3.45,22.12-3.45,0,0-5.62-7.25-7.07-28.29-1.45-21.04.73-31.55-1.45-47.51-2.18-15.96-7.19-31.8-26.62-32.94s-29.59-1.69-29.59-1.69Z"/>
          <path class="cls-24" d="m92.48,111.8c.69-5.95,4.55-10.81,8.57-11.61,2.87-.57,5.14.89,7.5,2.8,2.64,2.14,23.4,4.52,24.49,7.66,1.09,3.14-7.06,8.05-6.75,11.27.39,4.18-10.33,2.98-10.33,7.13,0,3.09-.2,6.41-2.21,8.56-2.09,2.24-2.15,18.65-5.15,17.1,0,0-11.03-.09-15.19-22.18-1.37-7.28-1.56-15.43-.93-20.74Z"/>
          <path class="cls-17" d="m132.97,153.52l-13.59-8.03-12.05-1.39c-.12,4.26-1.02,18.79-3.63,26,9.89,6.82,19.47,6.19,28.86.98.63-6,2.04-13.49,2.45-15.64l-2.05-1.91Z"/>
          <path class="cls-14" d="m171.64,171.99c39.81-3.63,91.31-21.76,91.31-21.76,0,0,10.88,10.16,10.16,26.84,0,0-40.53,20.67-80.79,32.64,0,0,.82-17.77-7.89-27.2s-12.78-10.52-12.78-10.52Z"/>
          <g>
            <path class="cls-13" d="m250.65,182.2s-.03,0-.05,0c-.41-.02-.73-.38-.7-.79.43-7.09-2.28-14.35-7.25-19.42-.29-.3-.29-.77.01-1.06.3-.29.77-.28,1.06.01,5.27,5.37,8.14,13.06,7.68,20.56-.02.4-.35.7-.75.7Z"/>
            <path class="cls-13" d="m254,177.02s-.05,0-.07,0c-.41-.04-.72-.4-.68-.82.37-4.05-.82-8.25-3.26-11.5-.25-.33-.18-.8.15-1.05.33-.25.8-.18,1.05.15,2.66,3.55,3.96,8.12,3.55,12.54-.04.39-.36.68-.75.68Z"/>
          </g>
          <path class="cls-17" d="m97.95,173.18c-.36,2.32,11.48,8.15,25.11,7.15,13.64-1,16.63-5.32,16.13-6.98-.5-1.66-5.99-3.83-19.96-4.32-13.97-.5-20.95,2-21.29,4.16Z"/>
          <path class="cls-21" d="m107.33,144.1c-.08,2.93-.53,10.69-1.65,17.6,2.53,5,9.16,14.98,21.62,14.37,4.34-.21,7.97-1.73,10.94-3.76-1-.67-2.8-1.35-5.6-1.92.66-5.87,1.97-12.88,2.37-14.95l-2.05-1.91-.39-.23-25.19-9.19h-.06Z"/>
          <path class="cls-14" d="m132.64,170.38c10.62,5.6,25.67-2.11,38.73,8.95,8.62,7.3,13.15,19.86,13.78,44.34.73,28.29,10.61,55.67,10.61,55.67l3.9-2.9s-7.98-24.51-6.53-58.21c1.09-25.3-5.72-38.02-15.23-44.43-17.77-11.97-31.55-3.81-45.26-3.42Z"/>
          <path class="cls-13" d="m192.05,202.67h0c-.41,0-.75-.34-.75-.75.13-22.3-15.51-28.79-15.67-28.86-.38-.15-.57-.59-.42-.97.15-.38.59-.57.97-.42.17.07,16.75,6.9,16.61,30.26,0,.41-.34.75-.75.75Z"/>
          <path class="cls-27" d="m285.81,435.13c2.29,23.69-28.98,16.96-28.65,24.17.33,7.21,35.11,6.06,38.49.95,4.09-6.2.92-27.8.92-27.8l-10.75,2.69Z"/>
          <path class="cls-27" d="m364.31,434.55c9.06,23.65-10.51,16.85-8.16,24.04,2.35,7.19,25.31,6.12,27.62,1.01,2.8-6.2-8.34-27.75-8.34-27.75l-11.12,2.69Z"/>
          <path class="cls-25" d="m270.25,208.34c-.5,20.6-8.15,83-7.51,113.03.64,30.02,11.95,117.15,11.95,117.15,0,0,15.48,8.7,32.1-.72,0,0,8.76-73.75,1.14-109.66l2.72-38.08s1.74,16.85,8.16,38.63c6.42,21.78,19.58,58.03,34.18,107.48,0,0,21.8,11.2,32.65-10.58,0,0-5.18-72.24-25.29-106.57,0,0-2.38-58.54-2.38-77.38,0-11.61-3.33-46.24-3.33-46.24l-84.4,12.95Z"/>
          <g>
            <path class="cls-7" d="m290.38,442.89c-9.26,0-15.95-3.67-16.06-3.73-.36-.2-.49-.66-.29-1.02.2-.36.66-.49,1.02-.29.15.08,15.11,8.26,31.03-.53.66-5.76,8.33-74.98,1.11-109.04-.01-.07-.02-.14-.01-.21l2.61-36.67c.03-.41.4-.73.8-.69.41.03.72.39.69.8l-2.6,36.56c7.52,35.65-1.07,109.06-1.15,109.8-.03.24-.17.45-.38.56-5.92,3.36-11.73,4.45-16.78,4.45Z"/>
            <path class="cls-7" d="m365.5,439.8c-6.96,0-12.54-2.82-12.85-2.97-.18-.09-.32-.26-.38-.45-8.74-29.58-16.94-54.38-23.53-74.31-4.33-13.1-8.07-24.41-10.65-33.17-6.05-20.53-13.83-70.05-14.64-75.28l-8.83-3.12c-.39-.14-.6-.57-.46-.96.14-.39.57-.6.96-.46l9.25,3.26c.26.09.45.32.49.59.08.54,8.34,54.04,14.67,75.52,2.57,8.73,6.31,20.04,10.64,33.12,6.57,19.86,14.74,44.57,23.45,74.03,1.65.76,10.2,4.39,18.59,1.64,5.38-1.77,9.68-5.81,12.77-12.02.19-.37.64-.52,1.01-.34.37.19.52.64.34,1.01-3.28,6.58-7.88,10.88-13.66,12.78-2.44.8-4.88,1.1-7.16,1.1Z"/>
            <path class="cls-7" d="m303.94,259.45c-5.44,0-11.71-3.59-11.99-3.75-.36-.21-.48-.67-.27-1.02.21-.36.67-.48,1.02-.27.07.04,6.75,3.88,11.91,3.53.41-.03.77.28.8.7.03.41-.29.77-.7.8-.25.02-.51.02-.77.02Z"/>
            <path class="cls-7" d="m298.5,251.81s-.04,0-.06,0c-.41-.03-.72-.39-.69-.81.02-.22,1.81-22.62,1.81-36.93,0-.41.34-.75.75-.75s.75.34.75.75c0,14.37-1.8,36.83-1.82,37.05-.03.39-.36.69-.75.69Z"/>
            <path class="cls-7" d="m301.76,440.77s-.05,0-.07,0c-.41-.04-.72-.4-.68-.81.04-.4,3.62-40.13,3.62-63.4s-2.87-48.62-2.9-48.88c0-.05,0-.1,0-.15l4.9-54.77c.04-.41.39-.71.81-.68.41.04.72.4.68.81l-4.89,54.69c.18,1.56,2.9,26.26,2.9,48.97s-3.59,63.14-3.63,63.54c-.04.39-.36.68-.75.68Z"/>
            <path class="cls-7" d="m331.18,338.21c-.15,0-.31-.05-.44-.14-6.4-4.62-9.75-12.94-8.32-20.71.08-.41.47-.68.87-.6.41.08.68.47.6.87-1.33,7.21,1.77,14.93,7.72,19.22.34.24.41.71.17,1.05-.15.2-.38.31-.61.31Z"/>
            <path class="cls-7" d="m341.9,328.32c-.4,0-.73-.31-.75-.71l-.47-8.34c-.02-.41.29-.77.71-.79.43-.01.77.29.79.71l.47,8.34c.02.41-.29.77-.71.79-.01,0-.03,0-.04,0Z"/>
            <path class="cls-7" d="m274.35,334.27c-.17,0-.34-.06-.48-.17-.32-.26-.36-.74-.1-1.06,3.65-4.41,5.63-10.23,5.46-15.95-.01-.41.31-.76.73-.77.41-.04.76.31.77.73.19,6.08-1.92,12.26-5.8,16.95-.15.18-.36.27-.58.27Z"/>
            <path class="cls-7" d="m354.71,200.28l-16.59,8.61s7.62,12.06,18.5,12.06c0,0-.54-12.24-1.9-20.67Z"/>
          </g>
          <path class="cls-29" d="m281.81,84.58c18.97-3.01,37.36-.36,48.24,10.16,10.88,10.52,15.6,28.29,21.4,51.87s6.17,52.59,6.17,52.59c0,0-3.63,1.81-10.88,6.89-7.25,5.08-23.94,12.69-46.06,13.06-22.12.36-32.28-9.79-32.28-9.79,0,0-1.09-19.22-2.9-34.09-1.81-14.87-9.25-30.47-13.6-43.52-4.35-13.06-.54-34.09-.54-34.09,0,0,7.62-9.43,30.47-13.06Z"/>
          <path class="cls-23" d="m299.5,219.9c-21.37,0-31.22-9.61-31.64-10.02-.13-.13-.21-.3-.22-.49-.01-.19-1.11-19.37-2.9-34.04-1.29-10.56-5.36-21.3-9.3-31.69-1.56-4.1-3.02-7.97-4.26-11.69-.93-2.78-1.56-6.13-1.88-9.95-.03-.41.27-.78.69-.81.42-.03.78.27.81.69.31,3.7.92,6.93,1.81,9.6,1.23,3.69,2.69,7.55,4.24,11.63,3.79,9.98,8.08,21.3,9.39,32.04,1.67,13.71,2.74,31.33,2.89,33.84,1.52,1.36,11.67,9.73,31.54,9.39,20.55-.34,37.43-7.17,45.64-12.92,7.22-5.05,10.83-6.87,10.98-6.95.37-.18.82-.03,1.01.34.19.37.04.82-.34,1.01-.04.02-3.68,1.86-10.79,6.83-8.39,5.87-25.59,12.85-46.48,13.19-.4,0-.79,0-1.18,0Z"/>
          <path class="cls-17" d="m264.04,91.48c-.62,4.37,3.4,13.92,18.86,11.97,17.23-2.18,22.85-13.06,21.22-17.23-1.77-4.53-12.51-3.08-22.31-1.63-9.79,1.45-17.41,4.35-17.77,6.89Z"/>
          <path class="cls-10" d="m301.49,23.87c-1.14-6.19-5.16-12.12-9.45-12.68-3.07-.4-5.37,1.3-7.73,3.47-2.64,2.43-24.41,6.39-25.35,9.76-.94,3.37,8.01,7.95,7.91,11.36-.13,4.42,11.11,2.4,11.4,6.76.21,3.24.66,6.72,2.92,8.83,2.36,2.2,2.78,14.52,7.22,15.72,0,0,11.66.03,14.18-21.37.91-7.74-.08-16.32-1.1-21.85Z"/>
          <path class="cls-17" d="m290.9,58.87s.02,17.17,9.48,27.13l-31.97,6.19s-.73-7.49-3.42-17.04l16.58-13.57,9.33-2.7Z"/>
          <path class="cls-32" d="m294.67,77c-3.76-8.86-3.77-18.13-3.77-18.13l-9.33,2.7-16.58,13.57c1.5,5.33,2.39,10.02,2.89,13.12-2.28,1.05-3.69,2.16-3.84,3.21-.05.33-.06.7-.06,1.08,1.16,1.39,4.15,3.73,11.3,3,10.61-1.09,17.68-8.98,19.39-18.56Z"/>
          <path class="cls-18" d="m285.68,47.19c.63-4.14,7.58-8.23,9.28,1.82.37,4.88-1.48,9.67-6.52,10.9-2.72-1.43-4.09-6.88-2.76-12.72Z"/>
          <path class="cls-18" d="m241.9,35.34c-.76-14.83,22.91-15.63,31.75-10.8-.58,10.16,7.54,14.57,7.54,14.57-.89,4.79,1.61,10.75,5.33,10.85l1.92,9.95c-1.49,10.77-8.18,20.19-13.83,23.48-8.6,5.01-17.11,3.7-21.38-2.94-4.06-6.31-10.05-20.33-11.33-45.11Z"/>
          <path class="cls-10" d="m293.11,2.13c1.26,1.54.9,4.37.63,6.22-.32,2.15-1.37,4.45-3.32,5.59-.35.2-.94.2-1.25-.06-.56-.46-.72-1.04-.33-1.73.25-.44.86-.7,1.21-1.08.44-.48.75-1.09,1.01-1.68.55-1.27.83-2.61,1.01-3.96.14-1.04.05-2.15.36-3.16.09-.29.5-.38.69-.15h0Z"/>
          <path class="cls-15" d="m257.93,45.47s.88,1.39,1.72,3.76c.21.59.4,1.26.52,2.01.06.38.11.74.12,1.21,0,.38.04.69-.02,1.15-.12,1.75-.63,3.4-1.38,4.97-.73,1.55-1.66,2.99-2.44,4.24-.18.3-.37.63-.42.78,0,0-.03.08-.02.03.05-.14,0-.26-.05-.42.16.33-.09-.15.01.02.18.2.73.47,1.19.62.96.35,1.87.44,2.5.51.63.03,1,.04,1,.04h.02c.49.02.86.44.83.93-.03.38-.29.69-.63.8,0,0-.43.14-1.21.24-.78.1-1.91.11-3.26-.23-.67-.22-1.38-.41-2.21-1.15-.15-.05-.61-.83-.56-.83-.14-.32-.11-.63-.08-.94.05-.23.1-.32.16-.49.23-.52.44-.83.66-1.18.87-1.31,1.73-2.58,2.42-3.95.67-1.34,1.18-2.81,1.35-4.07.07-.28.05-.72.08-1.06.02-.26,0-.61-.04-.9-.07-.62-.19-1.21-.32-1.77-.27-1.1-.6-2.02-.85-2.64-.26-.62-.41-.97-.41-.97-.16-.37.01-.81.39-.98.34-.15.73-.03.93.27Z"/>
          <path class="cls-32" d="m287.53,50.75c-.05,2.37,1.09,4.18,2.56,4.06,1.46-.13,2.68-2.15,2.73-4.51.05-2.37-1.09-4.18-2.56-4.06-1.46.13-2.68,2.15-2.73,4.51Z"/>
          <path class="cls-10" d="m253.01,42.82c.08,1.42-2.76,2.04-5.64,2.92-4.25,1.3-5.32,1.55-5.95.47-.31-.52-.46-3.29,4.1-4.83,5.34-1.8,7.4-.01,7.48,1.44Z"/>
          <path class="cls-10" d="m269.81,43.25c3.38.3,6.03,1.07,6.72-.18.59-1.06-.29-3.51-5.74-4.58-3-.59-7.7-.06-7.88,2.55-.16,2.44,3.46,1.9,6.9,2.21Z"/>
          <path class="cls-10" d="m290.92,11.67s-6.69-15.03-24.14-10.97c-13.79,3.21-22.58,13.38-29.95,14.18-7.38.8-3.4-4.46-5.08-4.16-1.68.3-10.63,7.6-1.48,16.93,8.27,8.42,28.17,3.82,43.34-2.02,15.18-5.84,17.31-13.95,17.31-13.95Z"/>
          <g>
            <path class="cls-5" d="m272.1,64.87s-3.59,2.72-7.75,5.05c-3.92,2.2-7.58,3.16-7.58,3.16,0,0,3.52,5.07,10.59.97,5.35-3.1,4.74-9.19,4.74-9.19Z"/>
            <path class="cls-26" d="m266.85,72.86c-4.08,2.37-6.2.37-6.2.37,0,0,2.46-1,5.33-2.75,3.65-2.23,4.72-3.11,4.72-3.11,0,0,.13,3.19-3.85,5.5Z"/>
          </g>
          <g>
            <path class="cls-19" d="m242.99,29.37c-.38,0-.72-.27-.72-.65,0-.36.29-.65.65-.65h.07c15.25,0,30.49-4.87,42.92-13.71.29-.21.7-.14.91.15.21.29.14.7-.15.91-12.64,9-28.15,13.95-43.67,13.95Z"/>
            <path class="cls-19" d="m276.42,25.11c-.28,0-.55-.19-.63-.48-.1-.35.11-.7.45-.8,3.48-.97,6.75-2.73,9.47-5.11.27-.24.68-.21.92.06.24.27.21.68-.06.92-2.86,2.5-6.31,4.36-9.98,5.38-.06.02-.12.02-.17.02Z"/>
            <path class="cls-19" d="m238.62,28.92s-.05,0-.07,0c-2.93-.32-5.74-1.93-7.52-4.28-1.77-2.36-2.54-5.5-2.04-8.41.06-.35.4-.59.75-.53.35.06.59.4.53.75-.44,2.56.23,5.33,1.79,7.41,1.56,2.08,4.04,3.49,6.62,3.77.36.04.61.36.57.72-.04.33-.32.58-.64.58Z"/>
            <path class="cls-19" d="m294.07,38.79c-3.16,0-6.32-1.15-8.66-3.31-.26-.24-.28-.66-.03-.92.24-.26.66-.28.92-.03,3.32,3.08,8.48,3.86,12.56,1.91.32-.16.71-.02.87.31.15.32.02.71-.31.87-1.67.8-3.51,1.19-5.35,1.19Z"/>
            <path class="cls-19" d="m294.34,42.06c-1.74,0-3.48-.39-5.03-1.15-.32-.16-.45-.55-.3-.87.16-.32.55-.46.87-.3,2.49,1.22,5.51,1.35,8.09.35.33-.13.71.03.84.37.13.33-.03.71-.37.84-1.3.51-2.71.76-4.11.76Z"/>
            <path class="cls-19" d="m285.63,10.37c-.19,0-.37-.08-.5-.24-2.85-3.46-7.03-5.85-11.47-6.54-4.44-.69-9.14.32-12.91,2.75-.3.19-.7.11-.9-.19-.19-.3-.11-.7.19-.9,4.03-2.61,9.07-3.68,13.81-2.95,4.75.74,9.22,3.29,12.27,6.99.23.28.19.69-.09.91-.12.1-.27.15-.41.15Z"/>
            <path class="cls-19" d="m255.3,13.3c-.18,0-.37-.08-.5-.23-.23-.27-.2-.68.07-.92,3.47-2.96,7.67-4.98,12.15-5.84.36-.07.69.16.76.52.07.35-.16.69-.52.76-4.26.82-8.25,2.74-11.55,5.55-.12.1-.27.16-.42.16Z"/>
            <path class="cls-19" d="m244.83,26.26c-4.14,0-7.86-1.03-9.99-3.88-.21-.29-.16-.69.13-.91.29-.21.69-.15.91.13,3.94,5.28,15.5,3.62,24.58-.16.33-.14.71.02.85.35.14.33-.02.71-.35.85-4.22,1.75-10.55,3.62-16.13,3.62Z"/>
            <path class="cls-19" d="m298.23,28.26s-.03,0-.04,0c-.36-.02-.63-.33-.61-.69.33-5.46-1.99-9.95-6.37-12.32-.32-.17-.43-.57-.26-.88.17-.32.57-.44.88-.26,4.84,2.62,7.41,7.55,7.05,13.54-.02.35-.31.61-.65.61Z"/>
            <path class="cls-19" d="m294.87,33.95c-.07,0-.14-.01-.21-.03-.34-.11-.52-.48-.41-.82.74-2.23.59-4.73-.41-6.86-.15-.32-.01-.71.31-.87.32-.15.71-.01.87.31,1.15,2.43,1.32,5.28.47,7.83-.09.27-.34.44-.62.44Z"/>
          </g>
          <g>
            <g>
              <path class="cls-5" d="m266.46,50.4c.52,1.38,1.86,2.33,3,2.12,1.14-.21,1.64-1.51,1.12-2.89-.52-1.38-1.86-2.33-3-2.12-1.14.21-1.64,1.51-1.12,2.89Z"/>
              <path class="cls-5" d="m274.23,50.3c-.79-2.2-3.34-4.1-6.56-3.88-2.32.21-2.96,2.74-2.49,3.86,0,0,.84-1.88,2.81-1.94,1.97-.06,6.25,1.97,6.25,1.97Z"/>
            </g>
            <g>
              <path class="cls-5" d="m247.28,53.81c.5,1.32,1.76,2.24,2.81,2.04,1.06-.2,1.51-1.43,1.01-2.76-.5-1.32-1.76-2.24-2.81-2.04-1.06.2-1.51,1.43-1.01,2.76Z"/>
              <path class="cls-5" d="m254.1,53.71c-.3-2.16-3.04-4.32-5.6-3.87-2.07.25-2.95,3.19-2.51,4.27,0,0,.68-2.22,2.81-2.44,2.38-.25,5.3,2.03,5.3,2.03Z"/>
            </g>
          </g>
          <path class="cls-18" d="m209.98,197.51c-8.42,1.7-12.31.15-18.75,1.92-5.72,1.57-9.56,4.79-8.85,6.74.46,1.27,2.05-.02,4.02-.69,1.76-.6,3.47-.73,3.56-.26.09.5-3.13,1.53-4.49,2.49-2.04,1.44-4.44,3.97-3.67,5.3.99,1.69,2.76-.27,5.06-1.1,1.64-.6,3.48-.26,3.6.16.15.51-1.97.87-3.67,1.85-1.7.98-3.23,2.72-2.63,3.5.98,1.27,1.56.37,3.85-.2,2.75-.68,7.04-1.38,11.82-1.62,6.83-.33,11.69-3.11,11.69-3.11l13.27-2.91-3.34-15.39-11.48,3.3Z"/>
          <path class="cls-29" d="m212.45,192.67s-.63,16.14,8.43,22.31c0,0,47.59.77,80.16-25.21,32.28-25.75,33.37-74.71,33.37-74.71l-29.02-25.39s-8.56,49.18-30.83,71.45c-15.23,15.23-62.11,31.55-62.11,31.55Z"/>
          <path class="cls-23" d="m221.17,215.72c-.18,0-.28,0-.3,0-.15,0-.29-.05-.41-.13-9.3-6.33-8.79-22.28-8.76-22.96.02-.41.35-.71.78-.72.41.02.74.36.72.78,0,.16-.5,15.57,7.92,21.53h.07c4.03,0,48.72-.58,79.39-25.05,31.63-25.23,33.07-73.66,33.09-74.14,0-.41.34-.73.75-.73h.02c.41,0,.74.35.73.77-.01.49-1.47,49.61-33.65,75.28-31.05,24.77-76.21,25.37-80.34,25.37Z"/>
          <path class="cls-23" d="m332.85,131c-.22,0-.44-.1-.58-.28-.26-.32-.21-.79.11-1.05,2.47-2,4.22-4.8,4.92-7.89.09-.4.49-.66.9-.56.4.09.66.49.56.9-.78,3.42-2.72,6.52-5.44,8.72-.14.11-.31.17-.47.17Z"/>
          <path class="cls-23" d="m212.45,193.42c-.31,0-.6-.19-.71-.5-.14-.39.06-.82.45-.96.46-.17,46.5-16.86,61.85-31.39,8.05-7.62,12.7-18.77,18.48-36.68.13-.39.55-.61.94-.48.39.13.61.55.48.94-5.85,18.15-10.6,29.47-18.88,37.31-15.58,14.75-60.47,31.03-62.37,31.72-.08.03-.17.04-.25.04Z"/>
          <path class="cls-23" d="m254.34,139.83c-.06,0-.13,0-.19-.03-4.38-1.17-8.22-10.12-8.39-10.5-.16-.38.02-.82.4-.98.38-.16.82.02.98.4,1.02,2.4,4.34,8.82,7.39,9.63.4.11.64.52.53.92-.09.34-.39.56-.72.56Z"/>
          <path class="cls-23" d="m304.98,179.37c-.27,0-.53-.15-.67-.41-.19-.37-.05-.82.32-1.01,3.02-1.56,5.27-4.47,6.04-7.77.09-.4.49-.65.9-.56.4.09.65.5.56.9-.86,3.73-3.41,7.01-6.81,8.77-.11.06-.23.08-.34.08Z"/>
          <path class="cls-18" d="m106.7,136.88c4.84-.17,6.15-6.45,5.02-10.93,0,0,8.66-4.66,7.49-14.27,8.03-5.13,30.4-5.87,30.59,8.25.33,23.58-3.27,36.46-6.71,42.7-3.61,6.57-13.04,8.78-21.46,4.57-5.53-2.76-10.39-5.64-12.07-18.29-4.79,1.02-8.33-2.32-10.01-6.65-2.67-9.3,4.92-8.67,7.16-5.39Z"/>
          <path class="cls-15" d="m135.21,131.19s-.74,1.38-1.39,3.68c-.16.58-.3,1.22-.37,1.94-.04.37-.06.71-.04,1.15.03.36,0,.66.09,1.09.22,1.65.81,3.18,1.6,4.63.78,1.42,1.75,2.73,2.56,3.87.19.27.38.57.45.71,0,0,.03.08.02.02-.05-.13-.02-.24.02-.4-.13.32.08-.15-.01.02-.16.2-.66.5-1.08.66-.89.39-1.74.53-2.32.64-.6.07-.94.1-.94.1h-.02c-.46.05-.79.47-.73.94.05.36.31.64.64.72,0,0,.41.11,1.16.15.74.05,1.81-.02,3.06-.42.62-.25,1.28-.48,2.01-1.23.13-.06.52-.82.48-.82.11-.31.06-.6.01-.9-.06-.22-.11-.3-.18-.45-.24-.48-.47-.76-.69-1.08-.9-1.19-1.79-2.34-2.53-3.6-.72-1.23-1.29-2.59-1.52-3.77-.09-.26-.09-.68-.14-1-.03-.24-.03-.58-.02-.86.03-.59.1-1.16.19-1.69.19-1.06.45-1.95.64-2.56.21-.6.33-.94.33-.94.13-.36-.06-.77-.43-.91-.33-.12-.69.02-.86.31Z"/>
          <path class="cls-32" d="m107.43,141.08c1.08,2.13.83,4.29-.55,4.82-1.38.53-3.37-.78-4.44-2.91s-.83-4.29.55-4.82c1.38-.53,3.37.78,4.44,2.91Z"/>
          <path class="cls-24" d="m139.68,128.37c0,1.35,2.73,1.76,5.49,2.42,4.09.97,5.11,1.13,5.64.07.26-.52.23-3.15-4.17-4.33-5.14-1.37-6.97.46-6.97,1.84Z"/>
          <path class="cls-24" d="m123.87,129.83c-3.16.5-5.61,1.4-6.35.25-.62-.97.06-3.35,5.12-4.7,2.79-.75,7.26-.54,7.59,1.92.31,2.3-3.14,2.02-6.36,2.53Z"/>
          <g>
            <path class="cls-5" d="m135.71,158.07c-3.12,0-9.87-2.28-12.42-7.26-.16-.32-.04-.71.28-.87.32-.16.71-.04.88.28,2.68,5.23,10.63,7.09,11.96,6.47.33-.15.71,0,.86.32.15.33,0,.71-.32.86-.28.13-.71.2-1.24.2Z"/>
            <path class="cls-32" d="m125.2,157.04c-.31.62.14,2.29,1.95,3.19,1.88.94,3.73.42,4.04-.2.31-.62-1.29-.66-2.95-1.49-1.65-.83-2.74-2.12-3.05-1.5Z"/>
          </g>
          <g>
            <path class="cls-5" d="m121.06,134.41c-.52.21.73,4.21,5.02,3.95,3.11-.19,3.35-2.58,2.92-2.82s-1.23.93-2.96,1.11c-2.33.25-4.45-2.46-4.98-2.25Z"/>
            <path class="cls-5" d="m139.48,135.16c-.9.47.66,4,4.18,3.82,3.2-.17,3.47-3.03,2.98-3.18-.49-.16-.7,1.5-3.02,1.55-2.59.06-3.67-2.45-4.14-2.18Z"/>
          </g>
          <g>
            <path class="cls-22" d="m145.8,124.16s-7.66-1.33-12.1-1.6c-4.44-.27-9.51.66-9.51.66,0,0,4.08-2.36,9.94-2.07,5.86.29,11.68,3.01,11.68,3.01Z"/>
            <path class="cls-22" d="m140.79,120.28s-3.79-.63-6-.76c-2.2-.13-4.71.31-4.71.31,0,0,2.02-1.12,4.92-.98,2.9.14,5.78,1.43,5.78,1.43Z"/>
          </g>
          <path class="cls-22" d="m120.14,141.53s5.18,1.66,9.53-2.85c1.05,1.25-3.28,8.38-9.53,2.85Z"/>
          <path class="cls-22" d="m138.59,138.89s2.56,4.96,7.4,3.63c.42,1.46-7.75,3.97-7.4-3.63Z"/>
          <path class="cls-24" d="m118.8,111.58s9.52,5.7,21.7,5.28c16.18-.55,20.18-9.44,20.18-9.44l-3.62-.05,2.28-3.32s-5.33-1.11-11.23-4.43c-4.5-2.53-12.7-10.2-26.79-10.69-16.18-.56-18.86,11.42-18.86,11.42,0,0,6.63,7.46,16.33,11.22Z"/>
          <g>
            <path class="cls-11" d="m101.18,127.08c-.31,0-.57-.25-.57-.56,0-.32.25-.58.56-.59.04,0,3.73-.1,7.49-2.18,2.09-1.09,4.82-3.32,5.68-6.09.09-.3.42-.47.72-.38.3.1.47.42.38.72-.97,3.09-3.86,5.52-6.24,6.75-4.01,2.21-7.85,2.31-8.01,2.32h-.01Z"/>
            <path class="cls-11" d="m102.94,131.09c-.28,0-.57-.01-.85-.04-.32-.03-.55-.31-.52-.62.03-.32.3-.55.62-.52,2.03.19,4.12-.39,5.77-1.57.26-.18.62-.13.8.13.19.26.13.62-.13.8-1.64,1.18-3.68,1.82-5.7,1.82Z"/>
            <path class="cls-11" d="m138.2,114.19c-7.04,0-14.08-1.97-19.96-5.83-.27-.17-.34-.53-.16-.8.17-.27.53-.34.8-.17,9.92,6.51,23.28,7.48,34.03,2.45.29-.13.63,0,.76.28.13.29.01.63-.28.76-4.73,2.21-9.96,3.3-15.19,3.3Z"/>
            <path class="cls-11" d="m144.45,109.93c-.29,0-.53-.21-.57-.5-.04-.31.18-.6.5-.64,3.79-.49,7.52-1.8,10.78-3.8.27-.17.62-.08.79.19.17.27.08.62-.19.79-3.4,2.08-7.28,3.45-11.23,3.96-.02,0-.05,0-.07,0Z"/>
            <path class="cls-11" d="m105.41,101.03s-.08,0-.12-.01c-.31-.07-.51-.38-.44-.69.06-.26,1.53-6.49,9.93-8.73,8.25-2.2,15.43.58,15.73.7.29.12.44.45.32.75-.12.29-.45.44-.75.32-.07-.03-7.14-2.76-15.01-.66-7.73,2.06-9.09,7.81-9.11,7.87-.06.27-.3.45-.56.45Z"/>
            <path class="cls-11" d="m94.8,116.4c-.28,0-.52-.2-.57-.49-.02-.15-.54-3.74,1.39-8.86,2.01-5.32,7.87-5.79,8.11-5.81.32-.02.59.21.61.53.02.32-.21.59-.53.62-.05,0-5.37.45-7.12,5.07-1.82,4.81-1.33,8.24-1.33,8.28.05.31-.17.61-.48.65-.03,0-.06,0-.09,0Z"/>
            <path class="cls-11" d="m108.26,102.25s-.03,0-.04,0c-.32-.02-.55-.3-.53-.62.01-.16.35-3.91,4.98-5.79.29-.12.63.02.75.32.12.29-.02.63-.32.75-3.98,1.62-4.27,4.78-4.27,4.82-.02.3-.27.53-.57.53Z"/>
          </g>
          <path class="cls-12" d="m96.84,226.97c-.2,0-.39-.08-.54-.23-.29-.3-.28-.77.02-1.06.04-.04,4.07-3.93,5.62-7.89.15-.39.59-.58.97-.42.39.15.58.59.42.97-1.67,4.28-5.81,8.26-5.98,8.43-.15.14-.33.21-.52.21Z"/>
          <path class="cls-12" d="m133.12,233.34c-.28,0-.55-.16-.68-.43-.18-.37-.02-.82.35-1,5.32-2.53,9.88-6.45,13.18-11.33.23-.34.7-.43,1.04-.2.34.23.43.7.2,1.04-3.45,5.1-8.22,9.2-13.78,11.84-.1.05-.21.07-.32.07Z"/>
          <path class="cls-12" d="m140.54,233.3c-.29,0-.57-.17-.69-.45-.16-.38.01-.82.39-.99,1.94-.83,3.63-2.27,4.76-4.05.22-.35.69-.45,1.04-.23.35.22.45.69.23,1.04-1.29,2.03-3.22,3.66-5.43,4.62-.1.04-.2.06-.3.06Z"/>
          <path class="cls-12" d="m118.25,287.01c-.26,0-.51-.14-.65-.38-.21-.36-.08-.82.28-1.02,10.86-6.22,23.19-9.44,35.73-9.42.41,0,.75.34.75.75,0,.41-.34.75-.75.75-.08,0-.2,0-.3,0-12.15,0-24.14,3.19-34.68,9.23-.12.07-.25.1-.37.1Z"/>
          <path class="cls-12" d="m127.48,277.35c-.3,0-.59-.18-.7-.48-.15-.39.05-.82.43-.97,5.42-2.08,11.35-3.13,17.15-3.08.41,0,.75.34.74.76,0,.41-.34.74-.75.74h0c-5.6-.05-11.36.98-16.6,2.98-.09.03-.18.05-.27.05Z"/>
          <path class="cls-14" d="m103.37,170.36s12.51,13.6,11.42,51.14-1.63,58.76.54,82.69c0,0-17.68,8.7-39.17,12.51,0,0-5.98-38.63-7.07-65.28-1.09-26.66,5.17-64.47,5.17-64.47,0,0,8.43-11.97,29.11-16.59Z"/>
          <path class="cls-18" d="m37.01,326.74c-1.87,4.77-2.16,5.97-6.05,7.64-3.89,1.67-7.99,2.63-12.34,4.06-4.36,1.43-7.34,4.3-7.34,4.3h23.15s-2.75,2.86-4.02,4.77c-1.27,1.91-3.12,6.21-1.72,6.92s4.39-2.15,8.34-5.49c3.96-3.34,5.92-4.54,8.64-6.92,2.73-2.39,4.57-12.17,4.57-12.17l-13.24-3.1Z"/>
          <path class="cls-14" d="m98.47,172.17c-31.37,7.8-38.85,35.54-48.72,80.88s-17.27,72.36-17.27,72.36c0,0,11.74,6.53,22.65,5.8,0,0,15.86-28.09,27.56-62.02,14.15-40.98,26.48-79.43,15.78-97.02Z"/>
          <path class="cls-13" d="m53.38,332.02c-10.43,0-20.81-5.7-21.27-5.95-.36-.2-.49-.66-.29-1.02.2-.36.66-.49,1.02-.29.11.06,11.38,6.25,21.83,5.73,1.87-3.37,16.46-30.11,27.31-61.54,6.51-18.87,13.18-38.71,16.83-55.53.09-.4.49-.66.89-.57.4.09.66.49.57.89-3.67,16.9-10.35,36.78-16.88,55.7-11.6,33.6-27.46,61.86-27.62,62.14-.12.22-.35.36-.6.38-.6.04-1.2.06-1.8.06Z"/>
          <path class="cls-12" d="m168.11,281.55c-.22,0-.44-.1-.59-.29-.24-.3-5.78-7.68-7.23-28.7-.67-9.71-.57-17.28-.48-23.96.11-8.01.2-14.94-.97-23.5-.44-3.25-.95-6.07-1.54-8.61-.09-.4.16-.81.56-.9.41-.09.81.16.9.56.6,2.59,1.12,5.45,1.57,8.75,1.18,8.67,1.09,15.65.98,23.72-.09,6.65-.19,14.2.47,23.84,1.41,20.48,6.86,27.81,6.92,27.88.25.33.19.8-.14,1.05-.14.11-.3.16-.46.16Z"/>
          <path class="cls-12" d="m160.31,208.29c-.23,0-.46-.11-.61-.31-.24-.34-.16-.81.17-1.05,1.81-1.29,1.96-5.99,1.86-7.69-.02-.41.29-.77.71-.79.42-.02.77.29.79.71.04.71.3,7-2.49,8.99-.13.09-.28.14-.44.14Z"/>
          <path class="cls-13" d="m76.16,317.46c-.36,0-.67-.26-.74-.62-.07-.41.2-.8.61-.87,19.24-3.41,35.59-10.85,38.51-12.23-2.09-23.31-1.63-43.24-.5-82.26,1.06-36.72-11.11-50.48-11.23-50.61-.28-.31-.26-.78.05-1.06s.78-.26,1.06.04c.52.56,12.71,14.26,11.62,51.67-1.14,39.25-1.59,59.16.54,82.6.03.31-.14.6-.42.74-.18.09-18.02,8.8-39.37,12.58-.04,0-.09.01-.13.01Z"/>
          <path class="cls-13" d="m194.71,190.07c-.37,0-.7-.28-.74-.66-.65-5.33-3.37-10.38-7.47-13.86-.32-.27-.35-.74-.09-1.06.27-.31.74-.35,1.06-.09,4.38,3.72,7.29,9.12,7.99,14.82.05.41-.24.79-.65.84-.03,0-.06,0-.09,0Z"/>
          <g>
            <path class="cls-5" d="m170.85,316.35c-.17,0-.34-.06-.48-.17-2.41-1.98-3.97-5.01-4.17-8.12-.03-.41.29-.77.7-.8.41-.02.77.28.8.7.18,2.7,1.54,5.34,3.63,7.06.32.26.37.74.1,1.06-.15.18-.36.27-.58.27Z"/>
            <path class="cls-5" d="m185.61,318.55s-.02,0-.03,0c-.41-.02-.73-.37-.72-.78.27-6.13-1.79-12.39-5.66-17.16-.26-.32-.21-.79.11-1.06.32-.26.79-.21,1.06.11,4.09,5.05,6.28,11.68,5.99,18.17-.02.4-.35.72-.75.72Z"/>
          </g>
          <g>
            <path class="cls-2" d="m203.8,316.23c-.16,0-.31-.05-.45-.15-2.5-1.86-4.19-4.83-4.54-7.92-.05-.41.25-.78.66-.83.4-.05.78.25.83.66.3,2.69,1.78,5.27,3.95,6.89.33.25.4.72.15,1.05-.15.2-.37.3-.6.3Z"/>
            <path class="cls-2" d="m218.65,317.75c-.41,0-.75-.33-.75-.75-.01-6.14-2.36-12.29-6.44-16.88-.28-.31-.25-.78.06-1.06.31-.28.78-.25,1.06.06,4.32,4.86,6.8,11.38,6.82,17.88,0,.41-.33.75-.75.75h0Z"/>
          </g>
          <path class="cls-5" d="m146.89,343.93c-.24,0-.47-.11-.61-.31-3.87-5.44-4.72-11.86-4.76-12.13-.05-.41.24-.79.65-.84.41-.05.79.24.84.65,0,.05.62,4.69,3.12,9.24.04-2.96.24-8.05,1.11-13.62.06-.41.45-.68.86-.63.41.06.69.45.63.86-1.33,8.53-1.08,15.92-1.08,16,.01.33-.19.63-.51.74-.08.03-.16.04-.24.04Z"/>
          <path class="cls-13" d="m96.3,228.24c-.19,0-.38-.07-.53-.22-.29-.29-.29-.77,0-1.06.04-.04,4.03-4.06,6.4-8.53.19-.37.65-.5,1.01-.31.37.19.51.65.31,1.01-2.47,4.67-6.49,8.71-6.66,8.88-.15.15-.34.22-.53.22Z"/>
          <path class="cls-13" d="m81.13,299.62c-.54,0-.95-.06-1.22-.2-2.32-1.16-2.97-11.3-3.13-15.6-.02-.41.31-.76.72-.78.42,0,.76.31.78.72.29,7.25,1.34,13.81,2.31,14.32,1.84.89,18.37-4.4,19.81-5.84.84-1.51-.64-18.02-2.01-29.77l-14.1,4.36c-.39.12-.82-.1-.94-.49-.12-.4.1-.82.5-.94l14.96-4.62c.21-.06.44-.03.63.09.19.12.31.32.34.54,1.08,9.02,3.39,30.2,1.69,31.9-1.46,1.46-15.55,6.32-20.32,6.32Z"/>
        </g>
      </g>
    </g>
  </g>
</svg>