<svg width="1920" height="842" viewBox="0 0 1920 842" fill="none" xmlns="http://www.w3.org/2000/svg">
<path d="M1920 841.433V448L1850.08 518.155C1819 549.41 1819 600.087 1850.08 631.343L1851.77 632.985C1856 637.231 1856 644.139 1851.77 648.442C1847.48 652.689 1840.6 652.689 1836.37 648.442L1742.65 554.336C1727.93 539.558 1704.02 539.558 1689.31 554.336C1674.53 569.115 1674.53 593.123 1689.31 607.901L1824.53 743.737C1828.53 747.701 1828.53 754.156 1824.53 758.176C1820.58 762.14 1814.15 762.14 1810.15 758.176L1718.85 666.448C1692.75 640.289 1650.51 640.289 1624.46 666.448C1598.35 692.608 1598.35 735.074 1624.46 761.234L1684.17 821.197L1648.03 826.179L1483.93 661.409C1465.27 642.61 1434.93 642.61 1416.21 661.409C1397.54 680.207 1397.54 710.67 1416.21 729.412C1425.06 738.302 1464.31 777.711 1470 783.43C1473.67 787.11 1473.67 793.112 1469.95 796.849L1469.78 797.019C1466.22 800.586 1460.42 800.586 1456.86 797.019L1439.89 779.976C1419.42 759.422 1386.15 759.422 1365.62 779.976L1332 841.433" fill="#F3FFFD" fill-opacity="0.2"/>
<path d="M618.2 690.5C618.2 688.9 619.5 687.6 621.1 687.6C621.167 687.6 621.2 687.6 621.2 687.6C621.333 687.6 621.434 687.6 621.5 687.6C623.1 687.6 624.4 688.9 624.4 690.5C624.4 692.1 623.1 693.4 621.5 693.4C621.434 693.4 621.367 693.4 621.3 693.4C621.233 693.4 621.167 693.4 621.1 693.4C619.5 693.4 618.2 692.1 618.2 690.5ZM605.8 692.1C604.2 691.9 603.1 690.4 603.4 688.8C603.7 687.2 605.1 686.2 606.7 686.4C608.3 686.7 609.4 688.2 609.1 689.7C608.9 691.1 607.6 692.2 606.3 692.2C606.1 692.2 605.933 692.167 605.8 692.1ZM633.5 689.7C633.2 688.1 634.3 686.6 635.8 686.3C637.4 686.1 638.9 687.1 639.2 688.7C639.4 690.3 638.4 691.8 636.8 692.1C636.667 692.1 636.5 692.1 636.3 692.1C634.9 692.1 633.7 691.1 633.5 689.7ZM590.9 688.4C589.4 687.8 588.5 686.2 589.1 684.7C589.6 683.2 591.2 682.4 592.7 682.9C594.3 683.4 595 685.1 594.5 686.6C594.1 687.8 593 688.5 591.8 688.5C591.467 688.5 591.167 688.467 590.9 688.4ZM648 686.4C647.5 684.9 648.3 683.3 649.8 682.8C651.3 682.2 652.9 683 653.5 684.6C654 686.1 653.2 687.7 651.7 688.2C651.367 688.333 651.033 688.4 650.7 688.4C649.6 688.4 648.4 687.6 648 686.4ZM576.8 682.2C575.4 681.4 574.8 679.7 575.6 678.3C576.4 676.9 578.1 676.3 579.5 677.1C580.9 677.9 581.5 679.6 580.7 681C580.2 682 579.2 682.5 578.1 682.5C577.7 682.5 577.2 682.4 576.8 682.2ZM661.8 680.8C661 679.4 661.6 677.7 663 676.9C664.4 676.1 666.1 676.7 666.9 678.1C667.7 679.5 667.1 681.2 665.7 682C665.3 682.2 664.8 682.4 664.4 682.4C663.3 682.4 662.3 681.8 661.8 680.8ZM563.9 673.8C562.6 672.8 562.4 671 563.4 669.7C564.4 668.4 566.2 668.2 567.5 669.2C568.7 670.2 568.9 672 568 673.3C567.4 674 566.5 674.4 565.7 674.4C565 674.4 564.4 674.2 563.9 673.8ZM674.5 673C673.5 671.8 673.7 670 675 669C676.3 668 678.1 668.2 679.1 669.5C680.1 670.7 679.8 672.5 678.6 673.5C678 673.9 677.4 674.2 676.8 674.2C675.9 674.2 675.1 673.8 674.5 673ZM552.6 663.3C551.5 662.2 551.6 660.3 552.8 659.3C553.9 658.2 555.8 658.3 556.8 659.4C557.9 660.6 557.9 662.4 556.7 663.5C556.1 664 555.4 664.3 554.7 664.3C553.9 664.3 553.2 664 552.6 663.3ZM685.8 663.3C684.6 662.2 684.5 660.3 685.6 659.2C686.7 658 688.5 657.9 689.7 659C690.8 660.1 690.9 661.9 689.9 663.1C689.9 663.1 689.867 663.1 689.8 663.1C689.3 663.7 688.5 664 687.7 664C687 664 686.3 663.8 685.8 663.3ZM543.1 651.2C542.3 649.9 542.6 648.1 544 647.2C545.3 646.3 547.1 646.7 548 648C548.9 649.4 548.5 651.2 547.1 652.1C546.634 652.367 546.134 652.5 545.6 652.5C544.6 652.5 543.7 652.1 543.1 651.2ZM695.3 651.8C693.9 650.9 693.5 649.1 694.4 647.8C695.3 646.4 697.1 646 698.4 646.9C699.8 647.8 700.1 649.6 699.2 650.9C698.7 651.8 697.8 652.2 696.8 652.2C696.267 652.2 695.767 652.067 695.3 651.8ZM535.8 637.7C535.2 636.3 535.8 634.6 537.3 633.9C538.8 633.3 540.4 633.9 541.1 635.4C541.7 636.9 541.1 638.6 539.6 639.2C539.2 639.333 538.8 639.4 538.4 639.4C537.3 639.4 536.3 638.8 535.8 637.7ZM702.7 638.9C701.3 638.2 700.6 636.5 701.2 635C701.9 633.6 703.6 632.9 705 633.6C706.5 634.2 707.2 635.9 706.5 637.4C706.1 638.5 705 639.1 703.9 639.1C703.5 639.1 703.1 639.033 702.7 638.9ZM530.8 623.2C530.4 621.6 531.3 620.1 532.9 619.7C534.4 619.3 536 620.2 536.4 621.8C536.8 623.3 535.9 624.9 534.3 625.3C534.033 625.367 533.8 625.4 533.6 625.4C532.3 625.4 531.1 624.5 530.8 623.2ZM708 624.9C706.4 624.5 705.5 622.9 705.9 621.4C706.3 619.8 707.8 618.9 709.4 619.3C710.9 619.7 711.9 621.2 711.5 622.8C711.2 624.1 710 625 708.7 625C708.433 625 708.2 624.967 708 624.9ZM528.3 608C528.1 606.4 529.3 605 530.9 604.9C532.5 604.8 533.9 606 534 607.5C534.2 609.1 533 610.5 531.4 610.7C531.333 610.7 531.267 610.7 531.2 610.7C529.7 610.7 528.4 609.5 528.3 608ZM710.8 610.3C709.2 610.2 708 608.7 708.2 607.2C708.3 605.6 709.7 604.4 711.3 604.5C712.9 604.6 714.1 606 714 607.6C713.8 609.1 712.6 610.3 711.1 610.3C711.034 610.3 710.933 610.3 710.8 610.3ZM530.9 595.8C529.3 595.6 528.1 594.2 528.3 592.6C528.4 591.1 529.8 589.9 531.4 590C533 590.1 534.1 591.5 534 593.1C533.9 594.6 532.6 595.8 531.1 595.8C531.034 595.8 530.967 595.8 530.9 595.8ZM708.1 592.7C708 591.2 709.2 589.7 710.8 589.6C712.4 589.5 713.8 590.7 713.9 592.3C714 593.8 712.9 595.2 711.3 595.4C711.167 595.4 711.067 595.4 711 595.4C709.5 595.4 708.3 594.2 708.1 592.7ZM532.8 581C531.3 580.6 530.4 579 530.7 577.5C531.1 575.9 532.7 575 534.3 575.4C535.8 575.8 536.7 577.3 536.4 578.9C536 580.2 534.9 581.1 533.5 581.1C533.3 581.1 533.067 581.067 532.8 581ZM705.7 578.5C705.3 577 706.3 575.4 707.8 575C709.4 574.6 710.9 575.5 711.3 577.1C711.7 578.6 710.8 580.2 709.3 580.6C709.033 580.667 708.767 580.7 708.5 580.7C707.2 580.7 706.1 579.8 705.7 578.5ZM537.2 566.7C535.7 566.1 535.1 564.4 535.7 562.9C536.4 561.4 538.1 560.8 539.5 561.4C541 562.1 541.7 563.8 541 565.2C540.5 566.3 539.5 567 538.4 567C538 567 537.6 566.9 537.2 566.7ZM701 564.9C700.4 563.4 701 561.7 702.5 561.1C703.9 560.4 705.7 561.1 706.3 562.6C706.9 564 706.3 565.7 704.8 566.4C704.4 566.533 704.033 566.6 703.7 566.6C702.5 566.6 701.5 566 701 564.9ZM543.9 553.4C542.5 552.5 542.2 550.7 543 549.4C543.9 548.1 545.7 547.7 547 548.5C548.4 549.4 548.7 551.2 547.9 552.5C547.3 553.4 546.4 553.9 545.5 553.9C544.9 553.9 544.367 553.733 543.9 553.4ZM694.1 552.2C693.2 550.9 693.6 549.1 694.9 548.2C696.3 547.4 698.1 547.7 698.9 549.1C699.8 550.4 699.4 552.2 698.1 553.1C697.6 553.4 697.1 553.6 696.5 553.6C695.6 553.6 694.7 553.1 694.1 552.2ZM552.6 541.3C551.5 540.3 551.4 538.4 552.5 537.2C553.5 536.1 555.4 536 556.6 537.1C557.7 538.1 557.8 540 556.7 541.1C556.2 541.8 555.4 542.1 554.6 542.1C553.9 542.1 553.2 541.8 552.6 541.3ZM685.2 540.9C684.1 539.7 684.2 537.9 685.4 536.8C686.5 535.7 688.4 535.8 689.5 537C690.5 538.1 690.5 540 689.3 541C688.7 541.6 688 541.8 687.3 541.8C686.6 541.8 685.8 541.5 685.2 540.9ZM563.3 530.9C562.3 529.6 562.5 527.8 563.8 526.8C565 525.8 566.8 526 567.8 527.3C568.8 528.6 568.6 530.4 567.3 531.4C566.8 531.8 566.2 532 565.5 532C564.7 532 563.8 531.6 563.3 530.9ZM674.6 531.2C673.3 530.2 673.1 528.4 674.1 527.1C675 525.8 676.9 525.6 678.1 526.6C679.4 527.6 679.6 529.4 678.6 530.6C678.1 531.4 677.2 531.8 676.3 531.8C675.7 531.8 675.1 531.6 674.6 531.2ZM575.4 522.3C574.7 520.9 575.2 519.1 576.6 518.4C578 517.6 579.8 518.1 580.5 519.5C581.3 520.9 580.8 522.7 579.4 523.5C578.933 523.7 578.467 523.8 578 523.8C577 523.8 576 523.3 575.4 522.3ZM662.5 523.3C661.1 522.5 660.5 520.8 661.3 519.4C662.1 518 663.8 517.4 665.2 518.2C666.6 518.9 667.2 520.7 666.4 522.1C665.9 523.1 664.9 523.6 663.8 523.6C663.333 523.6 662.9 523.5 662.5 523.3ZM588.9 515.9C588.4 514.3 589.2 512.7 590.7 512.2C592.2 511.6 593.8 512.4 594.4 514C594.9 515.5 594.1 517.1 592.6 517.6C592.267 517.733 591.934 517.8 591.6 517.8C590.4 517.8 589.3 517 588.9 515.9ZM649.3 517.5C647.8 517 646.9 515.4 647.5 513.8C648 512.3 649.6 511.5 651.1 512C652.7 512.6 653.4 514.2 652.9 515.7C652.5 516.9 651.4 517.7 650.2 517.7C649.867 517.7 649.567 517.633 649.3 517.5ZM603.2 511.7C602.9 510.1 604 508.6 605.6 508.4C607.1 508.1 608.6 509.2 608.9 510.7C609.2 512.3 608.1 513.8 606.5 514.1C606.367 514.1 606.2 514.1 606 514.1C604.7 514.1 603.4 513.1 603.2 511.7ZM635.3 514C633.7 513.7 632.6 512.3 632.9 510.7C633.2 509.1 634.6 508 636.2 508.3C637.8 508.6 638.9 510 638.6 511.6C638.4 513.1 637.1 514.1 635.8 514.1C635.6 514.1 635.433 514.067 635.3 514ZM620.9 512.9C619.3 512.9 618 511.6 618 510C618 508.4 619.3 507.1 620.9 507.1C622.5 507.1 623.8 508.4 623.8 510C623.8 511.6 622.5 512.9 620.9 512.9Z" fill="#219D80"/>
<path d="M617.9 673C617.9 671.3 619.4 669.8 621.1 669.8V669.9C621.167 669.9 621.2 669.9 621.2 669.9C621.267 669.833 621.333 669.8 621.4 669.8C623.1 669.8 624.5 671.2 624.5 673C624.5 674.7 623.1 676.1 621.4 676.1C621.333 676.1 621.267 676.1 621.2 676.1C621.2 676.1 621.167 676.1 621.1 676.1C619.4 676.1 617.9 674.7 617.9 673ZM606.3 674.7C604.6 674.3 603.5 672.7 603.8 671C604.2 669.3 605.8 668.2 607.5 668.5C609.2 668.9 610.3 670.5 610 672.2C609.7 673.7 608.4 674.7 606.9 674.7C606.7 674.7 606.5 674.7 606.3 674.7ZM632.5 672.2C632.2 670.5 633.3 668.8 635 668.5C636.7 668.1 638.3 669.2 638.6 670.9C639 672.6 637.9 674.3 636.2 674.6C636 674.667 635.8 674.7 635.6 674.7C634.1 674.7 632.8 673.6 632.5 672.2ZM592.1 670.4C590.5 669.7 589.7 667.9 590.4 666.3C591 664.7 592.9 663.9 594.5 664.6C596.1 665.2 596.8 667.1 596.1 668.7C595.7 669.9 594.5 670.6 593.3 670.6C592.834 670.6 592.434 670.533 592.1 670.4ZM646.3 668.6C645.6 667 646.4 665.1 648 664.5C649.6 663.8 651.4 664.5 652.1 666.1C652.8 667.7 652 669.6 650.4 670.3C650 670.433 649.6 670.5 649.2 670.5C648 670.5 646.8 669.8 646.3 668.6ZM578.9 663.4C577.5 662.4 577.1 660.5 578.1 659C579 657.6 581 657.2 582.4 658.2C583.9 659.1 584.3 661.1 583.3 662.5C582.7 663.4 581.7 663.9 580.7 663.9C580.1 663.9 579.5 663.733 578.9 663.4ZM659.1 662.3C658.2 660.9 658.6 658.9 660 658C661.4 657 663.4 657.4 664.3 658.8C665.3 660.3 664.9 662.2 663.5 663.2C662.967 663.533 662.367 663.7 661.7 663.7C660.7 663.7 659.8 663.2 659.1 662.3ZM567.5 653.9C566.2 652.7 566.2 650.7 567.4 649.5C568.7 648.3 570.7 648.3 571.9 649.5C573.1 650.7 573.1 652.7 571.9 653.9C571.3 654.5 570.5 654.8 569.7 654.8C568.9 654.8 568.1 654.5 567.5 653.9ZM670.5 653.7C669.3 652.5 669.3 650.5 670.5 649.3C671.7 648 673.7 648 674.9 649.3C676.2 650.5 676.2 652.5 675 653.7C674.3 654.3 673.5 654.6 672.7 654.6C671.9 654.6 671.1 654.3 670.5 653.7ZM558 642.4C557 641 557.4 639.1 558.9 638.1C560.3 637.1 562.3 637.5 563.2 638.9C564.2 640.4 563.8 642.3 562.4 643.3C561.8 643.6 561.2 643.8 560.6 643.8C559.6 643.8 558.6 643.3 558 642.4ZM680 643.1C678.6 642.1 678.2 640.2 679.1 638.7C680.1 637.3 682 636.9 683.5 637.8C684.9 638.8 685.3 640.7 684.4 642.2C683.7 643.1 682.8 643.6 681.7 643.6C681.1 643.6 680.5 643.4 680 643.1ZM551 629.3C550.3 627.7 551.1 625.9 552.7 625.2C554.3 624.6 556.1 625.3 556.8 626.9C557.4 628.5 556.7 630.4 555.1 631C554.7 631.2 554.3 631.3 553.9 631.3C552.6 631.3 551.5 630.5 551 629.3ZM687.2 630.7C685.6 630.1 684.9 628.3 685.5 626.7C686.2 625 688 624.3 689.6 625C691.2 625.6 692 627.4 691.3 629C690.8 630.3 689.7 631 688.4 631C688 631 687.6 630.9 687.2 630.7ZM546.6 615.1C546.3 613.4 547.4 611.8 549.1 611.4C550.8 611.1 552.5 612.2 552.8 613.9C553.1 615.6 552 617.2 550.3 617.6C550.1 617.6 549.9 617.6 549.7 617.6C548.3 617.6 546.9 616.6 546.6 615.1ZM691.9 617.3C690.2 616.9 689.1 615.3 689.4 613.6C689.8 611.9 691.4 610.8 693.1 611.1C694.8 611.4 695.9 613.1 695.6 614.8C695.3 616.3 694 617.3 692.5 617.3C692.3 617.3 692.1 617.3 691.9 617.3ZM545.2 600.3C545.2 598.6 546.6 597.2 548.3 597.2C550.1 597.2 551.5 598.6 551.5 600.3C551.5 602 550.1 603.4 548.3 603.4C546.6 603.4 545.2 602 545.2 600.3ZM690.7 600C690.7 598.3 692.1 596.9 693.8 596.9C695.6 596.9 697 598.3 697 600C697 601.7 695.6 603.1 693.9 603.1C692.1 603.1 690.7 601.7 690.7 600ZM549.1 589.2C547.4 588.9 546.3 587.2 546.6 585.5C546.9 583.8 548.6 582.7 550.3 583C552 583.4 553.1 585 552.8 586.7C552.5 588.2 551.2 589.3 549.7 589.3C549.5 589.3 549.3 589.267 549.1 589.2ZM689.4 586.4C689 584.7 690.1 583.1 691.8 582.7C693.5 582.4 695.2 583.5 695.5 585.2C695.8 586.9 694.7 588.5 693 588.9C692.8 588.967 692.6 589 692.4 589C691 589 689.6 587.9 689.4 586.4ZM552.6 575.4C551 574.7 550.2 572.9 550.9 571.3C551.6 569.7 553.4 568.9 555 569.6C556.6 570.2 557.4 572.1 556.7 573.7C556.2 574.9 555 575.6 553.8 575.6C553.4 575.6 553 575.533 552.6 575.4ZM685.4 573.4C684.7 571.8 685.4 569.9 687 569.3C688.6 568.6 690.5 569.4 691.1 571C691.8 572.6 691 574.4 689.4 575.1C689.067 575.233 688.7 575.3 688.3 575.3C687 575.3 685.9 574.6 685.4 573.4ZM558.8 562.5C557.3 561.5 557 559.6 557.9 558.1C558.9 556.7 560.8 556.3 562.3 557.3C563.7 558.2 564.1 560.2 563.1 561.6C562.5 562.5 561.5 563 560.5 563C559.9 563 559.334 562.833 558.8 562.5ZM678.9 561.4C677.9 560 678.3 558 679.7 557C681.2 556.1 683.1 556.4 684.1 557.9C685 559.3 684.7 561.3 683.2 562.2C682.667 562.6 682.1 562.8 681.5 562.8C680.5 562.8 679.5 562.3 678.9 561.4ZM567.3 551.1C566.1 549.9 566.1 547.9 567.3 546.6C568.6 545.4 570.5 545.4 571.8 546.6C573 547.9 573 549.8 571.8 551.1C571.2 551.7 570.4 552 569.6 552C568.8 552 568 551.7 567.3 551.1ZM670.2 550.9C669 549.7 669 547.7 670.2 546.4C671.4 545.2 673.4 545.2 674.6 546.4C675.8 547.6 675.8 549.6 674.6 550.8C674 551.5 673.2 551.8 672.4 551.8C671.6 551.8 670.8 551.5 670.2 550.9ZM578 541.6C577 540.1 577.4 538.2 578.8 537.2C580.2 536.2 582.2 536.6 583.2 538C584.1 539.5 583.7 541.4 582.3 542.4C581.8 542.7 581.2 542.9 580.6 542.9C579.6 542.9 578.6 542.4 578 541.6ZM659.6 542.2C658.2 541.3 657.8 539.3 658.8 537.9C659.7 536.4 661.7 536.1 663.1 537C664.5 538 664.9 539.9 664 541.4C663.4 542.3 662.4 542.8 661.4 542.8C660.8 542.7 660.2 542.6 659.6 542.2ZM590.2 534.2C589.5 532.7 590.3 530.8 591.9 530.1C593.5 529.5 595.3 530.2 596 531.8C596.7 533.4 595.9 535.3 594.3 535.9C593.9 536.1 593.5 536.2 593.1 536.2C591.9 536.2 590.7 535.5 590.2 534.2ZM647.6 535.8C646 535.2 645.2 533.3 645.9 531.7C646.5 530.1 648.4 529.4 650 530C651.6 530.7 652.3 532.5 651.7 534.1C651.2 535.3 650 536.1 648.8 536.1C648.4 536.1 648 536 647.6 535.8ZM603.7 529.5C603.3 527.8 604.4 526.2 606.1 525.8C607.8 525.5 609.5 526.6 609.8 528.3C610.2 530 609.1 531.6 607.4 532C607.2 532 606.967 532 606.7 532C605.3 532 604 531 603.7 529.5ZM634.5 531.9C632.8 531.6 631.7 529.9 632.1 528.2C632.4 526.5 634 525.4 635.7 525.7C637.4 526.1 638.5 527.7 638.2 529.4C637.9 530.9 636.6 532 635.1 532C634.9 532 634.7 531.967 634.5 531.9ZM617.8 527.5C617.8 525.7 619.2 524.3 620.9 524.3C622.7 524.3 624.1 525.7 624.1 527.5C624.1 529.2 622.7 530.6 620.9 530.6C619.2 530.6 617.8 529.2 617.8 527.5Z" fill="#219D80"/>
<path d="M617.7 655.5C617.7 653.6 619.2 652.1 621.1 652.1C621.167 652.1 621.234 652.1 621.3 652.1C623.2 652.1 624.7 653.6 624.7 655.5C624.7 657.3 623.2 658.9 621.3 658.9C621.3 658.9 621.267 658.9 621.2 658.9C621.2 658.9 621.167 658.9 621.1 658.9C619.2 658.9 617.7 657.4 617.7 655.5ZM605.9 656.9C604.1 656.4 603.1 654.6 603.5 652.8C604 651 605.9 649.9 607.7 650.4C609.5 650.8 610.5 652.7 610.1 654.5C609.7 656 608.3 657 606.8 657C606.534 657 606.234 656.967 605.9 656.9ZM632.3 654.5C631.9 652.7 632.9 650.8 634.7 650.3C636.5 649.8 638.4 650.9 638.9 652.7C639.3 654.5 638.3 656.3 636.5 656.8C636.167 656.867 635.867 656.9 635.6 656.9C634.1 656.9 632.7 656 632.3 654.5ZM591.8 651C590.2 650.1 589.6 648 590.6 646.4C591.5 644.8 593.5 644.2 595.2 645.2C596.8 646.1 597.3 648.2 596.4 649.8C595.8 650.9 594.6 651.5 593.5 651.5C592.9 651.5 592.3 651.3 591.8 651ZM646 649.7C645.1 648.1 645.6 646 647.2 645.1C648.8 644.2 650.9 644.7 651.8 646.3C652.8 647.9 652.2 650 650.6 650.9C650.067 651.233 649.5 651.4 648.9 651.4C647.7 651.4 646.6 650.8 646 649.7ZM579.7 641.7C578.3 640.4 578.3 638.3 579.7 636.9C581 635.6 583.1 635.6 584.4 636.9C585.7 638.2 585.7 640.4 584.4 641.7C583.8 642.4 582.9 642.7 582 642.7C581.2 642.7 580.3 642.4 579.7 641.7ZM657.9 641.6C656.6 640.3 656.6 638.1 657.9 636.8C659.2 635.5 661.4 635.5 662.7 636.8C664 638.1 664 640.2 662.7 641.5C662 642.2 661.2 642.5 660.3 642.5C659.4 642.5 658.6 642.2 657.9 641.6ZM570.3 629.6C569.4 628 569.9 625.9 571.5 625C573.2 624 575.2 624.6 576.2 626.2C577.1 627.8 576.5 629.9 574.9 630.8C574.367 631.133 573.8 631.3 573.2 631.3C572.1 631.3 570.9 630.7 570.3 629.6ZM667.4 630.6C665.8 629.7 665.2 627.6 666.1 626C667 624.4 669.1 623.9 670.7 624.8C672.4 625.7 672.9 627.8 672 629.4C671.4 630.5 670.2 631.1 669.1 631.1C668.5 631.1 667.934 630.933 667.4 630.6ZM564.4 615.5C564 613.6 565 611.8 566.8 611.3C568.6 610.8 570.5 611.9 571 613.7C571.5 615.5 570.4 617.4 568.6 617.8C568.267 617.933 567.967 618 567.7 618C566.2 618 564.9 617 564.4 615.5ZM673.7 617.6C671.9 617.2 670.8 615.3 671.3 613.5C671.7 611.7 673.6 610.6 675.4 611.1C677.2 611.6 678.3 613.4 677.8 615.2C677.4 616.7 676 617.7 674.5 617.7C674.234 617.7 673.967 617.667 673.7 617.6ZM562.4 600.3C562.4 598.4 563.9 596.9 565.8 596.9C567.7 596.9 569.2 598.4 569.2 600.3C569.2 602.2 567.7 603.7 565.8 603.7C564 603.7 562.4 602.2 562.4 600.3ZM673 600.1C673 598.2 674.5 596.7 676.3 596.7C678.2 596.7 679.7 598.2 679.7 600C679.7 601.9 678.2 603.4 676.4 603.4C674.5 603.4 673 601.9 673 600.1ZM566.8 589.2C565 588.8 563.9 586.9 564.4 585.1C564.9 583.3 566.7 582.2 568.5 582.7C570.4 583.2 571.4 585.1 570.9 586.9C570.5 588.4 569.2 589.4 567.7 589.4C567.367 589.4 567.067 589.333 566.8 589.2ZM671.2 586.7C670.7 584.8 671.8 583 673.6 582.5C675.4 582 677.2 583.1 677.7 584.9C678.2 586.7 677.1 588.5 675.3 589C675.034 589.067 674.767 589.1 674.5 589.1C673 589.1 671.6 588.2 671.2 586.7ZM571.5 575.6C569.9 574.6 569.3 572.6 570.3 571C571.2 569.4 573.2 568.8 574.9 569.7C576.5 570.7 577 572.7 576.1 574.3C575.5 575.4 574.3 576 573.2 576C572.6 576 572 575.9 571.5 575.6ZM666 574.2C665 572.6 665.6 570.5 667.2 569.5C668.8 568.6 670.9 569.2 671.8 570.8C672.7 572.4 672.2 574.4 670.6 575.4C670.1 575.7 669.5 575.8 668.9 575.8C667.7 575.8 666.6 575.2 666 574.2ZM579.6 563.6C578.2 562.3 578.2 560.1 579.6 558.8C580.9 557.5 583 557.5 584.3 558.8C585.7 560.1 585.7 562.3 584.3 563.6C583.7 564.3 582.8 564.6 581.9 564.6C581.1 564.6 580.2 564.3 579.6 563.6ZM657.7 563.4C656.4 562.1 656.4 560 657.7 558.7C659 557.4 661.1 557.4 662.5 558.7C663.8 560 663.8 562.1 662.5 563.4C661.8 564.1 661 564.4 660.1 564.4C659.2 564.4 658.3 564.1 657.7 563.4ZM590.5 554.1C589.5 552.5 590.1 550.4 591.7 549.5C593.3 548.5 595.4 549.1 596.3 550.7C597.2 552.3 596.7 554.4 595.1 555.3C594.5 555.6 593.9 555.8 593.4 555.8C592.2 555.8 591.1 555.2 590.5 554.1ZM646.9 555.2C645.3 554.3 644.8 552.2 645.7 550.6C646.6 549 648.7 548.4 650.3 549.4C651.9 550.3 652.5 552.4 651.5 554C650.9 555.1 649.8 555.7 648.6 555.7C648.067 555.7 647.5 555.533 646.9 555.2ZM603.4 547.7C602.9 545.9 604 544.1 605.8 543.6C607.6 543.1 609.5 544.2 609.9 546C610.4 547.8 609.4 549.6 607.6 550.1C607.267 550.167 606.967 550.2 606.7 550.2C605.2 550.2 603.8 549.2 603.4 547.7ZM634.4 550.1C632.6 549.6 631.5 547.7 632 545.9C632.5 544.1 634.3 543.1 636.1 543.5C638 544 639 545.9 638.6 547.7C638.1 549.2 636.8 550.2 635.3 550.2C634.967 550.2 634.667 550.167 634.4 550.1ZM617.6 545C617.6 543.1 619.1 541.6 621 541.6C622.8 541.6 624.4 543.1 624.4 545C624.4 546.8 622.8 548.3 621 548.3C619.1 548.3 617.6 546.8 617.6 545Z" fill="#219D80"/>
<path d="M621.2 641.6C621.134 641.6 621.1 641.6 621.1 641.6C619.1 641.6 617.5 640 617.5 638C617.5 636 619.1 634.4 621.1 634.4C621.1 634.4 621.134 634.4 621.2 634.4C623.2 634.4 624.9 636 624.9 638C624.9 640 623.3 641.6 621.3 641.6C621.234 641.6 621.2 641.6 621.2 641.6ZM605.3 638.5C603.4 637.7 602.5 635.6 603.3 633.8C604.1 631.9 606.2 631 608 631.8C609.9 632.6 610.8 634.7 610 636.5C609.4 637.9 608.1 638.8 606.6 638.8C606.134 638.8 605.7 638.7 605.3 638.5ZM632.3 636.5C631.6 634.6 632.4 632.5 634.3 631.7C636.1 631 638.2 631.8 639 633.7C639.8 635.5 638.9 637.6 637.1 638.4C636.634 638.6 636.167 638.7 635.7 638.7C634.3 638.7 632.9 637.9 632.3 636.5ZM591.8 629.5C590.4 628.1 590.4 625.8 591.8 624.4C593.3 623 595.5 623 597 624.4C598.4 625.8 598.4 628.1 597 629.5C596.2 630.2 595.3 630.6 594.4 630.6C593.5 630.6 592.5 630.2 591.8 629.5ZM645.3 629.4C643.9 628 643.9 625.7 645.3 624.3C646.7 622.9 649 622.9 650.4 624.3C651.9 625.7 651.9 628 650.5 629.4C649.8 630.1 648.8 630.5 647.9 630.5C647 630.5 646.1 630.1 645.3 629.4ZM582.9 616.1C582.1 614.3 583 612.1 584.8 611.4C586.7 610.6 588.8 611.5 589.5 613.3C590.3 615.2 589.4 617.3 587.6 618C587.134 618.2 586.667 618.3 586.2 618.3C584.8 618.3 583.4 617.5 582.9 616.1ZM654.7 617.9C652.8 617.2 651.9 615 652.7 613.2C653.5 611.4 655.6 610.5 657.4 611.2C659.3 612 660.2 614.1 659.4 615.9C658.8 617.3 657.5 618.2 656.1 618.2C655.634 618.2 655.167 618.1 654.7 617.9ZM579.7 600.3C579.7 598.3 581.3 596.7 583.3 596.7C585.3 596.7 586.9 598.3 586.9 600.3C586.9 602.3 585.3 603.9 583.3 603.9C581.3 603.9 579.7 602.3 579.7 600.3ZM655.2 600.1C655.2 598.1 656.9 596.5 658.8 596.5C660.9 596.5 662.5 598.1 662.5 600.1C662.5 602.1 660.9 603.7 658.9 603.7C656.9 603.7 655.3 602.1 655.2 600.1ZM584.8 589.2C582.9 588.4 582.1 586.3 582.8 584.4C583.6 582.6 585.7 581.7 587.5 582.5C589.4 583.2 590.3 585.3 589.5 587.2C588.9 588.6 587.6 589.4 586.2 589.4C585.734 589.4 585.267 589.333 584.8 589.2ZM652.6 587.1C651.8 585.2 652.7 583.1 654.6 582.3C656.4 581.6 658.5 582.4 659.3 584.3C660.1 586.1 659.2 588.2 657.4 589C656.933 589.2 656.467 589.3 656 589.3C654.5 589.3 653.2 588.5 652.6 587.1ZM591.8 576.1C590.4 574.7 590.4 572.4 591.8 571C593.2 569.6 595.5 569.6 596.9 571C598.3 572.4 598.3 574.7 596.9 576.1C596.2 576.8 595.3 577.2 594.3 577.2C593.4 577.2 592.5 576.8 591.8 576.1ZM645.2 576C643.8 574.6 643.8 572.3 645.2 570.9C646.6 569.5 648.9 569.5 650.3 570.9C651.7 572.3 651.7 574.6 650.3 576C649.6 576.7 648.7 577.1 647.7 577.1C646.8 577.1 645.9 576.7 645.2 576ZM603.2 566.7C602.5 564.9 603.3 562.8 605.2 562C607 561.2 609.1 562.1 609.9 563.9C610.7 565.8 609.8 567.9 608 568.7C607.534 568.9 607.067 569 606.6 569C605.2 569 603.8 568.1 603.2 566.7ZM634.1 568.6C632.2 567.9 631.4 565.8 632.1 563.9C632.9 562.1 635 561.2 636.8 561.9C638.7 562.7 639.6 564.8 638.8 566.7C638.2 568.1 636.9 568.9 635.5 568.9C635.034 568.9 634.567 568.8 634.1 568.6ZM617.4 562.5C617.4 560.5 619 558.8 621 558.8C623 558.8 624.6 560.5 624.6 562.4C624.6 564.5 623 566.1 621 566.1C619 566.1 617.4 564.5 617.4 562.5Z" fill="#219D80"/>
<path d="M621.101 624.4C619.001 624.4 617.201 622.6 617.201 620.5C617.201 618.4 618.901 616.7 620.901 616.7C621.034 616.7 621.134 616.7 621.201 616.7C623.301 616.6 625.001 618.4 625.001 620.5C625.001 622.6 623.301 624.4 621.201 624.4C621.201 624.4 621.167 624.4 621.101 624.4ZM605.601 618.7C603.901 617.4 603.701 614.9 605.101 613.3C606.501 611.7 608.901 611.4 610.501 612.8C612.201 614.2 612.401 616.6 611.001 618.3C610.301 619.2 609.201 619.6 608.101 619.6C607.201 619.6 606.301 619.3 605.601 618.7ZM631.201 618.2C629.901 616.6 630.101 614.2 631.701 612.8C633.301 611.4 635.801 611.6 637.101 613.2C638.501 614.8 638.301 617.3 636.701 618.7C635.901 619.3 635.101 619.6 634.201 619.6C633.101 619.6 632.001 619.1 631.201 618.2ZM597.301 604.4C596.901 602.3 598.301 600.3 600.501 600C602.501 599.6 604.501 601 604.901 603.1C605.301 605.2 603.901 607.2 601.801 607.6C601.534 607.6 601.301 607.6 601.101 607.6C599.301 607.6 597.701 606.3 597.301 604.4ZM640.401 607.5C638.301 607.1 636.901 605.1 637.301 603C637.601 600.9 639.601 599.5 641.701 599.9C643.801 600.2 645.201 602.2 644.901 604.3C644.601 606.2 642.901 607.6 641.101 607.6C640.901 607.6 640.667 607.567 640.401 607.5ZM601.601 593.4C599.701 592.4 599.101 590 600.201 588.2C601.201 586.3 603.601 585.7 605.401 586.8C607.301 587.8 607.901 590.2 606.901 592C606.101 593.3 604.801 594 603.501 594C602.834 594 602.201 593.8 601.601 593.4ZM635.301 592C634.201 590.1 634.801 587.8 636.701 586.7C638.501 585.6 640.901 586.3 642.001 588.1C643.001 589.9 642.401 592.3 640.601 593.4C640.001 593.7 639.301 593.9 638.601 593.9C637.301 593.9 636.001 593.2 635.301 592ZM610.501 582.5C609.801 580.5 610.801 578.3 612.801 577.6C614.801 576.8 617.001 577.8 617.701 579.8C618.501 581.9 617.401 584.1 615.401 584.8C615.001 585 614.601 585 614.101 585C612.501 585 611.101 584.1 610.501 582.5ZM626.701 584.8C624.701 584.1 623.601 581.8 624.401 579.8C625.101 577.8 627.301 576.8 629.301 577.5C631.301 578.2 632.301 580.5 631.601 582.5C631.001 584 629.601 585 628.001 585C627.534 585 627.101 584.933 626.701 584.8Z" fill="#219D80"/>
<path fill-rule="evenodd" clip-rule="evenodd" d="M620.1 830.4C620.1 831 620.5 831.4 621.1 831.4H621.4H621.6C622.2 831.4 622.6 831 622.6 830.4C622.6 829.8 621.9 829.3 621.3 829.5C620.8 829.3 620.1 829.8 620.1 830.4ZM605.5 830.9H605.7C606.3 830.9 606.7 830.5 606.7 829.9C606.7 829.4 606.3 829 605.8 829C605.3 828.9 604.9 829.2 604.8 829.7C604.6 830.2 605 830.7 605.5 830.9ZM590.2 829.3C590.267 829.367 590.333 829.4 590.4 829.4C591 829.4 591.4 828.9 591.4 828.4C591.4 827.9 591 827.5 590.5 827.4C590 827.4 589.6 827.7 589.5 828.2C589.3 828.7 589.6 829.2 590.2 829.3ZM575.1 826.8H575.3C575.7 826.8 576 826.6 576.2 826.2C576.3 825.7 576.1 825.1 575.6 824.9C575 824.8 574.3 825.2 574.3 825.9C574.3 826.3 574.6 826.7 575.1 826.8ZM559.3 822.1C559.2 822.6 559.5 823.1 560 823.2L560.5 821.4C560 821.2 559.5 821.6 559.3 822.1ZM544.6 817.4C544.5 818 544.8 818.5 545.3 818.6L545.8 816.7C545.3 816.6 544.7 816.9 544.6 817.4ZM530.9 813.1H531.2C531.6 813.1 531.9 812.9 532.1 812.5C532.2 812 532 811.5 531.6 811.3C531.1 811.1 530.6 811.2 530.3 811.6C530 812.1 530.2 812.7 530.6 813C530.667 813 530.767 813.033 530.9 813.1ZM516.7 806.5C516.9 806.633 517.067 806.7 517.2 806.7C517.5 806.7 517.8 806.5 518 806.2C518.3 805.8 518.2 805.2 517.7 804.9C517.633 804.833 517.567 804.8 517.5 804.8C517 804.6 516.4 804.9 516.3 805.4C516.1 805.8 516.3 806.3 516.7 806.5ZM503.2 799.1C503.4 799.167 503.567 799.2 503.7 799.2C504 799.2 504.3 799.1 504.5 798.8C504.8 798.4 504.7 797.8 504.2 797.5C504.133 797.433 504.067 797.4 504 797.4C503.5 797.2 502.9 797.5 502.8 798C502.6 798.4 502.8 798.9 503.2 799.1ZM490.2 790.8C490.4 790.933 490.6 791 490.8 791C491.1 791 491.4 790.8 491.6 790.6C491.9 790.1 491.9 789.6 491.4 789.3C491 788.9 490.4 788.9 490 789.3C489.7 789.7 489.7 790.3 490 790.7C490.067 790.7 490.133 790.733 490.2 790.8ZM477.8 781.7C478 781.767 478.2 781.8 478.4 781.8C478.7 781.8 479.1 781.7 479.2 781.4C479.5 781 479.5 780.5 479 780.2C478.6 779.8 478 779.8 477.7 780.2C477.3 780.5 477.3 781.1 477.7 781.5C477.7 781.567 477.733 781.633 477.8 781.7ZM466.1 771.7C466.233 771.833 466.4 771.9 466.6 771.9C466.9 771.9 467.2 771.7 467.4 771.4C467.7 771 467.6 770.5 467.3 770.2C466.9 769.9 466.4 769.8 466.1 770.1C465.6 770.4 465.5 771 465.8 771.4C465.867 771.533 465.967 771.633 466.1 771.7ZM454.9 760.9C455.1 761.1 455.3 761.2 455.5 761.2C455.767 761.2 456 761.1 456.2 760.9C456.6 760.5 456.6 759.9 456.2 759.5C455.9 759.1 455.2 759.1 454.9 759.5C454.5 759.9 454.5 760.5 454.9 760.9ZM444.5 749.4C444.7 749.7 445 749.8 445.2 749.8C445.4 749.8 445.6 749.733 445.8 749.6C446.2 749.3 446.3 748.7 446 748.3C445.933 748.167 445.867 748.067 445.8 748C445.3 747.7 444.7 747.8 444.4 748.3C444.2 748.6 444.2 749.1 444.5 749.4ZM434.9 737.3C435.1 737.6 435.4 737.7 435.7 737.7C435.9 737.7 436.067 737.667 436.2 737.6C436.7 737.3 436.8 736.7 436.5 736.2L436.4 736.1C436 735.7 435.4 735.7 435 736.1C434.7 736.4 434.6 737 434.9 737.3ZM426.2 724.6C426.4 724.9 426.7 725.1 427 725.1C427.2 725.1 427.367 725.033 427.5 724.9C427.9 724.6 428.1 724.1 427.8 723.6C427.6 723.2 427.1 723 426.7 723.2C426.2 723.3 425.9 723.9 426.1 724.4C426.1 724.467 426.133 724.533 426.2 724.6ZM418.3 711.4C418.5 711.7 418.8 711.8 419.1 711.8C419.3 711.8 419.5 711.767 419.7 711.7C420.1 711.4 420.2 710.8 420 710.4C419.8 710 419.3 709.8 418.8 709.9C418.3 710.1 418 710.7 418.2 711.2C418.267 711.267 418.3 711.333 418.3 711.4ZM411.3 697.6C411.5 697.9 411.8 698.1 412.2 698.1H412.5C413 697.9 413.3 697.4 413.1 696.9C413.1 696.767 413.067 696.667 413 696.6C412.7 696.2 412.1 696.1 411.7 696.3C411.3 696.6 411.1 697.1 411.3 697.6ZM405.3 683.4C405.5 683.8 405.8 684 406.2 684C406.267 684 406.367 683.967 406.5 683.9C407 683.8 407.3 683.2 407.1 682.7C407.1 682.633 407.067 682.567 407 682.5C406.7 682 406.1 681.9 405.6 682.2C405.2 682.5 405.1 683 405.3 683.4ZM400.2 668.8C400.4 669.2 400.7 669.5 401.1 669.5C401.233 669.5 401.333 669.467 401.4 669.4C401.9 669.3 402.2 668.8 402.1 668.3C401.9 667.7 401.4 667.4 400.9 667.5C400.4 667.7 400.1 668.2 400.2 668.7V668.8ZM396.2 654C396.3 654.4 396.7 654.6 397.1 654.6H397.4C397.9 654.4 398.1 653.9 398 653.5C398 653 397.6 652.7 397.1 652.7C396.6 652.7 396.1 653.1 396.1 653.7C396.1 653.767 396.133 653.867 396.2 654ZM393.1 638.9C393.3 639.3 393.6 639.6 394 639.6C394.133 639.6 394.233 639.567 394.3 639.5C394.8 639.4 395.1 638.9 395 638.4C394.9 638 394.5 637.6 394 637.6C393.5 637.6 393.1 638 393.1 638.6V638.9ZM391 623.4C391.1 623.9 391.5 624.3 392 624.3C392.5 624.3 393 623.9 393 623.4C393 623.267 392.967 623.167 392.9 623.1C392.8 622.6 392.3 622.3 391.8 622.4C391.3 622.5 391 623 391 623.4ZM390 608C390 608.5 390.4 609 391 609C391.5 609 391.9 608.5 391.9 608C391.9 607.5 391.5 607 391 607C390.4 607 390 607.5 390 608ZM390 592.6C390 593.2 390.4 593.6 391 593.6C391.5 593.6 391.9 593.1 391.9 592.6C391.9 592.1 391.5 591.6 391 591.6C390.4 591.6 390 592.1 390 592.6ZM391 577.3C391 577.8 391.4 578.3 392 578.3C392.5 578.3 392.9 577.9 392.9 577.4C393 576.9 392.7 576.5 392.2 576.3C391.7 576.2 391.2 576.5 391 577V577.3ZM393.7 563H394C394.4 563 394.8 562.8 394.9 562.3C394.967 562.233 395 562.133 395 562C395 561.5 394.5 561.1 394 561.1C393.5 561.1 393.1 561.4 393.1 561.9C393 562.3 393.2 562.8 393.7 563ZM396.7 547.9H397C397.4 547.9 397.8 547.7 398 547.3V546.9C398 546.4 397.6 546 397 546C396.6 546 396.2 546.3 396.1 546.8C396 547.2 396.3 547.7 396.7 547.9ZM400.1 531.9L402 532.3C402.1 531.8 401.8 531.3 401.3 531.2C400.8 531 400.3 531.4 400.1 531.9ZM405.8 518.5C405.933 518.567 406.033 518.6 406.1 518.6C406.5 518.6 406.9 518.4 407 518C407.2 517.5 407 516.9 406.6 516.7C406.1 516.5 405.5 516.6 405.3 517.1C405.233 517.167 405.2 517.233 405.2 517.3C405 517.8 405.3 518.4 405.8 518.5ZM411.8 504.3C411.933 504.367 412.033 504.4 412.1 504.4C412.5 504.4 412.9 504.1 413 503.8C413.2 503.4 413.1 502.8 412.7 502.6C412.2 502.3 411.6 502.4 411.3 502.8C411.3 502.933 411.267 503.033 411.2 503.1C411 503.6 411.3 504.1 411.8 504.3ZM418.5 490.5C418.7 490.567 418.9 490.6 419.1 490.6C419.4 490.6 419.7 490.5 419.9 490.2C419.967 490.133 420 490.033 420 489.9C420.2 489.4 419.9 488.9 419.4 488.7C418.9 488.6 418.5 488.8 418.2 489.2C418 489.6 418.1 490.2 418.5 490.5ZM426.4 477.2C426.533 477.333 426.7 477.4 426.9 477.4C427.2 477.4 427.5 477.2 427.7 477C427.767 476.867 427.8 476.767 427.8 476.7C428 476.2 427.7 475.7 427.2 475.5C426.8 475.3 426.3 475.5 426.1 475.9C425.8 476.4 426 476.9 426.4 477.2ZM435 464.6C435.2 464.733 435.4 464.8 435.6 464.8C435.9 464.8 436.2 464.7 436.3 464.4C436.7 464 436.7 463.4 436.3 463C436 462.7 435.3 462.7 435 463L434.8 463.2C434.5 463.6 434.6 464.3 435 464.6ZM444.6 452.5C444.8 452.567 445 452.6 445.2 452.6C445.4 452.6 445.7 452.5 445.9 452.3C446.2 452 446.2 451.5 446 451.1C445.7 450.7 445.1 450.5 444.7 450.8L444.4 451.1C444.1 451.6 444.2 452.2 444.6 452.5ZM454.8 440.9C455 441.1 455.233 441.2 455.5 441.2C455.767 441.2 456 441.1 456.2 440.9C456.6 440.5 456.6 439.9 456.2 439.5C455.8 439.2 455.2 439.2 454.8 439.5V439.6C454.4 439.9 454.4 440.5 454.8 440.9ZM465.7 430.1C465.9 430.4 466.2 430.5 466.5 430.5C466.7 430.5 466.9 430.433 467.1 430.3C467.167 430.233 467.267 430.167 467.4 430.1C467.7 429.6 467.5 429 467.1 428.7C466.7 428.5 466.2 428.5 465.9 428.8C465.5 429.1 465.5 429.7 465.7 430.1ZM774.6 430C774.8 430.2 775.033 430.3 775.3 430.3C775.5 430.3 775.667 430.233 775.8 430.1C776.2 429.8 776.4 429.2 776.1 428.8C776.033 428.667 775.933 428.567 775.8 428.5C775.3 428.2 774.7 428.3 774.5 428.7C774.2 429.2 774.3 429.7 774.6 430ZM477.5 420.1C477.7 420.4 478 420.6 478.3 420.6C478.5 420.6 478.667 420.533 478.8 420.4C478.867 420.333 478.933 420.3 479 420.3C479.3 419.9 479.3 419.3 479 418.9C478.6 418.6 478.1 418.5 477.7 418.8C477.3 419.1 477.2 419.7 477.5 420.1ZM762.8 420C763 420.2 763.233 420.3 763.5 420.3C763.767 420.3 764 420.2 764.2 420C764.6 419.7 764.6 419.1 764.2 418.7C764.133 418.633 764.067 418.6 764 418.6C763.6 418.3 762.9 418.3 762.6 418.8C762.3 419.2 762.4 419.8 762.8 420ZM489.8 411C490 411.3 490.3 411.4 490.6 411.4C490.8 411.4 491 411.367 491.2 411.3C491.267 411.233 491.3 411.167 491.3 411.1C491.7 410.8 491.7 410.1 491.3 409.8C491 409.4 490.4 409.4 490.1 409.7C489.7 410 489.6 410.6 489.8 411ZM750.4 410.9C750.6 411.1 750.833 411.2 751.1 411.2C751.367 411.2 751.6 411.1 751.8 410.9C752.2 410.5 752.2 409.9 751.8 409.6L751.6 409.4C751.2 409.1 750.5 409.2 750.2 409.6C749.9 410.1 750 410.6 750.4 410.9ZM502.8 402.7C503 403 503.3 403.1 503.6 403.1C503.733 403.1 503.867 403.067 504 403C504.5 402.8 504.7 402.3 504.5 401.9C504.3 401.4 503.8 401.1 503.3 401.3C503.233 401.3 503.133 401.333 503 401.4C502.6 401.7 502.5 402.3 502.8 402.7ZM737.8 402.9H738.2C738.6 402.9 738.9 402.7 739.1 402.3C739.2 401.8 739 401.3 738.6 401.1C738.2 400.9 737.6 401 737.3 401.4C737 401.9 737.2 402.5 737.6 402.8C737.667 402.8 737.733 402.833 737.8 402.9ZM516.2 395.3C516.4 395.6 516.7 395.7 517 395.7C517.2 395.7 517.367 395.667 517.5 395.6C517.9 395.4 518.1 394.9 518 394.5C517.8 394 517.3 393.7 516.8 393.8C516.667 393.867 516.567 393.933 516.5 394C516.1 394.3 515.9 394.9 516.2 395.3ZM724.3 395.5H724.7C725.1 395.5 725.4 395.3 725.6 394.9C725.7 394.4 725.5 393.9 725.1 393.7C724.7 393.5 724.1 393.6 723.8 394C723.5 394.5 723.7 395.1 724.1 395.4C724.167 395.4 724.233 395.433 724.3 395.5ZM530.1 388.6C530.2 389 530.6 389.2 531 389.2H531.3C531.367 389.2 531.433 389.167 531.5 389.1C532 388.8 532.1 388.2 531.8 387.7C531.5 387.3 531 387.2 530.6 387.4C530.1 387.6 529.9 388.1 530.1 388.6ZM710.3 389C710.433 389.067 710.567 389.1 710.7 389.1C711 389.1 711.3 388.9 711.5 388.6C711.8 388.2 711.7 387.6 711.2 387.3C711.133 387.233 711.067 387.2 711 387.2C710.5 387 709.9 387.3 709.7 387.8C709.6 388.3 709.8 388.8 710.3 389ZM544.4 383C544.5 383.4 544.9 383.7 545.3 383.7H545.5C546.1 383.5 546.4 383 546.2 382.5C546.1 382 545.6 381.7 545.1 381.8H545C544.5 382 544.2 382.5 544.4 383ZM696.1 383.5H696.3C696.7 383.5 697.1 383.2 697.2 382.8C697.4 382.3 697.1 381.8 696.5 381.6L696.1 383.5ZM559.1 378.4C559.2 378.9 559.6 379.1 560 379.1H560.2C560.7 379 561.1 378.5 560.9 377.9C560.8 377.4 560.3 377.1 559.8 377.2L559.7 377.3C559.2 377.4 558.9 378 559.1 378.4ZM681.4 379H681.6C682 379 682.4 378.7 682.5 378.3C682.7 377.8 682.4 377.2 681.8 377.1L681.4 379ZM574 374.9C574.2 375.3 574.5 375.6 574.9 375.6H575.1C575.6 375.5 575.9 375.1 575.9 374.6C575.9 374 575.2 373.5 574.6 373.7C574.1 373.9 573.9 374.4 574 374.9ZM666.3 375.4C666.433 375.467 666.533 375.5 666.6 375.5C667.2 375.5 667.6 375 667.6 374.5C667.6 374 667.3 373.6 666.8 373.6C666.3 373.5 665.9 373.7 665.7 374.2C665.5 374.7 665.8 375.3 666.3 375.4ZM589.1 372.1C589.1 372.6 589.6 373 590.1 373H590.4C590.9 372.9 591.2 372.3 591.1 371.8C590.9 371.3 590.5 371 590 371.1C589.5 371.1 589.1 371.6 589.1 372.1ZM651.4 372.9C651.4 372.967 651.433 373 651.5 373C651.9 373 652.3 372.7 652.4 372.2C652.5 371.7 652.2 371.2 651.7 371C651.1 370.9 650.5 371.4 650.5 372C650.5 372.5 650.9 372.9 651.4 372.9ZM604.4 370.5C604.4 371 604.9 371.5 605.4 371.5H605.7C606.2 371.3 606.5 370.8 606.4 370.3C606.2 369.8 605.8 369.5 605.3 369.6C604.8 369.6 604.4 370 604.4 370.5ZM636.1 371.4H636.2C636.6 371.4 637 371.2 637.1 370.7C637.2 370.2 636.9 369.7 636.4 369.5C635.8 369.4 635.2 369.9 635.2 370.5C635.2 371 635.6 371.4 636.1 371.4ZM619.8 370C619.8 370.5 620.3 371 620.8 371C621.3 371 621.8 370.5 621.8 370C621.8 369.5 621.3 369 620.8 369C620.2 369 619.8 369.5 619.8 370Z" fill="#219D80"/>
<path fill-rule="evenodd" clip-rule="evenodd" d="M729.028 578.856C729.167 578.431 729.2 577.965 729.1 577.5C728.8 576 727.4 575.1 726 575.4C724.6 575.7 723.6 577.1 723.9 578.6C724.2 579.8 725.3 580.7 726.5 580.7C726.7 580.7 726.9 580.667 727.1 580.6C727.931 580.422 728.586 579.856 728.919 579.133L729.028 578.856ZM688.926 680.963C688.486 681.028 688.061 681.205 687.7 681.5C686.621 682.481 686.408 684.039 687.25 685.231L688.926 680.963ZM621.1 710.6H621.3H621.5C623 710.6 624.2 709.4 624.2 708C624.2 706.5 623 705.3 621.5 705.3H621.3H621.1C619.6 705.3 618.4 706.5 618.4 708C618.4 709.4 619.6 710.6 621.1 710.6ZM603.8 706.6C603.6 708.1 604.6 709.4 606.1 709.6H606.4C607.7 709.6 608.9 708.7 609.1 707.3C609.2 705.9 608.2 704.6 606.8 704.4C605.3 704.2 604 705.2 603.8 706.6ZM635.8 704.3C634.3 704.5 633.3 705.9 633.5 707.3C633.7 708.6 634.9 709.6 636.2 709.6H636.5C638 709.3 639 708 638.8 706.6C638.6 705.1 637.2 704.1 635.8 704.3ZM589.5 703.3C589.1 704.7 589.9 706.2 591.3 706.6C591.567 706.667 591.8 706.7 592 706.7C593.2 706.7 594.3 705.9 594.6 704.7C595 703.3 594.2 701.9 592.8 701.5C591.3 701.1 589.9 701.9 589.5 703.3ZM649.8 701.4C648.4 701.7 647.6 703.2 648 704.6C648.3 705.8 649.4 706.5 650.6 706.5C650.8 706.567 651.034 706.533 651.3 706.4C652.7 706 653.5 704.6 653.1 703.2C652.7 701.8 651.2 700.9 649.8 701.4ZM575.7 698C575.2 699.4 575.8 700.9 577.1 701.5C577.434 701.633 577.8 701.7 578.2 701.7C579.2 701.7 580.2 701.1 580.6 700.2C581.2 698.8 580.6 697.2 579.2 696.7V696.6C577.9 696.1 576.3 696.7 575.7 698ZM663.3 696.5C662 697.1 661.4 698.7 662 700C662.4 701 663.4 701.6 664.4 701.6C664.734 701.6 665.067 701.533 665.4 701.4C666.8 700.8 667.4 699.2 666.8 697.9C666.2 696.5 664.7 695.9 663.3 696.5ZM562.9 690.9C562.1 692.2 562.5 693.8 563.7 694.6C564.167 694.867 564.634 695 565.1 695C566 695 566.9 694.5 567.4 693.7C568.2 692.4 567.7 690.8 566.5 690C565.3 689.3 563.6 689.7 562.9 690.9ZM676 689.9C674.8 690.6 674.4 692.2 675.1 693.5C675.6 694.3 676.5 694.8 677.4 694.8C677.9 694.8 678.4 694.6 678.8 694.4C680 693.6 680.4 692 679.6 690.7C678.9 689.5 677.3 689.1 676 689.9ZM551.1 682.2C550.1 683.3 550.3 685 551.4 685.9C551.9 686.3 552.5 686.5 553.1 686.5C553.9 686.5 554.6 686.2 555.2 685.5C556.1 684.4 555.9 682.7 554.8 681.8C553.6 680.8 552 681 551.1 682.2ZM540.6 671.9C539.5 672.9 539.4 674.5 540.4 675.6C541 676.2 541.7 676.4 542.4 676.4C543 676.4 543.7 676.2 544.2 675.7C545.3 674.7 545.3 673.1 544.3 672C543.3 670.9 541.6 670.9 540.6 671.9ZM531.6 660.2C530.4 661.1 530.1 662.7 530.9 663.9C531.4 664.7 532.2 665.1 533.1 665.1C533.6 665.1 534.2 664.9 534.6 664.6C535.8 663.7 536.1 662.1 535.3 660.9C534.4 659.7 532.8 659.4 531.6 660.2ZM524.2 647.5C522.9 648.2 522.4 649.8 523.1 651.1C523.5 652 524.5 652.5 525.4 652.5C525.867 652.5 526.3 652.4 526.7 652.2C528 651.5 528.5 649.9 527.8 648.6C527.1 647.4 525.5 646.8 524.2 647.5ZM518.7 633.9C517.3 634.4 516.6 635.9 517.1 637.3C517.5 638.4 518.5 639 519.6 639C519.867 639 520.167 638.967 520.5 638.9C521.8 638.4 522.6 636.9 522.1 635.5C521.6 634.1 520.1 633.4 518.7 633.9ZM515.1 619.6C513.6 619.9 512.7 621.3 513 622.8C513.3 624 514.4 624.9 515.6 624.9C515.8 624.9 515.967 624.867 516.1 624.8C517.6 624.5 518.5 623.1 518.2 621.7C517.9 620.3 516.5 619.3 515.1 619.6ZM513.4 605C512 605.1 510.9 606.4 510.9 607.9C511 609.3 512.2 610.3 513.6 610.3H513.8C515.2 610.2 516.4 609 516.2 607.5H516.3C516.1 606 514.9 604.9 513.4 605ZM510.9 592.8C510.8 594.3 512 595.5 513.4 595.6H513.6C515 595.6 516.1 594.6 516.2 593.2C516.3 591.7 515.2 590.4 513.8 590.3C512.3 590.2 511 591.3 510.9 592.8ZM513 577.9C512.6 579.3 513.6 580.7 515 581C515.2 581.067 515.367 581.1 515.5 581.1C516.8 581.1 517.9 580.2 518.1 579C518.5 577.5 517.5 576.1 516.1 575.8C514.7 575.5 513.2 576.5 513 577.9ZM517 563.4C516.5 564.7 517.2 566.3 518.6 566.7C518.934 566.833 519.234 566.9 519.5 566.9C520.6 566.9 521.6 566.2 522 565.1C522.5 563.8 521.8 562.3 520.4 561.8C519 561.3 517.5 562 517 563.4ZM721.6 561.4C720.3 561.9 719.5 563.4 720 564.8C720.4 565.8 721.5 566.5 722.6 566.5C722.867 566.5 723.134 566.467 723.4 566.4C724.8 565.9 725.5 564.4 725 563C724.5 561.6 723 560.9 721.6 561.4ZM523 549.5C522.3 550.8 522.8 552.4 524.1 553.1C524.5 553.3 524.9 553.4 525.3 553.4C526.3 553.4 527.2 552.9 527.7 552C528.4 550.7 527.9 549.1 526.6 548.4C525.3 547.7 523.7 548.2 523 549.5ZM715.4 548.1C714.1 548.7 713.6 550.3 714.3 551.6C714.8 552.5 715.7 553 716.7 553C717.1 553.067 717.5 553 717.9 552.8C719.2 552.1 719.7 550.5 719 549.2C718.3 547.9 716.7 547.4 715.4 548.1ZM530.8 536.7C530 537.9 530.3 539.5 531.5 540.4C531.9 540.7 532.5 540.9 533 540.9C533.8 540.9 534.6 540.5 535.1 539.7C536 538.5 535.7 536.9 534.5 536C533.3 535.2 531.7 535.5 530.8 536.7ZM707.4 535.7C706.2 536.6 706 538.2 706.8 539.4C707.3 540.1 708.1 540.5 709 540.5C709.534 540.5 710.034 540.333 710.5 540C711.7 539.2 712 537.5 711.1 536.3C710.3 535.1 708.6 534.9 707.4 535.7ZM540.3 525C539.3 526 539.4 527.7 540.4 528.7C541 529.2 541.6 529.4 542.2 529.4C543 529.4 543.7 529.1 544.2 528.6C545.2 527.5 545.1 525.8 544.1 524.8C543 523.8 541.3 523.9 540.3 525ZM697.8 524.6C696.8 525.6 696.7 527.3 697.7 528.3C698.2 528.9 699 529.2 699.7 529.2C700.3 529.2 701 528.9 701.5 528.4C702.5 527.4 702.6 525.7 701.6 524.7C700.6 523.6 698.9 523.6 697.8 524.6ZM551.3 514.7C550.2 515.6 550 517.3 550.9 518.4C551.4 519.1 552.2 519.4 553 519.4C553.6 519.4 554.2 519.2 554.7 518.8C555.8 517.9 556 516.2 555 515.1C554.1 513.9 552.4 513.7 551.3 514.7ZM686.8 514.8C685.9 516 686.1 517.6 687.2 518.6C687.7 519 688.3 519.2 688.9 519.2C689.7 519.2 690.4 518.8 691 518.2C691.9 517 691.7 515.4 690.6 514.4C689.4 513.5 687.8 513.7 686.8 514.8ZM563.6 506C562.3 506.7 561.9 508.4 562.7 509.6C563.2 510.4 564.1 510.9 565 510.9C565.4 510.9 565.9 510.8 566.3 510.5C567.6 509.7 568 508.1 567.2 506.9C566.5 505.6 564.8 505.2 563.6 506ZM674.6 506.7C673.8 507.9 674.2 509.5 675.5 510.3C675.9 510.6 676.4 510.7 676.9 510.7C677.8 510.7 678.6 510.2 679.1 509.4C679.9 508.2 679.5 506.5 678.3 505.8C677 505 675.4 505.4 674.6 506.7ZM576.9 499C575.6 499.6 575 501.2 575.6 502.5C576 503.5 577 504.1 578 504.1C578.334 504.1 578.7 504.033 579.1 503.9C580.4 503.3 581 501.7 580.4 500.4C579.8 499 578.3 498.4 576.9 499ZM661.4 500.2C660.8 501.6 661.4 503.1 662.8 503.7C663.1 503.9 663.5 503.9 663.8 503.9C664.8 503.9 665.8 503.3 666.2 502.3C666.8 501 666.2 499.4 664.9 498.9C663.5 498.3 662 498.9 661.4 500.2ZM591.1 494C589.7 494.3 588.9 495.8 589.3 497.2C589.6 498.4 590.7 499.2 591.8 499.2C592.067 499.2 592.334 499.133 592.6 499L592.5 499.1C594 498.7 594.8 497.2 594.4 495.8C594 494.4 592.5 493.6 591.1 494ZM647.4 495.7C647 497.1 647.8 498.5 649.2 499H649.9C651.1 499 652.2 498.3 652.5 497.1C652.9 495.7 652.1 494.2 650.6 493.8C649.2 493.4 647.8 494.3 647.4 495.7ZM605.9 490.9C604.4 491.1 603.4 492.4 603.6 493.9C603.8 495.2 604.9 496.2 606.2 496.2C606.334 496.2 606.467 496.167 606.6 496.1C608 495.9 609.1 494.6 608.8 493.1C608.6 491.7 607.3 490.7 605.9 490.9ZM632.9 493.1C632.7 494.6 633.7 495.9 635.2 496.1H635.5C636.9 496.1 638 495.1 638.2 493.8C638.4 492.4 637.3 491 635.9 490.8C634.4 490.6 633.1 491.6 632.9 493.1ZM618.2 492.5C618.2 494 619.4 495.1 620.9 495.1C622.3 495.1 623.5 493.9 623.5 492.5C623.5 491 622.3 489.8 620.9 489.8C619.4 489.8 618.2 491 618.2 492.5Z" fill="#219D80"/>
<path fill-rule="evenodd" clip-rule="evenodd" d="M677.809 709.269C677.705 709.306 677.602 709.349 677.5 709.4C676.3 710 675.8 711.4 676.4 712.6C676.419 712.635 676.439 712.67 676.46 712.703L677.809 709.269ZM618.7 725.5C618.7 726.8 619.8 727.9 621.1 727.9H621.3H621.5C622.8 727.9 623.9 726.8 623.9 725.5C623.9 724.1 622.8 723.1 621.5 723.1H621.2H621.1C619.8 723.1 618.7 724.1 618.7 725.5ZM603.9 724.3C603.7 725.6 604.7 726.8 606 727H606.3C607.5 727 608.5 726.1 608.7 724.9C608.8 723.6 607.9 722.4 606.6 722.2C605.3 722.1 604 723 603.9 724.3ZM636 722.2C634.7 722.3 633.7 723.5 633.9 724.9C634 726.1 635.1 727 636.3 727H636.6C637.9 726.8 638.8 725.6 638.7 724.3C638.5 722.9 637.3 722 636 722.2ZM591.1 724.4V724.3C591.3 724.367 591.5 724.4 591.7 724.4C592.8 724.4 593.8 723.7 594 722.6C594.3 721.3 593.5 720 592.3 719.6C591 719.3 589.6 720.1 589.3 721.4C589 722.7 589.8 724 591.1 724.4ZM650.3 719.6C649 719.9 648.2 721.2 648.5 722.5C648.8 723.6 649.8 724.3 650.9 724.3H651.4C652.7 723.9 653.5 722.6 653.2 721.3C652.9 720 651.6 719.3 650.3 719.6ZM575.2 716.8C574.8 718.1 575.4 719.5 576.6 719.9C576.933 720.033 577.233 720.1 577.5 720.1C578.5 720.1 579.4 719.5 579.7 718.5C580.2 717.3 579.6 715.9 578.3 715.4C577.1 714.9 575.7 715.6 575.2 716.8ZM664.2 715.3C662.9 715.7 662.3 717.1 662.8 718.4C663.1 719.4 664.1 720 665 720C665.333 719.933 665.633 719.867 665.9 719.8C667.1 719.3 667.8 717.9 667.3 716.7C666.8 715.4 665.4 714.8 664.2 715.3ZM561.8 710.6C561.2 711.8 561.6 713.2 562.8 713.8C563.2 714 563.5 714.1 563.9 714.1C564.8 714.1 565.6 713.6 566.1 712.8C566.7 711.6 566.2 710.2 565 709.5C563.8 708.9 562.4 709.4 561.8 710.6ZM549.2 702.8C548.4 703.9 548.7 705.4 549.8 706.1C550.2 706.367 550.633 706.5 551.1 706.5C551.9 706.5 552.7 706.2 553.1 705.5C553.9 704.4 553.6 702.9 552.5 702.1C551.4 701.4 549.9 701.7 549.2 702.8ZM537.8 697V696.9C538.2 697.3 538.8 697.5 539.3 697.5C540 697.5 540.7 697.2 541.2 696.7C542 695.7 541.9 694.2 540.9 693.3C539.9 692.4 538.4 692.5 537.5 693.5C536.6 694.5 536.8 696.1 537.8 697ZM527.1 683C526.1 683.9 526 685.4 526.9 686.4C527.4 686.9 528.1 687.2 528.7 687.2C529.3 687.2 529.9 687 530.3 686.6C531.3 685.7 531.4 684.1 530.5 683.2C529.6 682.2 528.1 682.1 527.1 683ZM517.9 671.3C516.9 672.1 516.6 673.6 517.4 674.7C517.9 675.3 518.6 675.7 519.4 675.7C519.867 675.7 520.333 675.533 520.8 675.2C521.8 674.5 522.1 673 521.3 671.9C520.5 670.8 519 670.5 517.9 671.3ZM510.3 658.6C509.1 659.3 508.7 660.7 509.3 661.9C509.8 662.7 510.6 663.2 511.4 663.2C511.8 663.2 512.2 663.1 512.6 662.9C513.7 662.2 514.2 660.7 513.5 659.6C512.9 658.4 511.4 658 510.3 658.6ZM504.1 645.1C502.9 645.6 502.3 647 502.8 648.3C503.2 649.2 504.1 649.8 505 649.8C505.333 649.8 505.633 649.733 505.9 649.6C507.2 649.1 507.8 647.7 507.3 646.5C506.8 645.2 505.4 644.6 504.1 645.1ZM499.6 631C498.4 631.4 497.6 632.7 497.9 634C498.2 635 499.2 635.7 500.3 635.7C500.5 635.7 500.7 635.667 500.9 635.6C502.2 635.3 502.9 634 502.6 632.7C502.2 631.4 500.9 630.6 499.6 631ZM496.9 616.4C495.6 616.6 494.6 617.9 494.8 619.2C495 620.4 496 621.2 497.2 621.2H497.6C498.9 621 499.8 619.8 499.6 618.5C499.4 617.1 498.2 616.2 496.9 616.4ZM495.8 601.6C494.5 601.7 493.5 602.8 493.5 604.1C493.5 605.4 494.6 606.5 495.9 606.5H496C497.3 606.4 498.4 605.3 498.3 604C498.3 602.6 497.2 601.6 495.8 601.6ZM493.9 589C493.8 590.3 494.8 591.5 496.1 591.6H496.3C497.6 591.6 498.6 590.7 498.7 589.4C498.9 588.1 497.9 586.9 496.5 586.8C495.2 586.7 494 587.7 493.9 589ZM496.1 574C495.9 575.4 496.7 576.6 498 576.9C498.133 576.967 498.3 577 498.5 577C499.6 577 500.6 576.2 500.9 575C501.1 573.7 500.3 572.5 499 572.2C497.7 571.9 496.4 572.7 496.1 574ZM500.1 559.4C499.7 560.7 500.4 562.1 501.6 562.5C501.867 562.567 502.133 562.6 502.4 562.6C503.4 562.6 504.3 562 504.7 561C505.1 559.7 504.4 558.4 503.2 557.9C501.9 557.5 500.5 558.2 500.1 559.4ZM505.8 545.4C505.2 546.6 505.7 548.1 506.9 548.6C507.2 548.8 507.6 548.9 508 548.9C508.8 548.9 509.7 548.4 510.1 547.5C510.7 546.3 510.2 544.9 509 544.3C507.8 543.7 506.3 544.2 505.8 545.4ZM733 544C731.8 544.5 731.3 546 731.9 547.2C732.3 548 733.2 548.5 734.1 548.5C734.433 548.5 734.767 548.433 735.1 548.3C736.3 547.7 736.8 546.3 736.3 545.1C735.7 543.9 734.2 543.4 733 544ZM513.1 532.2C512.4 533.3 512.7 534.8 513.8 535.5C514.2 535.767 514.633 535.9 515.1 535.9C515.9 535.9 516.7 535.5 517.2 534.8H517.1C517.9 533.6 517.5 532.1 516.4 531.4C515.3 530.7 513.8 531.1 513.1 532.2ZM725.6 531.1C724.5 531.8 724.1 533.3 724.9 534.5C725.3 535.2 726.1 535.6 726.9 535.6C727.367 535.6 727.8 535.467 728.2 535.2C729.3 534.5 729.6 533 728.9 531.9C728.2 530.7 726.7 530.4 725.6 531.1ZM521.9 519.9C521 520.9 521.2 522.5 522.2 523.3C522.7 523.6 523.2 523.8 523.8 523.8C524.5 523.8 525.1 523.5 525.6 522.9C526.5 521.9 526.3 520.4 525.3 519.5C524.2 518.7 522.7 518.9 521.9 519.9ZM716.7 519.3C715.6 520.1 715.5 521.6 716.3 522.7C716.8 523.2 717.5 523.6 718.2 523.6C718.7 523.6 719.3 523.4 719.7 523C720.8 522.2 720.9 520.6 720.1 519.6C719.2 518.6 717.7 518.4 716.7 519.3ZM532.1 508.7C531.1 509.7 531.1 511.2 532 512.1C532.5 512.6 533.1 512.9 533.8 512.9C534.4 512.9 535 512.6 535.5 512.2C536.4 511.3 536.4 509.7 535.5 508.8C534.6 507.8 533 507.8 532.1 508.7ZM706.4 508.5C705.5 509.5 705.5 511 706.5 512C706.9 512.4 707.6 512.6 708.2 512.6C708.8 512.6 709.4 512.4 709.9 511.9C710.8 510.9 710.8 509.4 709.8 508.5C708.9 507.6 707.4 507.6 706.4 508.5ZM543.5 498.8C542.5 499.6 542.3 501.2 543.1 502.2C543.6 502.8 544.3 503.2 545 503.2C545.5 503.2 546 503 546.4 502.7C547.5 501.9 547.7 500.3 546.9 499.3C546.1 498.2 544.6 498 543.5 498.8ZM695 499.1C694.2 500.1 694.4 501.7 695.4 502.5C695.867 502.833 696.367 503 696.9 503C697.6 503 698.4 502.6 698.8 502C699.6 500.9 699.4 499.4 698.4 498.6C697.3 497.8 695.8 498 695 499.1ZM556 490.4C554.9 491.1 554.5 492.5 555.2 493.7C555.7 494.4 556.4 494.9 557.3 494.9C557.7 494.9 558.1 494.767 558.5 494.5C559.6 493.8 560 492.4 559.3 491.2C558.7 490.1 557.2 489.7 556 490.4ZM682.5 491C681.8 492.2 682.2 493.7 683.4 494.3C683.8 494.567 684.2 494.7 684.6 494.7C685.4 494.7 686.2 494.3 686.7 493.5C687.4 492.3 687 490.9 685.8 490.2C684.7 489.5 683.2 489.9 682.5 491ZM569.5 483.4C568.2 484 567.7 485.4 568.2 486.6C568.6 487.5 569.5 488.1 570.5 488.1C570.767 488.1 571.067 488.033 571.4 487.9C572.6 487.3 573.2 485.9 572.6 484.7C572.1 483.5 570.7 482.9 569.5 483.4ZM669.2 484.5C668.7 485.8 669.2 487.2 670.4 487.7C670.733 487.833 671.067 487.9 671.4 487.9C672.3 487.9 673.2 487.4 673.6 486.5C674.1 485.3 673.6 483.8 672.4 483.3C671.1 482.8 669.7 483.3 669.2 484.5ZM583.6 478.2C582.4 478.6 581.6 479.9 582 481.2C582.4 482.2 583.3 482.9 584.3 482.9C584.567 482.9 584.833 482.867 585.1 482.8C586.3 482.4 587 481 586.7 479.8C586.3 478.5 584.9 477.8 583.6 478.2ZM655.2 479.7C654.8 480.9 655.5 482.3 656.8 482.7C657 482.767 657.233 482.8 657.5 482.8C658.5 482.8 659.5 482.1 659.8 481C660.2 479.8 659.4 478.4 658.2 478.1C656.9 477.7 655.6 478.4 655.2 479.7ZM598.3 474.6C597 474.8 596.1 476.1 596.4 477.4C596.6 478.6 597.6 479.4 598.8 479.4H599.2C600.5 479.1 601.4 477.9 601.1 476.6C600.9 475.2 599.6 474.4 598.3 474.6ZM640.7 476.5C640.4 477.8 641.3 479.1 642.6 479.3H643C644.2 479.3 645.2 478.5 645.4 477.3C645.7 476 644.8 474.8 643.5 474.5C642.2 474.3 640.9 475.2 640.7 476.5ZM613.3 472.8C612 472.9 611 474 611.1 475.4C611.2 476.6 612.2 477.6 613.5 477.6H613.6C615 477.5 616 476.4 615.9 475.1C615.8 473.8 614.7 472.7 613.3 472.8ZM625.9 475.1C625.8 476.4 626.9 477.5 628.2 477.6H628.3C629.6 477.6 630.6 476.6 630.7 475.3C630.8 474 629.8 472.9 628.4 472.8H628.5C627.1 472.7 626 473.7 625.9 475.1Z" fill="#219D80"/>
<path fill-rule="evenodd" clip-rule="evenodd" d="M667.539 735.417C667.527 735.378 667.514 735.339 667.5 735.3C667.2 734.1 666 733.5 664.8 733.9C663.7 734.2 663.1 735.4 663.4 736.6C663.7 737.5 664.6 738.1 665.5 738.1C665.7 738.1 665.934 738.067 666.2 738C666.342 737.948 666.476 737.883 666.601 737.807L667.539 735.417ZM621.1 740.8C619.9 740.8 618.9 741.8 618.9 743C618.9 744.2 619.9 745.1 621.1 745.1H621.2H621.4C622.6 745.1 623.6 744.1 623.6 742.9C623.6 741.8 622.6 740.8 621.4 740.8H621.2H621.1ZM604 742C603.9 743.2 604.8 744.2 605.9 744.3C606.033 744.367 606.134 744.4 606.2 744.4C607.3 744.4 608.2 743.5 608.3 742.4C608.5 741.2 607.6 740.2 606.4 740C605.2 739.9 604.1 740.8 604 742ZM636.1 740C634.9 740.1 634 741.2 634.2 742.4C634.3 743.5 635.2 744.3 636.3 744.3H636.5C637.7 744.2 638.6 743.1 638.5 741.9C638.4 740.7 637.3 739.9 636.1 740ZM589.3 739.4C589 740.6 589.8 741.8 591 742H591.4C592.4 742 593.3 741.3 593.5 740.3C593.8 739.1 593 738 591.9 737.7C590.7 737.5 589.5 738.2 589.3 739.4ZM650.6 737.7C649.4 737.9 648.7 739.1 649 740.3C649.2 741.3 650.1 742 651.1 742C651.234 742 651.367 741.967 651.5 741.9C652.7 741.7 653.4 740.5 653.2 739.4C652.9 738.2 651.8 737.4 650.6 737.7ZM574.9 735.3C574.6 736.5 575.2 737.7 576.3 738.1C576.567 738.167 576.8 738.2 577 738.2C577.9 738.2 578.8 737.6 579.1 736.7C579.4 735.5 578.8 734.3 577.7 734C576.5 733.6 575.3 734.2 574.9 735.3ZM561.1 729.8C560.6 730.9 561.1 732.1 562.2 732.6C562.467 732.733 562.734 732.8 563 732.8C563.9 732.8 564.7 732.4 565 731.5C565.5 730.4 565 729.2 563.9 728.7C562.8 728.2 561.6 728.7 561.1 729.8ZM548.6 725.7V725.8C549 726 549.367 726.067 549.7 726C550.5 726 551.2 725.6 551.6 724.9C552.2 723.9 551.9 722.6 550.8 722C549.8 721.4 548.5 721.7 547.9 722.8C547.3 723.8 547.6 725.1 548.6 725.7ZM535.5 714.5C534.8 715.4 535 716.8 535.9 717.5C536.3 717.767 536.734 717.9 537.2 717.9C537.9 717.9 538.5 717.6 539 717C539.7 716 539.4 714.7 538.5 714C537.5 713.3 536.2 713.5 535.5 714.5ZM524 704.9C523.2 705.8 523.3 707.1 524.1 707.9C524.6 708.3 525.1 708.5 525.6 708.5C526.2 708.5 526.8 708.2 527.2 707.8C528 706.9 527.9 705.5 527.1 704.7C526.2 703.9 524.8 704 524 704.9ZM513.6 694.1C512.7 694.9 512.6 696.3 513.4 697.2C513.9 697.7 514.4 697.9 515 697.9C515.6 697.9 516.1 697.7 516.5 697.4C517.4 696.6 517.5 695.2 516.6 694.3C515.8 693.4 514.5 693.3 513.6 694.1ZM504.4 682.4C503.4 683.1 503.2 684.5 503.9 685.4C504.3 686 505 686.3 505.6 686.3C506.067 686.3 506.5 686.167 506.9 685.9C507.9 685.2 508.1 683.9 507.4 682.9C506.7 681.9 505.3 681.7 504.4 682.4ZM496.4 669.8C495.4 670.4 495 671.7 495.6 672.7C496 673.4 496.7 673.8 497.5 673.8C497.8 673.8 498.2 673.7 498.6 673.5C499.6 672.9 500 671.6 499.4 670.6C498.8 669.5 497.4 669.2 496.4 669.8ZM489.8 656.4C488.7 656.8 488.2 658.1 488.7 659.2C489.1 660 489.9 660.5 490.7 660.5C490.967 660.5 491.267 660.433 491.6 660.3C492.7 659.8 493.2 658.6 492.7 657.5C492.2 656.4 490.9 655.9 489.8 656.4ZM484.7 642.3C483.5 642.7 482.9 643.9 483.3 645.1C483.6 646 484.4 646.6 485.3 646.6C485.567 646.6 485.8 646.567 486 646.5C487.1 646.1 487.8 644.9 487.4 643.7C487 642.6 485.8 642 484.7 642.3ZM481 627.8C479.9 628.1 479.1 629.3 479.3 630.4C479.6 631.5 480.5 632.2 481.5 632.2C481.634 632.133 481.767 632.1 481.9 632.1C483.1 631.8 483.8 630.7 483.6 629.5C483.3 628.3 482.2 627.6 481 627.8ZM478.9 613.1C477.7 613.2 476.9 614.2 477 615.4C477.1 616.6 478 617.4 479.1 617.4H479.4C480.6 617.3 481.4 616.2 481.3 615C481.2 613.8 480.1 612.9 478.9 613.1ZM478.4 598.1C477.2 598.1 476.2 599.1 476.2 600.3C476.2 601.5 477.2 602.5 478.4 602.5C479.6 602.5 480.5 601.5 480.5 600.3C480.5 599.1 479.6 598.1 478.4 598.1ZM477 585.2C476.8 586.4 477.7 587.4 478.9 587.5C478.967 587.567 479.034 587.6 479.1 587.6C480.2 587.6 481.2 586.7 481.3 585.6C481.4 584.4 480.5 583.4 479.3 583.2C478.2 583.1 477.1 584 477 585.2ZM479.3 570.2C479.1 571.4 479.8 572.5 481 572.8H481.4C482.4 572.8 483.3 572.1 483.6 571.1C483.8 569.9 483.1 568.8 481.9 568.5C480.7 568.3 479.6 569 479.3 570.2ZM483.2 555.5C482.8 556.7 483.5 557.9 484.6 558.3C484.8 558.367 485.034 558.4 485.3 558.4C486.2 558.4 487 557.8 487.3 556.9C487.7 555.7 487.1 554.5 485.9 554.1C484.8 553.8 483.6 554.4 483.2 555.5ZM488.6 541.4C488.2 542.5 488.6 543.7 489.7 544.2C490.034 544.333 490.334 544.4 490.6 544.4C491.5 544.4 492.3 543.9 492.6 543.1C493.1 542 492.6 540.8 491.5 540.3C490.4 539.8 489.1 540.3 488.6 541.4ZM495.5 527.9C494.9 528.9 495.3 530.2 496.3 530.8C496.7 531 497.067 531.1 497.4 531.1C498.2 531.1 498.9 530.7 499.3 530C499.9 529 499.5 527.7 498.5 527.1C497.5 526.5 496.1 526.8 495.5 527.9ZM743.5 526.8C742.5 527.4 742.1 528.7 742.7 529.8C743.1 530.5 743.9 530.8 744.6 530.8C745 530.8 745.4 530.8 745.7 530.6C746.7 530 747.1 528.6 746.5 527.6C745.9 526.6 744.6 526.2 743.5 526.8ZM503.8 515.1C503.1 516.1 503.3 517.5 504.3 518.2C504.7 518.467 505.1 518.6 505.5 518.6C506.2 518.6 506.9 518.3 507.3 517.7C508 516.7 507.8 515.4 506.8 514.7C505.9 514 504.5 514.2 503.8 515.1ZM735.2 514.4C734.2 515.1 734 516.5 734.7 517.5C735.1 518 735.8 518.3 736.5 518.3C736.9 518.3 737.3 518.167 737.7 517.9C738.7 517.2 738.9 515.9 738.2 514.9C737.5 513.9 736.1 513.7 735.2 514.4ZM513.3 503.3C512.5 504.2 512.6 505.6 513.5 506.4C513.9 506.8 514.4 507 514.9 507C515.5 507 516.1 506.7 516.6 506.3V506.2C517.4 505.4 517.3 504 516.4 503.2C515.5 502.4 514.1 502.5 513.3 503.3ZM725.6 503C724.7 503.8 724.6 505.1 725.4 506C725.9 506.5 726.5 506.7 727 506.7C727.6 506.7 728.1 506.6 728.5 506.2C729.4 505.4 729.4 504 728.7 503.1C727.8 502.2 726.5 502.2 725.6 503ZM524 492.6C523.2 493.4 523.1 494.8 523.9 495.7C524.3 496.2 524.9 496.4 525.5 496.4C526 496.4 526.5 496.2 527 495.8C527.9 495 527.9 493.7 527.1 492.8C526.3 491.9 524.9 491.8 524 492.6ZM714.8 492.6C714 493.5 714.1 494.8 715 495.7C715.4 496 715.9 496.2 716.5 496.2C717.1 496.2 717.6 496 718.1 495.5C718.9 494.6 718.8 493.2 717.9 492.4C717 491.6 715.6 491.7 714.8 492.6ZM535.8 483.1C534.9 483.8 534.6 485.1 535.3 486.1C535.8 486.7 536.4 487 537.1 487C537.5 487 538 486.9 538.4 486.6C539.3 485.9 539.6 484.5 538.8 483.5C538.2 482.6 536.8 482.4 535.8 483.1ZM703.1 483.4C702.4 484.3 702.6 485.7 703.6 486.4C704 486.7 704.4 486.8 704.8 486.8C705.5 486.8 706.2 486.5 706.6 485.9C707.3 484.9 707.1 483.6 706.1 482.9C705.2 482.2 703.8 482.4 703.1 483.4ZM548.5 474.8C547.5 475.4 547.1 476.7 547.7 477.7C548.1 478.4 548.9 478.8 549.6 478.8C550 478.8 550.367 478.7 550.7 478.5C551.7 477.9 552.1 476.6 551.5 475.6C550.9 474.5 549.6 474.2 548.5 474.8ZM690.4 475.4C689.8 476.5 690.2 477.8 691.2 478.4C691.534 478.6 691.9 478.7 692.3 478.7C693.1 478.7 693.8 478.3 694.2 477.6C694.8 476.6 694.4 475.2 693.4 474.6C692.4 474 691 474.4 690.4 475.4ZM562 467.9C560.9 468.4 560.4 469.6 560.9 470.7C561.3 471.6 562.1 472 562.9 472C563.167 472 563.467 471.933 563.8 471.8C564.9 471.3 565.4 470.1 564.9 469C564.4 467.9 563.1 467.4 562 467.9ZM677 468.9C676.5 470 677 471.2 678.1 471.7C678.367 471.833 678.667 471.9 679 471.9C679.8 471.9 680.6 471.4 681 470.6C681.5 469.5 681 468.2 679.9 467.8C678.8 467.3 677.5 467.8 677 468.9ZM576.2 462.4C575 462.8 574.4 464 574.8 465.2C575.1 466.1 575.9 466.7 576.8 466.7C577.067 466.7 577.3 466.667 577.5 466.6C578.6 466.2 579.3 465 578.9 463.8C578.5 462.7 577.3 462 576.2 462.4ZM663 463.7C662.6 464.9 663.2 466.1 664.4 466.5C664.6 466.567 664.8 466.6 665 466.6C666 466.6 666.8 466 667.1 465.1C667.5 463.9 666.9 462.7 665.7 462.3C664.6 462 663.3 462.6 663 463.7ZM590.8 458.5C589.6 458.7 588.9 459.9 589.1 461.1C589.4 462.1 590.3 462.8 591.3 462.8C591.434 462.8 591.567 462.767 591.7 462.7C592.9 462.5 593.6 461.3 593.4 460.2C593.1 459 592 458.2 590.8 458.5ZM648.5 460.1C648.2 461.3 649 462.4 650.2 462.7H650.6C651.6 462.7 652.5 462 652.7 461C653 459.8 652.2 458.7 651.1 458.4C649.9 458.2 648.7 458.9 648.5 460.1ZM605.8 456.1C604.6 456.3 603.7 457.3 603.9 458.5C604 459.6 604.9 460.5 606 460.5C606.067 460.5 606.134 460.467 606.2 460.4C607.4 460.3 608.3 459.2 608.2 458.1C608.1 456.9 607 456 605.8 456.1ZM633.7 458C633.6 459.2 634.4 460.3 635.6 460.4H635.9C637 460.4 637.9 459.6 638 458.5C638.1 457.3 637.3 456.2 636.1 456.1C634.9 456 633.8 456.8 633.7 458ZM620.9 455.3C619.7 455.3 618.8 456.3 618.8 457.5C618.8 458.7 619.7 459.7 620.9 459.7C622.1 459.7 623.1 458.7 623.1 457.5C623.1 456.3 622.1 455.3 620.9 455.3Z" fill="#219D80"/>
<path fill-rule="evenodd" clip-rule="evenodd" d="M756.004 510.168C755.378 509.382 754.254 509.231 753.4 509.8C752.5 510.4 752.3 511.6 752.9 512.5C753.2 513 753.8 513.3 754.5 513.3C754.594 513.3 754.688 513.292 754.783 513.276L756.004 510.168ZM621.1 758.5C620 758.5 619.2 759.4 619.2 760.4C619.2 761.5 620 762.4 621.1 762.4H621.3H621.5C622.5 762.4 623.4 761.5 623.4 760.4C623.4 759.4 622.5 758.5 621.5 758.5H621.4H621.3H621.1ZM604.2 759.6C604.1 760.6 604.8 761.6 605.9 761.7H606.1C607.1 761.7 607.9 760.9 608 759.9C608.1 758.9 607.3 757.9 606.3 757.8C605.2 757.7 604.3 758.5 604.2 759.6ZM636.3 757.8C635.2 757.9 634.4 758.8 634.5 759.9C634.6 760.9 635.5 761.7 636.5 761.7L636.6 761.6C637.7 761.5 638.5 760.6 638.4 759.5C638.3 758.5 637.3 757.7 636.3 757.8ZM589.3 757.3C589.1 758.4 589.8 759.4 590.9 759.6H591.2C592.1 759.6 592.9 759 593.1 758C593.3 757 592.6 756 591.6 755.8C590.5 755.6 589.5 756.3 589.3 757.3ZM651 755.7C649.9 755.9 649.2 756.9 649.4 758C649.6 758.9 650.4 759.5 651.3 759.5H651.7C652.7 759.3 653.4 758.3 653.2 757.2C653 756.2 652 755.5 651 755.7ZM574.8 753.7C574.5 754.7 575.1 755.8 576.1 756C576.233 756.067 576.4 756.1 576.6 756.1C577.5 756.1 578.2 755.6 578.5 754.7C578.8 753.7 578.2 752.6 577.1 752.3C576.1 752.1 575.1 752.6 574.8 753.7ZM560.6 748.7C560.2 749.6 560.7 750.8 561.7 751.1C561.9 751.233 562.133 751.3 562.4 751.3C563.2 751.3 563.9 750.8 564.2 750.1C564.6 749.1 564.1 747.9 563.1 747.6C562.1 747.2 561 747.7 560.6 748.7ZM547 742.3C546.5 743.3 546.9 744.4 547.8 744.9C548.067 745.033 548.367 745.1 548.7 745.1C549.4 745.1 550.1 744.7 550.4 744.1C550.9 743.1 550.5 742 549.6 741.5C548.6 741 547.5 741.4 547 742.3ZM534 734.8C533.4 735.7 533.7 736.9 534.6 737.4C534.933 737.6 535.267 737.7 535.6 737.7C536.3 737.7 536.9 737.4 537.3 736.8C537.8 735.9 537.6 734.7 536.7 734.2C535.8 733.6 534.6 733.9 534 734.8ZM521.8 726C521.2 726.8 521.3 728.1 522.2 728.7C522.533 728.967 522.9 729.1 523.3 729.1C523.9 729.1 524.5 728.8 524.9 728.4C525.5 727.5 525.3 726.3 524.5 725.7C523.7 725 522.4 725.2 521.8 726ZM510.5 716.2C509.7 716.9 509.8 718.2 510.6 718.9C510.9 719.2 511.4 719.4 511.9 719.4C512.4 719.4 512.9 719.2 513.3 718.8C514 718 514 716.8 513.2 716.1C512.4 715.3 511.2 715.4 510.5 716.2ZM500.1 705.3C499.3 706 499.2 707.2 499.9 708C500.3 708.4 500.8 708.6 501.4 708.6C501.867 708.667 502.3 708.533 502.7 708.2C503.5 707.4 503.5 706.2 502.8 705.4C502.1 704.7 500.9 704.6 500.1 705.3ZM490.8 693.5C489.9 694.1 489.7 695.3 490.4 696.2C490.7 696.7 491.3 697 491.9 697C492.3 697 492.7 696.9 493.1 696.6C493.9 696 494.1 694.8 493.5 693.9C492.9 693.1 491.6 692.9 490.8 693.5ZM482.6 680.9C481.7 681.4 481.4 682.6 482 683.5C482.3 684.1 483 684.5 483.6 684.5C483.933 684.5 484.267 684.4 484.6 684.2C485.5 683.7 485.8 682.5 485.3 681.6C484.7 680.7 483.5 680.3 482.6 680.9ZM475.7 667.6C474.7 668.1 474.3 669.2 474.8 670.2C475.1 670.9 475.8 671.3 476.5 671.3C476.767 671.3 477.033 671.233 477.3 671.1C478.3 670.6 478.7 669.5 478.2 668.5C477.8 667.5 476.6 667.1 475.7 667.6ZM470 653.7C469 654 468.5 655.2 468.9 656.2C469.1 656.9 469.9 657.4 470.6 657.4C470.867 657.4 471.1 657.367 471.3 657.3C472.3 656.9 472.8 655.8 472.5 654.8C472.1 653.8 471 653.3 470 653.7ZM465.7 639.3C464.6 639.6 464 640.6 464.3 641.7C464.5 642.5 465.3 643.1 466.2 643.1H466.6C467.7 642.8 468.3 641.7 468 640.7C467.7 639.7 466.7 639 465.7 639.3ZM462.7 624.6C461.6 624.8 460.9 625.8 461.1 626.8C461.3 627.8 462.1 628.4 463 628.4H463.3C464.4 628.2 465.1 627.2 464.9 626.2C464.7 625.1 463.7 624.4 462.7 624.6ZM461.1 609.7C460.1 609.7 459.3 610.7 459.3 611.7C459.4 612.7 460.2 613.5 461.3 613.5H461.4C462.5 613.4 463.3 612.5 463.2 611.4C463.1 610.4 462.2 609.6 461.1 609.7ZM459 596.5C459 597.6 459.8 598.5 460.9 598.5C461.9 598.5 462.8 597.7 462.8 596.6C462.9 595.5 462 594.7 460.9 594.6C459.9 594.6 459 595.5 459 596.5ZM460 581.4C459.9 582.4 460.7 583.4 461.7 583.5H461.9C462.9 583.5 463.7 582.8 463.9 581.8C464 580.8 463.2 579.8 462.2 579.7C461.1 579.5 460.2 580.3 460 581.4ZM462.5 566.4C462.3 567.4 462.9 568.4 464 568.7H464.4C465.3 568.7 466.1 568.1 466.2 567.2C466.5 566.1 465.8 565.1 464.8 564.9C463.7 564.7 462.7 565.3 462.5 566.4ZM466.3 551.7C466 552.7 466.6 553.8 467.6 554.1C467.8 554.167 468 554.2 468.2 554.2C469 554.2 469.8 553.6 470 552.8C470.3 551.8 469.8 550.7 468.8 550.4C467.7 550.1 466.7 550.7 466.3 551.7ZM471.6 537.4C471.1 538.4 471.6 539.5 472.6 539.9C472.867 540.033 473.1 540.1 473.3 540.1C474.1 540.1 474.8 539.6 475.1 538.9C475.5 537.9 475.1 536.8 474.1 536.4C473.1 536 472 536.4 471.6 537.4ZM478.1 523.7C477.6 524.6 478 525.8 478.9 526.3C479.167 526.433 479.467 526.5 479.8 526.5C480.5 526.5 481.2 526.2 481.5 525.5C482 524.6 481.7 523.4 480.7 522.9C479.8 522.4 478.6 522.7 478.1 523.7ZM485.9 510.6C485.3 511.5 485.6 512.7 486.5 513.3C486.833 513.5 487.167 513.6 487.5 513.6C488.1 513.6 488.8 513.3 489.1 512.8C489.7 511.9 489.5 510.7 488.6 510.1C487.7 509.5 486.5 509.7 485.9 510.6ZM494.9 498.4C494.2 499.2 494.4 500.4 495.2 501.1C495.6 501.367 496 501.5 496.4 501.5C497 501.5 497.5 501.3 497.9 500.8C498.6 500 498.4 498.8 497.6 498.1C496.8 497.4 495.6 497.5 494.9 498.4ZM744.3 497.8C743.5 498.5 743.4 499.7 744 500.5C744.4 501 745 501.2 745.6 501.2C746 501.267 746.4 501.133 746.8 500.8C747.6 500.1 747.7 498.9 747 498.1C746.4 497.3 745.2 497.2 744.3 497.8ZM505 487C504.3 487.8 504.3 489 505 489.7C505.4 490.1 505.9 490.3 506.4 490.3C506.9 490.3 507.4 490.1 507.8 489.7C508.5 488.9 508.5 487.7 507.7 487C507 486.2 505.7 486.3 505 487ZM734.2 486.7C733.4 487.5 733.4 488.7 734.2 489.5C734.6 489.8 735.1 490 735.6 490C736 490 736.5 489.9 736.9 489.5C737.7 488.7 737.7 487.5 736.9 486.8C736.2 486 735 486 734.2 486.7ZM516.1 476.6C515.3 477.3 515.2 478.6 515.9 479.4C516.3 479.8 516.8 480 517.4 480C517.8 480 518.2 479.9 518.6 479.6C519.4 478.9 519.5 477.7 518.8 476.9C518.1 476.1 516.9 476 516.1 476.6ZM723.1 476.6C722.4 477.5 722.5 478.7 723.3 479.4C723.7 479.7 724.1 479.8 724.5 479.8C725.1 479.8 725.6 479.6 726 479.1C726.7 478.3 726.6 477.1 725.8 476.4C725 475.7 723.8 475.8 723.1 476.6ZM528.1 467.4C527.3 468 527.1 469.2 527.7 470C528 470.6 528.6 470.9 529.2 470.9C529.6 470.9 530 470.767 530.4 470.5H530.3C531.2 469.9 531.4 468.7 530.8 467.8C530.2 466.9 529 466.7 528.1 467.4ZM711.1 467.6C710.5 468.5 710.7 469.7 711.5 470.3C711.9 470.6 712.3 470.6 712.6 470.6C713.3 470.6 713.9 470.4 714.2 469.8C714.8 469 714.6 467.8 713.8 467.1C712.9 466.5 711.7 466.8 711.1 467.6ZM541 459.2C540 459.7 539.7 460.9 540.3 461.9C540.6 462.5 541.3 462.8 541.9 462.8C542.233 462.8 542.567 462.733 542.9 462.6C543.8 462 544.1 460.9 543.6 459.9C543.1 459 541.9 458.7 541 459.2ZM698.3 459.8C697.7 460.7 698.1 461.9 699 462.4C699.267 462.533 699.567 462.6 699.9 462.6C700.6 462.6 701.3 462.3 701.6 461.7C702.1 460.8 701.8 459.6 700.9 459C700 458.5 698.8 458.8 698.3 459.8ZM554.5 452.3C553.5 452.8 553.1 453.9 553.5 454.9C553.9 455.6 554.6 456 555.3 456C555.567 456 555.833 455.967 556.1 455.9C557.1 455.4 557.5 454.3 557.1 453.3C556.6 452.3 555.5 451.9 554.5 452.3ZM684.8 453.2C684.4 454.1 684.8 455.3 685.7 455.7C686.033 455.833 686.3 455.9 686.5 455.9C687.3 455.9 688 455.4 688.3 454.7C688.7 453.7 688.3 452.6 687.3 452.2C686.4 451.7 685.2 452.2 684.8 453.2ZM568.7 446.7C567.7 447.1 567.1 448.2 567.4 449.2C567.7 450 568.5 450.5 569.3 450.5C569.5 450.5 569.7 450.467 569.9 450.4C570.9 450 571.5 449 571.1 447.9C570.8 446.9 569.7 446.4 568.7 446.7ZM670.7 447.8C670.4 448.8 670.9 449.9 671.9 450.3C672.1 450.367 672.333 450.4 672.6 450.4C673.4 450.4 674.1 449.9 674.4 449.1C674.7 448.1 674.2 447 673.2 446.6C672.2 446.3 671.1 446.8 670.7 447.8ZM583.3 442.5C582.2 442.8 581.6 443.8 581.8 444.8C582 445.7 582.8 446.3 583.7 446.3H584.1C585.2 446 585.8 445 585.6 443.9C585.3 442.9 584.3 442.3 583.3 442.5ZM656.2 443.9C656 444.9 656.7 445.9 657.7 446.2H658.1C659 446.2 659.8 445.6 660 444.8C660.3 443.7 659.6 442.7 658.6 442.4C657.5 442.2 656.5 442.8 656.2 443.9ZM598.2 439.7C597.1 439.8 596.4 440.8 596.5 441.9C596.7 442.8 597.5 443.5 598.4 443.5H598.7C599.8 443.3 600.5 442.4 600.4 441.3C600.2 440.3 599.2 439.5 598.2 439.7ZM641.5 441.3C641.3 442.3 642 443.3 643.1 443.4C643.167 443.467 643.267 443.5 643.4 443.5C644.3 443.5 645.2 442.8 645.3 441.8C645.4 440.8 644.7 439.8 643.6 439.6C642.6 439.5 641.6 440.2 641.5 441.3ZM613.3 438.3C612.2 438.3 611.4 439.2 611.5 440.3C611.5 441.3 612.4 442.1 613.4 442.1H613.5C614.6 442.1 615.4 441.2 615.3 440.1C615.3 439 614.4 438.2 613.3 438.3ZM626.5 440.1C626.4 441.2 627.3 442.1 628.3 442.1H628.4C629.4 442.1 630.3 441.3 630.3 440.3C630.4 439.2 629.6 438.3 628.5 438.2C627.4 438.2 626.5 439 626.5 440.1Z" fill="#219D80"/>
<path fill-rule="evenodd" clip-rule="evenodd" d="M652.5 773.711C652.23 773.609 651.926 773.567 651.6 773.6C650.7 773.8 650.1 774.6 650.3 775.6C650.372 776.175 650.754 776.647 651.26 776.867L652.5 773.711ZM621.1 776.2C620.2 776.2 619.4 777 619.4 777.9C619.4 778.9 620.2 779.6 621.1 779.6H621.3H621.5C622.4 779.6 623.2 778.9 623.2 777.9C623.2 777 622.4 776.2 621.5 776.2C621.434 776.267 621.367 776.3 621.3 776.3H621.1V776.2ZM604.1 777.2C604.1 778.1 604.8 778.9 605.7 779H605.8C606.7 779 607.4 778.3 607.5 777.4C607.6 776.5 606.9 775.7 606 775.6C605 775.5 604.2 776.2 604.1 777.2ZM636.6 775.6C635.7 775.7 635 776.5 635.1 777.4C635.2 778.3 635.9 779 636.8 779H636.9C637.9 778.9 638.5 778 638.5 777.1C638.4 776.2 637.5 775.5 636.6 775.6ZM589 775.1C588.8 776 589.5 776.8 590.4 777H590.6C591.5 777 592.2 776.5 592.3 775.6C592.5 774.7 591.9 773.8 590.9 773.7C590 773.5 589.1 774.1 589 775.1ZM574.1 771.7C573.8 772.6 574.4 773.5 575.3 773.7C575.434 773.767 575.567 773.8 575.7 773.8C576.5 773.8 577.2 773.3 577.4 772.5C577.6 771.6 577 770.7 576.1 770.5C575.3 770.2 574.3 770.8 574.1 771.7ZM560.6 769.2V769.1C560.734 769.233 560.9 769.3 561.1 769.3C561.8 769.3 562.5 768.8 562.7 768.1C563 767.3 562.6 766.3 561.7 766C560.8 765.7 559.8 766.1 559.5 767C559.2 767.9 559.7 768.8 560.6 769.2ZM545.4 761.1C545 761.9 545.4 762.9 546.3 763.3C546.5 763.433 546.7 763.5 546.9 763.5C547.6 763.5 548.2 763.1 548.5 762.5C548.9 761.6 548.5 760.6 547.7 760.3C546.8 759.9 545.8 760.2 545.4 761.1ZM531.9 754C531.4 754.8 531.7 755.8 532.5 756.3C532.767 756.433 533.034 756.5 533.3 756.5C533.9 756.5 534.5 756.2 534.8 755.6C535.3 754.8 535 753.8 534.2 753.3C533.4 752.9 532.3 753.2 531.9 754ZM519 745.7C518.5 746.5 518.7 747.5 519.4 748.1C519.734 748.3 520.067 748.4 520.4 748.4C520.9 748.4 521.5 748.1 521.8 747.6C522.3 746.9 522.1 745.8 521.3 745.3C520.6 744.8 519.5 745 519 745.7ZM506.9 736.4C506.3 737.1 506.4 738.2 507.1 738.8C507.434 739.067 507.8 739.2 508.2 739.2C508.7 739.2 509.2 739 509.5 738.6C510.1 737.8 510 736.8 509.3 736.2C508.5 735.6 507.5 735.7 506.9 736.4ZM495.6 726.1C495 726.7 495 727.8 495.6 728.5C496 728.8 496.4 728.9 496.8 728.9C497.3 728.9 497.7 728.8 498 728.4C498.7 727.8 498.7 726.7 498 726C497.3 725.4 496.2 725.4 495.6 726.1ZM485.3 714.8C484.5 715.4 484.5 716.5 485.1 717.2C485.4 717.6 485.9 717.8 486.4 717.8C486.7 717.8 487.1 717.7 487.5 717.4C488.2 716.8 488.2 715.7 487.6 715C487 714.3 485.9 714.2 485.3 714.8ZM475.9 702.7C475.1 703.3 475 704.3 475.5 705.1C475.8 705.6 476.4 705.8 476.9 705.8C477.234 705.8 477.567 705.7 477.9 705.5C478.6 704.9 478.8 703.9 478.2 703.1C477.7 702.4 476.6 702.2 475.9 702.7ZM467.6 689.9C466.8 690.4 466.5 691.4 467 692.2C467.3 692.7 467.9 693 468.5 693C468.767 693 469.034 692.933 469.3 692.8C470.1 692.3 470.4 691.3 469.9 690.5C469.5 689.7 468.4 689.4 467.6 689.9ZM460.5 676.4C459.6 676.8 459.3 677.8 459.7 678.6C460 679.2 460.6 679.6 461.2 679.6C461.467 679.6 461.7 679.533 461.9 679.4C462.8 679 463.1 678 462.7 677.2C462.3 676.3 461.3 676 460.5 676.4ZM454.5 662.3C453.6 662.6 453.2 663.6 453.5 664.5C453.8 665.2 454.4 665.6 455.1 665.6C455.3 665.6 455.5 665.567 455.7 665.5C456.6 665.1 457 664.1 456.7 663.3C456.4 662.4 455.4 662 454.5 662.3ZM449.8 647.8C448.9 648 448.4 649 448.6 649.9C448.8 650.6 449.5 651.1 450.3 651.1C450.434 651.1 450.567 651.067 450.7 651C451.6 650.7 452.1 649.8 451.9 648.9C451.6 648 450.7 647.5 449.8 647.8ZM446.4 632.9C445.5 633 444.9 633.9 445 634.9C445.2 635.7 445.9 636.2 446.7 636.2H447C447.9 636 448.5 635.1 448.3 634.2C448.2 633.3 447.3 632.7 446.4 632.9ZM444.2 617.7C443.3 617.8 442.6 618.7 442.7 619.6C442.8 620.5 443.5 621.1 444.4 621.1H444.6C445.5 621 446.2 620.2 446.1 619.2C446 618.3 445.1 617.6 444.2 617.7ZM443.4 602.5C442.4 602.5 441.7 603.3 441.7 604.2C441.7 605.1 442.5 605.9 443.4 605.9C444.4 605.8 445.1 605 445.1 604.1C445.1 603.2 444.3 602.4 443.4 602.5ZM442.1 588.8C442 589.7 442.7 590.5 443.6 590.6H443.7C444.6 590.6 445.4 589.9 445.4 589C445.5 588 444.8 587.3 443.8 587.2C442.9 587.1 442.1 587.8 442.1 588.8ZM443.7 573.4C443.5 574.3 444.2 575.2 445.1 575.4H445.3C446.2 575.4 446.9 574.8 447 573.9C447.1 573 446.5 572.1 445.6 572C444.7 571.9 443.8 572.5 443.7 573.4ZM446.6 558.3C446.4 559.2 447 560.1 447.9 560.3C448.034 560.367 448.167 560.4 448.3 560.4C449 560.4 449.7 559.8 449.9 559.1C450.1 558.2 449.6 557.2 448.7 557C447.7 556.8 446.8 557.4 446.6 558.3ZM450.9 543.4C450.6 544.3 451 545.3 451.9 545.6C452.1 545.667 452.3 545.7 452.5 545.7C453.2 545.7 453.8 545.2 454.1 544.5C454.4 543.6 453.9 542.7 453 542.4C452.1 542.1 451.2 542.6 450.9 543.4ZM456.4 529C456 529.9 456.4 530.9 457.3 531.2C457.5 531.333 457.7 531.4 457.9 531.4C458.6 531.4 459.2 531 459.5 530.4C459.8 529.5 459.5 528.5 458.6 528.1C457.7 527.8 456.7 528.2 456.4 529ZM463.1 515.1C462.7 515.9 463 517 463.8 517.4C464.067 517.533 464.334 517.6 464.6 517.6C465.2 517.6 465.8 517.3 466.1 516.7C466.5 515.9 466.2 514.9 465.4 514.4C464.6 514 463.6 514.3 463.1 515.1ZM471 501.9C470.5 502.6 470.7 503.7 471.5 504.2C471.767 504.4 472.067 504.5 472.4 504.5C473 504.5 473.5 504.2 473.8 503.7C474.4 502.9 474.2 501.9 473.4 501.4C472.6 500.9 471.5 501.1 471 501.9ZM480.1 489.3C479.5 490.1 479.6 491.1 480.3 491.7C480.634 491.967 481 492.1 481.4 492.1C481.9 492.1 482.4 491.9 482.7 491.4C483.3 490.7 483.1 489.6 482.4 489.1C481.7 488.5 480.6 488.6 480.1 489.3ZM759.5 488.8C758.8 489.3 758.7 490.4 759.2 491.1C759.6 491.6 760.1 491.8 760.6 491.8C760.9 491.8 761.3 491.7 761.6 491.4C762.4 490.8 762.5 489.8 761.9 489.1C761.3 488.3 760.3 488.2 759.5 488.8ZM490.1 477.6C489.5 478.3 489.5 479.4 490.2 480C490.534 480.333 490.9 480.5 491.3 480.5C491.8 480.5 492.2 480.3 492.6 479.9C493.2 479.3 493.2 478.2 492.5 477.6C491.8 476.9 490.7 476.9 490.1 477.6ZM749.4 477.3C748.8 477.9 748.7 479 749.4 479.7C749.7 480 750.1 480.2 750.6 480.2C751 480.2 751.4 480 751.7 479.7C752.4 479.1 752.5 478 751.8 477.4C751.2 476.7 750.1 476.6 749.4 477.3ZM501.1 466.8C500.4 467.4 500.4 468.5 501 469.2C501.3 469.6 501.8 469.8 502.3 469.8C502.7 469.8 503.1 469.6 503.4 469.3C504.1 468.7 504.1 467.6 503.5 466.9C502.9 466.3 501.8 466.2 501.1 466.8ZM738.4 466.7C737.8 467.4 737.8 468.5 738.5 469.1C738.8 469.4 739.2 469.5 739.6 469.5C740.1 469.5 740.6 469.3 740.9 469C741.5 468.3 741.5 467.2 740.8 466.6C740.1 466 739 466 738.4 466.7ZM513 457C512.3 457.6 512.1 458.6 512.7 459.4C513 459.8 513.5 460 514.1 460C514.4 460 514.8 459.9 515.1 459.7C515.8 459.1 516 458.1 515.4 457.3C514.8 456.6 513.8 456.4 513 457ZM726.5 457.1C725.9 457.9 726.1 458.9 726.8 459.5C727.134 459.7 727.467 459.8 727.8 459.8C728.3 459.8 728.8 459.6 729.2 459.2C729.7 458.4 729.6 457.3 728.8 456.8C728.1 456.2 727.1 456.4 726.5 457.1ZM525.7 448.2C524.9 448.7 524.7 449.8 525.2 450.6C525.5 451.1 526.1 451.4 526.6 451.4C526.934 451.4 527.234 451.3 527.5 451.1C528.3 450.6 528.6 449.6 528.1 448.8C527.6 448 526.5 447.7 525.7 448.2ZM713.8 448.6C713.3 449.4 713.5 450.4 714.3 450.9C714.634 451.1 714.934 451.2 715.2 451.2C715.8 451.2 716.3 450.9 716.7 450.4C717.2 449.6 716.9 448.5 716.1 448C715.3 447.5 714.3 447.8 713.8 448.6ZM539.1 440.6C538.3 441 538 442 538.4 442.9C538.7 443.4 539.3 443.8 539.9 443.8C540.167 443.8 540.434 443.733 540.7 443.6C541.5 443.2 541.8 442.2 541.4 441.3C541 440.5 540 440.2 539.1 440.6ZM700.4 441.2C700 442 700.3 443 701.2 443.4C701.4 443.533 701.633 443.6 701.9 443.6C702.5 443.6 703.1 443.3 703.4 442.7C703.9 441.9 703.5 440.8 702.7 440.4C701.9 440 700.9 440.3 700.4 441.2ZM553.1 434.1C552.3 434.5 551.9 435.5 552.2 436.3C552.5 437 553.1 437.4 553.8 437.4C554 437.4 554.2 437.367 554.4 437.3C555.3 436.9 555.7 435.9 555.3 435.1C555 434.2 554 433.8 553.1 434.1ZM686.5 434.9C686.1 435.8 686.5 436.8 687.4 437.1C687.6 437.167 687.8 437.2 688 437.2C688.7 437.2 689.3 436.8 689.6 436.2C689.9 435.3 689.5 434.3 688.7 434C687.8 433.6 686.8 434 686.5 434.9ZM567.7 428.9C566.8 429.2 566.3 430.1 566.6 431C566.8 431.8 567.5 432.2 568.2 432.2C568.334 432.2 568.5 432.167 568.7 432.1C569.6 431.9 570.1 430.9 569.8 430C569.5 429.1 568.6 428.6 567.7 428.9ZM672 429.9C671.7 430.8 672.2 431.7 673.1 432C673.3 432.067 673.467 432.1 673.6 432.1C674.3 432.1 675 431.6 675.2 430.9C675.5 430 675 429.1 674.1 428.8C673.2 428.5 672.3 429 672 429.9ZM582.6 425C581.7 425.2 581.1 426.1 581.3 427C581.5 427.8 582.2 428.3 583 428.3H583.3C584.2 428.1 584.8 427.2 584.6 426.3C584.4 425.3 583.5 424.8 582.6 425ZM657.2 426.2C657 427.1 657.6 428 658.5 428.2H658.8C659.6 428.2 660.3 427.7 660.5 426.9C660.7 426 660.1 425.1 659.2 424.9C658.3 424.7 657.4 425.3 657.2 426.2ZM597.8 422.3C596.9 422.4 596.2 423.3 596.3 424.2C596.5 425.1 597.2 425.7 598 425.7H598.2C599.2 425.5 599.8 424.7 599.7 423.8C599.6 422.9 598.7 422.2 597.8 422.3ZM642.1 423.7C642 424.7 642.6 425.5 643.6 425.6H643.8C644.6 425.6 645.3 425 645.4 424.2C645.6 423.2 644.9 422.4 644 422.3C643 422.1 642.2 422.8 642.1 423.7ZM613.2 421C612.2 421 611.5 421.8 611.6 422.8C611.6 423.7 612.3 424.4 613.2 424.4H613.3C614.2 424.3 615 423.5 614.9 422.6C614.9 421.7 614.1 420.9 613.2 421ZM628.6 421C627.7 420.9 626.9 421.7 626.8 422.6C626.8 423.5 627.5 424.3 628.5 424.4V424.3C629.4 424.4 630.2 423.7 630.2 422.7C630.3 421.8 629.5 421 628.6 421Z" fill="#219D80"/>
<path fill-rule="evenodd" clip-rule="evenodd" d="M770.726 472.682C770.673 472.547 770.598 472.418 770.5 472.3C769.9 471.7 769 471.6 768.4 472.2C767.8 472.7 767.7 473.6 768.3 474.2C768.5 474.5 769 474.7 769.4 474.7C769.594 474.7 769.789 474.658 769.983 474.574L770.726 472.682ZM621.1 796.9H621.3H621.6C622.4 796.9 623 796.2 623 795.4C623 794.6 622.4 794 621.6 794H621.3H621.1C620.3 794 619.6 794.6 619.6 795.4C619.6 796.2 620.3 796.9 621.1 796.9ZM604.3 794.7C604.3 795.5 604.9 796.2 605.7 796.3H605.8C606.5 796.3 607.2 795.7 607.2 795C607.3 794.2 606.7 793.5 605.9 793.4C605.1 793.3 604.4 793.9 604.3 794.7ZM636.8 793.4C636 793.4 635.4 794.1 635.4 794.9C635.5 795.7 636.1 796.3 636.9 796.3H637C637.8 796.2 638.4 795.5 638.3 794.7C638.3 793.9 637.5 793.3 636.8 793.4ZM589.1 792.8C589 793.6 589.5 794.4 590.3 794.5H590.6C591.3 794.5 591.9 794 592 793.3C592.1 792.5 591.6 791.8 590.8 791.6C590 791.5 589.3 792.1 589.1 792.8ZM574.1 789.8C573.9 790.5 574.4 791.3 575.2 791.5H575.5C576.2 791.5 576.8 791.1 576.9 790.4C577.1 789.7 576.6 788.9 575.9 788.7C575.1 788.5 574.3 789 574.1 789.8ZM559.4 785.5C559.2 786.3 559.6 787.1 560.3 787.3C560.434 787.367 560.6 787.4 560.8 787.4C561.4 787.4 562 787 562.2 786.4C562.4 785.6 562 784.8 561.2 784.6C560.5 784.3 559.6 784.7 559.4 785.5ZM545.1 780.1C544.8 780.8 545.1 781.7 545.8 782C546 782.067 546.2 782.1 546.4 782.1C547 782.1 547.5 781.7 547.7 781.2C548 780.5 547.7 779.6 547 779.3C546.2 779 545.4 779.3 545.1 780.1ZM531.2 773.5C530.8 774.3 531.1 775.1 531.8 775.5C532 775.633 532.234 775.7 532.5 775.7C533 775.7 533.5 775.4 533.8 774.9C534.1 774.1 533.8 773.3 533.1 772.9C532.4 772.5 531.5 772.8 531.2 773.5ZM517.9 765.9C517.5 766.6 517.7 767.5 518.3 767.9C518.6 768.1 518.8 768.1 519.1 768.1C519.6 768.1 520.1 767.9 520.3 767.5C520.8 766.8 520.5 765.9 519.9 765.5C519.2 765.1 518.3 765.3 517.9 765.9ZM505.2 757.3C504.7 758 504.9 758.9 505.5 759.3C505.767 759.5 506.067 759.6 506.4 759.6C506.8 759.6 507.2 759.4 507.5 759C508 758.4 507.9 757.5 507.2 757C506.6 756.5 505.7 756.7 505.2 757.3ZM493.2 747.7C492.7 748.4 492.8 749.3 493.4 749.8C493.667 750 493.967 750.1 494.3 750.1C494.7 750.1 495.1 750 495.4 749.6C495.9 749 495.9 748.1 495.3 747.6C494.6 747.1 493.7 747.1 493.2 747.7ZM482 737.3C481.5 737.8 481.5 738.7 482 739.3C482.3 739.6 482.7 739.7 483.1 739.7C483.4 739.7 483.8 739.6 484.1 739.3C484.7 738.7 484.7 737.8 484.1 737.3C483.5 736.7 482.6 736.7 482 737.3ZM471.7 725.9C471.1 726.4 471.1 727.4 471.6 728C471.8 728.3 472.2 728.5 472.7 728.5C473.034 728.5 473.334 728.367 473.6 728.1C474.2 727.6 474.3 726.7 473.8 726.1C473.3 725.5 472.3 725.4 471.7 725.9ZM462.3 713.8C461.7 714.3 461.5 715.2 462 715.8C462.3 716.2 462.7 716.4 463.2 716.4C463.467 716.467 463.734 716.4 464 716.2C464.7 715.7 464.8 714.8 464.3 714.1C463.9 713.5 463 713.4 462.3 713.8ZM453.9 701C453.2 701.5 453 702.3 453.4 703C453.7 703.5 454.2 703.7 454.7 703.7C454.9 703.7 455.2 703.6 455.4 703.5C456.1 703.1 456.3 702.2 455.9 701.5C455.5 700.8 454.6 700.6 453.9 701ZM446.5 687.6C445.8 688 445.5 688.9 445.9 689.6C446.1 690.1 446.6 690.4 447.1 690.4C447.367 690.4 447.6 690.333 447.8 690.2C448.5 689.8 448.8 689 448.4 688.3C448.1 687.5 447.2 687.3 446.5 687.6ZM440.2 673.7C439.4 674 439.1 674.8 439.4 675.6C439.6 676.1 440.2 676.5 440.7 676.5C440.9 676.5 441.1 676.467 441.3 676.4C442 676 442.4 675.2 442.1 674.5C441.7 673.7 440.9 673.4 440.2 673.7ZM435 659.3C434.2 659.5 433.8 660.3 434 661.1C434.2 661.7 434.8 662.1 435.4 662.1C435.534 662.1 435.7 662.067 435.9 662C436.6 661.8 437 661 436.8 660.2C436.5 659.4 435.7 659 435 659.3ZM430.9 644.5C430.2 644.7 429.7 645.5 429.8 646.3C430 646.9 430.6 647.4 431.3 647.4C431.367 647.333 431.467 647.3 431.6 647.3C432.4 647.1 432.9 646.3 432.7 645.6C432.5 644.8 431.7 644.3 430.9 644.5ZM428 629.4C427.3 629.6 426.7 630.3 426.9 631.1C427 631.8 427.6 632.3 428.3 632.3H428.5C429.3 632.2 429.8 631.4 429.7 630.6C429.6 629.9 428.8 629.3 428 629.4ZM426.4 614.2C425.6 614.3 425 615 425 615.8C425.1 616.5 425.7 617.1 426.5 617.1H426.6C427.4 617 428 616.3 427.9 615.6C427.9 614.7 427.2 614.2 426.4 614.2ZM425.9 598.9C425.1 598.9 424.4 599.5 424.4 600.4C424.4 601.1 425.1 601.8 425.9 601.8C426.7 601.8 427.3 601.1 427.3 600.4C427.3 599.5 426.7 598.9 425.9 598.9ZM425 584.9C425 585.7 425.6 586.4 426.4 586.5H426.5C427.2 586.5 427.9 585.9 427.9 585.2C428 584.4 427.4 583.6 426.6 583.6C425.8 583.5 425.1 584.1 425 584.9ZM426.8 569.6C426.7 570.4 427.2 571.1 428 571.2C428.067 571.267 428.134 571.3 428.2 571.3C428.9 571.3 429.6 570.8 429.7 570C429.8 569.3 429.2 568.5 428.5 568.4C427.7 568.3 426.9 568.8 426.8 569.6ZM429.8 554.5C429.6 555.2 430.1 556 430.9 556.2H431.2C431.8 556.2 432.4 555.8 432.6 555.1C432.8 554.3 432.3 553.6 431.5 553.4C430.7 553.2 430 553.7 429.8 554.5ZM434 539.6C433.7 540.4 434.1 541.2 434.9 541.4C435.034 541.467 435.167 541.5 435.3 541.5C435.9 541.5 436.5 541.1 436.7 540.5C437 539.7 436.5 538.9 435.8 538.7C435 538.4 434.2 538.8 434 539.6ZM439.3 525.1C439 525.8 439.4 526.7 440.1 527C440.3 527.067 440.467 527.1 440.6 527.1C441.2 527.1 441.7 526.8 442 526.2C442.3 525.5 441.9 524.6 441.2 524.3C440.5 524 439.6 524.3 439.3 525.1ZM445.8 511C445.4 511.8 445.7 512.6 446.4 513C446.6 513.133 446.834 513.2 447.1 513.2C447.6 513.2 448.1 512.9 448.3 512.4C448.7 511.6 448.4 510.8 447.7 510.4C447 510.1 446.1 510.4 445.8 511ZM453.3 497.6C452.9 498.3 453.1 499.1 453.8 499.6C454.067 499.733 454.334 499.8 454.6 499.8C455 499.8 455.5 499.5 455.8 499.1C456.2 498.4 456 497.5 455.3 497.1C454.6 496.7 453.7 496.9 453.3 497.6ZM461.9 484.8C461.4 485.4 461.6 486.3 462.2 486.8C462.467 486.933 462.767 487 463.1 487C463.5 487 464 486.8 464.2 486.4C464.7 485.8 464.6 484.9 463.9 484.4C463.3 484 462.4 484.1 461.9 484.7V484.8ZM471.5 472.6C470.9 473.2 471 474.1 471.6 474.7C471.934 474.9 472.267 475 472.6 475C473 475 473.4 474.8 473.7 474.5C474.2 473.9 474.1 473 473.5 472.4C472.9 471.9 472 472 471.5 472.6ZM481.9 461.3C481.4 461.8 481.4 462.8 481.9 463.3C482.2 463.6 482.6 463.7 483 463.7C483.3 463.7 483.7 463.6 484 463.3C484.6 462.8 484.6 461.8 484 461.3C483.4 460.7 482.5 460.7 481.9 461.3ZM757.9 461C757.4 461.6 757.4 462.5 757.9 463C758.2 463.3 758.6 463.5 758.9 463.5C759.3 463.5 759.7 463.3 760 463C760.5 462.5 760.5 461.6 760 461C759.4 460.4 758.5 460.4 757.9 461ZM493.3 450.8C492.7 451.3 492.6 452.2 493.1 452.8C493.4 453.2 493.8 453.3 494.2 453.3C494.534 453.3 494.834 453.2 495.1 453C495.7 452.5 495.8 451.5 495.3 450.9C494.8 450.3 493.9 450.3 493.3 450.8ZM746.6 450.7C746.1 451.3 746.1 452.2 746.7 452.7C747 453 747.3 453.1 747.7 453.1C748.1 453.1 748.5 452.9 748.8 452.6C749.3 452 749.2 451 748.6 450.5C748 450 747.1 450.1 746.6 450.7ZM505.4 441.2C504.7 441.7 504.6 442.6 505 443.2C505.3 443.6 505.8 443.8 506.2 443.8C506.5 443.8 506.8 443.7 507.1 443.5C507.7 443.1 507.9 442.2 507.4 441.5C506.9 440.9 506 440.7 505.4 441.2ZM734.5 441.3C734 441.9 734.1 442.8 734.8 443.3C735.067 443.5 735.334 443.6 735.6 443.6C736.1 443.6 736.5 443.4 736.8 443C737.3 442.3 737.1 441.4 736.5 441C735.8 440.5 734.9 440.6 734.5 441.3ZM518.2 432.6C517.5 433 517.3 433.9 517.7 434.6C518 435.1 518.5 435.3 519 435.3C519.2 435.3 519.5 435.2 519.7 435.1C520.4 434.6 520.6 433.8 520.2 433.1C519.8 432.4 518.9 432.2 518.2 432.6ZM721.6 432.9C721.2 433.5 721.4 434.4 722.1 434.9C722.367 435.033 722.634 435.1 722.9 435.1C723.4 435.1 723.8 434.8 724.1 434.4C724.5 433.7 724.3 432.8 723.6 432.4C723 432 722.1 432.2 721.6 432.9ZM531.6 425C530.9 425.4 530.6 426.3 531 427C531.3 427.5 531.8 427.8 532.3 427.8C532.5 427.8 532.734 427.733 533 427.6C533.7 427.3 533.9 426.4 533.6 425.7C533.2 425 532.3 424.7 531.6 425.1V425ZM708.2 425.5C707.9 426.2 708.1 427.1 708.8 427.4C709.067 427.533 709.3 427.6 709.5 427.6C710 427.6 710.5 427.3 710.8 426.8C711.2 426.1 710.9 425.2 710.1 424.8C709.4 424.5 708.6 424.8 708.2 425.5ZM545.6 418.6C544.9 418.9 544.6 419.7 544.8 420.5C545.1 421 545.6 421.4 546.2 421.4C546.4 421.4 546.6 421.333 546.8 421.2C547.5 420.9 547.8 420.1 547.5 419.4C547.2 418.6 546.4 418.3 545.6 418.6ZM694.2 419.2C693.9 419.9 694.3 420.8 695 421.1C695.2 421.167 695.4 421.2 695.6 421.2C696.1 421.2 696.7 420.8 696.9 420.3C697.2 419.5 696.9 418.7 696.1 418.4C695.4 418.1 694.5 418.4 694.2 419.2ZM560.1 413.2C559.3 413.5 558.9 414.3 559.2 415C559.4 415.6 559.9 416 560.6 416H561C561.8 415.7 562.2 414.9 561.9 414.1C561.7 413.4 560.9 413 560.1 413.2ZM679.8 414C679.6 414.8 680 415.6 680.7 415.8C680.834 415.867 681 415.9 681.2 415.9C681.8 415.9 682.3 415.5 682.5 414.9C682.8 414.1 682.4 413.3 681.6 413.1C680.9 412.8 680 413.2 679.8 414ZM575 409C574.2 409.2 573.7 410 573.9 410.8C574.1 411.4 574.6 411.9 575.3 411.9C575.434 411.9 575.534 411.867 575.6 411.8C576.4 411.7 576.9 410.9 576.7 410.1C576.5 409.3 575.7 408.8 575 409ZM665 410C664.8 410.7 665.3 411.5 666.1 411.7C666.167 411.767 666.267 411.8 666.4 411.8C667.1 411.8 667.7 411.3 667.8 410.6C668 409.9 667.5 409.1 666.7 408.9C666 408.7 665.2 409.2 665 410ZM590.1 406C589.3 406.1 588.8 406.9 588.9 407.7C589 408.4 589.6 408.9 590.3 408.9H590.6C591.3 408.7 591.9 408 591.7 407.2C591.6 406.4 590.9 405.9 590.1 406ZM650 407.1C649.8 407.9 650.4 408.7 651.2 408.8H651.4C652.1 408.8 652.7 408.3 652.8 407.6C652.9 406.8 652.4 406.1 651.6 405.9C650.8 405.8 650.1 406.3 650 407.1ZM605.4 404.2C604.6 404.2 604 404.9 604.1 405.7C604.2 406.5 604.8 407.1 605.5 407.1H605.7C606.4 407 607 406.3 607 405.5C606.9 404.7 606.2 404.1 605.4 404.2ZM634.7 405.5C634.7 406.3 635.3 407 636 407H636.2C636.9 407 637.5 406.5 637.6 405.7C637.7 404.9 637.1 404.2 636.3 404.1C635.5 404.1 634.8 404.7 634.7 405.5ZM620.8 403.6C620.1 403.6 619.4 404.2 619.4 405C619.4 405.8 620.1 406.5 620.8 406.5C621.7 406.5 622.3 405.8 622.3 405C622.3 404.2 621.7 403.6 620.8 403.6Z" fill="#219D80"/>
<path fill-rule="evenodd" clip-rule="evenodd" d="M777.477 455.491C777.341 455.54 777.213 455.61 777.1 455.7C776.701 456.019 776.621 456.593 776.858 457.066L777.477 455.491ZM637.697 811.401C637.476 811.215 637.188 811.1 636.9 811.1C636.2 811.2 635.7 811.8 635.7 812.4C635.792 813.044 636.223 813.519 636.837 813.591L637.697 811.401ZM621.1 811.7C620.4 811.7 619.9 812.3 619.9 812.9C619.9 813.6 620.4 814.1 621.1 814.1H621.3H621.6C622.3 814.1 622.8 813.6 622.8 812.9C622.8 812.2 622.3 811.7 621.6 811.7H621.3H621.1ZM604.5 812.3C604.5 813 605 813.5 605.7 813.6C606.4 813.6 606.9 813.1 607 812.5C607 811.8 606.5 811.2 605.8 811.2C605.2 811.1 604.6 811.6 604.5 812.3ZM589.3 810.6C589.2 811.2 589.6 811.8 590.3 811.9H590.5C591.1 811.9 591.6 811.5 591.7 810.9C591.8 810.3 591.3 809.6 590.6 809.5C590 809.5 589.4 809.9 589.3 810.6ZM574.2 807.8C574.1 808.4 574.5 809 575.1 809.2H575.4C575.9 809.2 576.4 808.8 576.6 808.3C576.7 807.6 576.3 807 575.6 806.8C575 806.7 574.3 807.1 574.2 807.8ZM559.4 803.8C559.2 804.5 559.5 805.1 560.2 805.3C560.267 805.367 560.367 805.4 560.5 805.4C561 805.4 561.5 805 561.7 804.5C561.8 803.9 561.5 803.2 560.9 803C560.2 802.8 559.5 803.2 559.4 803.8ZM544.8 798.9C544.6 799.5 544.9 800.2 545.5 800.4C545.634 800.467 545.8 800.5 546 800.5C546.4 800.5 546.9 800.2 547.1 799.7C547.3 799.1 547 798.4 546.4 798.1C545.8 797.9 545.1 798.2 544.8 798.9ZM530.7 792.8C530.4 793.4 530.7 794.1 531.3 794.4C531.434 794.467 531.6 794.5 531.8 794.5C532.2 794.5 532.7 794.3 532.9 793.8C533.2 793.2 532.9 792.5 532.3 792.2C531.7 792 531 792.2 530.7 792.8ZM517 785.8C516.7 786.4 516.9 787.1 517.5 787.4C517.7 787.5 517.9 787.6 518.1 787.6C518.5 787.6 518.9 787.3 519.1 787C519.5 786.4 519.2 785.6 518.7 785.3C518.1 785 517.4 785.2 517 785.8ZM503.9 777.8C503.6 778.3 503.7 779.1 504.3 779.5C504.5 779.567 504.7 779.6 504.9 779.6C505.3 779.6 505.7 779.5 505.9 779.1C506.3 778.5 506.1 777.8 505.6 777.4C505 777.1 504.3 777.2 503.9 777.8ZM491.4 768.8C491 769.4 491.1 770.1 491.7 770.5C491.9 770.7 492.134 770.8 492.4 770.8C492.7 770.8 493.1 770.6 493.3 770.3C493.7 769.8 493.6 769 493.1 768.6C492.6 768.2 491.8 768.3 491.4 768.8ZM479.6 759C479.2 759.5 479.2 760.3 479.7 760.7C479.9 761 480.2 761 480.5 761C480.8 761 481.2 760.9 481.4 760.6C481.8 760.1 481.8 759.4 481.3 758.9C480.8 758.5 480 758.5 479.6 759ZM468.5 748.4C468 748.9 468 749.6 468.5 750.1C468.7 750.4 469 750.5 469.4 750.5C469.667 750.5 469.934 750.367 470.2 750.1C470.7 749.7 470.7 748.9 470.2 748.4C469.7 748 469 747.9 468.5 748.4ZM458.2 737C457.7 737.5 457.6 738.2 458.1 738.7C458.367 739.033 458.667 739.2 459 739.2C459.3 739.2 459.6 739.1 459.8 738.9C460.3 738.5 460.3 737.7 459.9 737.2C459.5 736.7 458.7 736.6 458.2 737ZM448.7 725C448.2 725.4 448.1 726.1 448.5 726.6C448.7 727 449.1 727.1 449.5 727.1C449.7 727.1 449.934 727.033 450.2 726.9C450.7 726.5 450.8 725.7 450.4 725.2C450 724.7 449.3 724.6 448.7 725ZM440.2 712.2C439.6 712.6 439.5 713.3 439.8 713.9C440 714.2 440.4 714.4 440.8 714.4C441.067 714.4 441.3 714.333 441.5 714.2C442.1 713.9 442.2 713.2 441.9 712.6C441.5 712 440.8 711.9 440.2 712.2ZM432.6 698.9C432 699.2 431.8 699.9 432.1 700.5C432.3 700.9 432.7 701.2 433.2 701.2C433.4 701.2 433.567 701.133 433.7 701C434.3 700.7 434.5 700 434.2 699.4C433.9 698.8 433.2 698.6 432.6 698.9ZM426 685.1C425.3 685.3 425.1 686 425.3 686.6C425.5 687.1 426 687.4 426.4 687.4C426.6 687.4 426.767 687.367 426.9 687.3C427.5 687 427.8 686.3 427.5 685.7C427.3 685.1 426.6 684.8 426 685.1ZM420.3 670.8C419.7 671 419.4 671.7 419.6 672.3C419.8 672.8 420.3 673.1 420.8 673.1H421.2C421.8 672.8 422.1 672.1 421.9 671.5C421.7 670.9 421 670.5 420.3 670.8ZM415.8 656.1C415.2 656.3 414.8 657 415 657.6C415.1 658.1 415.6 658.5 416.1 658.5C416.234 658.5 416.367 658.467 416.5 658.4C417.1 658.3 417.5 657.6 417.3 657C417.1 656.3 416.4 655.9 415.8 656.1ZM412.3 641.2C411.7 641.3 411.2 641.9 411.4 642.6C411.5 643.1 412 643.6 412.6 643.6C412.667 643.533 412.734 643.5 412.8 643.5C413.4 643.4 413.9 642.8 413.7 642.1C413.6 641.5 413 641 412.3 641.2ZM409.9 626C409.3 626.1 408.8 626.7 408.9 627.3C409 627.9 409.5 628.4 410.1 628.4H410.2C410.9 628.3 411.4 627.7 411.3 627C411.2 626.4 410.6 625.9 409.9 626ZM408.6 610.7C408 610.7 407.5 611.3 407.5 612C407.5 612.6 408.1 613.1 408.7 613.1H408.8C409.4 613.1 410 612.5 409.9 611.8C409.9 611.2 409.3 610.7 408.6 610.7ZM407.2 596.5C407.2 597.2 407.7 597.7 408.4 597.8C409.1 597.8 409.6 597.2 409.6 596.6C409.6 595.9 409.1 595.4 408.4 595.3C407.8 595.3 407.2 595.9 407.2 596.5ZM408 581.1C408 581.8 408.5 582.4 409.1 582.4H409.2C409.8 582.4 410.4 582 410.4 581.3C410.5 580.7 410 580.1 409.3 580C408.7 579.9 408.1 580.4 408 581.1ZM410 565.8C409.8 566.4 410.3 567.1 410.9 567.2H411.1C411.7 567.2 412.2 566.8 412.3 566.2C412.4 565.5 412 564.9 411.3 564.8C410.7 564.7 410 565.1 410 565.8ZM413 550.7C412.8 551.3 413.2 552 413.8 552.1H414.1C414.7 552.1 415.2 551.8 415.3 551.2C415.5 550.6 415.1 549.9 414.4 549.8C413.8 549.6 413.1 550 413 550.7ZM417.1 535.8C416.9 536.4 417.2 537.1 417.9 537.3H418.2C418.7 537.3 419.2 537 419.4 536.5C419.6 535.9 419.2 535.2 418.6 535C418 534.8 417.3 535.1 417.1 535.8ZM422.3 521.2C422 521.8 422.3 522.5 422.9 522.8C423.1 522.867 423.267 522.9 423.4 522.9C423.9 522.9 424.3 522.6 424.5 522.1C424.7 521.5 424.5 520.8 423.8 520.5C423.2 520.3 422.5 520.6 422.3 521.2ZM428.5 507.1C428.2 507.7 428.5 508.4 429.1 508.7C429.234 508.767 429.4 508.8 429.6 508.8C430 508.8 430.5 508.5 430.7 508.1C431 507.5 430.7 506.8 430.1 506.5C429.5 506.2 428.8 506.5 428.5 507.1ZM435.7 493.4C435.4 494 435.6 494.7 436.2 495.1C436.4 495.167 436.6 495.2 436.8 495.2C437.2 495.2 437.6 495 437.8 494.6C438.2 494 438 493.3 437.4 493C436.8 492.6 436.1 492.8 435.7 493.4ZM443.9 480.3C443.6 480.9 443.7 481.6 444.3 482C444.5 482.1 444.7 482.2 444.9 482.2C445.3 482.2 445.7 482 445.9 481.7C446.3 481.1 446.2 480.4 445.6 480C445.1 479.6 444.3 479.8 443.9 480.3ZM453.1 467.9C452.7 468.4 452.7 469.1 453.3 469.6C453.5 469.733 453.734 469.8 454 469.8C454.4 469.8 454.7 469.6 455 469.3C455.4 468.8 455.3 468.1 454.8 467.6C454.2 467.2 453.5 467.3 453.1 467.9ZM463.1 456.1C462.6 456.6 462.7 457.3 463.1 457.8C463.367 458 463.667 458.1 464 458.1C464.3 458.1 464.6 458 464.8 457.7H464.9C465.3 457.2 465.3 456.5 464.8 456C464.3 455.5 463.5 455.6 463.1 456.1ZM473.9 445C473.4 445.5 473.4 446.3 473.8 446.8C474.067 447 474.367 447.1 474.7 447.1C475 447.1 475.3 447 475.5 446.8C476 446.3 476 445.6 475.6 445.1C475.1 444.6 474.4 444.6 473.9 445ZM766.3 444.8C765.8 445.3 765.8 446.1 766.3 446.5C766.6 446.7 766.9 446.8 767.2 446.8C767.534 446.8 767.8 446.7 768 446.5C768.5 446 768.5 445.2 768 444.8C767.5 444.3 766.7 444.3 766.3 444.8ZM485.5 434.8C484.9 435.3 484.9 436 485.3 436.5C485.5 436.8 485.9 437 486.2 437C486.467 437 486.734 436.9 487 436.7C487.5 436.3 487.6 435.5 487.2 435C486.7 434.5 486 434.4 485.5 434.8ZM754.7 434.7C754.3 435.2 754.3 436 754.9 436.4C755.1 436.6 755.334 436.7 755.6 436.7C756 436.7 756.3 436.6 756.6 436.3C757 435.7 756.9 435 756.4 434.6C755.9 434.1 755.1 434.2 754.7 434.7ZM497.7 425.5C497.2 425.9 497.1 426.6 497.4 427.1C497.7 427.5 498.1 427.7 498.4 427.7C498.667 427.7 498.9 427.633 499.1 427.5C499.7 427 499.8 426.3 499.4 425.8C499 425.2 498.3 425.1 497.7 425.5ZM742.4 425.5C742 426.1 742.2 426.8 742.7 427.2C742.9 427.4 743.2 427.4 743.4 427.4C743.8 427.4 744.1 427.2 744.4 426.9C744.8 426.4 744.6 425.6 744.1 425.2C743.5 424.8 742.8 425 742.4 425.5ZM510.6 417C510.1 417.4 509.9 418.1 510.2 418.7C510.5 419.1 510.9 419.3 511.3 419.3C511.5 419.3 511.7 419.233 511.9 419.1C512.5 418.8 512.6 418 512.3 417.4C512 416.9 511.2 416.7 510.6 417ZM729.5 417.2C729.2 417.8 729.3 418.5 729.9 418.9C730.1 418.967 730.3 419 730.5 419C730.9 419 731.3 418.8 731.6 418.4C731.9 417.9 731.7 417.1 731.2 416.8C730.6 416.5 729.8 416.6 729.5 417.2ZM524.1 409.5C523.5 409.8 523.3 410.6 523.6 411.2C523.8 411.6 524.2 411.8 524.7 411.8C524.9 411.8 525.067 411.767 525.2 411.7C525.8 411.4 526.1 410.6 525.8 410.1C525.5 409.5 524.7 409.2 524.1 409.5ZM716 409.8C715.7 410.4 715.9 411.2 716.5 411.5C716.7 411.567 716.9 411.6 717.1 411.6C717.5 411.6 717.9 411.4 718.2 410.9C718.4 410.3 718.2 409.6 717.6 409.3C717 409 716.3 409.3 716 409.8ZM538.1 403C537.5 403.3 537.2 404 537.5 404.6C537.7 405.1 538.1 405.3 538.6 405.3C538.734 405.3 538.9 405.267 539.1 405.2C539.7 405 540 404.3 539.7 403.7C539.4 403 538.8 402.8 538.1 403ZM702 403.5C701.8 404.1 702 404.8 702.7 405.1C702.834 405.167 702.967 405.2 703.1 405.2C703.6 405.2 704.1 404.9 704.2 404.4C704.5 403.8 704.2 403.1 703.6 402.8C703 402.6 702.3 402.9 702 403.5ZM552.5 397.6C551.9 397.8 551.6 398.5 551.8 399.1C552 399.6 552.4 399.9 552.9 399.9C553.034 399.9 553.167 399.867 553.3 399.8C554 399.6 554.3 399 554.1 398.3C553.9 397.7 553.2 397.4 552.5 397.6ZM687.6 398.1C687.4 398.8 687.7 399.5 688.4 399.7C688.533 399.767 688.634 399.767 688.7 399.7C689.2 399.7 689.7 399.4 689.9 398.9C690.1 398.3 689.8 397.6 689.1 397.4C688.5 397.2 687.8 397.5 687.6 398.1ZM567.3 393.2C566.7 393.3 566.3 394 566.5 394.6C566.6 395.2 567.1 395.5 567.7 395.5H568C568.6 395.3 569 394.7 568.8 394C568.7 393.4 568 393 567.3 393.2ZM672.8 393.9C672.7 394.5 673.1 395.2 673.7 395.4H674C674.6 395.4 675 395 675.2 394.5C675.3 393.8 675 393.2 674.3 393C673.7 392.9 673 393.2 672.8 393.9ZM582.4 389.8C581.8 389.9 581.3 390.6 581.5 391.2C581.6 391.8 582.1 392.2 582.6 392.2H582.9C583.5 392.1 584 391.5 583.8 390.8C583.7 390.1 583.1 389.7 582.4 389.8ZM657.8 390.7C657.7 391.4 658.1 392 658.8 392.1H659C659.6 392.1 660.1 391.7 660.2 391.1C660.3 390.5 659.9 389.9 659.2 389.7C658.6 389.6 657.9 390.1 657.8 390.7ZM597.7 387.6C597 387.7 596.6 388.3 596.6 388.9C596.7 389.6 597.2 390 597.8 390H598C598.6 389.9 599.1 389.3 599 388.7C599 388 598.4 387.5 597.7 387.6ZM642.6 388.6C642.5 389.3 643 389.9 643.7 389.9L643.8 390C644.4 390 644.9 389.5 645 388.9C645.1 388.2 644.6 387.6 643.9 387.6C643.3 387.5 642.7 388 642.6 388.6ZM613.1 386.5C612.4 386.5 611.9 387.1 611.9 387.7C612 388.4 612.5 388.9 613.1 388.9H613.2C613.9 388.9 614.4 388.3 614.4 387.7C614.3 387 613.8 386.5 613.1 386.5ZM627.3 387.6C627.3 388.3 627.8 388.9 628.5 388.9C629.1 388.9 629.7 388.4 629.7 387.7C629.7 387.1 629.2 386.5 628.5 386.5C627.9 386.5 627.3 387 627.3 387.6Z" fill="#219D80"/>
<g clip-path="url(#clip0_106_2)">
<path d="M528.064 416.673C529.108 417.786 530.808 417.786 531.867 416.673L548.111 399.498C552.824 394.505 552.556 386.234 547.275 381.632C542.681 377.616 535.835 378.338 531.628 382.79L529.958 384.549L528.302 382.805C524.096 378.338 517.25 377.616 512.655 381.632C507.39 386.234 507.107 394.505 511.82 399.498L528.064 416.673ZM571.32 428.343C569.56 426.734 566.815 426.839 564.966 428.343L551.183 439.457C549.498 440.826 547.395 441.563 545.217 441.563H527.571C526.259 441.563 525.185 440.48 525.185 439.156C525.185 437.833 526.259 436.75 527.571 436.75H539.251C541.622 436.75 543.83 435.111 544.218 432.75C544.71 429.742 542.413 427.125 539.504 427.125H515.639C511.611 427.125 507.718 428.524 504.586 431.08L497.65 436.75H489.387C488.074 436.75 487 437.833 487 439.156V453.594C487 454.917 488.074 456 489.387 456H542.607C544.769 456 546.873 455.263 548.573 453.895L571.126 435.697C573.393 433.878 573.572 430.389 571.32 428.343Z" fill="white" fill-opacity="0.3"/>
</g>
<rect y="2" width="1920" height="831" fill="#D9D9D9"/>
<rect width="1920" height="831" fill="#252A34" fill-opacity="0.7"/>
<path d="M0 2H960L632.5 833H0V2Z" fill="#219D80" fill-opacity="0.55"/>
<path fill-rule="evenodd" clip-rule="evenodd" d="M0 365.349C3.65543 364.804 7.39512 364.522 11.1992 364.522C53.0045 364.522 86.909 398.503 86.909 440.232V830.9H88.1363V440.232C88.1363 397.813 53.6181 363.295 11.1992 363.295C7.39623 363.295 3.65677 363.572 0 364.108V365.349Z" fill="#219D80"/>
<path fill-rule="evenodd" clip-rule="evenodd" d="M0 385.439C3.61942 384.7 7.36496 384.312 11.1995 384.312C42.0357 384.312 67.1955 409.395 67.1955 440.232V830.9H68.3461V440.232C68.3461 408.705 42.726 383.085 11.1995 383.085C7.36724 383.085 3.62228 383.464 0 384.185V385.439Z" fill="#219D80"/>
<path fill-rule="evenodd" clip-rule="evenodd" d="M0 345.383C3.67379 344.953 7.41095 344.731 11.1992 344.731C63.8969 344.731 106.699 387.534 106.699 440.232V830.9H107.927V440.232C107.927 386.92 64.5106 343.581 11.1992 343.581C7.41184 343.581 3.67477 343.8 0 344.225V345.383Z" fill="#219D80"/>
<path fill-rule="evenodd" clip-rule="evenodd" d="M0 325.48C3.68546 325.123 7.42123 324.941 11.199 324.941C74.789 324.941 126.49 376.641 126.49 440.231V830.9H127.64V440.231C127.64 376.028 75.4027 323.79 11.199 323.79C7.42182 323.79 3.6861 323.971 0 324.324V325.48Z" fill="#219D80"/>
<path fill-rule="evenodd" clip-rule="evenodd" d="M0 305.61C3.69332 305.306 7.42828 305.151 11.1988 305.151C85.6813 305.151 146.28 365.749 146.28 440.232V830.9H147.43V440.232C147.43 365.135 86.3716 304 11.1988 304C7.42871 304 3.69378 304.154 0 304.456V305.61Z" fill="#219D80"/>
<path d="M1920 833V592L1876.95 634.974C1857.82 654.119 1857.82 685.162 1876.95 704.308L1877.99 705.313C1880.6 707.915 1880.6 712.146 1877.99 714.782C1875.35 717.384 1871.12 717.384 1868.52 714.782L1810.82 657.137C1801.75 648.084 1787.03 648.084 1777.97 657.137C1768.88 666.19 1768.88 680.896 1777.97 689.948L1861.22 773.156C1863.69 775.584 1863.69 779.538 1861.22 782C1858.79 784.428 1854.84 784.428 1852.37 782L1796.17 725.812C1780.09 709.788 1754.09 709.788 1738.05 725.812C1721.98 741.836 1721.98 767.849 1738.05 783.873L1774.81 820.604L1752.56 823.656L1651.54 722.725C1640.04 711.21 1621.37 711.21 1609.84 722.725C1598.35 734.24 1598.35 752.9 1609.84 764.381C1615.29 769.826 1639.45 793.966 1642.96 797.469C1645.22 799.724 1645.22 803.4 1642.93 805.69L1642.82 805.794C1640.63 807.979 1637.06 807.979 1634.87 805.794L1624.42 795.354C1611.82 782.763 1591.34 782.763 1578.7 795.354L1558 833" fill="#F3FFFD" fill-opacity="0.2"/>
<defs>
<clipPath id="clip0_106_2">
<rect width="85.9158" height="77" fill="white" transform="translate(487 379)"/>
</clipPath>
</defs>
</svg>
