<?xml version="1.0" encoding="UTF-8"?>
<svg id="Layer_2" data-name="Layer 2" xmlns="http://www.w3.org/2000/svg" viewBox="0 0 335.6 483.55">
  <defs>
    <style>
      .cls-1 {
        fill: #f4b199;
      }

      .cls-2 {
        fill: #a5a5a5;
      }

      .cls-3 {
        fill: #5e5254;
      }

      .cls-4 {
        fill: #f0e7e2;
      }

      .cls-5 {
        fill: #706466;
      }

      .cls-6 {
        fill: #c07d4f;
      }

      .cls-7 {
        fill: #e3d1cf;
      }

      .cls-8 {
        fill: #cfbbb8;
      }

      .cls-9 {
        fill: #f0edf4;
      }

      .cls-10 {
        fill: #a64e4e;
      }

      .cls-11 {
        fill: #ba5a5a;
      }

      .cls-12 {
        fill: #ce807c;
      }

      .cls-13 {
        fill: #e29b86;
      }

      .cls-14 {
        fill: #efac94;
      }

      .cls-15 {
        fill: #d3837c;
      }

      .cls-16 {
        fill: #c48963;
      }

      .cls-17 {
        fill: #cf807b;
      }

      .cls-18 {
        fill: #e59e89;
      }

      .cls-19 {
        fill: #ab663b;
      }

      .cls-20 {
        fill: #f4e7e4;
      }

      .cls-21 {
        fill: #514b4c;
      }

      .cls-22 {
        fill: #d2827b;
      }

      .cls-23 {
        fill: #cecece;
      }

      .cls-24 {
        fill: #cd807b;
      }
    </style>
  </defs>
  <g id="_2" data-name="2">
    <g>
      <g>
        <g>
          <path class="cls-3" d="m34.11,460.2s-1.99,12.81-.75,15.58c1.25,2.77,7.62,2.46,19,2.67,7.78.14,20.47,1.32,21.1-2.93s-16.89-6.92-21.86-12.25l-17.49-3.06Z"/>
          <path class="cls-13" d="m50.95,459.9c.19-7.11,23.89-70.23,29.09-85.37h-31.59s-6.66,10.08-9.29,29.35c-3.73,27.33-3.8,52.07-4.4,58.4-.74,7.81,12.48,11.96,21.64,8.4,6.21-2.41-5.6-5.03-5.45-10.77Z"/>
          <path class="cls-3" d="m34.11,460.2s11.2,3.06,17.15-.2l.89-5.24s-7.53,3.16-17.1.4l-.94,5.04Z"/>
        </g>
        <g>
          <path class="cls-3" d="m69.78,461.19s-1.2,12.96.27,15.76c1.46,2.8,7.98,2.49,19.66,2.7,7.98.15,21.07,1.33,21.44-2.97.36-4.3-15.27-7-22.31-12.39l-19.05-3.1Z"/>
          <path class="cls-1" d="m86.94,460.88c-2.4-7.2-1.14-71.04-1.34-86.36h-32.4s-.7,17.99,2.3,31.78c6,27.62,14.78,51.64,15.69,56.97,1.34,7.8,17.16,12.09,25.26,8.5,5.49-2.44-7.58-5.09-9.52-10.9Z"/>
          <path class="cls-17" d="m70.01,457.2c-.31,0-.59-.22-.64-.54-.3-1.76-1.39-4.98-2.9-9.43-3.04-8.97-7.63-22.52-11.6-40.78-2.98-13.72-2.32-31.77-2.31-31.95.01-.36.32-.65.67-.62.36.01.64.32.62.67,0,.18-.66,18.07,2.28,31.62,3.95,18.19,8.53,31.7,11.56,40.64,1.53,4.51,2.63,7.76,2.95,9.62.06.35-.18.69-.53.75-.04,0-.07,0-.11,0Z"/>
          <path class="cls-3" d="m69.78,461.19s7.81,2.2,17.51-.2l-1-5.3s-8.2,2.7-16.79.4l.27,5.1Z"/>
        </g>
        <path class="cls-4" d="m83.63,118.55c19.38,4.33,26.88,18.83,34.88,36.83s14.67,45.33,3.33,51c-11.33,5.67-23.67-14.33-29.33-30.67s-8.88-57.17-8.88-57.17Z"/>
        <path class="cls-5" d="m99.01,196.55s13.74,20,15,80-.5,113.5-.5,113.5c0,0-22.07,6.67-52.85,6.67s-46.48-11.33-46.48-11.33c0,0,2.04-115.21,4.33-135.83,3-27,10.5-52,10.5-52l70-1Z"/>
        <path class="cls-3" d="m104.03,207.72c-2.77-7.89-5.02-11.17-5.02-11.17l-70,1s-.41,1.37-1.07,3.78c-.07,3.56-.1,5.72-.1,5.72,0,0,24.03,5.75,45.72,5.75,17.08,0,27.02-3.56,30.47-5.08Z"/>
        <path class="cls-3" d="m60.66,397.46c-30.67,0-46.76-11.36-46.92-11.48-.34-.24-.41-.71-.17-1.05.24-.34.71-.41,1.05-.17.16.11,15.9,11.19,46.04,11.19,27.74,0,48.62-5.51,52.12-6.49.18-5.81,1.66-56.83.48-112.91-1.23-58.99-14.73-79.39-14.87-79.59-.23-.34-.15-.81.19-1.04.34-.23.81-.15,1.04.19.57.82,13.88,20.87,15.13,80.41,1.24,59.33-.48,113-.5,113.54-.01.32-.22.6-.53.69-.22.07-22.53,6.7-53.07,6.7Zm52.85-7.42h0,0Z"/>
        <path class="cls-16" d="m85.18,483.55c-1.38,0-2.5-1.12-2.5-2.5v-208.75c0-.8.01-1.68.02-2.62.09-6.95.23-17.45-4.32-21.42-1.65-1.44-3.88-1.93-6.84-1.49-3.31.49-5.67,1.86-7.2,4.17-3.04,4.58-2.05,12.01-1.41,14.49.34,1.34-.46,2.7-1.8,3.04-1.33.34-2.7-.46-3.04-1.8-.12-.45-2.79-11.14,2.08-18.5,2.33-3.51,5.91-5.65,10.63-6.35,4.43-.66,8.08.24,10.86,2.67,6.28,5.49,6.13,17.38,6.03,25.25-.01.91-.02,1.77-.02,2.55v208.75c0,1.38-1.12,2.5-2.5,2.5Z"/>
        <path class="cls-4" d="m65.76,115.3c-7.75-.36-19.75,1.75-26.75,4.5s-8.25,29-8.75,45.75-.75,33.25-.75,33.25c0,0,23,5.5,43.75,5.5s30.5-5.5,30.5-5.5c0,0-2.75-17.25-3.75-26.25s1-19,.75-25.75-6.75-21.75-9.5-24.5-14.75-6.5-25.5-7Z"/>
        <g>
          <path class="cls-8" d="m77.26,141.55s-.07,0-.11,0c-20.77-3-37.28-20.55-37.44-20.73-.28-.3-.26-.78.04-1.06.3-.28.78-.26,1.06.04.16.17,16.08,17.09,36.12,20.2,1.46-1.97,8.5-11.74,11.13-19.19.14-.39.57-.6.96-.46.39.14.6.57.46.96-3,8.51-11.26,19.49-11.61,19.95-.14.19-.37.3-.6.3Z"/>
          <path class="cls-8" d="m44.13,124.42c-.3,0-.58-.18-.7-.47-.15-.38.03-.82.42-.97l7.5-3c.38-.15.82.03.97.42.15.38-.03.82-.42.97l-7.5,3c-.09.04-.19.05-.28.05Z"/>
          <path class="cls-8" d="m49.26,128.55c-.27,0-.53-.15-.67-.4-.19-.37-.05-.82.32-1.01l6.75-3.5c.37-.19.82-.05,1.01.32.19.37.05.82-.32,1.01l-6.75,3.5c-.11.06-.23.08-.34.08Z"/>
          <path class="cls-8" d="m61.01,136.05c-.15,0-.29-.04-.42-.13-.34-.23-.43-.7-.19-1.04l3.88-5.62c.23-.34.7-.43,1.04-.19.34.23.43.7.19,1.04l-3.88,5.62c-.15.21-.38.32-.62.32Z"/>
          <path class="cls-8" d="m77.13,141.17c-.3,0-.59-.18-.7-.48l-2.75-7.25c-.15-.39.05-.82.44-.97.39-.15.82.05.97.43l2.75,7.25c.15.39-.05.82-.44.97-.09.03-.18.05-.27.05Z"/>
          <path class="cls-8" d="m81.26,135.3c-.21,0-.41-.08-.56-.25l-4.12-4.62c-.28-.31-.25-.78.06-1.06.31-.28.78-.25,1.06.06l4.12,4.62c.28.31.25.78-.06,1.06-.14.13-.32.19-.5.19Z"/>
          <path class="cls-8" d="m87.51,124.8c-.09,0-.18-.02-.27-.05l-5.88-2.25c-.39-.15-.58-.58-.43-.97.15-.39.58-.58.97-.43l5.88,2.25c.39.15.58.58.43.97-.11.3-.4.48-.7.48Z"/>
        </g>
        <path class="cls-10" d="m101.95,194.36c-.19,0-.37-.07-.52-.21-2.56-2.42-4.06-5.82-4.13-9.34,0-.41.32-.76.74-.76h.02c.41,0,.74.33.75.74.06,3.07,1.43,6.17,3.67,8.28.3.28.31.76.03,1.06-.15.16-.35.23-.55.23Z"/>
        <path class="cls-13" d="m47.38,117.3s7.88,10.12,27.38,16.87c0,0,6.5-8.5,8.88-15.62,0,0-5.62-3.12-17.12-3.37s-19.12,2.12-19.12,2.12Z"/>
        <path class="cls-20" d="m102.63,70.67c-.65-4.41-3.6-8.49-7.78-10,1.11-2.01,1.04-4.57-.19-6.38s-3.57-2.83-5.83-2.5c.86-4.56-1.22-9.36-5.06-11.69-3.85-2.33-9.25-2.21-13.14.5-2.95-2.94-7.43-4.3-11.71-3.56-4.28.74-8.27,3.67-10.42,7.5-2.76-.32-5.74,1.02-7.43,3.34-1.69,2.31-2.3,5.8-1.08,8.22-4.83.5-9.35,4.25-10.72,8.93s.9,9.5,4.85,12.04c-2.69,2.14-3.45,6.36-2.86,9.64.59,3.29,3.28,6.51,6.07,8.28-.23,4.42,2.2,8.73,6.05,10.72,3.86,1.99,8.96,1.59,12.72-1.01l21.06,3.11c3.62,2.24,8.71,2.04,12.43-.49,3.71-2.53,5.88-7.02,5.22-11.27,2.59-.95,4.68-3.31,5.28-5.96s-.19-5.38-2.17-7.09c3.51-3.07,5.35-7.91,4.7-12.32Z"/>
        <path class="cls-13" d="m68.95,121.55c7.46-.43,11.56-2.5,11.56-2.5-3.52-1.84-.9-16.46-.9-16.46l-19.44-14.91-6.48-1.21c2.34,20.71-.08,26.7-1.44,30.33-.24.54,8.8,5.21,16.69,4.75Z"/>
        <path class="cls-17" d="m61.89,88.99l-7.91.18c.9,9.04.82,15.01.35,19.15,2.78,5.01,10.29,12.49,19.51,12.89,3.29.14,6.25-1.18,8.8-3.13-.75-.32-1.91-.76-3.51-1.2-1.26-4.59.48-14.3.48-14.3l-17.72-13.59Z"/>
        <path class="cls-1" d="m79.41,109.86c-2.45.54-15.4,2.08-22.41-12.37-3.75-7.71-5.87-20.43-4.92-26.3.95-5.87,6.45-24.38,24.84-19.33,0,0,14.38,4.23,14.87,27.68,0,0,1.4,4.2.64,9.03-3.17,20.15-10.61,20.76-13.02,21.29Z"/>
        <path class="cls-20" d="m81.19,49.83c2.62,12.17-17.8,6.21-23.57,24.59-.61,3.42.13,7.66-4.27,8.45l-5.33-5.48s-3.3-12.22,3.81-23.37c7.1-11.13,25.75-13.29,29.37-4.2Z"/>
        <g>
          <path class="cls-20" d="m82.42,73.2c.47,1.07,2.15-.15,5.8.7,1.16.27,2.95.93,3.3.37.37-.61-.22-2.55-3.54-3.12-4.09-.7-6.18.64-5.56,2.05Z"/>
          <path class="cls-20" d="m74.3,73.4c-.15,1.41-2.55.63-6.31,1.66-3.92,1.07-3.87,1.77-4.64,1.13-.4-.32-.3-2.61,4.69-4.13,4.43-1.36,6.43-.08,6.27,1.34Z"/>
        </g>
        <g>
          <path class="cls-22" d="m71.8,101.27c-.16.6.53,1.98,2.28,2.46,1.82.49,3.35-.3,3.51-.89.16-.6-1.25-.35-2.85-.79-1.6-.43-2.78-1.37-2.94-.78Z"/>
          <g>
            <path class="cls-3" d="m69.27,94.1s3.53,1.13,7.39,1.8c3.64.63,6.74.38,6.74.38,0,0-1.33,4.92-7.92,3.67-4.99-.94-6.2-5.85-6.2-5.85Z"/>
            <path class="cls-9" d="m75.53,98.87c3.81.72,4.9-1.42,4.9-1.42,0,0-2.18-.1-4.88-.68-3.44-.73-4.51-1.13-4.51-1.13,0,0,.78,2.52,4.5,3.22Z"/>
          </g>
        </g>
        <path class="cls-15" d="m80.31,74.86s-.05.07-.13.21c-.09.15-.15.26-.26.53-.2.5-.4,1.29-.44,2.27-.05.98.02,2.14.3,3.33.15.59.31,1.21.6,1.78.27.54.62,1.06,1.06,1.53.43.47.93.9,1.44,1.36.51.46,1.05.96,1.43,1.69.2.35.32.76.38,1.17v.02s0,.12,0,.12v.03s0,.06,0,.06v.11s-.02.23-.02.23c-.05.25-.12.54-.23.73-.41.78-1.04,1.15-1.55,1.42-1.07.48-1.96.63-2.59.69-.62.07-1,.06-1,.06-.29,0-.51-.25-.5-.53,0-.24.18-.44.41-.49,0,0,.31-.07.86-.22.54-.16,1.35-.38,2.12-.83.38-.21.72-.5.85-.79.03-.06,0-.08.06-.11v-.22s0-.11,0-.11v-.06s0-.03,0-.03h0s0,.19,0,.09h0c-.03-.22-.07-.42-.19-.63-.43-.86-1.59-1.79-2.46-2.94-.44-.58-.85-1.22-1.13-1.91-.27-.66-.46-1.33-.61-1.98-.29-1.31-.34-2.57-.26-3.64.08-1.07.28-1.96.52-2.58.1-.29.27-.6.34-.72.08-.14.13-.21.13-.21.15-.24.47-.32.71-.16.24.15.32.47.16.71,0,0,0,0,0,0Z"/>
        <path class="cls-1" d="m53.53,82.77s-3.18-6.79-7.18-3.27c-3.48,3.05,1.69,14.57,9.26,11.12-.3-2.97-.83-5.73-2.08-7.85Z"/>
        <path class="cls-22" d="m48.36,86.17c1.05,1.72,2.72,2.39,3.43,1.67.71-.71.43-2.69-.62-4.41-1.05-1.72-2.48-2.54-3.19-1.83-.71.71-.67,2.84.38,4.56Z"/>
        <path class="cls-18" d="m66.78,83.39s4.62.91,6.97-1.89c0,0,0,2.42-2.88,3.1-2.88.68-4.09-1.22-4.09-1.22Z"/>
        <path class="cls-18" d="m83.76,81.18s.31,2.16,2.14,2.58c1.83.42,3.07-.46,3.07-.46,0,0-1.94-.17-2.95-.59-1.6-.67-2.27-1.54-2.27-1.54Z"/>
        <g>
          <path class="cls-18" d="m69.76,66.78s5.76-.9,9.09-1.05c3.33-.15,7.12.61,7.12.61,0,0-3.03-1.82-7.42-1.68-4.4.15-8.79,2.11-8.79,2.11Z"/>
          <path class="cls-18" d="m73.55,63.19s2.85-.43,4.5-.5,3.53.29,3.53.29c0,0-1.5-.87-3.68-.8s-4.36,1-4.36,1Z"/>
        </g>
        <g>
          <g>
            <path class="cls-3" d="m89.81,78.19c.42,1.19.14,2.38-.63,2.67-.77.29-1.73-.44-2.15-1.63-.42-1.19-.14-2.38.63-2.67.77-.29,1.73.44,2.15,1.63Z"/>
            <path class="cls-3" d="m83.73,80.23s.82-1.83,3.33-2.55c1.77-.5,1.89,1.22,3.5,1.3.58.03,1.5-.65,1.54-1.63,0,0-.49.73-1.25.28-.61-.37-2.06-2.35-4.2-1.79-2.6.68-3.28,2.76-2.92,4.39Z"/>
          </g>
          <g>
            <path class="cls-3" d="m72.73,79.97c-.1-1.3-.95-2.57-1.91-2.83-.96-.26-1.66.58-1.56,1.88.1,1.3.95,2.57,1.91,2.83.96.26,1.66-.58,1.56-1.88Z"/>
            <path class="cls-3" d="m73.39,79.68s-1.23-1.38-4.17-.86c-2.06.37-1.99,1.57-3.56,2.29-.6.28-1.85.08-2.37-.9,0,0,.86.51,1.42-.34.45-.69,1.61-2.5,4.05-3.15,2.48-.65,4.22,1.1,4.63,2.96Z"/>
          </g>
        </g>
        <g>
          <path class="cls-7" d="m38.32,76.22s-.06,0-.09,0c-3.28-.56-6.11-3.08-7.05-6.27-.94-3.19.07-6.84,2.52-9.09.23-.21.58-.19.78.03.21.23.19.58-.03.78-2.14,1.97-3.03,5.17-2.21,7.96.82,2.79,3.31,5,6.18,5.49.3.05.5.34.45.64-.05.27-.28.46-.55.46Z"/>
          <path class="cls-7" d="m40.04,73.08c-.65,0-1.3-.15-1.87-.46-1.12-.6-1.9-1.76-2.05-3.02-.04-.3.18-.58.49-.61.31-.04.58.18.61.49.11.91.67,1.74,1.47,2.17.8.43,1.81.45,2.63.03.27-.14.61-.03.74.24.14.27.03.61-.24.74-.55.28-1.16.42-1.78.42Z"/>
          <path class="cls-7" d="m33.52,85.26c-.24,0-.46-.15-.53-.39-.79-2.61.66-5.72,3.16-6.79.28-.12.61,0,.73.29.12.28,0,.61-.29.73-2.01.86-3.17,3.36-2.53,5.45.09.29-.08.6-.37.69-.05.02-.11.02-.16.02Z"/>
          <path class="cls-7" d="m42.97,93.75c-1.47,0-2.94-.41-4.17-1.23-2.32-1.55-3.64-4.45-3.27-7.22.04-.3.31-.52.62-.48.3.04.52.32.48.62-.31,2.36.81,4.83,2.79,6.15,1.98,1.32,4.7,1.41,6.75.21.26-.15.6-.06.76.2.15.26.06.6-.2.76-1.14.66-2.45.99-3.76.99Z"/>
          <path class="cls-7" d="m46.68,103.81h0c-1.95,0-3.87-.89-5.13-2.39-1.26-1.49-1.82-3.53-1.5-5.46.05-.3.33-.51.64-.46.3.05.51.34.46.64-.27,1.61.2,3.31,1.26,4.56,1.05,1.25,2.66,1.99,4.29,1.99.31,0,.55.25.55.56,0,.31-.25.55-.55.55Z"/>
          <path class="cls-7" d="m50.42,100.82c-1.31,0-2.63-.51-3.56-1.46-.22-.22-.21-.57,0-.78.22-.22.57-.21.78,0,1.02,1.03,2.69,1.41,4.06.91.29-.1.61.04.71.33.1.29-.04.61-.33.71-.54.19-1.1.29-1.66.29Z"/>
          <path class="cls-7" d="m56.84,53.43c-.24,0-.47-.16-.53-.41-.59-2.12-2.22-3.98-4.24-4.86-2.03-.87-4.49-.77-6.44.25-.27.14-.61.04-.75-.23-.14-.27-.04-.61.23-.75,2.27-1.2,5.04-1.31,7.4-.29,2.36,1.02,4.18,3.1,4.87,5.58.08.29-.09.6-.39.68-.05.01-.1.02-.15.02Z"/>
          <path class="cls-7" d="m43.29,53.64c-.06,0-.11,0-.17-.03-.29-.09-.45-.41-.36-.7.68-2.09,3.13-3.39,5.24-2.79.29.08.46.39.38.69-.08.29-.39.46-.69.38-1.54-.44-3.39.54-3.88,2.06-.08.23-.29.38-.53.38Z"/>
          <path class="cls-7" d="m70.66,47.93c-.29,0-.53-.22-.55-.51-.2-2.6-1.69-5.08-3.89-6.47-2.2-1.39-5.08-1.68-7.51-.75-.28.11-.61-.03-.72-.32-.11-.29.03-.61.32-.72,2.75-1.05,6.01-.73,8.5.85,2.49,1.58,4.18,4.38,4.41,7.32.02.31-.21.57-.51.6-.01,0-.03,0-.04,0Z"/>
          <path class="cls-7" d="m55.79,45.18c-.11,0-.22-.03-.32-.1-.25-.18-.31-.52-.13-.77,1.68-2.38,5.17-3.27,7.78-1.98.27.14.39.47.25.74-.14.27-.47.39-.74.25-2.14-1.06-5.01-.33-6.39,1.62-.11.15-.28.23-.45.23Z"/>
          <path class="cls-7" d="m53.61,76.42s-.05,0-.07,0c-.3-.04-.52-.32-.48-.62,1.02-7.63,6.57-14.51,13.82-17.11.29-.1.61.05.71.33.1.29-.05.61-.33.71-6.87,2.47-12.13,8.98-13.09,16.22-.04.28-.27.48-.55.48Z"/>
          <path class="cls-7" d="m50.36,75.26c-.28,0-.52-.21-.55-.5-.27-2.88.94-5.81,3.17-7.65.24-.19.59-.16.78.07.19.24.16.58-.07.78-1.95,1.61-3.01,4.18-2.77,6.7.03.3-.19.58-.5.6-.02,0-.04,0-.05,0Z"/>
          <path class="cls-7" d="m73.5,56.87c-.27,0-.5-.19-.55-.47-.05-.3.16-.59.46-.63,2.69-.43,5.02-2.78,5.42-5.47.05-.3.33-.51.63-.47.3.05.51.33.47.63-.48,3.2-3.15,5.89-6.34,6.4-.03,0-.06,0-.09,0Z"/>
          <path class="cls-7" d="m85.19,54.39c-.11,0-.23-.03-.33-.11-.25-.18-.3-.53-.12-.77,1.17-1.61,1.61-3.73,1.16-5.68-.44-1.94-1.75-3.67-3.5-4.62-.27-.15-.37-.48-.22-.75.15-.27.48-.37.75-.22,2.03,1.1,3.54,3.1,4.05,5.35.51,2.25,0,4.71-1.35,6.57-.11.15-.28.23-.45.23Z"/>
          <path class="cls-7" d="m74.18,42.6c-.2,0-.39-.11-.49-.3-.14-.27-.03-.61.24-.75,1.38-.71,2.92-1.02,4.46-.9.31.02.53.29.51.6-.02.31-.29.54-.6.51-1.32-.1-2.69.17-3.87.78-.08.04-.17.06-.25.06Z"/>
          <path class="cls-7" d="m90.72,62.2c-.21,0-.41-.12-.5-.32-.13-.28,0-.61.27-.74.95-.44,1.67-1.34,1.89-2.36.22-1.02-.07-2.14-.75-2.93-.2-.23-.18-.58.06-.78.23-.2.58-.18.78.06.91,1.05,1.29,2.54,1,3.89-.29,1.35-1.25,2.55-2.51,3.13-.08.03-.15.05-.23.05Z"/>
          <path class="cls-7" d="m100.27,73.92s-.06,0-.09,0c-.3-.05-.51-.33-.46-.63.32-2.03-.13-4.19-1.22-5.93-1.09-1.74-2.84-3.08-4.8-3.68-.29-.09-.46-.4-.37-.69.09-.29.4-.46.69-.37,2.21.68,4.19,2.19,5.42,4.15,1.23,1.96,1.73,4.4,1.37,6.69-.04.27-.28.47-.55.47Z"/>
          <path class="cls-7" d="m95.89,69.75c-.23,0-.45-.15-.53-.38-.44-1.34-1.9-2.32-3.31-2.22-.29.02-.57-.21-.59-.51-.02-.31.21-.57.51-.59,1.92-.13,3.83,1.15,4.44,2.98.1.29-.06.6-.35.7-.06.02-.12.03-.17.03Z"/>
          <path class="cls-7" d="m93,94.39c-.26,0-.49-.18-.54-.45-.06-.3.14-.59.44-.65,2.38-.47,4.28-2.82,4.24-5.24,0-.31.24-.56.55-.56.27,0,.56.24.56.55.05,2.98-2.21,5.77-5.13,6.34-.04,0-.07.01-.11.01Z"/>
          <path class="cls-7" d="m48.03,60.94c-.23,0-.45-.15-.53-.39-.25-.78-1.07-1.41-2.1-1.63-1.02-.21-2.1-.05-3.15.11-.31.05-.59-.16-.63-.47-.05-.3.16-.58.47-.63,1.09-.16,2.33-.35,3.54-.1,1.43.3,2.56,1.21,2.93,2.37.09.29-.07.6-.36.7-.06.02-.11.03-.17.03Z"/>
        </g>
        <g>
          <path class="cls-14" d="m60.11,221.96s3.29,2.75,5.15,4.08c4.01,2.88,13.71,6.69,15.62,11,1.5,3.37,1.12,6.37.88,8.75-.36,3.39-2.75,5.12-4.12,3.75,0,0-.38,2.37-2.75,2.5-1.74.09-2.88-1.62-2.88-1.62,0,0-1.51,2.13-3.12,2s-2.79-1.03-3.18-2.47l1.68-1.91s.48-1.15-.75-2.75c-1.23-1.6-2.39-2.1-4.12-3.12-4.58-2.71-5.38-4.87-5.38-4.87l-7.33-3.21,10.31-12.12Z"/>
          <path class="cls-17" d="m72.09,250.78c-.06,0-.13,0-.19-.03-.34-.1-.54-.47-.43-.81,0-.03.86-2.89.15-6.09-.08-.35.14-.7.5-.77.35-.08.7.15.77.5.78,3.54-.14,6.62-.18,6.75-.09.28-.34.46-.62.46Z"/>
          <path class="cls-17" d="m77.76,249.61c-.06,0-.12,0-.18-.03-.34-.1-.54-.46-.44-.81.01-.04,1.02-3.55.08-7.15-.09-.35.12-.7.46-.79.35-.09.7.12.79.46,1.03,3.96-.04,7.69-.09,7.85-.08.28-.34.47-.62.47Z"/>
        </g>
        <path class="cls-4" d="m39.01,119.8c-7.5,2.5-24.4,11.28-35,43.75-8,24.5-2.5,39.25,3.25,45.5,8.26,8.98,27.91,24.45,43.39,27.63,0,0,8.15-4.78,13.32-13.97,0,0-24.96-27.91-34.71-36.41,0,0,6.25-18,12-29.75l-2.25-36.75Z"/>
        <path class="cls-8" d="m50.65,237.42c-.26,0-.51-.13-.65-.37-.21-.36-.09-.82.27-1.03.08-.05,7.77-4.64,12.78-13.23-3.11-3.46-25.31-28.12-34.28-35.94-.23-.2-.32-.52-.22-.81.06-.18,6.33-18.18,12.03-29.83.18-.37.63-.53,1-.34.37.18.53.63.34,1-5.15,10.52-10.77,26.27-11.8,29.19,9.93,8.81,34.15,35.86,34.39,36.14.21.24.25.59.09.87-5.21,9.25-13.25,14.05-13.59,14.25-.12.07-.25.1-.38.1Z"/>
        <path class="cls-8" d="m36.76,167.55c-.24,0-.47-.11-.62-.32-.24-.34-.15-.81.19-1.04,2.43-1.68,4.66-3.66,6.61-5.88.27-.31.75-.34,1.06-.07.31.27.34.75.07,1.06-2.04,2.31-4.35,4.37-6.89,6.12-.13.09-.28.13-.43.13Z"/>
        <g>
          <path class="cls-8" d="m71.24,179.76c-.29,0-.56-.16-.68-.44-.17-.38,0-.82.37-.99,5.38-2.45,9.89-6.67,12.68-11.88.2-.37.65-.5,1.02-.31.37.2.5.65.31,1.02-2.95,5.5-7.7,9.95-13.38,12.53-.1.05-.21.07-.31.07Z"/>
          <path class="cls-8" d="m78.76,180.3c-.32,0-.62-.21-.72-.53-.12-.4.1-.82.49-.94,1.97-.61,3.73-1.96,4.83-3.69.22-.35.69-.45,1.04-.23.35.22.45.69.23,1.04-1.29,2.03-3.35,3.61-5.65,4.32-.07.02-.15.03-.22.03Z"/>
        </g>
        <path class="cls-8" d="m8.2,203.87c-.18,0-.36-.06-.5-.19-1.69-1.53-2.71-3.72-2.78-6.01-.01-.41.31-.76.73-.77.41-.03.76.31.77.72.06,1.85.92,3.7,2.29,4.94.31.28.33.75.05,1.06-.15.16-.35.25-.56.25Z"/>
        <path class="cls-3" d="m42.31,391.66s-.06,0-.09,0c-8.51-.97-16.85-3.87-24.12-8.4-.35-.22-.46-.68-.24-1.03.22-.35.68-.46,1.03-.24,7.08,4.41,15.2,7.24,23.49,8.18.41.05.71.42.66.83-.04.38-.37.67-.74.67Z"/>
        <path class="cls-3" d="m79.45,218c-.48,0-.97,0-1.45-.02-.41,0-.74-.35-.73-.77,0-.41.35-.76.77-.73,7.31.16,14.55-.89,21.52-3.11.4-.12.82.09.94.49.13.39-.09.82-.49.94-6.66,2.12-13.57,3.19-20.55,3.19Z"/>
      </g>
      <g>
        <path class="cls-14" d="m284.76,116.05s3-5.75,7.75-14,5.75-9.5,10-12.25,8.5-6.75,10.25-5.75-6,9-6,9c0,0,4.25.5,10.25-1s11-9.25,13.25-9,0,3.5,0,3.5c0,0,3-4.25,4.75-3s-2.25,6.75-2.25,6.75c0,0,2-1.5,2.75-.25s-3,7.75-12,11.75-13,4.25-15.5,6.5-5.25,11.25-5.25,11.25l-18-3.5Z"/>
        <path class="cls-17" d="m299.38,103.57c-.13,0-.26-.04-.37-.12-.29-.21-.37-.61-.16-.91.08-.11,1.91-2.69,4.22-3.38.34-.1.71.09.81.44.1.34-.1.71-.44.81-1.88.55-3.51,2.85-3.53,2.87-.13.18-.33.28-.53.28Z"/>
        <path class="cls-17" d="m322.76,93.82c-.24,0-.47-.14-.59-.37-.16-.32-.02-.71.3-.87,3.21-1.54,7.24-6.4,7.28-6.45.23-.28.64-.32.92-.09.28.23.32.64.09.91-.17.21-4.26,5.13-7.72,6.8-.09.04-.19.06-.28.06Z"/>
        <path class="cls-17" d="m324.26,97.7c-.25,0-.49-.15-.6-.39-.14-.33.01-.71.34-.85,4.19-1.79,8.22-6.52,8.26-6.57.23-.27.64-.31.92-.08.27.23.31.64.08.92-.17.2-4.28,5.01-8.74,6.93-.08.04-.17.05-.26.05Z"/>
      </g>
      <path class="cls-21" d="m225.8,453.9c2.07,22.16,27.86,16.05,28.8,22.8s-31.07,5.47-34.84.66c-4.58-5.83-4.68-26.03-4.68-26.03l10.72,2.58Z"/>
      <path class="cls-21" d="m138.15,452.8c-6.7,23.19,10.46,16.39,8.79,23.44s-22.37,6.19-24.76,1.21c-2.89-6.03,5.81-27.19,5.81-27.19l10.16,2.54Z"/>
      <path class="cls-23" d="m214.14,207.71c2.3,19.37,14.91,100.51,17.87,125.42,2.96,24.91,2.08,72.05,1.75,119.1,0,0-8.75,8.82-27,4.41,0,0-15.47-67.81-14.81-118.32l-8.05-25.43s-3.13,17.13-4.77,25.78c-1.64,8.65-15.93,56.57-31.38,112.62,0,0-17.09,7.61-29.91-3.11,0,0,6.07-71.79,15.93-109.16,0,0-2.79-67.98-3.12-79.06-.33-11.07.99-43.25.99-43.25l82.49-9Z"/>
      <g>
        <path class="cls-2" d="m134.4,454.63c-5.41,0-11.62-1.33-17.05-5.88-.32-.27-.37-.75-.1-1.08.27-.32.75-.37,1.08-.1,11.34,9.49,26.38,4.09,28.78,3.14,6.78-24.6,13.38-47.77,18.68-66.4,6.78-23.8,11.67-40.99,12.58-45.79,1.62-8.55,4.74-25.6,4.77-25.77l3.26-49.73c.01-.21.11-.4.27-.54l11.67-9.69c.33-.27.81-.22,1.08.1.27.32.23.81-.1,1.08l-11.41,9.48-3.25,49.49c-.04.26-3.16,17.31-4.78,25.87-.92,4.87-5.83,22.09-12.61,45.92-5.33,18.73-11.97,42.03-18.78,66.75-.06.22-.22.4-.43.5-.1.05-6.1,2.65-13.66,2.65Z"/>
        <path class="cls-2" d="m187.51,267.98c-.33,0-.64-.22-.73-.55-.12-.41.12-.83.52-.95,5.79-1.67,11.35-6.05,11.4-6.09.33-.26.81-.21,1.07.12.26.33.21.81-.12,1.07-.24.19-5.85,4.61-11.93,6.36-.07.02-.14.03-.21.03Z"/>
        <path class="cls-2" d="m150.54,343.59c-.4,0-.73-.31-.76-.71-.21-2.7.22-5.45,1.22-7.95.16-.39.6-.58.99-.42.39.16.58.6.42.99-.92,2.28-1.3,4.79-1.12,7.26.03.42-.28.79-.7.82-.02,0-.04,0-.06,0Z"/>
        <path class="cls-2" d="m168.03,350.17c-.17,0-.34-.06-.48-.17-.33-.27-.37-.75-.11-1.08,3.01-3.66,4.62-8.53,4.43-13.34-.02-.42.31-.78.73-.79.44,0,.78.31.8.73.21,5.18-1.53,10.42-4.77,14.37-.15.18-.37.28-.59.28Z"/>
        <path class="cls-2" d="m219.32,347.07c-.18,0-.37-.07-.51-.2-4.05-3.67-6.61-9.18-6.85-14.75-.02-.42.31-.78.73-.8.43,0,.78.31.8.73.23,5.17,2.6,10.28,6.35,13.68.31.28.34.77.05,1.08-.15.17-.36.25-.57.25Z"/>
        <path class="cls-2" d="m216.65,458.65c-2.97,0-6.32-.36-10.07-1.27-.28-.07-.5-.29-.57-.57-.15-.68-15.46-68.37-14.83-118.38l-8.01-25.31c-.13-.4.1-.83.5-.96.4-.13.83.1.96.5l8.04,25.43c.02.08.04.16.04.24-.62,47.67,13.33,111.6,14.69,117.68,17.25,3.99,25.73-4.23,25.82-4.32.3-.3.78-.3,1.08,0,.3.3.3.78,0,1.08-.29.3-6,5.89-17.65,5.89Z"/>
        <path class="cls-2" d="m214.01,457.93c-.37,0-.69-.26-.75-.64-.11-.62-10.53-62.55-12.51-83.61-1.88-20-2-33.3-2-34.72l-14.21-42.93c-.13-.4.09-.83.49-.97s.83.08.97.49l14.25,43.04c.03.08.04.16.04.24,0,.13.02,13.71,2,34.7,1.97,21.01,12.39,82.87,12.49,83.5.07.42-.21.81-.63.88-.04,0-.09.01-.13.01Z"/>
        <path class="cls-2" d="m194.51,257.61c-.37,0-.7-.27-.75-.65-.04-.24-3.52-24.05-4.51-36.9-.03-.42.28-.79.7-.82.41-.03.79.28.82.7.99,12.8,4.46,36.56,4.49,36.79.06.42-.23.81-.65.87-.04,0-.07,0-.11,0Z"/>
      </g>
      <path class="cls-11" d="m201.46,89.75c22.83,9.08,53.55,55.3,53.55,55.3,0,0,14-18,30-38l21.5,13s-15.42,64.95-48,70.5c-23.5,4-52-32-52-32l-5.05-68.8Z"/>
      <path class="cls-11" d="m171.51,84.55c25.49.48,34.4,5.54,40.26,13.09,5.86,7.55,2.91,32.74,2.91,60.44,0,27.7,5.76,40.79-.43,51.37-6.19,10.58-21.23,12.59-43.75,13.6-22.52,1.01-39.95-3.02-44.81-10.58-4.86-7.55-3.48-28.71-3.07-51.37.41-22.66-4.08-50.87-1.44-58.92,2.65-8.06,23.33-18.13,50.32-17.63Z"/>
      <path class="cls-10" d="m214.26,210.2c-.13,0-.26-.03-.38-.1-.36-.21-.48-.67-.27-1.03,3.71-6.33,2.97-13.73,1.86-24.93-.68-6.89-1.54-15.46-1.54-26.06,0-7.41.21-14.52.41-21.4.09-3.16.18-6.22.24-9.15,0-.41.39-.73.77-.73.41,0,.74.35.73.77-.06,2.93-.15,6-.25,9.16-.2,6.86-.41,13.96-.41,21.35,0,10.53.85,19.06,1.53,25.91,1.14,11.49,1.9,19.08-2.06,25.84-.14.24-.39.37-.65.37Z"/>
      <g>
        <path class="cls-14" d="m191.46,195.24s12.04-.36,17.8,3.8c5.76,4.16,8.94,11.75,7.62,13.12-1.32,1.37-2.95.2-2.95.2,0,0,1.54,2.48.12,4.19-1.42,1.71-4.12-.24-4.12-.24,0,0,.58,1.52-1.07,2.78s-7.68-3.49-10-5.02-8.59-.8-12.84-4.42l-8.22-.32,5.54-15.57,8.11,1.47Z"/>
        <path class="cls-17" d="m209.93,216.97c-.18,0-.35-.07-.48-.21-3.21-3.51-6.05-4.81-6.08-4.82-.33-.15-.47-.53-.33-.86.15-.33.53-.47.86-.33.13.06,3.12,1.42,6.51,5.13.24.27.22.68-.04.92-.12.11-.28.17-.44.17Z"/>
        <path class="cls-17" d="m213.93,213.02c-.22,0-.43-.11-.55-.31-2.23-3.57-6.32-6.43-6.36-6.46-.29-.2-.37-.61-.16-.9.2-.29.61-.37.9-.16.18.12,4.35,3.04,6.73,6.84.19.3.1.71-.21.9-.11.07-.23.1-.34.1Z"/>
      </g>
      <path class="cls-13" d="m166.18,84.88c-8.87.43-19.45,1.25-20.71,5.75-.71,2.54.64,9.38,13.43,11.08,16.77,2.23,28.47-6.26,29.7-10.54,2.04-7.1-18.95-6.46-22.42-6.29Z"/>
      <path class="cls-11" d="m129.51,94.05c-17,7.75-26.67,27.25-36.5,58.5-7,22.25-4.07,41.99,11.5,52.5,20,13.5,75,8.5,75,8.5,0,0,6.5-6,6.5-24,0,0-34-12.5-57.5-18.5,0,0,4.5-16,10.5-29s-9.5-48-9.5-48Z"/>
      <path class="cls-10" d="m156.54,215.19c-8.82,0-19.02-.41-28.41-1.8-.41-.06-.69-.44-.63-.85.06-.41.44-.69.85-.63,21.71,3.2,47.84,1.16,50.81.91.98-1.08,5.98-7.36,6.09-22.75-4.27-1.56-35.27-12.77-56.93-18.3-.2-.05-.37-.18-.47-.36-.1-.18-.12-.39-.06-.59.08-.25,7.75-24.7,13.7-37.59.17-.38.62-.54,1-.37.38.17.54.62.37,1-5.32,11.53-12.05,32.44-13.39,36.66,23.24,6.01,56.47,18.2,56.8,18.33.29.11.49.39.49.7,0,18.12-6.47,24.3-6.74,24.55-.12.11-.28.18-.44.2-.17.02-10.13.9-23.04.9Z"/>
      <path class="cls-10" d="m138.18,143.63c-.24,0-.47-.11-.62-.33-.23-.34-.15-.81.19-1.04.04-.03,3.95-2.73,6.35-5.61.27-.32.74-.36,1.06-.1.32.27.36.74.1,1.06-2.54,3.04-6.48,5.77-6.65,5.89-.13.09-.28.13-.42.13Z"/>
      <path class="cls-10" d="m215.26,144.55c-.14,0-.27-.04-.4-.12-.35-.22-.46-.68-.24-1.03.04-.07,4.13-6.65,4.13-12.6,0-.41.34-.75.75-.75s.75.34.75.75c0,6.39-4.19,13.12-4.37,13.4-.14.23-.39.35-.64.35Z"/>
      <path class="cls-10" d="m254.71,191.61c-14.17,0-29.33-12.12-39.95-22.82-.29-.29-.29-.77,0-1.06.29-.29.77-.29,1.06,0,9.29,9.37,27.19,24.69,42.56,22.07,24.24-4.13,39.02-42.41,44.71-60.52l-24.45-13.58c-.19-.11-.32-.29-.37-.5-.05-.21,0-.43.13-.61l6-8c.23-.31.66-.39.99-.19l21.5,13c.28.17.42.5.34.81-.63,2.67-15.91,65.5-48.6,71.07-1.3.22-2.61.33-3.93.33Zm25.42-76.8l23.42,13.01c1.13-3.68,1.82-6.34,2.1-7.42l-20.45-12.36-5.08,6.77Z"/>
      <path class="cls-14" d="m139.62,151.04c-1.53-5.48-14.08-10.29-14.86-7.56-.7,2.45,6.31,3.51,9.09,7.19-4.5-2-13.52-1.13-13.07,1.82.3,1.93,5.37,1.26,8.32,1.88,2.65.56,4.9,1.86,4.73,2.44-.17.59-2.73-.57-5.23-.89-2.69-.34-5.31.16-5.4,1.29-.12,1.49,2.55,1.49,4.81,2.2s4.12,2.11,4.12,2.11l-2.85,9.32s5.55-3.6,7.91-7.7c2.23-3.87,3.42-8.52,2.43-12.09Z"/>
      <g>
        <path class="cls-10" d="m173.71,155.36c-.28,0-.55-.16-.68-.42-.18-.37-.02-.82.35-1,7.41-3.56,14.15-8.28,20.05-14,.3-.29.77-.28,1.06.02.29.3.28.77-.02,1.06-6.01,5.84-12.89,10.64-20.44,14.28-.1.05-.22.07-.32.07Z"/>
        <path class="cls-10" d="m182.84,154.51c-.31,0-.6-.19-.71-.5-.14-.39.07-.82.46-.96,2.54-.89,4.9-2.34,6.84-4.21.3-.29.77-.28,1.06.02.29.3.28.77-.02,1.06-2.09,2.01-4.65,3.58-7.38,4.54-.08.03-.17.04-.25.04Z"/>
      </g>
      <path class="cls-10" d="m245.76,162.3c-.1,0-.2-.02-.29-.06-.38-.16-.56-.6-.39-.98.17-.39,3.82-8.86,7.87-14.54-1.81.68-4.65,2.46-7.01,7.17-.19.37-.64.52-1.01.34-.37-.19-.52-.64-.34-1.01,4.16-8.32,9.93-8.41,10.17-8.41.29,0,.55.17.68.43.12.26.09.57-.1.8-4.38,5.36-8.85,15.72-8.89,15.82-.12.28-.4.45-.69.45Z"/>
      <path class="cls-6" d="m194.39,25.46c-.78-5.95-4.72-10.76-8.76-11.5-2.88-.53-5.14.97-7.48,2.92-2.61,2.18-23.38,4.88-24.43,8.04-1.05,3.16,7.19,7.96,6.93,11.2-.33,4.19,10.39,2.83,10.46,6.99.05,3.09.3,6.42,2.34,8.54,2.13,2.21,2.43,18.66,5.41,17.06,0,0,11.05-.25,14.89-22.45,1.27-7.32,1.33-15.48.63-20.8Z"/>
      <path class="cls-13" d="m179.02,55.11l-12.21,1.71-14.32,8.95-2.22,2.11c.23,2.34,1.03,15.19,1.15,21.7,4.94,6.15,19.28,3.8,30.25-.9-2.01-7.79-2.9-28.94-2.66-33.57Z"/>
      <path class="cls-17" d="m180.22,79.21c-.76-7.31-1.17-16.09-1.22-21.06l-20.38,3.8-6.12,3.82-2.22,2.11c.2,2.02.82,11.89,1.07,18.74-1.53.41-2.85.93-3.86,1.57,1.46,1.58,5.25,4.73,12.52,5.1,8.19.42,16.55-6.74,20.21-14.08Z"/>
      <path class="cls-14" d="m180.52,50.81c-4.86-.09-6.26-6.37-5.19-10.88,0,0-8.75-4.55-7.71-14.19-8.13-5.03-30.55-5.42-30.53,8.72.02,23.64,3.82,36.48,7.36,42.69,3.72,6.53,11.7,8.19,20.08,3.84,5.5-2.85,11.27-8.91,13.32-18.09,4.82.96,8.31-2.45,9.94-6.81,2.53-9.36-5.06-8.61-7.25-5.29Z"/>
      <path class="cls-12" d="m151.85,45.53s.77,1.37,1.45,3.66c.17.58.31,1.22.39,1.93.04.37.07.71.05,1.15-.03.36,0,.66-.07,1.09-.2,1.66-.76,3.2-1.54,4.66-.77,1.44-1.72,2.76-2.51,3.91-.18.27-.38.58-.44.72,0,0-.03.08-.02.02.05-.13.01-.24-.03-.4.13.32-.08-.15.01.02.16.2.67.49,1.09.65.89.38,1.75.51,2.34.61.6.06.94.09.94.09h.02c.46.05.8.46.74.93-.04.36-.3.64-.63.73,0,0-.41.11-1.16.17-.74.06-1.81,0-3.07-.38-.63-.25-1.29-.46-2.03-1.2-.14-.06-.53-.81-.49-.81-.12-.31-.07-.6-.03-.9.06-.22.11-.3.17-.46.24-.48.45-.77.68-1.09.88-1.2,1.76-2.37,2.48-3.64.7-1.25,1.25-2.62,1.47-3.8.08-.27.08-.68.12-1.01.03-.25.02-.58,0-.86-.04-.59-.12-1.16-.22-1.69-.21-1.06-.48-1.95-.68-2.56-.22-.6-.34-.94-.34-.94-.13-.36.05-.77.42-.92.33-.13.7,0,.86.3Z"/>
      <path class="cls-6" d="m175.27,26.28c-5.12-1.04-9.53-1.1-16.35.92-8.41,2.49-14.68,8.63-25.66,6.36-5.54-1.15-3.95-5.37-3.95-5.37,0,0-4.88.01-6.11-6.05-1.23-6.02,3.04-8.83,5.1-8.83,0,0-2.36-4.62,1.24-7.59,3.63-3,7.36.18,12.13-.3,4.83-.49,9.46-3.45,16.22-5.1,6.89-1.68,12.21,3.96,12.21,3.96,0,0,6.16-2.36,10.79,1.71,4.7,4.13,4.45,8.19,4.45,8.19l-10.07,12.11Z"/>
      <path class="cls-24" d="m179.85,55.03c-1.05,2.15-.77,4.31.62,4.82,1.39.51,3.36-.83,4.41-2.98s.77-4.31-.62-4.82c-1.39-.51-3.36.83-4.41,2.98Z"/>
      <path class="cls-6" d="m147.33,42.77c.01,1.35-2.71,1.81-5.47,2.5-4.08,1.03-5.1,1.21-5.65.15-.27-.51-.28-3.16,4.11-4.4,5.13-1.45,7,.35,7.01,1.74Z"/>
      <path class="cls-6" d="m163.2,43.99c3.18.46,5.65,1.32,6.37.16.61-.98-.11-3.35-5.21-4.64-2.81-.71-7.28-.44-7.57,2.04-.27,2.31,3.18,1.97,6.41,2.44Z"/>
      <g>
        <path class="cls-3" d="m151.69,72.37c-.48,0-.87-.06-1.13-.18-.27-.12-.39-.44-.27-.71.12-.27.44-.39.71-.27,1.36.6,9.4-1.39,12.04-6.72.13-.27.45-.38.72-.24.27.13.37.45.24.72-2.49,5.04-9.27,7.4-12.31,7.4Z"/>
        <path class="cls-24" d="m162.28,71.29c.32.61-.11,2.29-1.91,3.23-1.87.97-3.73.48-4.05-.14-.32-.61,1.28-.69,2.93-1.54,1.65-.85,2.71-2.17,3.03-1.55Z"/>
      </g>
      <g>
        <path class="cls-19" d="m137.93,34.69c-1.51,0-3.11-.15-4.81-.51-2.05-.42-3.45-1.3-4.17-2.6-.58-1.06-.56-2.14-.45-2.85-1.56-.29-4.93-1.5-5.95-6.47-.73-3.59.4-5.92,1.47-7.25,1.03-1.26,2.32-1.99,3.4-2.25-.42-1.49-.87-4.77,2.1-7.21.28-.23.69-.19.92.09.23.28.19.69-.09.92-3.18,2.62-1.48,6.43-1.46,6.47.09.2.08.43-.04.62-.12.19-.32.3-.55.3-.83,0-2.2.59-3.26,1.89-.9,1.1-1.84,3.07-1.21,6.16,1.11,5.47,5.42,5.53,5.47,5.53h0c.21,0,.41.1.53.28.12.18.15.4.07.6,0,.01-.48,1.35.19,2.56.53.95,1.63,1.6,3.28,1.94,7.43,1.54,12.55-.84,17.97-3.36,2.34-1.09,4.77-2.21,7.38-2.99,7.2-2.13,11.71-1.93,16.67-.93.35.07.58.41.51.77-.07.35-.41.58-.77.51-4.76-.96-9.1-1.15-16.04.9-2.52.74-4.9,1.85-7.2,2.92-4.21,1.95-8.53,3.96-13.97,3.96Z"/>
        <path class="cls-19" d="m187.15,42.27c-3.72,0-7.39-1.69-9.76-4.6-.23-.28-.18-.69.09-.91.28-.23.69-.18.91.09,2.48,3.05,6.74,4.64,10.61,3.96.35-.06.69.17.75.53.06.35-.17.69-.53.75-.69.12-1.39.18-2.09.18Z"/>
        <path class="cls-19" d="m184.54,46.09c-2.21,0-4.39-.94-5.89-2.56-.24-.26-.23-.67.03-.92.26-.24.68-.23.92.03,1.32,1.42,3.26,2.21,5.19,2.14.36-.01.66.27.67.62.01.36-.27.66-.62.67-.1,0-.2,0-.3,0Z"/>
        <path class="cls-19" d="m183.12,17.9s-.03,0-.04,0c-.36-.02-.63-.33-.61-.69.27-4.01-2.37-8.07-6.14-9.45-.34-.12-.51-.5-.39-.83.12-.34.5-.51.83-.39,4.29,1.57,7.3,6.19,6.99,10.75-.02.34-.31.61-.65.61Z"/>
        <path class="cls-19" d="m192.07,23.85c-.29,0-.56-.2-.63-.5-.56-2.33-2.6-4.21-4.97-4.57-.35-.05-.6-.39-.54-.74.05-.35.38-.6.74-.54,2.88.44,5.36,2.73,6.03,5.56.08.35-.13.7-.48.78-.05.01-.1.02-.15.02Z"/>
        <path class="cls-19" d="m134.6,26.59c-3.25,0-6.52-1.23-8.84-3.53-.25-.25-.26-.66,0-.92.25-.26.66-.26.92,0,3.26,3.23,8.62,4.1,12.73,2.05.32-.16.71-.03.87.29.16.32.03.71-.29.87-1.67.83-3.53,1.23-5.39,1.23Z"/>
        <path class="cls-19" d="m137.18,31.21c-1.45,0-2.89-.41-4.12-1.21-.3-.2-.39-.6-.19-.9s.6-.39.9-.19c1.54,1,3.51,1.27,5.26.72.34-.11.71.08.82.42.11.34-.08.71-.42.82-.73.23-1.49.34-2.25.34Z"/>
        <path class="cls-19" d="m166.9,5.98c-.19,0-.38-.08-.51-.24-1.91-2.37-4.9-3.2-8-2.23-.34.11-.71-.08-.81-.43-.11-.34.08-.71.43-.81,3.57-1.12,7.18-.1,9.4,2.66.23.28.18.69-.1.91-.12.1-.26.14-.41.14Z"/>
      </g>
      <g>
        <path class="cls-3" d="m165.51,48.56c.53.21-.67,4.23-4.97,4.04-3.12-.14-3.39-2.53-2.97-2.78.42-.25,1.25.91,2.99,1.07,2.34.21,4.43-2.53,4.96-2.32Z"/>
        <path class="cls-3" d="m147.63,49.57c.91.46-.6,4.02-4.13,3.89-3.21-.12-3.52-2.98-3.04-3.15.49-.17.73,1.49,3.05,1.51,2.59.02,3.65-2.51,4.11-2.25Z"/>
      </g>
    </g>
  </g>
</svg>