<?xml version="1.0" encoding="UTF-8"?>
<svg id="Layer_2" data-name="Layer 2" xmlns="http://www.w3.org/2000/svg" viewBox="0 0 508.67 482.79">
  <defs>
    <style>
      .cls-1 {
        fill: #f4b199;
      }

      .cls-2 {
        fill: #efeae8;
      }

      .cls-3 {
        fill: #5e5254;
      }

      .cls-4 {
        fill: #f0e7e2;
      }

      .cls-5 {
        fill: #86a09c;
      }

      .cls-6 {
        fill: #fafffd;
      }

      .cls-7 {
        fill: #706466;
      }

      .cls-8 {
        fill: #986f68;
      }

      .cls-9 {
        fill: #e3d1cf;
      }

      .cls-10 {
        fill: #efecf3;
      }

      .cls-11 {
        fill: #f0edf4;
      }

      .cls-12 {
        fill: #e4f2ec;
      }

      .cls-13 {
        fill: #e29b86;
      }

      .cls-14 {
        fill: #f9f9f9;
      }

      .cls-15 {
        fill: #d3837c;
      }

      .cls-16 {
        fill: #f7f6f5;
      }

      .cls-17 {
        fill: #865d5b;
      }

      .cls-18 {
        fill: #cf807b;
      }

      .cls-19 {
        fill: #d0807c;
      }

      .cls-20 {
        fill: #e59e89;
      }

      .cls-21 {
        fill: #e6aa68;
      }

      .cls-22 {
        fill: #c4bdbc;
      }

      .cls-23 {
        fill: #f4e7e4;
      }

      .cls-24 {
        fill: #b2c6bf;
      }

      .cls-25 {
        fill: #514b4c;
      }

      .cls-26 {
        fill: #d2827b;
      }

      .cls-27 {
        fill: #f1ae96;
      }

      .cls-28 {
        fill: #cecece;
      }

      .cls-29 {
        fill: #ffc873;
      }

      .cls-30 {
        fill: #b5b5b5;
      }

      .cls-31 {
        fill: #d8d0cf;
      }
    </style>
  </defs>
  <g id="_2" data-name="2">
    <g>
      <path class="cls-27" d="m288,211.25c.5,4.99,1.25,8.87,1.25,8.87l8.5.75-4-9.25-5.75-.37Z"/>
      <path class="cls-27" d="m227.61,105.4c18,16,21.73,25.05,40.39,53.39,18.67,28.33,35.5,47,35.5,47l-13,7.63s-22.14-14.69-36.64-30.44c-17.88-19.42-28.58-35.25-39.58-47.58l13.33-30Z"/>
      <path class="cls-18" d="m288.83,218.6c-.31,0-.58-.22-.64-.54-.4-2.27-.7-4.61-.8-5.41-2.3-1.61-20.49-14.55-34.01-29.23-10.51-11.42-18.53-21.57-25.61-30.54-4.86-6.16-9.45-11.97-13.99-17.06-.24-.27-.22-.68.05-.92.27-.24.68-.22.92.05,4.56,5.11,9.16,10.94,14.04,17.12,7.06,8.94,15.07,19.08,25.54,30.46,14.29,15.52,33.84,29.08,34.03,29.21.15.11.25.27.28.46,0,.03.34,2.89.83,5.63.06.35-.17.69-.53.75-.04,0-.08,0-.11,0Z"/>
      <path class="cls-8" d="m192.33,3.96s-4.4-4.4-13.97-.52c-9.57,3.88-17.08,18.63-12.94,31.05,4.14,12.42,4.92,21.47,2.07,25.87-1.8,2.78-5.43,2.07-5.43,2.07,0,0,2.07,3.88,6.47,2.59,4.4-1.29,4.66-6.21,4.66-6.21,0,0,.52,5.95-3.62,9.31-4.14,3.36-8.54,1.29-8.54,1.29,0,0,3.36,7.76,14.49,3.88,11.13-3.88,12.16-13.71,12.42-17.85s4.4-51.49,4.4-51.49Z"/>
      <g>
        <path class="cls-3" d="m448.43,482.79h12.72s2.12-32.45-12.19-58.4l-15.9,9.19s13.78,18.39,15.37,49.21Z"/>
        <path class="cls-3" d="m425.12,431.42c1.57,4.02,9.12,4.74,16.88,1.6,7.75-3.14,12.77-8.95,11.2-12.98-1.57-4.02-9.12-4.74-16.88-1.6-7.75,3.14-12.77,8.95-11.2,12.98Z"/>
      </g>
      <g>
        <path class="cls-3" d="m61.23,482.79h-12.72s-2.12-32.45,12.19-58.4l15.9,9.19s-13.78,18.39-15.37,49.21Z"/>
        <path class="cls-3" d="m84.54,431.42c-1.57,4.02-9.12,4.74-16.88,1.6-7.75-3.14-12.77-8.95-11.2-12.98,1.57-4.02,9.12-4.74,16.88-1.6,7.75,3.14,12.77,8.95,11.2,12.98Z"/>
      </g>
      <path class="cls-1" d="m243.75,215.04c-4-3-5.5-7.25-6.75-12s-2.12-7.38-3.12-7.25c-1.75.22-1.12,3.38-.75,6.25.23,1.77-.25,5.12-.25,5.12,0,0-4.68-2.06-7.12-4.75-3.75-4.12-6.12-9.38-8-8.38-1.29.69,1,4.62,2.25,6.62s3.25,5.12,3.25,5.12c0,0-4.12-2.38-6.25-4.25s-4.62-4.75-5.88-3.88,2.12,4.88,4,6.75,4.62,4.38,4.62,4.38c0,0-2.88-.75-5.38-1.75s-4.25-2.38-4.88-1.38,7.12,7,13.62,11.12,12.62,7.62,12.62,7.62l8-9.38Z"/>
      <path class="cls-25" d="m226.98,454.13c1.8,21.04,28.83,14.91,29.71,21.3.88,6.4-30.59,5.57-34.46,1.04-4.69-5.49-5.36-24.68-5.36-24.68l10.11,2.33Z"/>
      <path class="cls-25" d="m137.36,454.13c-4.56,21.04,12,14.91,10.98,21.3-1.02,6.4-21.84,5.57-24.69,1.04-3.46-5.49,3.3-24.68,3.3-24.68l10.41,2.33Z"/>
      <path class="cls-28" d="m120.36,209.56c-6.16,24.74-1.52,125.47-2.42,142.16-2.1,38.95-2.22,101.19-1.74,105.45,0,0,17.49,7.95,32.24.88,0,0,11.06-72.65,14.6-96.31,4.19-28.07,7.96-61.76,7.96-61.76l13.33,59.53s6.66,53.57,25.7,101.29c0,0,13.3,4.42,28.82-5.3,0,0-10.49-78.95-11.75-102.8-1.26-23.86-21.3-126.53-21.56-140.67l-85.19-2.47Z"/>
      <g>
        <path class="cls-30" d="m134.58,461.76c-9.94,0-18.19-3.68-18.69-3.9-.38-.17-.54-.62-.37-.99.17-.38.62-.54.99-.37.17.08,17.07,7.59,31.25,1.06.89-5.82,11.18-73.43,14.54-95.91,4.14-27.74,8.83-67.29,8.88-67.68l4.41-31.76c.03-.23.17-.43.36-.54l11.85-6.93c.36-.21.82-.09,1.03.27.21.36.09.82-.27,1.03l-11.54,6.75-4.36,31.38c-.04.38-4.73,39.95-8.88,67.71-3.49,23.39-14.49,95.59-14.6,96.31-.04.25-.19.46-.42.56-4.69,2.25-9.61,3.03-14.18,3.03Z"/>
        <path class="cls-30" d="m176.29,267.29c-.38,0-.71-.29-.75-.68-.04-.41.26-.78.67-.82,5.46-.54,10.5-4.1,10.55-4.14.34-.24.81-.16,1.05.17.24.34.16.81-.17,1.05-.22.16-5.41,3.84-11.28,4.41-.02,0-.05,0-.07,0Z"/>
        <path class="cls-30" d="m217.91,462.58c-4.8,0-7.86-.98-8.12-1.07-.21-.07-.38-.23-.46-.43-18.86-47.26-25.68-100.94-25.75-101.47l-13.32-59.46c-.09-.4.16-.81.57-.9.41-.09.81.16.9.57l13.33,59.53c.08.61,6.84,53.84,25.53,100.83,2.11.57,14.16,3.26,27.86-5.32.35-.22.81-.11,1.03.24.22.35.11.81-.24,1.03-8.29,5.19-15.92,6.44-21.34,6.44Z"/>
        <path class="cls-30" d="m217.63,461.59c-.28,0-.56-.16-.68-.44-21.12-46.15-25.77-99.53-25.95-101.59l-17.77-76.39c-.09-.4.16-.81.56-.9.4-.1.81.16.9.56l17.78,76.44s.01.07.02.11c.04.54,4.5,54.56,25.82,101.14.17.38,0,.82-.37.99-.1.05-.21.07-.31.07Z"/>
        <path class="cls-30" d="m135.89,356.51c-.23,0-.46-.11-.61-.31-2.12-2.94-2.99-6.64-2.38-10.15.07-.41.46-.68.87-.61.41.07.68.46.61.87-.54,3.11.24,6.4,2.12,9.02.24.34.17.8-.17,1.05-.13.1-.29.14-.44.14Z"/>
        <path class="cls-30" d="m153.54,363.37c-.14,0-.28-.04-.4-.12-.35-.22-.45-.69-.23-1.04,3.18-5,5.13-10.75,5.65-16.64.04-.41.41-.71.81-.68.41.04.72.4.68.81-.54,6.12-2.58,12.11-5.88,17.31-.14.22-.39.35-.63.35Z"/>
        <path class="cls-30" d="m211.85,357.62c-.17,0-.34-.06-.48-.17-4.23-3.48-6.94-8.54-7.44-13.87-.04-.41.26-.78.68-.82.42-.04.78.26.82.68.47,4.93,2.98,9.62,6.9,12.85.32.26.37.74.1,1.06-.15.18-.36.27-.58.27Z"/>
        <path class="cls-30" d="m184.12,258.31c-.38,0-.71-.29-.75-.69-.03-.29-2.53-29.09-3.22-39.38-.03-.41.29-.77.7-.8.41-.02.77.29.8.7.68,10.27,3.19,39.06,3.21,39.35.04.41-.27.78-.68.81-.02,0-.04,0-.07,0Z"/>
        <path class="cls-30" d="m123.86,215.48s-1.8,10.89-1.15,19.56c0,0,11.68-3.71,15.03-12.38l-13.88-7.18Z"/>
      </g>
      <path class="cls-4" d="m211.3,215.92s-14.91,11.26-40.03,11.26c-28.81,0-49.09-6.33-53.61-13.58l3.83-11.81s20.5,12,48,11.5,39.5-8,39.5-8l2.3,10.63Z"/>
      <path class="cls-23" d="m434.41,180.55c4.88,1.86,3.79,9.81,3.79,9.81,0,0,5.81-.57,5.02,10.15-.79,10.72-11.22,20.04-23.47,18.04-9.18-1.5-10.22-9.99-10.22-9.99l24.88-28Z"/>
      <path class="cls-23" d="m414,214.79s10,3.25,16.5-10.5,5.15-27.38,2.25-35.75c-4.5-13-19.75-22.25-36.25-16,0,0-7.5-3.75-16,4.25-7.54,7.09-10,16.75-9.5,24.5s1.25,14.25-2.5,17-5,.25-5,.25c0,0,1.5,4.5,6.75,3.25s43.75,13,43.75,13Z"/>
      <path class="cls-1" d="m383.25,235.34c-8.5,4.2-15.5,4.7-22,5.2,0,0-10.58,22.08-13.25,29.75-2.67,7.67-6.33,21.33-6.33,21.33h90.33s16-41,9.33-44.67c-6.67-3.67-20.86-6.14-24.2-12.14-3.33-6-33.89.53-33.89.53Z"/>
      <path class="cls-13" d="m397.5,241.29c-8.75-.5-14.25-5.95-14.25-5.95,4.13-2.16,1.75-16.3,1.75-16.3l22.8-17.49,7.6-1.42c-2.75,24.29.16,30.42,1.74,34.69.29.64-10.38,7-19.64,6.47Z"/>
      <path class="cls-18" d="m414.37,221.69c-.17-3.02-.16-6.74.12-11.39l-.99-1.68-28.43,10.89c.26,1.71,1.05,7.77.27,11.95,2.97.95,18.26,4.91,29.02-9.77Z"/>
      <path class="cls-1" d="m384.74,227.71c2.79.94,17.68,4.41,27.72-11.53,5.36-8.51,9.48-23.06,9.13-30.03-.35-6.97-4.38-29.25-26.47-25.74,0,0-17.31,3.07-20.9,30.36,0,0-2.18,4.72-1.91,10.44,1.1,23.9,9.69,25.57,12.44,26.5Z"/>
      <path class="cls-23" d="m390.41,157.49c-4.62,13.86,19.95,9.53,24.32,31.71.27,4.07-1.14,8.91,3.89,10.41l6.92-5.7s5.42-13.82-1.43-27.73c-6.84-13.89-28.31-18.81-33.7-8.68Z"/>
      <g>
        <path class="cls-23" d="m385.96,184.57c-.69,1.19-2.48-.46-6.85.06-1.39.17-3.57.71-3.9,0-.36-.75.58-2.94,4.53-3.18,4.86-.29,7.13,1.54,6.22,3.11Z"/>
        <path class="cls-23" d="m395.4,185.85c0,1.67,2.89,1.07,7.15,2.75,4.43,1.75,4.28,2.56,5.27,1.92.51-.33.69-3-4.93-5.42-5-2.15-7.48-.92-7.49.75Z"/>
      </g>
      <g>
        <path class="cls-26" d="m394.72,218.67c.11.72-.88,2.24-2.98,2.57-2.18.34-3.87-.78-3.98-1.49s1.51-.25,3.43-.55c1.92-.3,3.42-1.24,3.53-.53Z"/>
        <g>
          <path class="cls-3" d="m398.6,210.63s-4.26.86-8.84,1.14c-4.32.27-7.9-.43-7.9-.43,0,0,.91,5.91,8.76,5.31,5.94-.46,7.98-6.02,7.98-6.02Z"/>
          <path class="cls-11" d="m390.68,215.39c-4.53.35-5.53-2.29-5.53-2.29,0,0,2.55.16,5.78-.16,4.1-.41,5.4-.73,5.4-.73,0,0-1.23,2.84-5.66,3.18Z"/>
        </g>
      </g>
      <path class="cls-15" d="m389.29,186.25s.04.09.12.26c.07.15.22.53.31.88.19.75.32,1.81.27,3.07-.05,1.26-.27,2.71-.77,4.21-.25.74-.56,1.5-.96,2.23-.42.77-.98,1.46-1.56,2.08-1.17,1.23-2.64,2.17-3.25,3.11-.17.23-.24.47-.3.7h0c-.02.12.02-.13.02-.1h0s0,.04,0,.04v.07s-.02.13-.02.13l-.02.26s.02.06.05.14c.11.35.48.73.89,1.03.84.62,1.75.98,2.36,1.24.31.12.56.21.73.28.16.06.25.09.25.09h.04c.31.13.48.47.37.79-.1.27-.37.43-.65.4,0,0-.11-.01-.31-.04-.2-.03-.48-.08-.84-.16-.72-.16-1.74-.45-2.93-1.14-.56-.39-1.24-.9-1.62-1.86-.1-.24-.14-.59-.17-.88l.02-.27v-.13s.01-.07.01-.07v-.03s.02-.14.02-.14v-.02c.13-.46.32-.93.6-1.31.54-.79,1.23-1.32,1.88-1.78.65-.47,1.28-.91,1.85-1.4.58-.49,1.04-1.05,1.43-1.64.41-.63.68-1.32.93-2,.48-1.35.72-2.7.78-3.85.08-1.15-.05-2.1-.22-2.71-.09-.33-.14-.46-.23-.66-.08-.17-.13-.26-.13-.26-.15-.3-.03-.66.27-.81.3-.15.66-.03.81.27,0,0,0,0,0,.01Z"/>
      <path class="cls-1" d="m418.41,199.45s4.58-7.5,8.79-2.89c3.66,4.01-3.85,16.76-12.22,11.77.73-3.42,1.71-6.57,3.43-8.88Z"/>
      <path class="cls-26" d="m424,204.08c-1.45,1.87-3.48,2.43-4.21,1.51-.73-.92-.16-3.19,1.29-5.06,1.45-1.87,3.21-2.64,3.95-1.72.73.92.42,3.4-1.03,5.27Z"/>
      <path class="cls-20" d="m402.88,198.47s-5.51.47-7.89-3.1c0,0-.31,2.83,2.96,3.99,3.27,1.16,4.93-.89,4.93-.89Z"/>
      <path class="cls-20" d="m383.36,193.7s-.64,2.48-2.83,2.73c-2.18.25-3.53-.93-3.53-.93,0,0,2.28.05,3.51-.3,1.95-.57,2.84-1.5,2.84-1.5Z"/>
      <g>
        <path class="cls-20" d="m401.55,178.72s-6.6-1.79-10.47-2.4c-3.87-.6-8.38-.2-8.38-.2,0,0,3.77-1.73,8.87-1,5.11.74,9.98,3.59,9.98,3.59Z"/>
        <path class="cls-20" d="m397.59,174.04s-3.27-.87-5.19-1.16c-1.92-.29-4.15-.11-4.15-.11,0,0,1.86-.82,4.39-.45,2.53.36,4.95,1.73,4.95,1.73Z"/>
      </g>
      <g>
        <g>
          <path class="cls-3" d="m377.26,189.38c-.64,1.29-.48,2.67.37,3.09.85.42,2.06-.28,2.7-1.57.64-1.29.48-2.67-.37-3.09-.85-.42-2.06.28-2.7,1.57Z"/>
          <path class="cls-3" d="m383.52,192.6s-.71-2.24-3.56-3.4c-1.99-.82-2.36,1.18-4.24,1.07-.68-.04-1.66-.95-1.59-2.1,0,0,.48.92,1.42.48.76-.35,2.71-2.47,5.13-1.54,2.94,1.12,3.47,3.64,2.84,5.5Z"/>
        </g>
        <g>
          <path class="cls-3" d="m396.72,193.55c.28-1.46,1.44-2.78,2.58-2.95,1.14-.18,1.83.86,1.55,2.32-.28,1.45-1.44,2.78-2.58,2.95-1.14.18-1.83-.86-1.55-2.32Z"/>
          <path class="cls-3" d="m395.65,193.29s1.62-1.45,4.98-.46c2.36.69,2.12,2.08,3.85,3.13.67.4,2.15.33,2.88-.75,0,0-1.07.48-1.61-.58-.44-.86-1.56-3.12-4.32-4.19-2.81-1.08-5.06.74-5.78,2.85Z"/>
        </g>
      </g>
      <path class="cls-1" d="m441.33,246.95c10.33,6,14.67,15.33,20.33,27,5.67,11.67,8.33,18.33,8.33,18.33h-33s-4.88-7.77-10.67-14c-8.67-9.33,4.78-37.27,15-31.33Z"/>
      <path class="cls-1" d="m361.25,240.54c-23.75.08-53.75-2.5-76.5-9.25s-41-16.25-41-16.25l-8,8.25s24,24.5,49.5,34,42.75,14.25,62.5,16l13.5-32.75Z"/>
      <path class="cls-18" d="m347.75,273.94s-.04,0-.06,0c-18.76-1.66-35.75-6.01-62.67-16.04-5.18-1.93-10.69-4.63-16.38-8.02-.31-.18-.41-.58-.23-.89.18-.31.58-.41.89-.23,5.62,3.35,11.06,6.02,16.17,7.92,26.8,9.98,43.69,14.31,62.33,15.96.36.03.62.35.59.7-.03.34-.31.59-.65.59Z"/>
      <g>
        <path class="cls-9" d="m418.46,191.93s-.07,0-.11,0c-.35-.06-.59-.4-.53-.75,1.02-5.99-1.48-12.58-6.22-16.39-.28-.22-.32-.63-.1-.91.23-.28.63-.33.91-.1,5.17,4.16,7.8,11.07,6.69,17.62-.05.32-.33.54-.64.54Z"/>
        <path class="cls-9" d="m421.57,193.63c-.09,0-.18-.02-.27-.06-.33-.15-.47-.53-.32-.86,1.08-2.37,1.15-5.24.2-7.67-.13-.33.03-.71.37-.84.34-.13.71.03.84.37,1.09,2.79,1.01,5.96-.23,8.68-.11.24-.35.38-.59.38Z"/>
        <path class="cls-9" d="m405.3,169.66c-.16,0-.33-.06-.46-.19-1.29-1.27-3.02-2.11-4.69-2.92l-.17-.08c-1.92-.93-3.76-1.9-5.14-3.42-1.64-1.82-2.24-4.24-1.51-6.16.13-.34.5-.5.84-.38.34.13.5.5.38.84-.56,1.47-.06,3.36,1.26,4.83,1.22,1.35,2.87,2.21,4.74,3.12l.17.08c1.77.85,3.59,1.74,5.04,3.16.26.25.26.66,0,.92-.13.13-.29.19-.46.19Z"/>
        <path class="cls-9" d="m431.79,186.26s-.06,0-.09,0c-.36-.05-.6-.38-.55-.73,1.25-8.83-1.84-18.27-8.08-24.65-.25-.26-.25-.67.01-.92.26-.25.67-.25.92.01,6.51,6.66,9.74,16.52,8.44,25.74-.05.32-.32.56-.64.56Z"/>
        <path class="cls-9" d="m424.39,167.4c-.21,0-.42-.1-.55-.3-2.73-4.21-7.06-7.41-11.88-8.78-.35-.1-.55-.46-.45-.8.1-.34.46-.54.8-.45,5.12,1.46,9.72,4.86,12.61,9.32.2.3.11.7-.19.9-.11.07-.23.1-.35.1Z"/>
        <path class="cls-9" d="m413.36,154.86c-.06,0-.12,0-.18-.03-2.98-.85-6.17-1.03-9.23-.52-.35.05-.69-.18-.75-.53-.06-.35.18-.69.53-.75,3.25-.55,6.64-.36,9.8.55.34.1.54.46.44.8-.08.28-.34.47-.62.47Z"/>
        <path class="cls-9" d="m382.77,159.22c-.15,0-.3-.05-.42-.16-.27-.23-.31-.64-.07-.92,2.59-3.04,6.66-4.64,10.63-4.18.36.04.61.36.57.72-.04.36-.36.61-.72.57-3.49-.4-7.21,1.06-9.49,3.73-.13.15-.31.23-.5.23Z"/>
        <path class="cls-9" d="m374.09,182.41c-.29,0-.55-.19-.63-.48-1.6-5.98.03-12.84,4.14-17.47.24-.27.65-.29.92-.05.27.24.29.65.05.92-3.83,4.31-5.35,10.7-3.86,16.27.09.35-.11.7-.46.8-.06.02-.11.02-.17.02Z"/>
        <path class="cls-9" d="m422.3,216.02c-1.5,0-3.01-.2-4.47-.6-.35-.09-.55-.45-.46-.8.09-.35.45-.55.8-.46,4.01,1.1,8.38.54,11.99-1.53,3.61-2.07,6.3-5.56,7.39-9.57.09-.35.45-.55.8-.46.35.09.55.45.46.8-1.17,4.35-4.09,8.12-8,10.36-2.59,1.48-5.55,2.25-8.51,2.25Z"/>
        <path class="cls-9" d="m440.39,203.87c-.11,0-.23-.03-.33-.09-.31-.18-.41-.58-.23-.89.9-1.52,1.23-3.38.9-5.12-.32-1.73-1.3-3.35-2.69-4.45-.28-.22-.33-.63-.11-.91.22-.28.63-.33.91-.11,1.63,1.28,2.78,3.19,3.17,5.23.38,2.04,0,4.23-1.06,6.02-.12.2-.34.32-.56.32Z"/>
        <path class="cls-9" d="m427.5,208.99c-.35,0-.63-.27-.65-.62-.02-.36.26-.66.62-.68,1.79-.08,3.57-1.18,4.64-2.87.96-1.52,1.38-3.53,1.19-5.64-.11-1.23-.41-2.2-.9-2.96-.57-.87-1.43-1.44-2.29-1.52-.36-.03-.62-.35-.59-.71.03-.36.34-.63.71-.59,1.26.11,2.48.9,3.27,2.1.61.94.97,2.1,1.1,3.55.22,2.4-.27,4.69-1.38,6.46-1.29,2.05-3.47,3.38-5.68,3.47,0,0-.02,0-.03,0Z"/>
        <path class="cls-9" d="m419.18,176.76c-.24,0-.48-.14-.59-.37-2.6-5.43-7.57-9.77-13.3-11.62-.34-.11-.53-.48-.42-.82.11-.34.47-.53.82-.42,6.06,1.96,11.32,6.55,14.08,12.3.15.32.02.71-.31.87-.09.04-.19.06-.28.06Z"/>
      </g>
      <path class="cls-24" d="m231.98,162.68s20.09-7.83,26.48-25.35c0,0-26.46-44.79-46.3-53.61l-9.19,46.34s18.03,22.62,29.01,32.62Z"/>
      <path class="cls-24" d="m153.5,103.29c8.22-11.44,22.89-20.62,33.25-20.8,19.93-.34,31.09.8,36.99,12.06,5.71,10.9,8.35,33.89,6.43,43.16-3.22,15.55-12.6,18.23-17.42,35.38-4.02,14.29-1.45,33.83-1.45,33.83,0,0-14.91,11.26-40.03,11.26-28.81,0-49.09-6.33-53.61-13.58,0,0,2.43-10.24,11.83-43.81,7-25,14.91-44.86,24-57.5Z"/>
      <path class="cls-5" d="m171.45,218.92c-.12,0-.23,0-.35,0-26.83-.11-49.11-5.94-54.19-14.16-.22-.35-.11-.82.24-1.03.35-.22.81-.11,1.03.24,4.07,6.59,23.55,13.33,52.92,13.45.12,0,.23,0,.35,0,22.29,0,36.56-9.08,38.93-10.7-.33-3.03-2.05-20.63,1.68-33.69,2.04-7.15,5.9-13.24,9.63-19.12,5.38-8.48,10.46-16.5,10.17-27.16-.01-.41.32-.76.73-.77.45-.02.76.31.77.73.3,11.12-5.14,19.71-10.4,28.01-3.67,5.8-7.47,11.79-9.46,18.73-3.99,13.96-1.61,33.34-1.59,33.54.03.27-.08.53-.3.69-.15.11-15.31,11.24-40.18,11.24Z"/>
      <path class="cls-13" d="m179.51,87.6c1.59,11.71,34.67,28.3,34.67,28.3,0,0,5.8-21.61,3.86-26.59-1.95-4.97-8.6-8.02-20.15-8.05-11.55-.03-18.96,2.08-18.38,6.34Z"/>
      <path class="cls-4" d="m214.18,115.9s2.7-10.06,3.8-18.04c-1.78,1.85-4.67,4.02-8.98,4.95-7.26,1.57-12.86.98-15.77.41,9.7,7.03,20.95,12.67,20.95,12.67Z"/>
      <path class="cls-8" d="m191.88,64.84s-19.93-8.57-16.66-35.22c2.94-23.96,24.46-34.95,40.45-27.11,0,0,13.2-3.36,22.29,14.68,9.09,18.04-14.17,34.53-14.17,34.53l-31.9,13.12Z"/>
      <path class="cls-13" d="m183.52,86.43c6.51-15.93,6.45-32.15,6.45-32.15l13.15-.6,13.8,2.94c-2.35,8.62-6.32,25.03-4.13,32.65.41,1.42-7.33,5.06-14.31,4.31-7.85-.84-15.36-6.17-14.96-7.16Z"/>
      <path class="cls-18" d="m212.16,83.71c0-5.43,1.21-12.3,2.57-18.34l-21.56-11.23-3.2.15s.02,6.75-1.71,15.81c3.34,11.63,21.84,22.63,24.59,22.63s4.96-3.88,4.96-3.88c-.98-2.12-2.86-3.86-5.66-5.14Z"/>
      <path class="cls-27" d="m217.47,83.06c-2.89.2-18.59-4.07-24.16-21.72-2.97-9.43-2.57-20.44-.5-26.98s11.46-26.71,31.58-17.86c0,0,16.3,7.3,13.22,34.17-2.77,24.15-16.91,32.17-20.14,32.39Z"/>
      <path class="cls-8" d="m229.61,14.91c.94,14.32-21.34,4.08-31.02,24.07-1.27,3.8-1.14,8.75-6.29,8.92l-5.16-7.14s-1.71-14.49,8.28-26c9.97-11.49,31.6-10.82,34.19.15Z"/>
      <g>
        <path class="cls-8" d="m227.25,40.31c.64,1.19,2.44-.3,6.73.27,2.95.39,4.38,2.71,4.73,2.03.37-.73-.4-3.88-4.99-4.79-4.69-.93-7.31.92-6.47,2.49Z"/>
        <path class="cls-8" d="m217.8,39.55c-.44,1.58-3.58-.42-8.03.28-4.63.74-6.27,3.15-7.04,2.28-.39-.44,1.61-4.54,7.57-5.35,5.3-.72,7.94,1.2,7.5,2.78Z"/>
      </g>
      <path class="cls-19" d="m221.79,62.41s.39-.02,1.13-.11c.77-.11,1.84-.3,3.08-.91.62-.31,1.26-.74,1.84-1.38.28-.33.56-.69.76-1.14.1-.22.21-.45.25-.73.03-.13.04-.28.04-.44,0-.08,0-.15,0-.25l-.02-.14v-.07s-.01-.03-.01-.03v-.02s-.06-.21-.06-.21c.03.03-.22-.43-.37-.56-.1-.1-.2-.19-.28-.26l-.49-.39-.91-.71c-.59-.48-1.15-1-1.65-1.56-1-1.13-1.71-2.47-1.99-3.85-.29-1.38-.16-2.74.1-3.88.26-1.14.66-2.06.93-2.69.31-.63.48-.98.48-.98v-.02c.1-.18.02-.4-.16-.48-.17-.08-.38-.02-.47.14,0,0-.21.36-.58.98-.34.64-.83,1.57-1.21,2.79-.37,1.21-.65,2.73-.44,4.37.2,1.64.93,3.32,1.98,4.71.53.7,1.12,1.34,1.72,1.91l.9.82.4.37.14.14s-.15-.29-.06-.08c-.11-.38-.03-.1-.06-.19h0s0,0,0,0h0s0,0,0,0c0,0,0,.02,0,.03,0,.03,0,.07-.03.12-.02.09-.04.21-.08.33-.06.24-.2.47-.35.7-.31.44-.73.82-1.18,1.12-.89.59-1.83.89-2.45,1.05-.66.17-1.08.24-1.08.24-.34.06-.56.39-.5.72.06.31.34.53.65.51h.04Z"/>
      <path class="cls-27" d="m192.74,46.35s-2.48-8.27-7.64-4.94c-2.55,1.65-2.78,6.98-.8,10.78,1.49,2.87,5.35,5.51,8.21,3.72,0,0,2.58-.72.22-9.57Z"/>
      <path class="cls-18" d="m186.82,50.76c.99,2.34,2.95,3.48,3.96,2.72s1.03-3.27.04-5.61c-.99-2.34-2.62-3.62-3.63-2.86-1.02.76-1.36,3.42-.37,5.76Z"/>
      <g>
        <path class="cls-3" d="m209.31,63.61s4.13,1.68,8.69,2.67c4.29.93,8.01.48,8.01.48,0,0-1.91,7.63-9.7,5.8-5.89-1.38-7-8.94-7-8.94Z"/>
        <path class="cls-10" d="m216.44,70.54c4.49,1.05,5.93-2.27,5.93-2.27,0,0-2.59-.12-5.78-.97-4.05-1.08-5.3-1.67-5.3-1.67,0,0,.76,3.88,5.14,4.91Z"/>
      </g>
      <g>
        <path class="cls-3" d="m227.84,46.95s1.16,2.17,4.07,2.29c2.27.09,2.11-1.6,3.64-1.98.63-.15,1.75.48,1.95,1.55,0,0-.66-.73-1.41-.11-.61.5-1.9,2.9-4.35,2.62-2.96-.34-4.04-2.52-3.9-4.38Z"/>
        <path class="cls-3" d="m216.29,46.51s-1.49,2.27-4.78,1.88c-2.19-.26-2.66-1.63-4.16-2.19-.69-.26-2.06.09-2.54,1.23,0,0,.9-.65,1.6.24.57.72,2.14,2.93,4.79,3.09,2.84.17,4.85-1.79,5.09-4.25Z"/>
      </g>
      <path class="cls-27" d="m178.61,112.23s5.06,41.72,16.73,63.72c16.47,31.07,47.33,52.5,47.33,52.5l-2.49,13.47s-43.84-10.97-69.67-51.64c-18.59-29.26-19.23-72.39-19.23-72.39l27.33-5.67Z"/>
      <path class="cls-27" d="m242.59,227.79c4.84,2.65,8.53,2.21,14.28,1.62s10.5-1.75,11-.25c.76,2.27-7.42,4.81-10.45,6.28,0,0,4.24,8.25,12.41,14.14,0,0-2.62.98-7.87-1.18,0,0-.21,3.13-6.09.38,0,0,.35,1.62-2.53,1.43-3.88-.25-9.95-4.36-13.17-8.29s2.42-14.14,2.42-14.14Z"/>
      <path class="cls-2" d="m20.67,295.62h474v64.33c0,43.23-35.1,78.33-78.33,78.33H99c-43.23,0-78.33-35.1-78.33-78.33v-64.33h0Z"/>
      <path class="cls-18" d="m240.17,242.58c-.05,0-.11,0-.16-.02-.44-.11-44.39-11.5-70.06-51.92-18.48-29.08-19.32-72.29-19.33-72.73,0-.36.28-.65.64-.66.4.01.65.28.66.64,0,.43.85,43.28,19.12,72.05,25.39,39.97,68.85,51.25,69.28,51.36.35.09.56.44.47.79-.07.3-.34.49-.63.49Z"/>
      <path class="cls-31" d="m20.67,295.62v12.79h383.33v58.02c0,34.53-27.99,62.53-62.53,62.53H81.86c-13.32,0-25.66-4.18-35.8-11.28,13.94,12.8,32.53,20.61,52.95,20.61h317.33c43.26,0,78.33-35.07,78.33-78.33v-64.33H20.67Z"/>
      <rect class="cls-22" x="20.67" y="295.62" width="474" height="12.79"/>
      <path class="cls-16" d="m502.33,286.29H6.33c-3.5,0-6.33,2.84-6.33,6.33h0c0,3.5,2.84,6.33,6.33,6.33h496c3.5,0,6.33-2.84,6.33-6.33h0c0-3.5-2.84-6.33-6.33-6.33Z"/>
      <path class="cls-18" d="m396.75,250.7c-.41,0-.82-.03-1.23-.1-2.08-.33-3.88-1.44-4.93-3.06-.2-.3-.11-.7.19-.9.3-.2.7-.11.9.19.85,1.31,2.32,2.21,4.04,2.48,1.72.27,3.4-.14,4.6-1.12.28-.23.69-.19.91.09.23.28.19.69-.09.91-1.2.98-2.75,1.5-4.39,1.5Z"/>
      <path class="cls-18" d="m253.9,250.9c-2.32,0-5.48-1.51-6.95-2.29-4.33-2.29-7.18-6.14-7.3-6.3-.21-.29-.15-.7.14-.91.29-.21.7-.15.91.14.03.04,2.8,3.77,6.86,5.92,3.85,2.04,6.45,2.45,7.32,1.95.15-.09.33-.24.35-.66.01-.24.15-.45.36-.55.21-.1.46-.08.66.05.63.44,2.54,1.5,3.84,1.15.99-.27,1.24-.71,1.24-.94,0-.23.1-.47.3-.59.19-.13.44-.15.65-.05.04.02,3.27,1.66,6.06,1.41-1.56-1.24-4.4-3.64-6.41-6.13-2.83-3.5-5.03-7.3-5.05-7.34-.09-.16-.11-.35-.06-.52.06-.17.18-.32.35-.39.03-.01,3.13-1.43,5.95-2.51,3.01-1.15,4.28-2.61,4.16-2.98-.09-.28-1.74-.08-3.64.15-1.41.17-3.16.38-5.48.58-7.84.7-13,.35-15.77-1.07-8.06-4.12-29.86-25.97-39.53-39.62-12.07-17.05-14.36-30.94-14.38-31.08-.06-.35.19-.69.54-.74.35-.05.69.19.74.54.02.14,2.27,13.75,14.16,30.53,10.32,14.57,31.75,35.48,39.06,39.21,2.51,1.28,7.58,1.6,15.06.93,2.3-.2,4.04-.41,5.44-.58,3.35-.4,4.6-.55,5.03.73.56,1.67-2.07,3.51-4.93,4.6-2,.77-4.16,1.71-5.21,2.18.73,1.2,2.47,3.96,4.57,6.55,2.75,3.39,7.25,6.74,7.3,6.77.19.14.29.38.26.62-.04.24-.2.44-.42.52-2.74.98-6.18-.24-7.66-.88-.26.49-.81,1.03-1.98,1.34-1.47.39-3.18-.35-4.15-.88-.2.37-.5.61-.75.76-.45.25-1,.36-1.62.36Z"/>
      <path class="cls-18" d="m255.87,249.44c-.1,0-.21-.02-.31-.08-.08-.04-1.99-1.07-3.46-2.63-.25-.26-.23-.67.03-.92.26-.25.67-.23.92.03,1.32,1.4,3.11,2.36,3.12,2.37.32.17.44.56.27.88-.12.22-.34.34-.57.34Z"/>
      <path class="cls-18" d="m262.04,249.02c-.1,0-.21-.02-.31-.08-.08-.04-1.99-1.07-3.46-2.63-.25-.26-.23-.67.03-.92.26-.25.67-.23.92.03,1.32,1.4,3.11,2.36,3.12,2.37.32.17.44.56.27.88-.12.22-.34.34-.57.34Z"/>
      <path class="cls-18" d="m184.98,201.3c-.12,0-.24-.03-.35-.1-2.98-1.92-5.41-4.76-6.87-7.99-.15-.33,0-.71.33-.86.33-.15.71,0,.86.33,1.35,3,3.62,5.64,6.39,7.43.3.19.39.6.19.9-.12.19-.33.3-.55.3Z"/>
      <path class="cls-24" d="m156.61,172.73s22,2.5,39-9.5c0,0-12.64-71.12-32.5-64.5-31.5,10.5-6.5,74-6.5,74Z"/>
      <g>
        <path class="cls-7" d="m104.16,482.79h-12.72s-2.12-32.45,12.19-58.4l15.9,9.19s-13.78,18.39-15.37,49.21Z"/>
        <path class="cls-7" d="m127.48,431.42c-1.57,4.02-9.12,4.74-16.88,1.6-7.75-3.14-12.77-8.95-11.2-12.98,1.57-4.02,9.12-4.74,16.88-1.6,7.75,3.14,12.77,8.95,11.2,12.98Z"/>
      </g>
      <g>
        <path class="cls-7" d="m405.5,482.79h12.72s2.12-32.45-12.19-58.4l-15.9,9.19s13.78,18.39,15.37,49.21Z"/>
        <path class="cls-7" d="m382.18,431.42c1.57,4.02,9.12,4.74,16.88,1.6,7.75-3.14,12.77-8.95,11.2-12.98-1.57-4.02-9.12-4.74-16.88-1.6-7.75,3.14-12.77,8.95-11.2,12.98Z"/>
      </g>
      <path class="cls-5" d="m161.46,173.68c-3.02,0-4.87-.2-4.94-.21-.28-.03-.51-.21-.61-.47-.66-1.67-15.96-41.08-6.3-62.77.17-.38.61-.55.99-.38.38.17.55.61.38.99-8.89,19.94,4.5,56.79,6.16,61.18,3.17.26,22.4,1.33,37.57-9.09-.92-2.71-5.02-15.04-6.35-22.58-.07-.41.2-.8.61-.87.41-.07.8.2.87.61,1.47,8.34,6.42,22.74,6.47,22.89.11.32,0,.66-.28.86-12.18,8.59-27.02,9.84-34.58,9.84Z"/>
      <path class="cls-5" d="m192.11,151.48c-.08,0-.15-.01-.23-.04-.39-.13-.61-.55-.49-.94,1.11-3.5.97-9.19.97-9.25-.01-.41.31-.76.73-.77.41-.02.76.31.77.73,0,.24.16,6-1.03,9.75-.1.32-.4.52-.71.52Z"/>
      <path class="cls-5" d="m230.29,140.61c-.24,0-.47-.11-.62-.32-.24-.34-.15-.81.19-1.04.05-.03,4.79-3.4,5.5-8.17.06-.41.44-.7.85-.63.41.06.69.44.63.85-.8,5.42-5.91,9.03-6.12,9.18-.13.09-.28.13-.43.13Z"/>
      <path class="cls-5" d="m231.98,163.43c-.2,0-.39-.08-.54-.23l-9.11-9.34c-.29-.3-.28-.77.01-1.06.3-.29.77-.28,1.06.01l8.76,8.98c2.92-1.2,19.31-8.54,25.05-23.93.14-.39.58-.59.96-.44.39.14.59.58.44.96-6.52,17.49-26.18,24.92-26.38,24.99-.08.03-.17.05-.26.05Z"/>
      <path class="cls-5" d="m203.34,155.87c-.36,0-.68-.26-.74-.63-.07-.41.21-.79.62-.86,6.44-1.06,12.3-4.72,16.07-10.05.24-.34.71-.42,1.05-.18.34.24.42.71.18,1.05-4,5.66-10.21,9.54-17.05,10.67-.04,0-.08,0-.12,0Z"/>
      <path class="cls-5" d="m208.6,158.44c-.36,0-.67-.25-.74-.62-.07-.41.2-.8.61-.87,2.07-.37,4.05-1.24,5.73-2.51.33-.25.8-.18,1.05.15.25.33.18.8-.15,1.05-1.87,1.41-4.07,2.38-6.37,2.79-.04,0-.09.01-.13.01Z"/>
      <g>
        <path class="cls-17" d="m172.76,49.19c-.33,0-.61-.25-.65-.58-.31-3.03-1.34-6.45-2.34-9.76-.85-2.82-1.73-5.74-2.15-8.39-1-6.37.76-11.47,2.8-16.04,2.66-5.93,8.43-9.84,14-9.52.36.02.63.33.61.69s-.32.63-.69.61c-5.07-.29-10.29,3.31-12.73,8.75-2.69,6-3.47,10.43-2.7,15.31.4,2.56,1.27,5.43,2.11,8.21,1.02,3.37,2.07,6.85,2.39,10.01.04.36-.22.68-.58.71-.02,0-.04,0-.07,0Z"/>
        <path class="cls-17" d="m176.79,58.36s-.06,0-.09,0c-.36-.05-.6-.38-.55-.73.38-2.75.16-5.62-.66-8.28-.11-.34.09-.71.43-.81.34-.11.71.09.81.43.87,2.84,1.11,5.9.7,8.84-.04.33-.32.56-.64.56Z"/>
        <path class="cls-17" d="m171.24,72.14c-.31,0-.59-.23-.64-.55-.06-.35.19-.69.54-.74,6.55-1.03,10.69-5.06,11.36-11.07.04-.36.36-.62.72-.57.36.04.61.36.57.72-.72,6.54-5.38,11.1-12.45,12.21-.03,0-.07,0-.1,0Z"/>
        <path class="cls-17" d="m196,35.3c-.1,0-.19-.02-.29-.07-.32-.16-.45-.55-.29-.87,3.57-7.21,10.71-12.52,18.65-13.85.74-.12,1.48-.22,2.23-.31,1.79-.22,3.49-.43,5.07-1.07,1.98-.8,4.03-2.71,3.85-5.02-.03-.36.24-.67.6-.7.36-.03.67.24.7.6.23,2.96-2.25,5.35-4.66,6.32-1.74.7-3.6.93-5.4,1.15-.73.09-1.45.18-2.17.3-7.53,1.26-14.32,6.3-17.7,13.15-.11.23-.34.36-.58.36Z"/>
        <path class="cls-17" d="m219.49,15.47c-.19,0-.38-.09-.51-.25-.22-.28-.17-.69.11-.91,1.48-1.16,2.61-2.79,3.18-4.58.11-.34.47-.53.82-.42.34.11.53.47.42.82-.65,2.04-1.93,3.89-3.62,5.21-.12.09-.26.14-.4.14Z"/>
        <path class="cls-17" d="m180.09,23.07c-.05,0-.1,0-.16-.02-.35-.09-.56-.44-.47-.79,1.67-6.67,4.83-10.02,8.21-13.14,3.74-3.45,8.59-5.64,13.65-6.14.35-.03.68.23.71.58.04.36-.23.68-.58.71-4.79.48-9.37,2.54-12.9,5.8-3.22,2.98-6.25,6.18-7.83,12.5-.07.3-.34.49-.63.49Z"/>
        <path class="cls-17" d="m213.29,5.65c-.15,0-.3-.05-.42-.15-1.27-1.07-3.03-1.6-4.68-1.41-.36.03-.68-.22-.72-.57-.04-.36.22-.68.57-.72,2-.23,4.12.41,5.66,1.71.27.23.31.64.08.92-.13.15-.31.23-.5.23Z"/>
        <path class="cls-17" d="m190.98,38.76s-.02,0-.02,0c-.36-.01-.64-.31-.62-.67.14-3.67,1.75-7.22,4.41-9.75.26-.25.67-.24.92.03.25.26.24.67-.03.92-2.42,2.29-3.88,5.52-4.01,8.85-.01.35-.3.63-.65.63Z"/>
        <path class="cls-17" d="m186.66,37.47c-.3,0-.57-.21-.64-.52-.44-2.13.06-4.47,1.33-6.23.21-.29.62-.36.91-.15.29.21.36.62.15.91-1.07,1.48-1.48,3.43-1.11,5.21.07.35-.15.7-.5.77-.04,0-.09.01-.13.01Z"/>
        <path class="cls-17" d="m237.36,27.64c-.29,0-.55-.19-.63-.49-1.17-4.48-3.83-8.52-7.48-11.37-.28-.22-.33-.63-.11-.91.22-.28.63-.33.91-.11,3.88,3.02,6.7,7.31,7.94,12.06.09.35-.12.7-.46.79-.06.01-.11.02-.16.02Z"/>
        <path class="cls-17" d="m176.31,13.25c-.12,0-.24-.03-.35-.1-.3-.19-.39-.59-.2-.9,1.27-2,3.43-3.42,5.76-3.8.35-.06.69.18.75.54.06.35-.18.69-.54.75-1.98.32-3.8,1.53-4.88,3.21-.12.19-.33.3-.55.3Z"/>
        <path class="cls-17" d="m186.98,58.95c-.13,0-.26-.04-.37-.12-7.49-5.24-10.49-16.51-9.59-24.92.04-.36.36-.61.72-.58.36.04.62.36.58.72-.84,7.84,2.04,18.82,9.04,23.72.29.21.37.61.16.91-.13.18-.33.28-.53.28Z"/>
        <path class="cls-17" d="m182.06,30.84s-.03,0-.04,0c-.36-.02-.63-.33-.61-.69.35-5.98,2.99-11.84,7.23-16.07.25-.25.67-.25.92,0,.25.25.25.67,0,.92-4.02,4.01-6.52,9.56-6.85,15.23-.02.35-.31.61-.65.61Z"/>
        <path class="cls-17" d="m231.02,12.17c-.21,0-.41-.1-.54-.28-2.42-3.54-6.58-5.73-10.87-5.73-.01,0-.02,0-.03,0-.36,0-.65-.29-.65-.65,0-.37.3-.65.68-.65,4.71,0,9.28,2.41,11.94,6.3.2.3.13.7-.17.9-.11.08-.24.11-.37.11Z"/>
      </g>
      <g>
        <path class="cls-29" d="m284.56,216.04c1.79-.89,11.61,2.53,22.61,4.83s22.74,2.87,24.75,3.78c2.01.91,2.21,7.28,1.78,13.91-.43,6.63-1.41,12.06-3.97,13.38-2.56,1.32-14.87.04-26.72-1.99s-21.96-5.35-24.09-7.48-1.06-9.03-.07-14.71c.99-5.67,3.59-10.67,5.72-11.73Z"/>
        <path class="cls-21" d="m289.55,234.86c0,1.79-1.53,3.3-3.41,3.37-1.88.07-3.41-1.33-3.41-3.13s1.53-3.3,3.41-3.37c1.88-.07,3.41,1.33,3.41,3.13Z"/>
        <path class="cls-21" d="m293.87,228.46c0,.83-.71,1.53-1.59,1.56-.88.03-1.59-.61-1.59-1.44s.71-1.53,1.59-1.56c.88-.03,1.59.62,1.59,1.44Z"/>
        <path class="cls-21" d="m289.33,220.75c0,1.17-.97,2.16-2.16,2.2-1.19.04-2.16-.87-2.16-2.05s.97-2.16,2.16-2.2c1.19-.04,2.16.87,2.16,2.05Z"/>
        <path class="cls-21" d="m301.36,240.32c0,1.17-.97,2.16-2.16,2.2-1.19.04-2.16-.87-2.16-2.05s.97-2.16,2.16-2.2c1.19-.04,2.16.87,2.16,2.05Z"/>
        <path class="cls-21" d="m320.67,242.88c0,1.73-1.53,3.18-3.41,3.25-1.88.07-3.41-1.28-3.41-3s1.53-3.18,3.41-3.25c1.88-.07,3.41,1.28,3.41,3Z"/>
        <path class="cls-21" d="m323.16,236.17c0,.83-.76,1.53-1.7,1.56-.94.03-1.7-.61-1.7-1.44s.76-1.53,1.7-1.56c.94-.03,1.7.61,1.7,1.44Z"/>
        <path class="cls-21" d="m330.43,228.16c0,1.24-1.07,2.29-2.38,2.33-1.32.05-2.38-.92-2.38-2.17s1.07-2.29,2.38-2.33c1.32-.05,2.38.92,2.38,2.17Z"/>
        <path class="cls-21" d="m329.07,242.58c0,.76-.61,1.4-1.36,1.42-.75.03-1.36-.57-1.36-1.33s.61-1.4,1.36-1.42c.75-.03,1.36.57,1.36,1.33Z"/>
      </g>
      <path class="cls-27" d="m290.5,213.42c6.79,8.16,6.27,7.3,9.14,12.77,2.87,5.47,3.11,12.47,4.86,12.47.81,0,1.35-3.06,1.12-6.5-.22-3.25-.87-6.44-.62-6.5.5-.12,1.88,2.12,3.4,5.57,1.48,3.36,3.33,8.44,4.77,7.72,1.44-.72.32-5.84-.59-8.87-.91-3.03-2.9-7.51-2.61-7.78.29-.27,1.44,1.15,3.4,3.89,1.96,2.74,3.04,6.67,4.47,6.09,1.44-.58-.5-8.17-3-12.5-4.22-7.31-7.58-10.25-11.33-14l-8.56,2.11-4.44,5.52Z"/>
      <path class="cls-18" d="m312.88,239.67c-.16,0-.31-.03-.47-.09-1.28-.47-2.38-2.88-3.92-6.49-.24-.55-.47-1.09-.69-1.6-.83-1.88-1.53-3.2-2.04-4.05.02.11.03.23.04.34.16,1.23.36,2.75.47,4.33.17,2.59-.06,5.84-.99,6.83-.28.3-.58.37-.79.37-1.42,0-1.94-2-2.73-5.02-.61-2.34-1.37-5.26-2.7-7.8l-.22-.43c-2-3.81-2.28-4.35-5.54-8.47l-4.92-.93c-.35-.07-.58-.41-.52-.76.07-.35.4-.59.76-.52l5.16.97c.15.03.29.11.39.23,3.48,4.39,3.75,4.9,5.83,8.86l.22.43c1.4,2.67,2.18,5.67,2.81,8.07.4,1.54.94,3.62,1.38,3.99.34-.55.77-2.73.56-5.75-.1-1.54-.3-3.04-.46-4.25-.3-2.28-.36-2.75.33-2.92.45-.11,1.38-.34,4.15,5.94.22.51.46,1.05.69,1.61.79,1.86,2.43,5.73,3.2,5.79.53-.27.52-3.31-.93-8.1-.39-1.29-.98-2.86-1.5-4.25-1.21-3.21-1.4-3.76-.93-4.19.16-.15.38-.23.61-.2.58.06,1.23.65,3.76,4.19.73,1.02,1.31,2.13,1.81,3.12.55,1.07,1.3,2.52,1.68,2.38.33-.13.71.03.85.36.13.33-.03.71-.36.85-1.47.58-2.33-1.07-3.32-2.99-.49-.94-1.04-2.01-1.72-2.96-.67-.93-1.19-1.64-1.6-2.17.14.39.29.79.43,1.16.53,1.41,1.13,3,1.53,4.33.96,3.17,2.26,8.63.26,9.64-.18.09-.38.14-.58.14Z"/>
      <g>
        <path class="cls-12" d="m41.83,286.29h420.5s-8.5-10.2-21.5-11.33c-13-1.13-18,4.53-18,4.53,0,0-20.83-24.92-54.17-24.17s-51.33,19.64-51.33,19.64c0,0-1.5-7.36-15.5-9.63-14-2.27-22.5,9.06-22.5,9.06,0,0-17.5-23.79-43.5-29.45s-49.5,9.06-49.5,9.06c0,0-6.5-10.76-22-6.8-15.5,3.96-19,14.16-19,14.16,0,0-22-11.89-47-6.8s-30.5,21.52-30.5,21.52c0,0-6-4.53-15.5-1.13-9.5,3.4-10.5,11.33-10.5,11.33Z"/>
        <g>
          <path class="cls-6" d="m275.01,281.3c-.36,0-.71-.18-.91-.51-10.73-17.4-28.25-28.98-46.87-30.99-.58-.06-1.01-.59-.94-1.17.06-.58.58-1.01,1.17-.94,19.27,2.08,37.38,14.04,48.45,31.99.31.5.15,1.16-.35,1.46-.17.11-.37.16-.56.16Z"/>
          <path class="cls-6" d="m235.36,260.12c-.22,0-.44-.07-.62-.2-5.57-4.06-12.69-5.2-19.03-3.07-.56.19-1.16-.11-1.35-.67-.19-.56.11-1.16.67-1.35,6.99-2.35,14.83-1.09,20.96,3.37.48.35.58,1.01.23,1.49-.21.29-.53.44-.86.44Z"/>
          <path class="cls-6" d="m316.22,281.91c-.38,0-.74-.2-.93-.55-3.44-6.21-9.81-10.05-16.25-9.81-.59.01-1.08-.43-1.11-1.02-.02-.59.43-1.08,1.02-1.11,7.24-.29,14.37,3.99,18.19,10.9.28.51.1,1.16-.42,1.45-.16.09-.34.13-.51.13Z"/>
          <path class="cls-6" d="m182.73,260.1c-.31,0-.62-.14-.83-.4-2.78-3.5-6.73-5.85-10.83-6.45-4.09-.6-8.42.54-11.87,3.12-.47.35-1.14.25-1.49-.22-.35-.47-.25-1.14.22-1.49,3.9-2.91,8.81-4.2,13.45-3.52,4.63.67,9.08,3.31,12.19,7.23.37.46.29,1.13-.17,1.5-.2.16-.43.23-.66.23Z"/>
          <path class="cls-6" d="m181.99,271.49c-.46,0-.89-.31-1.02-.77-.96-3.39-3.91-5.93-7-6.04-.59-.02-1.05-.51-1.03-1.1.02-.59.48-1.04,1.1-1.03,4,.13,7.77,3.32,8.98,7.58.16.57-.17,1.15-.73,1.31-.1.03-.19.04-.29.04Z"/>
          <path class="cls-6" d="m149.85,277.71c-.3,0-.61-.13-.82-.38-10.99-13.16-28.15-19.08-43.73-15.08-.57.15-1.15-.2-1.3-.77-.15-.57.2-1.15.77-1.3,16.36-4.21,34.38,1.98,45.89,15.77.38.45.32,1.12-.13,1.5-.2.17-.44.25-.68.25Z"/>
          <path class="cls-6" d="m98.39,273.07c-.27,0-.55-.11-.76-.32-.41-.42-.41-1.09,0-1.5,4.38-4.34,10.45-6.34,16.22-5.38.58.1.97.65.87,1.23-.1.58-.65.97-1.23.87-5.1-.86-10.47.93-14.37,4.79-.21.21-.48.31-.75.31Z"/>
          <path class="cls-6" d="m75.44,282.78s-.1,0-.15-.01c-.58-.08-.99-.62-.91-1.2,1.24-8.92,7.87-16.53,15.76-18.11.58-.12,1.14.26,1.25.83.12.58-.26,1.14-.83,1.25-7.03,1.41-12.95,8.27-14.07,16.32-.07.53-.53.92-1.05.92Z"/>
          <path class="cls-6" d="m66.87,283.4c-.34,0-.68-.17-.88-.47-2.51-3.74-7.39-5.11-11.11-3.13-.52.28-1.16.08-1.44-.44-.28-.52-.08-1.16.44-1.44,4.67-2.48,10.77-.8,13.87,3.83.33.49.2,1.15-.29,1.48-.18.12-.39.18-.59.18Z"/>
          <path class="cls-6" d="m412.42,280.84c-.32,0-.64-.14-.85-.42-9.84-12.86-25.2-19.59-40.09-17.55-.58.08-1.12-.33-1.2-.91-.08-.58.33-1.12.91-1.2,15.64-2.14,31.77,4.9,42.07,18.37.36.47.27,1.14-.2,1.49-.19.15-.42.22-.65.22Z"/>
          <path class="cls-6" d="m326.9,278.51c-.3,0-.6-.13-.81-.38-.38-.45-.33-1.12.12-1.5,6.52-5.54,14.24-9.13,22.33-10.36.58-.09,1.12.31,1.21.89.09.58-.31,1.12-.89,1.21-7.7,1.18-15.06,4.59-21.27,9.88-.2.17-.45.25-.69.25Z"/>
          <path class="cls-6" d="m362.3,271.79c-.36,0-.71-.18-.91-.52-.3-.5-.14-1.16.37-1.46,6.71-4.02,15.17-4.3,22.08-.74.52.27.73.91.46,1.43-.27.52-.91.73-1.43.46-6.26-3.23-13.93-2.97-20.01.67-.17.1-.36.15-.55.15Z"/>
          <path class="cls-6" d="m451.32,284.35c-.26,0-.52-.1-.73-.29-3.23-3.03-7.63-4.48-11.77-3.9-.58.08-1.12-.32-1.2-.9-.08-.58.32-1.12.9-1.2,4.78-.67,9.83.99,13.53,4.45.43.4.45,1.08.05,1.5-.21.22-.49.34-.78.34Z"/>
        </g>
      </g>
      <g>
        <path class="cls-14" d="m196,321.79H36.5c-1.1,0-2-.9-2-2s.9-2,2-2h159.5c1.1,0,2,.9,2,2s-.9,2-2,2Z"/>
        <path class="cls-14" d="m258.5,321.79h-42c-1.1,0-2-.9-2-2s.9-2,2-2h42c1.1,0,2,.9,2,2s-.9,2-2,2Z"/>
        <path class="cls-14" d="m49.33,402.62c-.57,0-1.13-.24-1.53-.71-20.37-24.1-14.69-58.51-14.44-59.97.19-1.09,1.22-1.82,2.31-1.63,1.09.19,1.82,1.22,1.63,2.31-.06.34-5.59,34.05,13.56,56.7.71.84.61,2.11-.24,2.82-.38.32-.83.47-1.29.47Z"/>
        <path class="cls-14" d="m73,421.62c-.13,0-.25-.01-.38-.04-9.22-1.77-15.51-8.67-15.78-8.96-.74-.82-.67-2.09.15-2.82.82-.74,2.08-.67,2.82.15h0c.06.06,5.69,6.2,13.56,7.71,1.08.21,1.79,1.26,1.59,2.34-.18.96-1.02,1.62-1.96,1.62Z"/>
      </g>
      <path class="cls-31" d="m502.33,286.29h-29.33c3.5,0,6.33,2.84,6.33,6.33h0c0,3.5-2.84,6.33-6.33,6.33h29.33c3.5,0,6.33-2.84,6.33-6.33h0c0-3.5-2.84-6.33-6.33-6.33Z"/>
    </g>
  </g>
</svg>